<?xml version="1.0" encoding="utf-8"?>
<!-- Generator: Adobe Illustrator 19.2.1, SVG Export Plug-In . SVG Version: 6.00 Build 0)  -->
<svg version="1.1" id="Слой_1" xmlns="http://www.w3.org/2000/svg" xmlns:xlink="http://www.w3.org/1999/xlink" x="0px" y="0px"
	 viewBox="0 0 36 36" style="enable-background:new 0 0 36 36;" xml:space="preserve">
<style type="text/css">
	.st0{fill:none;}
</style>
<g>
	<path d="M13.4,21.6l1.1,1.1c0.6,0.6,1.7,0.7,2.3,0.2L30.4,7.6c0.2-0.2,0.3-0.4,0.4-0.6c0.1-0.2,0.1-0.4,0.1-0.7c0-0.2-0.1-0.4-0.1-0.7c-0.1-0.2-0.2-0.4-0.4-0.5c-0.2-0.2-0.4-0.3-0.6-0.4c-0.2-0.1-0.4-0.1-0.7-0.1c-0.2,0-0.4,0.1-0.7,0.1C28.3,5,28.1,5.1,28,5.3l-14.8,14C12.6,19.9,12.8,21,13.4,21.6z"/>
	<path d="M12.8,26.8c0.2-0.2,0.4-0.4,0.5-0.7c0.3-0.5,0.3-1.1,0.2-1.7c-0.1-0.6-0.4-1.1-0.9-1.4c-0.4-0.4-1-0.6-1.6-0.6c-0.6,0-1.1,0.2-1.6,0.5l-0.1,0.1l-0.2,0.2l-0.1,0.1C8.6,24,8.2,24.7,8,25.5c-0.5,1.8-0.6,4-2.5,5.3C3.1,32.5,10.5,29.3,12.8,26.8z"/>
</g>
</svg>
