<svg width="90" height="90" viewBox="0 0 90 90" fill="none" xmlns="http://www.w3.org/2000/svg">
<circle cx="45" cy="45" r="44" stroke="white" stroke-width="2"/>
<g clip-path="url(#clip0)">
<g clip-path="url(#clip1)">
<path d="M62.7085 50.8944L63.9846 48.7445L63.9932 48.6846C64.2794 48.2731 64.4563 47.7956 64.5071 47.297C64.5071 46.5947 64.1388 46.0722 62.9825 46.0722H57.8435C57.9235 45.724 57.992 45.3699 58.0491 45.0102C59.1988 37.5008 54.0433 30.481 46.5339 29.3313C39.0245 28.1814 32.0048 33.337 30.855 40.8464C30.6438 42.2262 30.6438 43.6302 30.855 45.0101C30.9064 45.3641 30.9749 45.7181 31.0606 46.0721H25.9216C24.7653 46.0721 24.397 46.5946 24.397 47.2969C24.4478 47.7955 24.6247 48.273 24.9109 48.6845L26.1871 50.8771L24.9451 53.0869C24.659 53.4983 24.4821 53.9758 24.4312 54.4744C24.4312 55.1768 24.7995 55.6992 25.9558 55.6992H29.9043V57.4123C29.8826 58.0073 30.0983 58.5865 30.5039 59.0225L30.5467 59.0739C30.9687 59.4971 31.5422 59.7344 32.1398 59.7334H56.79C58.0308 59.724 59.0302 58.713 59.0255 57.4722V55.7592H62.974C64.1303 55.7592 64.4985 55.2367 64.4985 54.5344C64.4477 54.0358 64.2708 53.5583 63.9846 53.1469L62.7085 50.8944ZM35.7714 34.2609C40.5698 29.4596 48.3519 29.4573 53.1533 34.2558C55.4611 36.5622 56.7571 39.6917 56.7557 42.9544C56.7575 44.0062 56.625 45.0538 56.3617 46.0721H55.1712C55.2683 45.7352 55.3511 45.3955 55.4196 45.0529C56.5204 39.0027 52.5082 33.2058 46.4582 32.1049C40.4081 31.0042 34.611 35.0162 33.5102 41.0664C33.2704 42.3844 33.2704 43.7349 33.5102 45.0529C33.5787 45.3955 33.6615 45.7352 33.7586 46.0721H32.568C31.4677 41.8456 32.6863 37.3524 35.7714 34.2609ZM36.6793 46.5175L36.6279 46.4661C36.3476 46.2083 35.9809 46.0646 35.6001 46.0636H35.2832C35.1396 45.6437 35.0251 45.2144 34.9406 44.7788C34.8259 44.1746 34.7685 43.5608 34.7693 42.9459C34.7693 37.5935 39.1082 33.2545 44.4606 33.2545C49.813 33.2545 54.152 37.5935 54.152 42.9459C54.1527 43.5608 54.0953 44.1745 53.9807 44.7788C53.8961 45.2144 53.7816 45.6437 53.6381 46.0636H53.3212C52.9403 46.0646 52.5736 46.2083 52.2933 46.4661L52.242 46.5175C51.9562 46.8039 51.7959 47.1921 51.7966 47.5967V49.2155H37.1332V47.5967C37.1316 47.1909 36.9682 46.8025 36.6793 46.5175ZM30.5467 49.875C30.1298 50.2998 29.8986 50.8729 29.9043 51.4681V54.2603H25.9644C26.0243 54.1318 26.1185 53.9691 26.1956 53.8406L27.6774 51.2711C27.8108 51.0437 27.8108 50.7619 27.6774 50.5345L26.1956 47.965C26.1185 47.828 26.0243 47.6738 25.9644 47.5453H35.6515C35.6561 47.5592 35.6561 47.5742 35.6515 47.5881V49.2069H32.1398C31.545 49.2081 30.9751 49.4454 30.5552 49.8664L30.5467 49.875ZM57.5694 57.4722C57.5648 57.9055 57.2147 58.2556 56.7814 58.2602H32.1398C31.9309 58.26 31.7306 58.1768 31.5831 58.0289C31.4507 57.8838 31.3774 57.6944 31.3775 57.4979V51.5024C31.3775 51.0672 31.7303 50.7144 32.1655 50.7144H56.79C56.9989 50.7146 57.1992 50.7978 57.3467 50.9456C57.4946 51.0932 57.5778 51.2935 57.578 51.5024L57.5694 57.4722ZM59.0255 54.2517V51.4681C59.0266 50.8705 58.7892 50.297 58.366 49.875C57.9461 49.4539 57.3762 49.2167 56.7814 49.2155H53.2612V47.5967C53.2566 47.5828 53.2566 47.5678 53.2612 47.5539H62.9654C62.8969 47.6652 62.8112 47.8194 62.7341 47.9564H62.7085L61.2267 50.5259C61.0933 50.7534 61.0933 51.0351 61.2267 51.2625L62.7085 53.8321C62.7855 53.9691 62.8798 54.1233 62.9397 54.2517H59.0255Z" fill="white"/>
<path d="M49.5555 39.9043C49.4545 39.801 49.3252 39.73 49.1838 39.7004L46.4772 39.1266L45.0982 36.7541C44.8963 36.4064 44.4507 36.2882 44.103 36.4903C43.9936 36.5537 43.9027 36.6447 43.8392 36.7541L42.4602 39.1523L39.7536 39.7261C39.36 39.8078 39.107 40.1931 39.1887 40.5868C39.2148 40.7127 39.2738 40.8295 39.3596 40.9252L41.2097 42.998L40.9185 45.7474C40.8744 46.147 41.1626 46.5068 41.5623 46.5509C41.6904 46.565 41.82 46.5449 41.9377 46.4925L44.4644 45.3191L46.9569 46.4326C47.3153 46.6147 47.7535 46.4718 47.9357 46.1133C47.9998 45.9872 48.0258 45.8452 48.0104 45.7045L47.7191 42.9552L49.5435 40.9338C49.8311 40.6529 49.8365 40.192 49.5555 39.9043ZM46.4087 42.2614C46.2712 42.4158 46.2058 42.6212 46.2288 42.8267L46.4258 44.6425L44.7642 43.8973C44.5761 43.8138 44.3613 43.8138 44.1732 43.8973L42.5116 44.6425L42.7086 42.8267C42.733 42.6045 42.6541 42.3835 42.4945 42.2271L41.3039 40.9081L43.0683 40.5398C43.2946 40.511 43.4943 40.3779 43.6079 40.1801L44.4644 38.6298L45.3723 40.1801C45.475 40.3601 45.6494 40.4878 45.852 40.5312L47.6335 40.9081L46.4087 42.2614Z" fill="white"/>
</g>
</g>
<defs>
<clipPath id="clip0">
<rect width="40.7" height="40.7" fill="white" transform="translate(24.6499 24.6499)"/>
</clipPath>
<clipPath id="clip1">
<rect width="40.1101" height="40.1101" fill="white" transform="translate(24.397 24.396)"/>
</clipPath>
</defs>
</svg>
