<svg width="90" height="90" viewBox="0 0 90 90" fill="none" xmlns="http://www.w3.org/2000/svg">
<g clip-path="url(#clip0)">
<g clip-path="url(#clip1)">
<g clip-path="url(#clip2)">
<path d="M46.8632 44.5225C46.7464 44.3497 46.5515 44.2463 46.3429 44.2463H44.5844L45.583 41.7498C45.712 41.4275 45.5552 41.0618 45.233 40.9329C44.9106 40.8037 44.545 40.9608 44.4161 41.283L43.0728 44.6414C42.9954 44.835 43.0189 45.0545 43.1359 45.2271C43.2528 45.3998 43.4477 45.5032 43.6562 45.5032H45.4147L44.4161 47.9997C44.2871 48.3219 44.4439 48.6877 44.7662 48.8165C44.8428 48.8472 44.9217 48.8617 44.9994 48.8617C45.2488 48.8617 45.4847 48.7122 45.583 48.4665L46.9263 45.1082C47.0038 44.9145 46.9802 44.6951 46.8632 44.5225Z" fill="white"/>
<path d="M62.9845 27.024C60.7526 24.7569 57.7775 23.4791 54.6074 23.426C51.444 23.3721 48.4241 24.6002 46.1046 26.8812C43.7224 29.2237 42.3562 32.4649 42.3562 35.7733V38.2008H40.298C39.2108 38.2008 38.3263 39.0854 38.3263 40.1726V49.5758C38.3263 50.6631 39.2108 51.5475 40.298 51.5475H42.3562V54.2775C42.3562 56.1733 41.5492 57.9953 40.1421 59.2762C38.7169 60.5735 36.8702 61.188 34.943 61.0066C31.5187 60.6842 28.8365 57.6334 28.8365 54.061C28.8365 53.714 28.5551 53.4326 28.2081 53.4326C27.861 53.4326 27.5796 53.714 27.5796 54.061C27.5796 56.0877 28.3102 58.0428 29.6367 59.5661C30.9845 61.1138 32.8272 62.0698 34.8252 62.2578C35.0877 62.2825 35.3486 62.2948 35.6078 62.2948C37.6054 62.2948 39.4922 61.5673 40.9882 60.2056C42.6563 58.687 43.6131 56.5263 43.6131 54.2775V51.5475H46.3863V53.9751C46.3863 56.9488 45.157 59.8633 43.0135 61.9711C40.9361 64.0139 38.2381 65.113 35.413 65.0657C32.5743 65.0182 29.9098 63.8735 27.9106 61.8426C25.909 59.8094 24.8067 57.1227 24.8067 54.2774V45.5459C24.8067 45.522 24.8261 45.5026 24.85 45.5026H27.5366C27.5605 45.5026 27.5798 45.522 27.5798 45.5459V51.339C27.5798 51.686 27.8612 51.9674 28.2082 51.9674C28.5553 51.9674 28.8367 51.686 28.8367 51.339V45.5459C28.8367 44.829 28.2535 44.2458 27.5366 44.2458H26.8216V40.8442C26.8216 40.4972 26.5402 40.2158 26.1932 40.2158C25.8461 40.2158 25.5648 40.4972 25.5648 40.8442V44.2458H24.8499C24.133 44.2458 23.5498 44.829 23.5498 45.5459V54.2774C23.5498 57.4548 24.7804 60.4547 27.0149 62.7243C29.2468 64.9914 32.2218 66.2693 35.392 66.3223C35.4577 66.3234 35.523 66.324 35.5885 66.324C38.6803 66.324 41.6233 65.1009 43.8947 62.8672C46.2769 60.5246 47.6431 57.2835 47.6431 53.9751V51.5475H49.7013C50.7885 51.5475 51.673 50.663 51.673 49.5758V40.1726C51.673 39.0854 50.7884 38.2009 49.7013 38.2009H47.6431V35.471C47.6431 33.5752 48.45 31.7532 49.8572 30.4723C51.2824 29.175 53.129 28.5606 55.0562 28.7419C58.4805 29.0642 61.1628 32.115 61.1628 35.6874C61.1628 36.0345 61.4442 36.3158 61.7912 36.3158C62.1383 36.3158 62.4196 36.0345 62.4196 35.6874C62.4196 33.6607 61.6891 31.7057 60.3626 30.1824C59.0148 28.6346 57.1721 27.6787 55.174 27.4906C52.8895 27.2756 50.7012 28.0044 49.0111 29.5429C47.3429 31.0615 46.3861 33.2222 46.3861 35.471V38.2009H43.6129V35.7734C43.6129 32.7996 44.8422 29.8852 46.9857 27.7774C49.0631 25.7345 51.7614 24.6361 54.5862 24.6828C57.4249 24.7303 60.0894 25.8749 62.0886 27.9058C64.0902 29.939 65.1925 32.6257 65.1925 35.4711V44.2026C65.1925 44.2264 65.1731 44.2458 65.1492 44.2458H62.4626C62.4387 44.2458 62.4194 44.2264 62.4194 44.2026V38.4095C62.4194 38.0624 62.138 37.781 61.791 37.781C61.4439 37.781 61.1625 38.0624 61.1625 38.4095V44.2026C61.1625 44.9195 61.7457 45.5026 62.4626 45.5026H63.1775V48.9042C63.1775 49.2513 63.4589 49.5327 63.8059 49.5327C64.153 49.5327 64.4343 49.2513 64.4343 48.9042V45.5026H65.1492C65.8661 45.5026 66.4493 44.9195 66.4493 44.2026V35.471C66.4496 32.2936 65.2189 29.2939 62.9845 27.024ZM49.7013 39.4578C50.0954 39.4578 50.4162 39.7785 50.4162 40.1726V49.5759C50.4162 49.9701 50.0954 50.2908 49.7013 50.2908H40.298C39.9038 50.2908 39.5831 49.97 39.5831 49.5759V40.1726C39.5831 39.7784 39.9039 39.4578 40.298 39.4578H49.7013Z" fill="white"/>
<path d="M25.4121 38.5493L24.7404 37.206C24.5853 36.8955 24.2078 36.7696 23.8973 36.9249C23.5869 37.0801 23.4611 37.4576 23.6163 37.768L24.288 39.1114C24.3981 39.3316 24.6199 39.4588 24.8505 39.4588C24.945 39.4588 25.0408 39.4375 25.1311 39.3924C25.4415 39.2372 25.5673 38.8597 25.4121 38.5493Z" fill="white"/>
<path d="M28.4894 36.9249C28.179 36.7696 27.8015 36.8956 27.6463 37.206L26.9747 38.5493C26.8195 38.8597 26.9453 39.2372 27.2557 39.3924C27.3459 39.4375 27.4418 39.4588 27.5362 39.4588C27.7667 39.4588 27.9887 39.3315 28.0988 39.1113L28.7704 37.768C28.9257 37.4576 28.7999 37.0801 28.4894 36.9249Z" fill="white"/>
<path d="M66.3833 51.9819L65.7116 50.6386C65.5565 50.3281 65.1791 50.2022 64.8685 50.3576C64.5581 50.5127 64.4322 50.8902 64.5875 51.2006L65.2592 52.544C65.3693 52.7642 65.5911 52.8914 65.8217 52.8914C65.9162 52.8914 66.012 52.8701 66.1023 52.825C66.4127 52.6698 66.5386 52.2923 66.3833 51.9819Z" fill="white"/>
<path d="M62.7438 50.3575C62.4334 50.2022 62.056 50.3282 61.9008 50.6386L61.2291 51.9819C61.0738 52.2923 61.1997 52.6698 61.5101 52.825C61.6004 52.8701 61.6962 52.8914 61.7907 52.8914C62.0212 52.8914 62.2431 52.7641 62.3532 52.5439L63.0249 51.2006C63.1801 50.8902 63.0543 50.5127 62.7438 50.3575Z" fill="white"/>
</g>
</g>
</g>
<circle cx="45" cy="45" r="44" stroke="white" stroke-width="2"/>
<defs>
<clipPath id="clip0">
<rect width="42.9" height="42.9" fill="white" transform="translate(23.5498 23.5498)"/>
</clipPath>
<clipPath id="clip1">
<rect width="42.9" height="42.9" fill="white" transform="translate(23.5498 23.5498)"/>
</clipPath>
<clipPath id="clip2">
<rect width="42.9" height="42.9" fill="white" transform="translate(23.5498 23.4233)"/>
</clipPath>
</defs>
</svg>
