<svg width="24" height="24" viewBox="0 0 24 24" fill="#000" xmlns="http://www.w3.org/2000/svg">
  <path fill-rule="evenodd" clip-rule="evenodd" d="M11.6076 23.8052C18.004 23.8052 23.1893 18.6199 23.1893 12.2235C23.1893 5.82715 18.004 0.641846 11.6076 0.641846C5.21118 0.641846 0.0258789 5.82715 0.0258789 12.2235C0.0258789 18.6199 5.21118 23.8052 11.6076 23.8052ZM11.0683 16.9384L11.841 17.6202L12.6137 16.9384L19.4651 10.893C19.9488 10.4662 19.9949 9.72821 19.5681 9.24455C19.1414 8.7609 18.4034 8.71477 17.9197 9.14152L11.841 14.5051L5.76224 9.14152C5.27859 8.71477 4.54055 8.76089 4.1138 9.24455C3.68704 9.72821 3.73317 10.4662 4.21683 10.893L11.0683 16.9384Z"/>
</svg>
