<svg width="137" height="137" viewBox="0 0 137 137" fill="none" xmlns="http://www.w3.org/2000/svg">
    <g filter="url(#filter0_d)">
        <circle cx="68.5" cy="68.5" r="56.7812" stroke="#D43C38" stroke-width="1.4375"/>
        <g clip-path="url(#clip0)">
            <path d="M45.2038 88.1462C44.1976 88.1462 43.2303 88.3973 42.3721 88.8689C37.8514 83.0738 35.3701 75.8749 35.3701 68.5C35.3701 50.2318 50.2318 35.3701 68.4999 35.3701C70.7208 35.3701 72.9406 35.5911 75.0978 36.0271C75.8568 36.1806 76.5982 35.6893 76.7517 34.9292C76.9052 34.1692 76.4139 33.4289 75.6539 33.2748C73.314 32.8021 70.9072 32.5625 68.4999 32.5625C58.9008 32.5625 49.8759 36.3007 43.0883 43.0883C36.3006 49.876 32.5624 58.9009 32.5624 68.5C32.5624 76.5746 35.3043 84.4546 40.296 90.7718C39.6533 91.7319 39.3078 92.8605 39.3078 94.0422C39.3078 95.6171 39.9215 97.0977 41.0352 98.2108C42.1484 99.3246 43.6289 99.9382 45.2038 99.9382C46.7787 99.9382 48.2593 99.3246 49.373 98.2108C50.4868 97.0977 51.0998 95.6165 51.0998 94.0416C51.0998 92.4673 50.4868 90.9862 49.373 89.873C48.2593 88.7593 46.7787 88.1462 45.2038 88.1462ZM47.3874 96.2258C46.8045 96.8092 46.0286 97.1306 45.2038 97.1306C44.3791 97.1306 43.6037 96.8092 43.0203 96.2258C42.4368 95.6423 42.1155 94.8669 42.1155 94.0422C42.1155 93.2169 42.4368 92.4415 43.0203 91.8581C43.6032 91.2746 44.3791 90.9538 45.2038 90.9538C46.0286 90.9538 46.804 91.2752 47.3874 91.8581C47.9709 92.4415 48.2922 93.2169 48.2922 94.0422C48.2922 94.8669 47.9709 95.6423 47.3874 96.2258Z" fill="#D43C38"/>
            <path d="M96.7027 46.2264C98.2288 43.937 97.9837 40.807 95.9652 38.7884C94.8515 37.6753 93.3709 37.0616 91.796 37.0616C90.2211 37.0616 88.7405 37.6753 87.6268 38.7884C86.5131 39.9022 85.9 41.3827 85.9 42.9576C85.9 44.5325 86.5131 46.0131 87.6268 47.1268C88.7405 48.2406 90.2211 48.8536 91.796 48.8536C92.8022 48.8536 93.7695 48.6025 94.6277 48.1309C99.1484 53.9265 101.63 61.1249 101.63 68.4998C101.63 86.768 86.768 101.63 68.4999 101.63C66.3009 101.63 64.102 101.413 61.965 100.985C61.205 100.833 60.4653 101.326 60.3128 102.087C60.1609 102.847 60.6539 103.586 61.4139 103.739C63.7319 104.202 66.1161 104.437 68.4999 104.437C78.099 104.437 87.1239 100.699 93.9116 93.9115C100.699 87.1239 104.437 78.0989 104.437 68.4998C104.437 60.4246 101.695 52.5441 96.7027 46.2264ZM89.6124 45.1418C89.0289 44.5583 88.7076 43.7829 88.7076 42.9576C88.7076 42.1329 89.0289 41.3575 89.6124 40.7741C90.1953 40.1906 90.9712 39.8693 91.796 39.8693C92.6207 39.8693 93.3966 40.1906 93.9801 40.7741C95.1838 41.9783 95.1838 43.9376 93.9801 45.1418C93.3966 45.7247 92.6207 46.046 91.796 46.046C90.9707 46.046 90.1953 45.7247 89.6124 45.1418Z" fill="#D43C38"/>
            <path d="M62.7071 92.6455C62.7071 93.4209 63.3361 94.0493 64.1109 94.0493H72.8885C73.6639 94.0493 74.2924 93.4209 74.2924 92.6455V89.924C76.1381 89.4272 77.9028 88.6957 79.561 87.7404L81.4825 89.6619C81.7457 89.9251 82.1027 90.0731 82.4756 90.0731C82.8474 90.0731 83.2049 89.9251 83.4681 89.6613L89.6723 83.4528C90.2201 82.9044 90.2201 82.0155 89.6723 81.4677L87.753 79.5484C88.7083 77.8902 89.4398 76.1255 89.9366 74.2797H92.6477C93.4231 74.2797 94.0515 73.6513 94.0515 72.8759V64.0983C94.0515 63.3229 93.4231 62.6945 92.6477 62.6945H89.9361C89.4392 60.8492 88.7083 59.0846 87.753 57.4264L89.6619 55.5175C89.9251 55.2543 90.0731 54.8968 90.0731 54.5244C90.0726 54.1521 89.9245 53.7946 89.6613 53.5313L83.4522 47.3272C82.9044 46.7794 82.0155 46.7794 81.4671 47.3277L79.561 49.2344C77.9028 48.2791 76.1381 47.5476 74.2924 47.0508V44.3545C74.2924 43.5791 73.6639 42.9507 72.8885 42.9507H64.1109C63.3361 42.9507 62.7071 43.5791 62.7071 44.3545V47.0513C60.8619 47.5476 59.0972 48.2791 57.439 49.2344L55.5323 47.3277C54.9845 46.7799 54.0956 46.7794 53.5472 47.3272L47.3387 53.5319C47.0749 53.7951 46.9269 54.1521 46.9269 54.5244C46.9269 54.8968 47.0749 55.2543 47.3381 55.5175L49.247 57.4264C48.2917 59.0846 47.5602 60.8487 47.0634 62.6945H44.3572C43.5818 62.6945 42.9534 63.3229 42.9534 64.0977L42.9485 72.8754C42.9479 73.2477 43.096 73.6053 43.3592 73.8685C43.6224 74.1317 43.9794 74.2797 44.3523 74.2797H47.0634C47.5602 76.1255 48.2917 77.8902 49.247 79.5484L47.3277 81.4677C46.7799 82.0155 46.7794 82.9044 47.3277 83.4528L53.5319 89.6613C53.7951 89.9245 54.1521 90.0731 54.5244 90.0731H54.525C54.8973 90.0731 55.2543 89.9251 55.5175 89.6619L57.4384 87.7404C59.0972 88.6957 60.8619 89.4272 62.7071 89.924V92.6455ZM57.989 84.788C57.4335 84.4288 56.7025 84.5067 56.2342 84.9745L54.525 86.6837L50.3053 82.4608L52.0129 80.7526C52.4807 80.2849 52.5585 79.5539 52.1994 78.9984C50.9266 77.0287 50.0317 74.8698 49.5404 72.5809C49.4011 71.9344 48.8297 71.4721 48.1678 71.4721H45.7567L45.7599 65.5021H48.1678C48.8297 65.5021 49.4011 65.0404 49.5404 64.3933C50.0317 62.105 50.9266 59.9461 52.1994 57.9764C52.5585 57.4209 52.4807 56.6899 52.0129 56.2222L50.3163 54.525L54.5392 50.3053L56.2342 52.0009C56.7025 52.4686 57.4329 52.5459 57.989 52.1873C59.9582 50.9146 62.1171 50.0196 64.4059 49.5283C65.0524 49.389 65.5147 48.8171 65.5147 48.1557V45.7583H71.4847V48.1552C71.4847 48.8171 71.9465 49.389 72.5935 49.5277C74.8818 50.0196 77.0413 50.914 79.0105 52.1868C79.566 52.5459 80.2969 52.4686 80.7647 52.0003L82.4602 50.3053L86.6832 54.525L84.9865 56.2216C84.5182 56.6899 84.4409 57.4209 84.8001 57.9764C86.0728 59.9461 86.9672 62.105 87.4591 64.3933C87.5978 65.0404 88.1698 65.5021 88.8316 65.5021H91.2439V71.4721H88.8316C88.1698 71.4721 87.5984 71.9344 87.4591 72.5809C86.9678 74.8692 86.0728 77.0287 84.8001 78.9979C84.4409 79.5539 84.5188 80.2849 84.9865 80.7526L86.6941 82.4602L82.4745 86.6832L80.7652 84.9745C80.2969 84.5062 79.566 84.4288 79.0105 84.788C77.0407 86.0608 74.8818 86.9551 72.5935 87.447C71.9465 87.5863 71.4847 88.1577 71.4847 88.8196V91.2417H65.5147V88.8196C65.5147 88.1583 65.0524 87.5863 64.4059 87.447C62.1176 86.9557 59.9587 86.0608 57.989 84.788Z" fill="#D43C38"/>
            <path d="M80.0995 68.4998C80.0995 62.1037 74.8961 56.9003 68.5 56.9003C62.1039 56.9003 56.9005 62.1037 56.9005 68.4998C56.9005 74.8959 62.1039 80.0994 68.5 80.0994C74.8961 80.0994 80.0995 74.8959 80.0995 68.4998ZM59.7081 68.4998C59.7081 63.6518 63.6519 59.7079 68.5 59.7079C73.348 59.7079 77.2919 63.6523 77.2919 68.4998C77.2919 73.3474 73.348 77.2917 68.5 77.2917C63.6519 77.2917 59.7081 73.3479 59.7081 68.4998Z" fill="#D43C38"/>
            <path d="M81.4259 37.8719C81.7955 37.8719 82.1574 37.7216 82.4184 37.4606C82.6795 37.1979 82.8297 36.836 82.8297 36.4664C82.8297 36.099 82.68 35.7366 82.4184 35.4739C82.1574 35.2129 81.7955 35.0626 81.4259 35.0626C81.0552 35.0626 80.6949 35.2129 80.4339 35.4739C80.1723 35.7366 80.0221 36.0974 80.0221 36.4664C80.0221 36.8371 80.1723 37.1979 80.4339 37.4606C80.6949 37.7216 81.0552 37.8719 81.4259 37.8719Z" fill="#D43C38"/>
            <path d="M55.6354 99.1536C55.2663 99.1536 54.9039 99.3038 54.6428 99.5648C54.3818 99.8259 54.2316 100.188 54.2316 100.557C54.2316 100.928 54.3818 101.289 54.6428 101.55C54.9039 101.811 55.2663 101.961 55.6354 101.961C56.0044 101.961 56.3669 101.811 56.6279 101.55C56.8889 101.289 57.0392 100.926 57.0392 100.557C57.0392 100.188 56.8889 99.8259 56.6279 99.5648C56.3669 99.3038 56.0044 99.1536 55.6354 99.1536Z" fill="#D43C38"/>
        </g>
    </g>
    <defs>
        <filter id="filter0_d" x="0.9375" y="0.9375" width="135.125" height="135.125" filterUnits="userSpaceOnUse" color-interpolation-filters="sRGB">
            <feFlood flood-opacity="0" result="BackgroundImageFix"/>
            <feColorMatrix in="SourceAlpha" type="matrix" values="0 0 0 0 0 0 0 0 0 0 0 0 0 0 0 0 0 0 127 0"/>
            <feOffset/>
            <feGaussianBlur stdDeviation="5.03125"/>
            <feColorMatrix type="matrix" values="0 0 0 0 0.87451 0 0 0 0 0.282353 0 0 0 0 0.207843 0 0 0 1 0"/>
            <feBlend mode="normal" in2="BackgroundImageFix" result="effect1_dropShadow"/>
            <feBlend mode="normal" in="SourceGraphic" in2="effect1_dropShadow" result="shape"/>
        </filter>
        <clipPath id="clip0">
            <rect width="71.875" height="71.875" fill="white" transform="translate(32.5624 32.5625)"/>
        </clipPath>
    </defs>
</svg>