<svg xmlns="http://www.w3.org/2000/svg" viewBox="0 0 131 131" width="131" height="131" style="enable-background:new 0 0 131 131;" xml:space="preserve">
<style type="text/css">
	.st0{fill:none;stroke:#D43C38;stroke-width:1.4375;}
	.st1{fill:#D43C38;}
</style>
<g filter="url(#filter0_d)">
	<circle class="st0" cx="65.5" cy="65.5" r="56.8"/>
	<path class="st1" d="M82.3,50.7c0.6-0.6,0.6-1.5,0-2l-2.2-2.2c-0.6-0.6-1.5-0.6-2,0l-17,17c-0.6,0.6-0.6,1.5,0,2l2.2,2.2   c0.6,0.6,1.5,0.6,2,0L82.3,50.7z M97.1,46.4c-0.6-0.6-1.5-0.6-2,0L64.4,77.1L52.9,65.6c-0.6-0.6-1.5-0.6-2,0l-2.2,2.2   c-0.6,0.6-0.6,1.5,0,2l14.7,14.7c0.6,0.6,1.5,0.6,2,0l33.9-33.9c0.6-0.6,0.6-1.5,0-2L97.1,46.4z M31.7,67.8c-0.6,0.6-0.6,1.5,0,2   l14.7,14.7c0.6,0.6,1.5,0.6,2,0l2.2-2.2c0.6-0.6,0.6-1.5,0-2L36,65.6c-0.6-0.6-1.5-0.6-2,0L31.7,67.8z"/>
</g>
    <defs>
        <filter id="filter0_d" x="0.8125" y="0.8125" width="129.375" height="129.375" filterUnits="userSpaceOnUse" color-interpolation-filters="sRGB">
            <feFlood flood-opacity="0" result="BackgroundImageFix"/>
            <feColorMatrix in="SourceAlpha" type="matrix" values="0 0 0 0 0 0 0 0 0 0 0 0 0 0 0 0 0 0 127 0"/>
            <feOffset/>
            <feGaussianBlur stdDeviation="3.59375"/>
            <feColorMatrix type="matrix" values="0 0 0 0 0.87451 0 0 0 0 0.282353 0 0 0 0 0.207843 0 0 0 1 0"/>
            <feBlend mode="normal" in2="BackgroundImageFix" result="effect1_dropShadow"/>
            <feBlend mode="normal" in="SourceGraphic" in2="effect1_dropShadow" result="shape"/>
        </filter>
    </defs>
</svg>