<?xml version="1.0" encoding="utf-8"?>
<!-- Generator: Adobe Illustrator 19.2.1, SVG Export Plug-In . SVG Version: 6.00 Build 0)  -->
<svg version="1.1" id="Слой_1" xmlns="http://www.w3.org/2000/svg" xmlns:xlink="http://www.w3.org/1999/xlink" x="0px" y="0px"
	 viewBox="0 0 36 36" style="enable-background:new 0 0 36 36;" xml:space="preserve">
<style type="text/css">
	.st0{fill:none;}
</style>
<path d="M18.1,3.8C18.1,3.8,18,3.8,18.1,3.8C10.3,3.8,4,10,4,17.8c0,3.2,1.1,6.2,3,8.7l-2,4.7c-0.2,0.4,0,0.8,0.4,1c0.1,0.1,0.3,0.1,0.4,0.1l7.5-1.3c1.5,0.5,3.1,0.8,4.7,0.8c7.7,0,14-6.3,14-14C32,10,25.8,3.8,18.1,3.8z M13.3,14.9h4.1c0.4,0,0.8,0.3,0.8,0.8c0,0.4-0.3,0.8-0.8,0.8h-4.1c-0.4,0-0.8-0.3-0.8-0.8C12.5,15.3,12.9,14.9,13.3,14.9z M22.7,20.3h-9.5c-0.4,0-0.8-0.3-0.8-0.8c0-0.4,0.3-0.8,0.8-0.8h9.5c0.4,0,0.8,0.3,0.8,0.8C23.5,19.9,23.2,20.3,22.7,20.3z"/>
</svg>
