<?xml version="1.0" encoding="utf-8"?>
<!-- Generator: Adobe Illustrator 19.2.1, SVG Export Plug-In . SVG Version: 6.00 Build 0)  -->
<svg version="1.1" id="Слой_1" xmlns="http://www.w3.org/2000/svg" xmlns:xlink="http://www.w3.org/1999/xlink" x="0px" y="0px"
	 viewBox="0 0 36 36" style="enable-background:new 0 0 36 36;" xml:space="preserve">
<style type="text/css">
	.st0{fill:none;}
</style>
<path d="M31,7.2L28.8,5c-0.9-0.9-2.1-1.4-3.4-1.4H6.9c-1.8,0-3.3,1.5-3.3,3.3v22.2c0,1.8,1.5,3.3,3.3,3.3h22.2c1.8,0,3.3-1.5,3.3-3.3V10.6C32.4,9.3,31.9,8.1,31,7.2L31,7.2z M8.4,11.1v-3c0-0.5,0.4-0.9,0.9-0.9h12.6c0.5,0,0.9,0.4,0.9,0.9v3c0,0.5-0.4,0.9-0.9,0.9H9.3C8.8,12,8.4,11.6,8.4,11.1z M18,27.6c-3,0-5.4-2.4-5.4-5.4c0-3,2.4-5.4,5.4-5.4c3,0,5.4,2.4,5.4,5.4C23.4,25.2,21,27.6,18,27.6z"/>
</svg>
