<?xml version="1.0" encoding="utf-8"?>
<!-- Generator: Adobe Illustrator 19.2.1, SVG Export Plug-In . SVG Version: 6.00 Build 0)  -->
<svg version="1.1" id="Слой_1" xmlns="http://www.w3.org/2000/svg" xmlns:xlink="http://www.w3.org/1999/xlink" x="0px" y="0px"
	 viewBox="0 0 28 28" style="enable-background:new 0 0 28 28;" xml:space="preserve">
<style type="text/css">
	.st0{fill:#0D0F0F;}
</style>
<g>
	<path d="M15.2,13.8c-0.1-0.1-0.2-0.2-0.3-0.2h-1.1l0.6-1.6c0.1-0.2,0-0.4-0.2-0.5c-0.2-0.1-0.4,0-0.5,0.2l-0.8,2.1c0,0.1,0,0.3,0,0.4c0.1,0.1,0.2,0.2,0.3,0.2h1.1L13.6,16c-0.1,0.2,0,0.4,0.2,0.5c0,0,0.1,0,0.1,0c0.2,0,0.3-0.1,0.4-0.2l0.8-2.1C15.3,14,15.2,13.9,15.2,13.8z"/>
	<path d="M25.3,2.8C23.9,1.3,22,0.5,20,0.5c-2,0-3.9,0.7-5.4,2.2c-1.5,1.5-2.4,3.5-2.4,5.6v1.5H11c-0.7,0-1.2,0.6-1.2,1.2V17c0,0.7,0.6,1.2,1.2,1.2h1.3v1.7c0,1.2-0.5,2.3-1.4,3.1c-0.9,0.8-2.1,1.2-3.3,1.1C5.5,24,3.8,22,3.8,19.8c0-0.2-0.2-0.4-0.4-0.4c-0.2,0-0.4,0.2-0.4,0.4c0,1.3,0.5,2.5,1.3,3.5c0.8,1,2,1.6,3.3,1.7c0.2,0,0.3,0,0.5,0c1.3,0,2.4-0.5,3.4-1.3c1-1,1.7-2.3,1.7-3.7v-1.7h1.7v1.5c0,1.9-0.8,3.7-2.1,5c-1.3,1.3-3,2-4.8,1.9c-1.8,0-3.5-0.8-4.7-2c-1.3-1.3-2-3-2-4.8v-5.5c0,0,0,0,0,0H3c0,0,0,0,0,0v3.6c0,0.2,0.2,0.4,0.4,0.4c0.2,0,0.4-0.2,0.4-0.4v-3.6c0-0.5-0.4-0.8-0.8-0.8H2.6v-2.1c0-0.2-0.2-0.4-0.4-0.4c-0.2,0-0.4,0.2-0.4,0.4v2.1H1.3c-0.5,0-0.8,0.4-0.8,0.8v5.5c0,2,0.8,3.9,2.2,5.3C4.1,26.7,6,27.5,8,27.5c0,0,0.1,0,0.1,0c1.9,0,3.8-0.8,5.2-2.2c1.5-1.5,2.4-3.5,2.4-5.6v-1.5H17c0.7,0,1.2-0.6,1.2-1.2V11c0-0.7-0.6-1.2-1.2-1.2h-1.3V8.1c0-1.2,0.5-2.3,1.4-3.1c0.9-0.8,2.1-1.2,3.3-1.1C22.5,4,24.2,6,24.2,8.2c0,0.2,0.2,0.4,0.4,0.4S25,8.4,25,8.2c0-1.3-0.5-2.5-1.3-3.5c-0.8-1-2-1.6-3.3-1.7c-1.4-0.1-2.8,0.3-3.9,1.3c-1,1-1.7,2.3-1.7,3.7v1.7h-1.7V8.3c0-1.9,0.8-3.7,2.1-5c1.3-1.3,3-2,4.8-1.9c1.8,0,3.5,0.8,4.7,2c1.3,1.3,2,3,2,4.8v5.5c0,0,0,0,0,0H25c0,0,0,0,0,0V9.9c0-0.2-0.2-0.4-0.4-0.4c-0.2,0-0.4,0.2-0.4,0.4v3.6c0,0.5,0.4,0.8,0.8,0.8h0.4v2.1c0,0.2,0.2,0.4,0.4,0.4c0.2,0,0.4-0.2,0.4-0.4v-2.1h0.4c0.5,0,0.8-0.4,0.8-0.8V8.1C27.5,6.1,26.7,4.2,25.3,2.8z M17,10.6c0.2,0,0.4,0.2,0.4,0.4V17c0,0.2-0.2,0.4-0.4,0.4H11c-0.2,0-0.4-0.2-0.4-0.4V11c0-0.2,0.2-0.4,0.4-0.4H17z"/>
	<path d="M1.7,10L1.2,9.2C1.2,9,0.9,8.9,0.7,9C0.5,9.1,0.4,9.3,0.5,9.5L1,10.4c0.1,0.1,0.2,0.2,0.4,0.2c0.1,0,0.1,0,0.2,0C1.7,10.5,1.8,10.2,1.7,10z"/>
	<path d="M3.6,9C3.4,8.9,3.2,9,3.1,9.2L2.7,10c-0.1,0.2,0,0.4,0.2,0.5c0.1,0,0.1,0,0.2,0c0.1,0,0.3-0.1,0.4-0.2l0.4-0.8C3.9,9.3,3.8,9.1,3.6,9z"/>
	<path d="M27.5,18.5L27,17.6c-0.1-0.2-0.3-0.3-0.5-0.2c-0.2,0.1-0.3,0.3-0.2,0.5l0.4,0.8C26.8,19,27,19,27.1,19c0.1,0,0.1,0,0.2,0C27.5,18.9,27.6,18.7,27.5,18.5z"/>
	<path d="M25.2,17.5c-0.2-0.1-0.4,0-0.5,0.2l-0.4,0.8c-0.1,0.2,0,0.4,0.2,0.5c0.1,0,0.1,0,0.2,0c0.1,0,0.3-0.1,0.4-0.2l0.4-0.8C25.4,17.8,25.4,17.5,25.2,17.5z"/>
</g>
</svg>
