<?xml version="1.0" encoding="utf-8"?>
<!-- Generator: Adobe Illustrator 19.2.1, SVG Export Plug-In . SVG Version: 6.00 Build 0)  -->
<svg version="1.1" id="Слой_1" xmlns="http://www.w3.org/2000/svg" xmlns:xlink="http://www.w3.org/1999/xlink" x="0px" y="0px"
	 viewBox="0 0 28 28" style="enable-background:new 0 0 28 28;" xml:space="preserve">
<style type="text/css">
	.st0{fill:#0D0F0F;}
</style>
<path d="M14,22.2c-4.5,0-8.2-3.7-8.2-8.2c0-4.5,3.7-8.2,8.2-8.2c4.5,0,8.2,3.7,8.2,8.2C22.2,18.5,18.5,22.2,14,22.2zM14,6.6c-4.1,0-7.4,3.3-7.4,7.4c0,4.1,3.3,7.3,7.4,7.3c4.1,0,7.3-3.3,7.3-7.3C21.3,9.9,18.1,6.6,14,6.6z"/>
<path d="M21.8,14.4H6.2c-0.2,0-0.4-0.2-0.4-0.4s0.2-0.4,0.4-0.4h15.6c0.2,0,0.4,0.2,0.4,0.4S22,14.4,21.8,14.4z"/>
<path d="M9.8,21c-0.1,0-0.2,0-0.2-0.1c-0.2-0.1-0.3-0.4-0.1-0.6l8.5-13.1C18,7,18.3,7,18.5,7.1c0.2,0.1,0.3,0.4,0.1,0.6l-8.5,13.1C10,20.9,9.9,21,9.8,21z"/>
<path d="M18.4,20.9c-0.1,0-0.3-0.1-0.4-0.2L9.2,7.8C9.1,7.6,9.1,7.4,9.3,7.2C9.5,7.1,9.8,7.1,10,7.3l8.8,12.8c0.1,0.2,0.1,0.5-0.1,0.6C18.6,20.8,18.5,20.9,18.4,20.9z"/>
<path d="M23.9,27.5H4.1c-2,0-3.6-1.6-3.6-3.6V4.1c0-2,1.6-3.6,3.6-3.6h19.8c2,0,3.6,1.6,3.6,3.6v19.8C27.5,25.9,25.9,27.5,23.9,27.5z M4.1,1.4c-1.5,0-2.7,1.2-2.7,2.7v19.8c0,1.5,1.2,2.7,2.7,2.7h19.8c1.5,0,2.7-1.2,2.7-2.7V4.1c0-1.5-1.2-2.7-2.7-2.7H4.1z"/>
</svg>
