<?xml version="1.0" encoding="utf-8"?>
<!-- Generator: Adobe Illustrator 19.2.1, SVG Export Plug-In . SVG Version: 6.00 Build 0)  -->
<svg version="1.1" id="Слой_1" xmlns="http://www.w3.org/2000/svg" xmlns:xlink="http://www.w3.org/1999/xlink" x="0px" y="0px"
	 viewBox="0 0 28 28" style="enable-background:new 0 0 28 28;" xml:space="preserve">
<style type="text/css">
	.st0{fill:#FFFFFF;}
</style>
<g>
	<path d="M12.4,19.2c-0.4,0-0.9-0.1-1.2-0.4L10.1,18c-0.4-0.3-0.8-0.9-0.9-1.4c-0.1-0.5,0-0.9,0.3-1.3l10.6-14c0.1-0.2,0.3-0.4,0.6-0.5c0.2-0.1,0.5-0.2,0.7-0.3c0.3,0,0.5,0,0.8,0c0.3,0.1,0.5,0.2,0.7,0.3c0.2,0.2,0.4,0.3,0.5,0.6c0.1,0.2,0.2,0.5,0.3,0.7c0,0.3,0,0.5,0,0.8s-0.2,0.5-0.3,0.7l-9.5,14.8C13.6,18.9,13,19.2,12.4,19.2z M21.8,1.6c-0.1,0-0.1,0-0.2,0c-0.1,0-0.2,0.1-0.3,0.1C21.2,1.8,21.1,1.9,21,2L10.4,16c-0.1,0.1-0.1,0.3-0.1,0.4c0,0.3,0.2,0.5,0.4,0.7c0,0,0,0,0,0l1.1,0.8c0.4,0.2,1,0.2,1.2,0l9.5-14.8c0.1-0.1,0.1-0.2,0.2-0.3c0-0.1,0-0.2,0-0.4c0-0.1-0.1-0.2-0.1-0.3c-0.1-0.1-0.2-0.2-0.3-0.3c-0.1-0.1-0.2-0.1-0.3-0.1C21.9,1.6,21.9,1.6,21.8,1.6z"/>
	<path d="M4.7,27.5C4.7,27.5,4.7,27.5,4.7,27.5c-0.3,0-0.5-0.2-0.5-0.4c-0.1-0.4,0.1-0.7,0.5-1c1-1,1-2.2,1.1-3.5c0-0.3,0-0.7,0.1-1c0.1-0.8,0.3-1.5,0.7-2.2c0,0,0.1-0.1,0.1-0.1l0.2-0.2c0,0,0.1-0.1,0.1-0.1c0.4-0.4,1-0.7,1.6-0.8c0.6-0.1,1.2,0,1.8,0.3c0.5,0.3,1,0.8,1.2,1.4c0.2,0.6,0.3,1.2,0.1,1.8c-0.1,0.3-0.2,0.6-0.4,0.8C9.9,24.3,5.7,27.5,4.7,27.5z M8.9,19.2c-0.1,0-0.2,0-0.2,0c-0.4,0.1-0.7,0.2-1,0.5l-0.2,0.2C7.2,20.5,7,21.1,7,21.7c0,0.3-0.1,0.6-0.1,0.9c-0.1,0.9-0.1,1.8-0.5,2.7c1.3-1,3-2.4,3.8-3.5c0,0,0,0,0,0c0.1-0.2,0.2-0.3,0.3-0.5c0.1-0.3,0.1-0.7-0.1-1s-0.4-0.6-0.7-0.8C9.5,19.3,9.2,19.2,8.9,19.2z"/>
</g>
</svg>
