<?xml version="1.0" encoding="utf-8"?>
<!-- Generator: Adobe Illustrator 19.2.1, SVG Export Plug-In . SVG Version: 6.00 Build 0)  -->
<svg version="1.1" id="Слой_1" xmlns="http://www.w3.org/2000/svg" xmlns:xlink="http://www.w3.org/1999/xlink" x="0px" y="0px"
	 viewBox="0 0 28 28" style="enable-background:new 0 0 28 28;" xml:space="preserve">
<style type="text/css">
	.st0{fill:#0D0F0F;}
</style>
<g>
	<path d="M27,24.6H1c-0.3,0-0.5-0.2-0.5-0.5V3.9c0-0.3,0.2-0.5,0.5-0.5h26c0.3,0,0.5,0.2,0.5,0.5v20.1C27.5,24.3,27.3,24.6,27,24.6z M1.5,23.6h25.1V4.4H1.5V23.6z"/>
	<path d="M14.9,20.8c-3.7,0-6.8-3-6.8-6.8c0-3.7,3-6.8,6.8-6.8c3.7,0,6.8,3,6.8,6.8C21.7,17.7,18.6,20.8,14.9,20.8zM14.9,8.2c-3.2,0-5.8,2.6-5.8,5.8c0,3.2,2.6,5.8,5.8,5.8c3.2,0,5.8-2.6,5.8-5.8C20.7,10.8,18.1,8.2,14.9,8.2z"/>
	<path d="M14.9,15.9c-1.1,0-1.9-0.9-1.9-1.9c0-1.1,0.9-1.9,1.9-1.9c1.1,0,1.9,0.9,1.9,1.9C16.8,15.1,16,15.9,14.9,15.9zM14.9,13c-0.5,0-1,0.4-1,1c0,0.5,0.4,1,1,1c0.5,0,1-0.4,1-1C15.9,13.5,15.4,13,14.9,13z"/>
	<path d="M17,12c-0.2,0-0.4-0.1-0.4-0.3c-0.1-0.2,0-0.5,0.3-0.6l6.7-2.8c0.2-0.1,0.5,0,0.6,0.3c0.1,0.2,0,0.5-0.3,0.6l-6.7,2.8C17.1,11.9,17,12,17,12z"/>
	<path d="M4.9,19c-0.3,0-0.5-0.2-0.5-0.5v-9C4.4,9.2,4.6,9,4.9,9s0.5,0.2,0.5,0.5v9C5.4,18.8,5.2,19,4.9,19z"/>
</g>
</svg>
