<?xml version="1.0" encoding="utf-8"?>
<!-- Generator: Adobe Illustrator 19.2.1, SVG Export Plug-In . SVG Version: 6.00 Build 0)  -->
<svg version="1.1" id="Слой_1" xmlns="http://www.w3.org/2000/svg" xmlns:xlink="http://www.w3.org/1999/xlink" x="0px" y="0px"
	 viewBox="0 0 28 28" style="enable-background:new 0 0 28 28;" xml:space="preserve">
<style type="text/css">
	.st0{fill:#0D0F0F;}
</style>
<g>
	<path d="M27,19.3H1c-0.3,0-0.5-0.2-0.5-0.5V7c0-0.3,0.2-0.5,0.5-0.5H27c0.3,0,0.5,0.2,0.5,0.5v11.8C27.5,19.1,27.3,19.3,27,19.3z M1.4,18.3h25.1V7.4H1.4V18.3z"/>
	<path d="M12.4,15.9h-1.9c-0.3,0-0.5-0.2-0.5-0.5v-5.3c0-0.3,0.2-0.5,0.5-0.5h1.9c0.3,0,0.5,0.2,0.5,0.5v5.3C12.9,15.6,12.7,15.9,12.4,15.9z M11,14.9h1v-4.4h-1V14.9z"/>
	<path d="M6.7,15.9H4.8c-0.3,0-0.5-0.2-0.5-0.5v-5.3c0-0.3,0.2-0.5,0.5-0.5h1.9c0.3,0,0.5,0.2,0.5,0.5v5.3C7.2,15.6,7,15.9,6.7,15.9z M5.3,14.9h1v-4.4h-1V14.9z"/>
	<path d="M18.1,15.9h-1.9c-0.3,0-0.5-0.2-0.5-0.5v-5.3c0-0.3,0.2-0.5,0.5-0.5h1.9c0.3,0,0.5,0.2,0.5,0.5v5.3C18.5,15.6,18.3,15.9,18.1,15.9z M16.6,14.9h1v-4.4h-1V14.9z"/>
	<path d="M23.7,15.9h-1.9c-0.3,0-0.5-0.2-0.5-0.5v-5.3c0-0.3,0.2-0.5,0.5-0.5h1.9c0.3,0,0.5,0.2,0.5,0.5v5.3C24.2,15.6,24,15.9,23.7,15.9z M22.3,14.9h1v-4.4h-1V14.9z"/>
	<path d="M23.7,21.5H4c-0.3,0-0.5-0.2-0.5-0.5c0-0.3,0.2-0.5,0.5-0.5h19.8c0.3,0,0.5,0.2,0.5,0.5C24.2,21.3,24,21.5,23.7,21.5z"/>
</g>
</svg>
