<?xml version="1.0" encoding="utf-8"?>
<!-- Generator: Adobe Illustrator 19.2.1, SVG Export Plug-In . SVG Version: 6.00 Build 0)  -->
<svg version="1.1" id="Слой_1" xmlns="http://www.w3.org/2000/svg" xmlns:xlink="http://www.w3.org/1999/xlink" x="0px" y="0px"
	 viewBox="0 0 28 28" style="enable-background:new 0 0 28 28;" xml:space="preserve">
<style type="text/css">
	.st0{fill:#0D0F0F;}
</style>
<g>
	<path d="M25.4,23.5H2.6c-1.2,0-2.1-0.9-2.1-2.1V6.6c0-1.2,0.9-2.1,2.1-2.1h22.8c1.2,0,2.1,0.9,2.1,2.1v14.8C27.5,22.5,26.6,23.5,25.4,23.5z M2.6,5.4C2,5.4,1.4,6,1.4,6.6v14.8c0,0.6,0.5,1.2,1.2,1.2h22.8c0.6,0,1.2-0.5,1.2-1.2V6.6c0-0.6-0.5-1.2-1.2-1.2H2.6z"/>
	<path d="M3.3,21.3H1c-0.3,0-0.5-0.2-0.5-0.5V13c0-0.3,0.2-0.5,0.5-0.5h2.3c0.3,0,0.5,0.2,0.5,0.5v7.8C3.7,21.1,3.5,21.3,3.3,21.3z M1.4,20.4h1.4v-6.9H1.4V20.4z"/>
	<path d="M23.2,20.8h-6.4c-0.3,0-0.5-0.2-0.5-0.5V7.6c0-0.3,0.2-0.5,0.5-0.5h6.4c0.3,0,0.5,0.2,0.5,0.5v12.8C23.6,20.6,23.4,20.8,23.2,20.8z M17.2,19.9h5.5V8.1h-5.5V19.9z"/>
	<path d="M13.9,20.8H7.5c-0.3,0-0.5-0.2-0.5-0.5V7.6c0-0.3,0.2-0.5,0.5-0.5h6.4c0.3,0,0.5,0.2,0.5,0.5v12.8C14.4,20.6,14.2,20.8,13.9,20.8z M7.9,19.9h5.5V8.1H7.9V19.9z"/>
</g>
</svg>
