<?xml version="1.0" encoding="utf-8"?>
<!-- Generator: Adobe Illustrator 19.2.1, SVG Export Plug-In . SVG Version: 6.00 Build 0)  -->
<svg version="1.1" id="Слой_1" xmlns="http://www.w3.org/2000/svg" xmlns:xlink="http://www.w3.org/1999/xlink" x="0px" y="0px"
	 viewBox="0 0 28 28" style="enable-background:new 0 0 28 28;" xml:space="preserve">
<style type="text/css">
	.st0{fill:#0D0F0F;}
</style>
<g>
	<path d="M14,19.6c-1.3,0-2.3,1-2.3,2.3c0,1.3,1,2.3,2.3,2.3c1.3,0,2.3-1,2.3-2.3C16.3,20.7,15.3,19.6,14,19.6z"/>
	<path d="M19.7,16.4c-1.5-1.5-3.6-2.4-5.7-2.4c-2.1,0-4.2,0.8-5.7,2.3c-0.6,0.6-0.6,1.6,0,2.2c0.3,0.3,0.7,0.5,1.1,0.5c0.4,0,0.8-0.2,1.1-0.5c0.9-0.9,2.2-1.4,3.5-1.4c1.3,0,2.5,0.5,3.5,1.4c0.3,0.3,0.7,0.5,1.1,0.5c0.4,0,0.8-0.2,1.1-0.5C20.3,18,20.3,17,19.7,16.4z"/>
	<path d="M27,9.1c-3.5-3.5-8.1-5.4-13-5.4c-4.9,0-9.6,1.9-13,5.4c-0.6,0.6-0.6,1.6,0,2.2c0.3,0.3,0.7,0.5,1.1,0.5c0.4,0,0.8-0.2,1.1-0.5C6.1,8.5,9.9,6.9,14,6.9c4.1,0,7.9,1.6,10.8,4.5c0.3,0.3,0.7,0.5,1.1,0.5c0.4,0,0.8-0.2,1.1-0.5C27.7,10.7,27.7,9.7,27,9.1z"/>
	<path d="M23.3,12.9C20.8,10.4,17.5,9,14,9c-3.5,0-6.8,1.4-9.3,3.8c-0.3,0.3-0.5,0.7-0.5,1.1c0,0.4,0.2,0.8,0.5,1.1c0.3,0.3,0.7,0.5,1.1,0.5c0.4,0,0.8-0.2,1.1-0.5c1.9-1.9,4.4-2.9,7-2.9c2.7,0,5.2,1,7.1,2.9c0.3,0.3,0.7,0.5,1.1,0.5c0.4,0,0.8-0.2,1.1-0.5c0.3-0.3,0.5-0.7,0.5-1.1C23.7,13.6,23.6,13.2,23.3,12.9z"/>
</g>
</svg>
