<svg width="90" height="90" viewBox="0 0 90 90" fill="none" xmlns="http://www.w3.org/2000/svg">
<path fill-rule="evenodd" clip-rule="evenodd" d="M45 88C68.7482 88 88 68.7482 88 45C88 21.2518 68.7482 2 45 2C21.2518 2 2 21.2518 2 45C2 68.7482 21.2518 88 45 88ZM45 90C69.8528 90 90 69.8528 90 45C90 20.1472 69.8528 0 45 0C20.1472 0 0 20.1472 0 45C0 69.8528 20.1472 90 45 90ZM24.0816 20C21.8275 20 20 21.8275 20 24.0816V65.9184C20 68.1726 21.8275 70 24.0816 70H65.9184C68.1726 70 70 68.1726 70 65.9184V24.0816C70 21.8275 68.1726 20 65.9184 20H24.0816ZM24.0816 23.0612C24.6452 23.0612 25.102 23.5181 25.102 24.0816C25.102 24.6452 24.6452 25.102 24.0816 25.102C23.5181 25.102 23.0612 24.6452 23.0612 24.0816C23.0612 23.5181 23.5181 23.0612 24.0816 23.0612ZM24.0816 66.9388C23.5181 66.9388 23.0612 66.4819 23.0612 65.9184C23.0612 65.3548 23.5181 64.898 24.0816 64.898C24.6452 64.898 25.102 65.3548 25.102 65.9184C25.102 66.4819 24.6452 66.9388 24.0816 66.9388ZM45 65.3061C33.7852 65.3061 24.6939 56.2148 24.6939 45C24.6939 33.7852 33.7852 24.6939 45 24.6939C56.2148 24.6939 65.3061 33.7852 65.3061 45C65.3061 56.2148 56.2148 65.3061 45 65.3061ZM65.9184 66.9388C65.3548 66.9388 64.898 66.4819 64.898 65.9184C64.898 65.3548 65.3548 64.898 65.9184 64.898C66.4819 64.898 66.9388 65.3548 66.9388 65.9184C66.9388 66.4819 66.4819 66.9388 65.9184 66.9388ZM65.9184 25.102C65.3548 25.102 64.898 24.6452 64.898 24.0816C64.898 23.5181 65.3548 23.0612 65.9184 23.0612C66.4819 23.0612 66.9388 23.5181 66.9388 24.0816C66.9388 24.6452 66.4819 25.102 65.9184 25.102ZM62.1915 40.1558C62.5783 40.4753 62.7892 40.826 62.8903 41.3174C63.307 43.3414 63.3795 45.2985 63.1139 47.3477C62.9942 48.2708 61.8021 48.5648 61.267 47.8031C59.4518 45.2193 56.0094 43.7899 50.9398 43.515C51.0626 44.006 51.1225 44.4938 51.1225 44.9999C57.0492 46.8278 60.2022 49.738 60.5817 53.7305C60.6291 54.23 60.5304 54.627 60.2545 55.0461C59.1179 56.7718 57.7852 58.2072 56.1483 59.4684C55.411 60.0366 54.3602 59.4015 54.5204 58.4845C55.0639 55.374 53.6405 51.9291 50.2501 48.1499C49.9896 48.584 49.6871 48.9713 49.3293 49.3291C52.2276 54.8125 52.3993 59.0998 49.8444 62.1913C49.5249 62.5782 49.1742 62.789 48.6828 62.8902C46.6589 63.3068 44.7016 63.3794 42.6523 63.1138C41.7292 62.994 41.4352 61.8019 42.1969 61.2668C44.7808 59.4516 46.2101 56.0092 46.485 50.9396C45.994 51.0625 45.5063 51.1224 45.0001 51.1224C43.1723 57.0491 40.2621 60.2021 36.2695 60.5816C35.77 60.6291 35.373 60.5304 34.9539 60.2544C33.2282 59.1178 31.7929 57.7851 30.5317 56.1483C29.9635 55.4109 30.5985 54.3601 31.5156 54.5203C34.626 55.0638 38.071 53.6404 41.8501 50.25C41.4161 49.9895 41.0287 49.6871 40.6709 49.3292C35.1876 52.2275 30.9002 52.3992 27.8087 49.8443C27.4219 49.5248 27.211 49.1742 27.1099 48.6827C26.6932 46.6588 26.6206 44.7015 26.8862 42.6523C27.006 41.7291 28.1981 41.4351 28.7332 42.1969C30.5484 44.7807 33.9908 46.21 39.0604 46.4849C38.9376 45.9939 38.8777 45.5062 38.8777 45.0001C32.951 43.1722 29.798 40.262 29.4185 36.2694C29.3711 35.7699 29.4697 35.3729 29.7457 34.9538C30.8823 33.2282 32.215 31.7928 33.8519 30.5316C34.5892 29.9635 35.64 30.5985 35.4798 31.5156C34.9363 34.626 36.3597 38.071 39.7501 41.8501C40.0106 41.4161 40.313 41.0287 40.6709 40.6709C37.7726 35.1876 37.6009 30.9002 40.1558 27.8087C40.4753 27.4219 40.826 27.211 41.3174 27.1099C43.3413 26.6932 45.2986 26.6206 47.3478 26.8862C48.271 27.006 48.565 28.1981 47.8032 28.7332C45.2194 30.5484 43.7901 33.9908 43.5152 39.0604C44.0062 38.9376 44.4939 38.8777 45.0001 38.8777C46.8279 32.951 49.7381 29.798 53.7307 29.4185C54.2302 29.3711 54.6272 29.4697 55.0463 29.7457C56.7719 30.8823 58.2073 32.215 59.4685 33.8519C60.0367 34.5892 59.4017 35.64 58.4846 35.4798C55.3742 34.9363 51.9292 36.3597 48.1501 39.7501C48.5841 40.0106 48.9715 40.313 49.3293 40.6709C54.8126 37.7726 59.1 37.6009 62.1915 40.1558ZM39.8981 45.0001C39.8981 47.8178 42.1824 50.1021 45.0001 50.1021C47.8179 50.1021 50.1022 47.8178 50.1022 45.0001C50.1022 42.1823 47.8179 39.898 45.0001 39.898C42.1824 39.898 39.8981 42.1823 39.8981 45.0001Z" fill="white"/>
</svg>
