<svg width="90" height="90" viewBox="0 0 90 90" fill="none" xmlns="http://www.w3.org/2000/svg">
<path fill-rule="evenodd" clip-rule="evenodd" d="M2 45C2 68.7482 21.2518 88 45 88C68.7482 88 88 68.7482 88 45C88 21.2518 68.7482 2 45 2C21.2518 2 2 21.2518 2 45ZM0 45C0 69.8528 20.1472 90 45 90C69.8528 90 90 69.8528 90 45C90 20.1472 69.8528 0 45 0C20.1472 0 0 20.1472 0 45ZM45 70.1953C31.085 70.1953 19.8047 58.915 19.8047 45C19.8047 31.085 31.085 19.8047 45 19.8047C58.915 19.8047 70.1953 31.085 70.1953 45C70.1953 58.915 58.915 70.1953 45 70.1953ZM45 73.125C29.467 73.125 16.875 60.533 16.875 45C16.875 29.467 29.467 16.875 45 16.875C60.533 16.875 73.125 29.467 73.125 45C73.125 60.533 60.533 73.125 45 73.125ZM59.2146 31.0738C55.5212 27.3804 50.5118 25.3054 45.2885 25.3054C41.8921 25.3054 38.5862 26.1827 35.6738 27.8117C35.01 28.183 34.7729 29.0222 35.1442 29.686C35.5155 30.3498 36.3546 30.587 37.0185 30.2157C39.5237 28.8144 42.3672 28.0599 45.2885 28.0599C49.7812 28.0599 54.09 29.8446 57.2669 33.0215C60.4438 36.1984 62.2285 40.5072 62.2285 44.9999C62.2285 45.7606 62.8451 46.3772 63.6058 46.3772C64.3664 46.3772 64.983 45.7606 64.983 44.9999C64.983 39.7766 62.9081 34.7672 59.2146 31.0738ZM29.4553 35.6869C28.7726 35.3515 27.9473 35.6331 27.6119 36.3158C26.2966 38.9932 25.5939 41.9604 25.5939 44.9999C25.5939 45.7606 26.2105 46.3772 26.9712 46.3772C27.7318 46.3772 28.3484 45.7606 28.3484 44.9999C28.3484 42.3855 28.9527 39.8334 30.0842 37.5303C30.4196 36.8476 30.138 36.0223 29.4553 35.6869ZM28.259 30.0101C27.6957 29.4469 27.6957 28.5336 28.259 27.9704C28.8222 27.4071 29.7355 27.4071 30.2987 27.9704L42.2917 39.9634C43.2076 39.4069 44.2828 39.0865 45.4327 39.0865C48.7783 39.0865 51.4904 41.7986 51.4904 45.1442C51.4904 48.4898 48.7783 51.2019 45.4327 51.2019C42.0872 51.2019 39.3751 48.4898 39.3751 45.1442C39.3751 43.9942 39.6955 42.919 40.252 42.0031L28.259 30.0101ZM45.4327 48.3173C43.6803 48.3173 42.2597 46.8966 42.2597 45.1442C42.2597 43.3917 43.6803 41.9711 45.4327 41.9711C47.1852 41.9711 48.6058 43.3917 48.6058 45.1442C48.6058 46.8966 47.1852 48.3173 45.4327 48.3173Z" fill="white"/>
</svg>
