<svg width="90" height="90" viewBox="0 0 90 90" fill="none" xmlns="http://www.w3.org/2000/svg">
<path fill-rule="evenodd" clip-rule="evenodd" d="M45 88C68.7482 88 88 68.7482 88 45C88 21.2518 68.7482 2 45 2C21.2518 2 2 21.2518 2 45C2 68.7482 21.2518 88 45 88ZM45 90C69.8528 90 90 69.8528 90 45C90 20.1472 69.8528 0 45 0C20.1472 0 0 20.1472 0 45C0 69.8528 20.1472 90 45 90ZM21.6602 20C20.7973 20 20.0977 20.6996 20.0977 21.5625V68.4375C20.0977 69.3004 20.7973 70 21.6602 70H68.3398C69.2028 70 69.9023 69.3004 69.9023 68.4375V21.5625C69.9023 20.6996 69.2028 20 68.3398 20H21.6602ZM29.2773 49.6875H27.7148C26.852 49.6875 26.1523 48.9879 26.1523 48.125V29.375C26.1523 28.5121 26.852 27.8125 27.7148 27.8125H62.0898C62.9528 27.8125 63.6523 28.5121 63.6523 29.375V48.125C63.6523 48.9879 62.9528 49.6875 62.0898 49.6875H60.5273V54.375C60.5273 55.2379 59.8278 55.9375 58.9648 55.9375H52.7148V60.625C52.7148 61.4879 52.0153 62.1875 51.1523 62.1875H38.6523C37.7895 62.1875 37.0898 61.4879 37.0898 60.625V55.9375H30.8398C29.977 55.9375 29.2773 55.2379 29.2773 54.375V49.6875ZM66.7773 66.875H23.2227V23.125H66.7773V66.875ZM33.9648 30.9375H29.2773V46.5625H30.8398C31.7027 46.5625 32.4023 47.2621 32.4023 48.125V52.8125H38.6523C39.5152 52.8125 40.2148 53.5121 40.2148 54.375V59.0625H49.5898V54.375C49.5898 53.5121 50.2894 52.8125 51.1523 52.8125H57.4023V48.125C57.4023 47.2621 58.1019 46.5625 58.9648 46.5625H60.5273V30.9375H55.8398V35.625C55.8398 36.4879 55.1403 37.1875 54.2773 37.1875C53.4144 37.1875 52.7148 36.4879 52.7148 35.625V30.9375H49.5898V35.625C49.5898 36.4879 48.8903 37.1875 48.0273 37.1875C47.1644 37.1875 46.4648 36.4879 46.4648 35.625V30.9375H43.3398V35.625C43.3398 36.4879 42.6402 37.1875 41.7773 37.1875C40.9145 37.1875 40.2148 36.4879 40.2148 35.625V30.9375H37.0898V35.625C37.0898 36.4879 36.3902 37.1875 35.5273 37.1875C34.6645 37.1875 33.9648 36.4879 33.9648 35.625V30.9375ZM58.9648 59.0625C58.1019 59.0625 57.4023 59.7621 57.4023 60.625C57.4023 61.4879 58.1019 62.1875 58.9648 62.1875H62.0898C62.9528 62.1875 63.6523 61.4879 63.6523 60.625C63.6523 59.7621 62.9528 59.0625 62.0898 59.0625H58.9648ZM30.8398 62.1875H27.7148C26.852 62.1875 26.1523 61.4879 26.1523 60.625C26.1523 59.7621 26.852 59.0625 27.7148 59.0625H30.8398C31.7027 59.0625 32.4023 59.7621 32.4023 60.625C32.4023 61.4879 31.7027 62.1875 30.8398 62.1875Z" fill="white"/>
</svg>
