<svg width="90" height="90" viewBox="0 0 90 90" fill="none" xmlns="http://www.w3.org/2000/svg">
<circle cx="45" cy="45" r="44" stroke="white" stroke-width="2"/>
<g clip-path="url(#clip0)">
<path fill-rule="evenodd" clip-rule="evenodd" d="M27.5344 24H62.6732C64.6254 24 66.208 25.5825 66.208 27.5347V43.4527H55.9681C55.5161 43.4792 55.1577 43.4298 54.9476 43.255C54.7534 43.0908 54.6598 42.7747 54.704 42.2468V35.8077C55.2761 35.6441 55.7667 35.2732 56.0801 34.7674C56.3934 34.2615 56.507 33.657 56.3987 33.0719C56.2904 32.4868 55.9679 31.9631 55.4942 31.603C55.0205 31.2429 54.4296 31.0722 53.8369 31.1243C53.2441 31.1764 52.692 31.4475 52.2884 31.8847C51.8848 32.322 51.6586 32.8939 51.654 33.489C51.6494 34.084 51.8667 34.6594 52.2635 35.1028C52.6603 35.5462 53.2081 35.8259 53.8 35.8871V42.185C53.7311 43.0272 53.9465 43.5869 54.3667 43.94C54.7711 44.279 55.3325 44.3885 55.9928 44.3514H66.208V62.4653C66.208 64.4174 64.6254 66 62.6732 66H27.5344C25.5822 66 23.9996 64.4174 23.9996 62.4653V27.5347C23.9996 25.5825 25.5822 24 27.5344 24ZM54.0454 35.1527C53.7203 35.1527 53.4025 35.0563 53.1322 34.8756C52.8619 34.695 52.6512 34.4383 52.5268 34.1379C52.4023 33.8376 52.3698 33.5071 52.4332 33.1882C52.4966 32.8693 52.6532 32.5765 52.8831 32.3466C53.113 32.1167 53.4059 31.9601 53.7247 31.8967C54.0436 31.8333 54.3741 31.8658 54.6744 31.9902C54.9748 32.1147 55.2315 32.3253 55.4121 32.5957C55.5928 32.866 55.6892 33.1838 55.6892 33.5089C55.6892 33.9448 55.516 34.3629 55.2077 34.6712C54.8995 34.9795 54.4814 35.1527 54.0454 35.1527ZM39.5597 33.0757C39.2336 32.8777 38.8593 32.7734 38.4778 32.7744C38.0168 32.7752 37.5691 32.9296 37.2056 33.2132C36.842 33.4968 36.5833 33.8934 36.4703 34.3404H23.9999V35.5199H36.5198C36.6431 35.8808 36.8637 36.2008 37.1571 36.4446C37.4505 36.6884 37.8054 36.8465 38.1829 36.9017C38.5604 36.9569 38.9457 36.9069 39.2966 36.7572C39.6475 36.6076 39.9504 36.3641 40.1719 36.0535C40.3934 35.7429 40.525 35.3773 40.5522 34.9968C40.5793 34.6163 40.5011 34.2356 40.326 33.8967C40.1509 33.5578 39.8858 33.2737 39.5597 33.0757ZM37.7461 33.7555C37.9627 33.6108 38.2173 33.5336 38.4778 33.5336C38.827 33.534 39.1617 33.6729 39.4087 33.9199C39.6556 34.1668 39.7945 34.5015 39.795 34.8507C39.795 35.1112 39.7177 35.3659 39.573 35.5825C39.4282 35.7991 39.2225 35.9679 38.9819 36.0676C38.7412 36.1673 38.4764 36.1933 38.2209 36.1425C37.9654 36.0917 37.7307 35.9663 37.5465 35.782C37.3623 35.5978 37.2368 35.3632 37.186 35.1077C37.1352 34.8522 37.1613 34.5873 37.2609 34.3466C37.3606 34.106 37.5295 33.9003 37.7461 33.7555ZM49.033 48.6221C48.7627 48.4415 48.4448 48.3451 48.1197 48.3451C47.6839 48.3455 47.2661 48.5189 46.9579 48.827C46.6498 49.1352 46.4764 49.553 46.476 49.9888C46.476 50.3139 46.5724 50.6317 46.753 50.9021C46.9336 51.1724 47.1903 51.3831 47.4907 51.5075C47.7911 51.6319 48.1216 51.6644 48.4404 51.601C48.7593 51.5376 49.0522 51.381 49.2821 51.1512C49.5119 50.9213 49.6685 50.6284 49.7319 50.3095C49.7953 49.9907 49.7628 49.6601 49.6384 49.3598C49.514 49.0594 49.3033 48.8027 49.033 48.6221ZM23.9999 40.045V39.141V39.1357H46.174C46.8344 39.0986 47.3958 39.2081 47.8002 39.5471C48.2204 39.9002 48.4358 40.4599 48.3669 41.3021V47.6106C48.9588 47.6718 49.5066 47.9515 49.9034 48.3949C50.3002 48.8384 50.5175 49.4137 50.5129 50.0088C50.5083 50.6038 50.2821 51.1757 49.8785 51.613C49.4749 52.0502 48.9228 52.3213 48.33 52.3734C47.7373 52.4255 47.1464 52.2549 46.6727 51.8947C46.199 51.5346 45.8765 51.0109 45.7682 50.4258C45.6599 49.8407 45.7735 49.2362 46.0868 48.7304C46.4002 48.2245 46.8908 47.8536 47.4629 47.69V41.2509C47.5071 40.723 47.4135 40.4069 47.2193 40.2427C47.0092 40.0679 46.6508 40.0167 46.1988 40.045H23.9999ZM39.2865 61.1493C39.2865 60.2418 38.4708 59.5055 37.4661 59.5055L37.4732 59.5073C36.4686 59.5073 35.6529 60.2435 35.6529 61.1511C35.6529 62.0586 36.4615 62.7931 37.4661 62.7931C38.4708 62.7931 39.2865 62.0568 39.2865 61.1493ZM23.9999 51.2108V50.3068V50.2997H35.3174C36.0466 50.2626 36.6681 50.3721 37.1165 50.7111C37.5809 51.0642 37.8192 51.6239 37.7433 52.4661V58.7728C39.0781 58.8946 40.1198 59.9151 40.1198 61.1511C40.1198 62.47 38.9351 63.5417 37.4714 63.5417C36.0077 63.5417 34.823 62.4717 34.823 61.1511C34.823 60.0634 35.6334 59.1418 36.7405 58.8558V52.4167C36.7899 51.8887 36.6857 51.5727 36.4703 51.4085C36.239 51.2337 35.8418 51.1843 35.3404 51.2108H23.9999ZM52.7792 53.4513C52.7792 53.121 52.8702 52.7972 53.0422 52.5152C53.2142 52.2333 53.4605 52.0042 53.7542 51.8531C54.0479 51.702 54.3775 51.6347 54.7069 51.6586C55.0363 51.6825 55.3527 51.7968 55.6214 51.9887C55.8902 52.1807 56.1008 52.443 56.2302 52.7469C56.3597 53.0507 56.4029 53.3843 56.3551 53.7111C56.3074 54.0379 56.1705 54.3452 55.9595 54.5993C55.7486 54.8534 55.4717 55.0445 55.1593 55.1516V65.9994H54.137V55.194C53.7491 55.0958 53.4051 54.8712 53.1592 54.5556C52.9133 54.24 52.7796 53.8514 52.7792 53.4513ZM53.4343 53.4513C53.4343 53.6772 53.5013 53.8981 53.6268 54.086C53.7523 54.2738 53.9307 54.4202 54.1395 54.5067C54.3482 54.5932 54.5779 54.6158 54.7995 54.5717C55.0211 54.5276 55.2246 54.4188 55.3844 54.2591C55.5441 54.0993 55.6529 53.8958 55.697 53.6742C55.7411 53.4526 55.7185 53.2229 55.632 53.0142C55.5455 52.8054 55.3991 52.627 55.2113 52.5015C55.0234 52.376 54.8026 52.309 54.5766 52.309C54.4262 52.3083 54.277 52.3373 54.1378 52.3944C53.9986 52.4515 53.8721 52.5355 53.7654 52.6417C53.6588 52.7478 53.5742 52.874 53.5164 53.0129C53.4587 53.1519 53.429 53.3008 53.429 53.4513H53.4343Z" fill="white"/>
</g>
<defs>
<clipPath id="clip0">
<rect width="42.2083" height="42" fill="white" transform="translate(23.9996 24)"/>
</clipPath>
</defs>
</svg>
