<svg width="90" height="90" viewBox="0 0 90 90" fill="none" xmlns="http://www.w3.org/2000/svg">
<circle cx="45" cy="45" r="44" stroke="white" stroke-width="2"/>
<path d="M65.8868 43.413L60.4823 40.7222L48.5999 46.6386C47.6386 47.1172 46.5592 47.3704 45.478 47.3704C44.3968 47.3704 43.3174 47.1172 42.3562 46.6386L30.4737 40.7222L25.0692 43.413C24.6495 43.622 24.3843 44.0505 24.3843 44.5194C24.3843 44.9886 24.6495 45.4168 25.0692 45.6258L43.458 54.7817C44.0904 55.0969 44.7841 55.2542 45.478 55.2542C46.1717 55.2542 46.8657 55.0969 47.4981 54.7823L65.8868 45.6258C66.3066 45.4168 66.5718 44.9886 66.5718 44.5194C66.5718 44.0505 66.3066 43.622 65.8868 43.413Z" fill="white"/>
<path d="M65.8868 53.7721L60.4823 51.0811L48.5999 56.9977C47.6386 57.4764 46.5592 57.729 45.478 57.729C44.3968 57.729 43.3174 57.4764 42.3562 56.9977L30.4737 51.0811L25.0692 53.7721C24.6495 53.9809 24.3843 54.4097 24.3843 54.8783C24.3843 55.3472 24.6495 55.7757 25.0692 55.985L43.458 65.1409C44.0904 65.4558 44.7841 65.6134 45.478 65.6134C46.1717 65.6131 46.8657 65.4558 47.4981 65.1409L65.8868 55.985C66.3066 55.7757 66.5718 55.3472 66.5718 54.8783C66.5718 54.4094 66.3066 53.9809 65.8868 53.7721Z" fill="white"/>
<path d="M25.0692 35.2697L43.458 44.4259C44.0904 44.7405 44.7841 44.8984 45.478 44.8984C46.172 44.8984 46.8657 44.7405 47.4981 44.4259L65.8868 35.2697C66.3066 35.0609 66.5718 34.6322 66.5718 34.1635C66.5718 33.6944 66.3066 33.2656 65.8868 33.0568L47.4981 23.9004C46.233 23.2708 44.7231 23.2708 43.458 23.9004L25.0692 33.0568C24.6495 33.2656 24.3843 33.6944 24.3843 34.1635C24.3843 34.6322 24.6495 35.0609 25.0692 35.2697Z" fill="white"/>
</svg>
