<svg width="90" height="90" viewBox="0 0 90 90" fill="none" xmlns="http://www.w3.org/2000/svg">
<circle cx="45" cy="45" r="44" stroke="white" stroke-width="2"/>
<g clip-path="url(#clip0)">
<path fill-rule="evenodd" clip-rule="evenodd" d="M32.1462 40.4909V51.8894L48.1106 63.3745V29.0059L32.1462 40.4909ZM29.867 40.4909C29.867 39.7576 30.2199 39.0691 30.8151 38.6408L46.7796 27.1557C48.2874 26.0711 50.3898 27.1485 50.3898 29.0059V63.3745C50.3898 65.2318 48.2873 66.3093 46.7796 65.2246L30.8151 53.7395C30.2199 53.3113 29.867 52.6227 29.867 51.8894V40.4909ZM25.4692 41.769H23.5146C23.424 41.769 23.3506 41.8425 23.3506 41.9331V50.7286C23.3506 50.8192 23.424 50.8926 23.5146 50.8926H25.4692C25.5598 50.8926 25.6332 50.8192 25.6332 50.7286V41.9331C25.6332 41.8425 25.5598 41.769 25.4692 41.769ZM23.5146 39.4899C22.1653 39.4899 21.0714 40.5837 21.0714 41.9331V50.7286C21.0714 52.0779 22.1653 53.1718 23.5146 53.1718H25.4692C26.8185 53.1718 27.9124 52.0779 27.9124 50.7286V41.9331C27.9124 40.5837 26.8185 39.4899 25.4692 39.4899H23.5146ZM65.8548 39.4169C66.2998 39.8619 66.2998 40.5834 65.8548 41.0285L60.6747 46.2085L65.8548 51.3886C66.2998 51.8336 66.2998 52.5551 65.8548 53.0002C65.4097 53.4452 64.6882 53.4452 64.2432 53.0002L59.0631 47.8201L53.8831 53.0002C53.4381 53.4452 52.7165 53.4452 52.2715 53.0002C51.8265 52.5551 51.8265 51.8336 52.2715 51.3886L57.4515 46.2085L52.2715 41.0285C51.8264 40.5834 51.8264 39.8619 52.2715 39.4169C52.7165 38.9718 53.438 38.9718 53.8831 39.4169L59.0631 44.5969L64.2432 39.4169C64.6882 38.9718 65.4098 38.9718 65.8548 39.4169Z" fill="white"/>
</g>
<defs>
<clipPath id="clip0">
<rect width="46" height="46" fill="white" transform="translate(22 23)"/>
</clipPath>
</defs>
</svg>
