<svg xmlns="http://www.w3.org/2000/svg" viewBox="0 0 30 30">
	<g>
		<path d="M9.8,19l1.2,1.2c0.7,0.6,1.9,0.8,2.5,0.2L29,3.4c0.2-0.2,0.3-0.4,0.4-0.6c0.1-0.2,0.1-0.5,0.1-0.7c0-0.3-0.1-0.5-0.2-0.7c-0.1-0.2-0.2-0.4-0.4-0.6c-0.2-0.2-0.4-0.3-0.6-0.4c-0.2-0.1-0.5-0.1-0.7-0.1c-0.3,0-0.5,0.1-0.7,0.2c-0.2,0.1-0.4,0.2-0.6,0.4L9.6,16.5C8.9,17.1,9.2,18.4,9.8,19z"/>
		<path d="M9.2,24.9c0.2-0.2,0.4-0.5,0.6-0.8c0.3-0.6,0.4-1.2,0.2-1.9c-0.1-0.6-0.5-1.2-1-1.6C8.5,20.3,7.9,20,7.2,20c-0.6,0-1.3,0.2-1.8,0.6l-0.1,0.1l-0.3,0.2L5,21c-0.6,0.7-1,1.5-1.2,2.4c-0.6,2.1-0.7,4.4-2.8,5.9C-1.7,31.3,6.5,27.7,9.2,24.9z"/>
	</g>
</svg>
