<svg width="304" height="212" viewBox="0 0 304 212" fill="none" xmlns="http://www.w3.org/2000/svg">
  <path d="M10 27.5H304" stroke="white" stroke-opacity="0.2"/>
  <path d="M10 48H304" stroke="white" stroke-opacity="0.2"/>
  <path d="M10 68H304" stroke="white" stroke-opacity="0.2"/>
  <path d="M10 88H304" stroke="white" stroke-opacity="0.2"/>
  <path d="M10 108H304" stroke="white" stroke-opacity="0.2"/>
  <path d="M10 128H304" stroke="white" stroke-opacity="0.2"/>
  <path d="M10 148H304" stroke="white" stroke-opacity="0.2"/>
  <path d="M10 168H304" stroke="white" stroke-opacity="0.2"/>
  <path d="M10 188H304" stroke="white" stroke-opacity="0.2"/>
  <path d="M10 208H304" stroke="white" stroke-opacity="0.2"/>
  <path d="M11.2918 141.152V143H3.88579V141.53L7.66579 137.96C8.06712 137.577 8.33779 137.251 8.47779 136.98C8.61779 136.7 8.68779 136.425 8.68779 136.154C8.68779 135.762 8.55246 135.463 8.28179 135.258C8.02046 135.043 7.63312 134.936 7.11979 134.936C6.69046 134.936 6.30312 135.02 5.95779 135.188C5.61246 135.347 5.32312 135.589 5.08979 135.916L3.43779 134.852C3.82046 134.283 4.34779 133.839 5.01979 133.522C5.69179 133.195 6.46179 133.032 7.32979 133.032C8.05779 133.032 8.69246 133.153 9.23379 133.396C9.78446 133.629 10.2091 133.965 10.5078 134.404C10.8158 134.833 10.9698 135.342 10.9698 135.93C10.9698 136.462 10.8578 136.961 10.6338 137.428C10.4098 137.895 9.97579 138.427 9.33179 139.024L7.07779 141.152H11.2918ZM16.8203 143.168C16.0083 143.168 15.2849 142.967 14.6503 142.566C14.0156 142.165 13.5163 141.586 13.1523 140.83C12.7976 140.065 12.6203 139.155 12.6203 138.1C12.6203 137.045 12.7976 136.14 13.1523 135.384C13.5163 134.619 14.0156 134.035 14.6503 133.634C15.2849 133.233 16.0083 133.032 16.8203 133.032C17.6323 133.032 18.3556 133.233 18.9903 133.634C19.6249 134.035 20.1196 134.619 20.4743 135.384C20.8383 136.14 21.0203 137.045 21.0203 138.1C21.0203 139.155 20.8383 140.065 20.4743 140.83C20.1196 141.586 19.6249 142.165 18.9903 142.566C18.3556 142.967 17.6323 143.168 16.8203 143.168ZM16.8203 141.25C17.4176 141.25 17.8843 140.993 18.2203 140.48C18.5656 139.967 18.7383 139.173 18.7383 138.1C18.7383 137.027 18.5656 136.233 18.2203 135.72C17.8843 135.207 17.4176 134.95 16.8203 134.95C16.2323 134.95 15.7656 135.207 15.4203 135.72C15.0843 136.233 14.9163 137.027 14.9163 138.1C14.9163 139.173 15.0843 139.967 15.4203 140.48C15.7656 140.993 16.2323 141.25 16.8203 141.25Z" fill="white"/>
  <path d="M8.62381 193.2V203H6.35581V195.02H4.39581V193.2H8.62381ZM14.9462 203.168C14.1342 203.168 13.4109 202.967 12.7762 202.566C12.1416 202.165 11.6422 201.586 11.2782 200.83C10.9236 200.065 10.7462 199.155 10.7462 198.1C10.7462 197.045 10.9236 196.14 11.2782 195.384C11.6422 194.619 12.1416 194.035 12.7762 193.634C13.4109 193.233 14.1342 193.032 14.9462 193.032C15.7582 193.032 16.4816 193.233 17.1162 193.634C17.7509 194.035 18.2456 194.619 18.6002 195.384C18.9642 196.14 19.1462 197.045 19.1462 198.1C19.1462 199.155 18.9642 200.065 18.6002 200.83C18.2456 201.586 17.7509 202.165 17.1162 202.566C16.4816 202.967 15.7582 203.168 14.9462 203.168ZM14.9462 201.25C15.5436 201.25 16.0102 200.993 16.3462 200.48C16.6916 199.967 16.8642 199.173 16.8642 198.1C16.8642 197.027 16.6916 196.233 16.3462 195.72C16.0102 195.207 15.5436 194.95 14.9462 194.95C14.3582 194.95 13.8916 195.207 13.5462 195.72C13.2102 196.233 13.0422 197.027 13.0422 198.1C13.0422 199.173 13.2102 199.967 13.5462 200.48C13.8916 200.993 14.3582 201.25 14.9462 201.25Z" fill="white"/>
  <path d="M9.73285 80.942H8.13685V83H5.92485V80.942H0.646852V79.416L5.26685 73.2H7.64685L3.36285 79.094H5.99485V77.26H8.13685V79.094H9.73285V80.942ZM15.0312 83.168C14.2192 83.168 13.4959 82.9673 12.8612 82.566C12.2265 82.1647 11.7272 81.586 11.3632 80.83C11.0085 80.0647 10.8312 79.1547 10.8312 78.1C10.8312 77.0453 11.0085 76.14 11.3632 75.384C11.7272 74.6187 12.2265 74.0353 12.8612 73.634C13.4959 73.2327 14.2192 73.032 15.0312 73.032C15.8432 73.032 16.5665 73.2327 17.2012 73.634C17.8359 74.0353 18.3305 74.6187 18.6852 75.384C19.0492 76.14 19.2312 77.0453 19.2312 78.1C19.2312 79.1547 19.0492 80.0647 18.6852 80.83C18.3305 81.586 17.8359 82.1647 17.2012 82.566C16.5665 82.9673 15.8432 83.168 15.0312 83.168ZM15.0312 81.25C15.6285 81.25 16.0952 80.9933 16.4312 80.48C16.7765 79.9667 16.9492 79.1733 16.9492 78.1C16.9492 77.0267 16.7765 76.2333 16.4312 75.72C16.0952 75.2067 15.6285 74.95 15.0312 74.95C14.4432 74.95 13.9765 75.2067 13.6312 75.72C13.2952 76.2333 13.1272 77.0267 13.1272 78.1C13.1272 79.1733 13.2952 79.9667 13.6312 80.48C13.9765 80.9933 14.4432 81.25 15.0312 81.25Z" fill="white"/>
  <path d="M8.34599 12.854C8.97133 12.854 9.54066 12.98 10.054 13.232C10.5673 13.484 10.9733 13.8433 11.272 14.31C11.5707 14.7673 11.72 15.2993 11.72 15.906C11.72 16.5593 11.5567 17.1333 11.23 17.628C10.9033 18.1227 10.4553 18.5053 9.88599 18.776C9.32599 19.0373 8.70066 19.168 8.00999 19.168C6.63799 19.168 5.56466 18.748 4.78999 17.908C4.01533 17.068 3.62799 15.8687 3.62799 14.31C3.62799 13.1993 3.83799 12.2473 4.25799 11.454C4.67799 10.6607 5.26133 10.0587 6.00799 9.648C6.76399 9.23733 7.63666 9.032 8.62599 9.032C9.14866 9.032 9.64799 9.09267 10.124 9.214C10.6093 9.326 11.02 9.48933 11.356 9.704L10.516 11.37C10.0307 11.0433 9.41933 10.88 8.68199 10.88C7.85133 10.88 7.19333 11.1227 6.70799 11.608C6.22266 12.0933 5.96133 12.798 5.92399 13.722C6.50266 13.1433 7.30999 12.854 8.34599 12.854ZM7.88399 17.474C8.36933 17.474 8.76133 17.3433 9.05999 17.082C9.36799 16.8207 9.52199 16.466 9.52199 16.018C9.52199 15.57 9.36799 15.2153 9.05999 14.954C8.76133 14.6833 8.35999 14.548 7.85599 14.548C7.36133 14.548 6.95533 14.688 6.63799 14.968C6.32066 15.2387 6.16199 15.5887 6.16199 16.018C6.16199 16.4473 6.31599 16.7973 6.62399 17.068C6.93199 17.3387 7.35199 17.474 7.88399 17.474ZM17.1621 19.168C16.3501 19.168 15.6267 18.9673 14.9921 18.566C14.3574 18.1647 13.8581 17.586 13.4941 16.83C13.1394 16.0647 12.9621 15.1547 12.9621 14.1C12.9621 13.0453 13.1394 12.14 13.4941 11.384C13.8581 10.6187 14.3574 10.0353 14.9921 9.634C15.6267 9.23267 16.3501 9.032 17.1621 9.032C17.9741 9.032 18.6974 9.23267 19.3321 9.634C19.9667 10.0353 20.4614 10.6187 20.8161 11.384C21.1801 12.14 21.3621 13.0453 21.3621 14.1C21.3621 15.1547 21.1801 16.0647 20.8161 16.83C20.4614 17.586 19.9667 18.1647 19.3321 18.566C18.6974 18.9673 17.9741 19.168 17.1621 19.168ZM17.1621 17.25C17.7594 17.25 18.2261 16.9933 18.5621 16.48C18.9074 15.9667 19.0801 15.1733 19.0801 14.1C19.0801 13.0267 18.9074 12.2333 18.5621 11.72C18.2261 11.2067 17.7594 10.95 17.1621 10.95C16.5741 10.95 16.1074 11.2067 15.7621 11.72C15.4261 12.2333 15.2581 13.0267 15.2581 14.1C15.2581 15.1733 15.4261 15.9667 15.7621 16.48C16.1074 16.9933 16.5741 17.25 17.1621 17.25Z" fill="white"/>
</svg>
