<svg width="40" height="41" viewBox="0 0 40 41" fill="none" xmlns="http://www.w3.org/2000/svg">
<path d="M39.0588 16.1597L35.9845 15.4913C35.7172 14.6728 35.386 13.8745 34.9951 13.1055L36.6971 10.4581C37.001 9.98503 36.9342 9.364 36.5369 8.96666L31.7474 4.17723C31.3501 3.77989 30.7291 3.71306 30.256 4.01701L27.6086 5.71898C26.8396 5.32805 26.0413 4.99693 25.2228 4.7296L24.5544 1.65526C24.4351 1.10594 23.9487 0.714096 23.3865 0.714096H16.6135C16.0513 0.714096 15.5649 1.10594 15.4456 1.65526L14.7772 4.7296C13.9587 4.99693 13.1604 5.32805 12.3914 5.71898L9.74396 4.01701C9.27094 3.71306 8.6499 3.77989 8.25256 4.17723L3.46313 8.96666C3.0658 9.364 2.99896 9.98503 3.30292 10.4581L5.00488 13.1055C4.61395 13.8745 4.28284 14.6728 4.0155 15.4913L0.941162 16.1597C0.391846 16.2793 0 16.7654 0 17.3276V24.1006C0 24.6628 0.391846 25.1489 0.941162 25.2685L4.0155 25.9369C4.28284 26.7554 4.61395 27.5537 5.00488 28.3227L3.30292 30.9701C2.99896 31.4432 3.0658 32.0642 3.46313 32.4615L8.25256 37.251C8.6499 37.6483 9.27094 37.7151 9.74396 37.4112L12.3914 35.7092C13.1604 36.1001 13.9587 36.4313 14.7772 36.6986L15.4456 39.7729C15.5649 40.3223 16.0513 40.7141 16.6135 40.7141H23.3865C23.9487 40.7141 24.4351 40.3223 24.5544 39.7729L25.2228 36.6986C26.0413 36.4313 26.8396 36.1001 27.6086 35.7092L30.256 37.4112C30.7291 37.7151 31.3501 37.6486 31.7474 37.251L36.5369 32.4615C36.9342 32.0642 37.001 31.4432 36.6971 30.9701L34.9951 28.3227C35.386 27.5537 35.7172 26.7554 35.9845 25.9369L39.0588 25.2685C39.6082 25.1489 40 24.6628 40 24.1006V17.3276C40 16.7654 39.6082 16.2793 39.0588 16.1597ZM27.1713 20.7141C27.1713 24.6683 23.9542 27.8854 20 27.8854C16.0458 27.8854 12.8287 24.6683 12.8287 20.7141C12.8287 16.7599 16.0458 13.5428 20 13.5428C23.9542 13.5428 27.1713 16.7599 27.1713 20.7141Z"/>
</svg>
