<svg xmlns="http://www.w3.org/2000/svg" viewBox="0 0 44 44">
<g>
	<path d="M22,42C11,42,2,33,2,22C2,11,11,2,22,2c11,0,20,9,20,20C42,33,33,42,22,42z M22,3.7C11.9,3.7,3.7,11.9,3.7,22c0,10.1,8.2,18.3,18.3,18.3c10.1,0,18.3-8.2,18.3-18.3C40.3,11.9,32.1,3.7,22,3.7z"/>
	<path d="M25.3,31.1h-5.7c-0.3,0-0.4-0.1-0.4-0.4v-1.3c0-0.2,0.1-0.4,0.4-0.4h1.6V18.3h-1.6c-0.3,0-0.4-0.1-0.4-0.4v-1.3c0-0.2,0.1-0.4,0.4-0.4h3.8c0.2,0,0.4,0.1,0.4,0.4v12.4h1.6c0.3,0,0.4,0.1,0.4,0.4v1.3C25.7,31,25.5,31.1,25.3,31.1z M23.6,11.9c0.3,0.3,0.5,0.7,0.5,1.2s-0.2,0.9-0.5,1.2c-0.3,0.3-0.7,0.5-1.2,0.5s-0.9-0.2-1.2-0.5c-0.3-0.3-0.5-0.7-0.5-1.2s0.2-0.9,0.5-1.2c0.3-0.3,0.7-0.5,1.2-0.5S23.2,11.6,23.6,11.9z"/>
</g>
</svg>
