<svg width="28" height="28" viewBox="0 0 28 28" fill="none" xmlns="http://www.w3.org/2000/svg">
  <g>
    <path d="M23.4705 24.8677H3.8893C3.87548 23.2483 4.23076 21.6471 4.92818 20.1855C5.6256 18.7239 6.64682 17.4405 7.91433 16.4325C8.2759 16.1487 8.73298 16.0152 9.19048 16.0598C9.64798 16.1043 10.0707 16.3236 10.3707 16.6718C11.241 17.7097 12.4136 18.3406 13.6864 18.3406C14.9592 18.3406 16.1428 17.6988 17.0283 16.6414C17.3206 16.3021 17.7325 16.0886 18.1783 16.0453C18.624 16.0019 19.0693 16.132 19.4215 16.4086C20.6966 17.4166 21.7244 18.7029 22.4261 20.169C23.1279 21.6351 23.4851 23.2423 23.4705 24.8677Z"/>
    <path d="M18.6841 9.74694C18.6929 11.0295 18.4008 12.2963 17.8313 13.4456C16.9327 15.2144 15.4097 16.3784 13.6801 16.3784C11.9504 16.3784 10.4165 15.2144 9.52884 13.4456C8.95935 12.2963 8.66724 11.0295 8.67597 9.74694C8.67597 6.08308 10.9169 3.11108 13.6801 3.11108C16.4432 3.11108 18.6841 6.08308 18.6841 9.74694Z"/>
  </g>
</svg>
