<svg xmlns="http://www.w3.org/2000/svg" viewBox="0 0 30 30">
<g>
	<path d="M15,30c-1.5,0-2.8-0.9-3.3-2.3c-0.1-0.3-0.3-0.6-0.5-0.9c-0.2-0.3-0.5-0.5-0.9-0.6C10,26.1,9.7,26,9.3,26c-0.4,0-0.7,0.1-1,0.2c-1.3,0.6-2.9,0.4-3.9-0.7c-1.1-1-1.3-2.6-0.7-3.9c0.2-0.3,0.2-0.7,0.2-1c0-0.4-0.1-0.7-0.2-1c-0.1-0.3-0.3-0.6-0.6-0.9c-0.3-0.2-0.6-0.4-0.9-0.5C0.9,17.8,0,16.5,0,15s0.9-2.8,2.3-3.3c0.3-0.1,0.6-0.3,0.9-0.5c0.3-0.2,0.5-0.5,0.6-0.9C3.9,10,4,9.7,4,9.3c0-0.4-0.1-0.7-0.2-1C3.1,7,3.3,5.4,4.4,4.4c1-1.1,2.6-1.3,3.9-0.7C8.6,3.9,9,3.9,9.3,4c0.3,0,0.7-0.1,1-0.2c0.3-0.1,0.6-0.3,0.9-0.6c0.2-0.3,0.4-0.6,0.5-0.9C12.2,0.9,13.5,0,15,0s2.8,0.9,3.3,2.3c0.1,0.3,0.3,0.6,0.5,0.9c0.2,0.3,0.5,0.5,0.9,0.6C20,3.9,20.3,4,20.7,4c0.4,0,0.7-0.1,1-0.2c1.3-0.6,2.9-0.4,3.9,0.7c1.1,1,1.3,2.6,0.7,3.9c-0.1,0.3-0.2,0.7-0.2,1c0,0.4,0.1,0.7,0.2,1c0.1,0.3,0.3,0.6,0.6,0.9c0.3,0.2,0.6,0.4,0.9,0.5l0,0c1.4,0.5,2.3,1.8,2.3,3.3s-0.9,2.8-2.3,3.3c-0.3,0.1-0.6,0.3-0.9,0.5c-0.3,0.2-0.5,0.5-0.6,0.9c-0.1,0.3-0.2,0.7-0.2,1c0,0.3,0.1,0.7,0.2,1c0.6,1.3,0.4,2.9-0.7,3.9c-1,1.1-2.6,1.3-3.9,0.7c-0.3-0.2-0.7-0.2-1-0.2c-0.4,0-0.7,0.1-1,0.2c-0.3,0.1-0.6,0.3-0.9,0.6c-0.2,0.3-0.4,0.6-0.5,0.9C17.8,29.1,16.5,30,15,30z M9.4,25.1c0.5,0,0.9,0.1,1.3,0.3c0.5,0.2,0.9,0.5,1.2,0.8c0.3,0.4,0.6,0.8,0.8,1.2c0.4,1.2,1.5,1.7,2.3,1.7s1.9-0.4,2.3-1.7c0.2-0.5,0.4-0.9,0.8-1.2c0.3-0.4,0.7-0.6,1.2-0.8c0.4-0.2,0.9-0.3,1.4-0.3c0.5,0,1,0.1,1.4,0.3c1.2,0.6,2.2,0.1,2.8-0.5c0.6-0.6,1-1.7,0.5-2.8c-0.2-0.4-0.3-0.9-0.3-1.4c0-0.5,0.1-1,0.3-1.4c0.2-0.4,0.5-0.8,0.8-1.2c0.3-0.3,0.8-0.6,1.2-0.8c1.2-0.4,1.7-1.5,1.7-2.3s-0.4-1.9-1.7-2.3l0,0c-0.5-0.2-0.9-0.4-1.2-0.8c-0.4-0.3-0.6-0.7-0.8-1.2c-0.2-0.4-0.3-0.9-0.3-1.4c0-0.5,0.1-1,0.3-1.4c0.6-1.2,0.1-2.2-0.5-2.8c-0.6-0.6-1.7-1-2.8-0.5c-0.4,0.2-0.9,0.3-1.4,0.3c-0.5,0-1-0.1-1.4-0.3c-0.4-0.2-0.9-0.5-1.2-0.8c-0.3-0.4-0.6-0.8-0.8-1.2C16.9,1.4,15.8,1,15,1s-1.9,0.4-2.3,1.7c-0.2,0.5-0.4,0.9-0.8,1.2c-0.3,0.4-0.7,0.6-1.2,0.8c-0.5,0.2-0.9,0.3-1.4,0.3c-0.5,0-1-0.1-1.4-0.3C6.7,4,5.7,4.5,5.1,5.1C4.5,5.7,4,6.7,4.6,7.9c0.2,0.4,0.3,0.9,0.3,1.4c0,0.5-0.1,1-0.3,1.4c-0.2,0.5-0.5,0.8-0.8,1.2c-0.4,0.3-0.8,0.6-1.2,0.8C1.4,13.1,1,14.2,1,15s0.4,1.9,1.7,2.3c0.5,0.2,0.9,0.4,1.2,0.8c0.4,0.3,0.6,0.7,0.8,1.2c0.2,0.5,0.3,0.9,0.3,1.4c0,0.5-0.1,1-0.3,1.4c-0.6,1.2-0.1,2.2,0.5,2.8c0.6,0.6,1.7,1,2.8,0.5C8.3,25.2,8.8,25.1,9.4,25.1C9.3,25.1,9.4,25.1,9.4,25.1z"/>
	<path d="M9.8,12.4c0-0.7,0.2-1.3,0.5-1.8c0.3-0.5,0.9-0.7,1.5-0.7c0.6,0,1.1,0.2,1.5,0.7s0.6,1.1,0.6,1.9c0,0.8-0.2,1.4-0.6,1.9S12.4,15,11.8,15c-0.6,0-1.1-0.2-1.5-0.7C10,13.9,9.8,13.3,9.8,12.4z M11.9,10.7c-0.3,0-0.5,0.1-0.7,0.4c-0.2,0.3-0.3,0.7-0.3,1.4c0,0.6,0.1,1.1,0.3,1.3c0.2,0.3,0.4,0.4,0.7,0.4c0.3,0,0.5-0.1,0.7-0.4s0.3-0.7,0.3-1.4c0-0.6-0.1-1.1-0.3-1.3C12.4,10.8,12.2,10.7,11.9,10.7z M11.9,20.1l5.3-10.2h1l-5.3,10.2H11.9z M16.1,17.5c0-0.7,0.2-1.3,0.5-1.8c0.3-0.5,0.9-0.7,1.5-0.7c0.6,0,1.1,0.2,1.5,0.7s0.6,1.1,0.6,1.9c0,0.8-0.2,1.4-0.6,1.9c-0.4,0.4-0.9,0.7-1.5,0.7c-0.6,0-1.1-0.2-1.5-0.7C16.3,19,16.1,18.3,16.1,17.5z M18.1,15.8c-0.3,0-0.5,0.1-0.7,0.4c-0.2,0.3-0.3,0.7-0.3,1.4c0,0.6,0.1,1.1,0.3,1.3c0.2,0.3,0.4,0.4,0.7,0.4c0.3,0,0.6-0.1,0.8-0.4c0.2-0.3,0.3-0.7,0.3-1.4c0-0.6-0.1-1.1-0.3-1.3C18.7,15.9,18.4,15.8,18.1,15.8z"/>
</g>
</svg>
