<svg width="28" height="28" viewBox="0 0 28 28" fill="none" xmlns="http://www.w3.org/2000/svg">
<g filter="url(#filter0_d)">
<g clip-path="url(#clip0)">
<path d="M23.4451 6.16628L23.4454 6.16654C24.05 6.77027 24.3889 7.58893 24.3889 8.44346V22.7725C24.3889 23.9094 23.4677 24.8307 22.3308 24.8307H5.12177C3.98486 24.8307 3.0636 23.9094 3.0636 22.7725V5.56354C3.0636 4.42663 3.98486 3.50537 5.12177 3.50537H19.4508C20.3054 3.50537 21.124 3.84432 21.7278 4.44894L21.728 4.4492L23.4451 6.16628ZM5.78443 6.4937V8.8192C5.78443 9.48046 6.32084 10.0169 6.9821 10.0169H16.7494C17.4107 10.0169 17.9471 9.48046 17.9471 8.8192V6.4937C17.9471 5.83245 17.4107 5.29604 16.7494 5.29604H6.9821C6.32084 5.29604 5.78443 5.83245 5.78443 6.4937ZM9.04027 17.4239C9.04027 20.0115 11.1386 22.1099 13.7263 22.1099C16.3139 22.1099 18.4123 20.0115 18.4123 17.4239C18.4123 14.836 16.3139 12.7379 13.7263 12.7379C11.1386 12.7379 9.04027 14.836 9.04027 17.4239Z" stroke="white"/>
</g>
</g>
<defs>
<filter id="filter0_d" x="-1.16667" y="0" width="30.3333" height="30.3333" filterUnits="userSpaceOnUse" color-interpolation-filters="sRGB">
<feFlood flood-opacity="0" result="BackgroundImageFix"/>
<feColorMatrix in="SourceAlpha" type="matrix" values="0 0 0 0 0 0 0 0 0 0 0 0 0 0 0 0 0 0 127 0"/>
<feOffset dy="1.16667"/>
<feGaussianBlur stdDeviation="0.583333"/>
<feColorMatrix type="matrix" values="0 0 0 0 0 0 0 0 0 0 0 0 0 0 0 0 0 0 0.25 0"/>
<feBlend mode="normal" in2="BackgroundImageFix" result="effect1_dropShadow"/>
<feBlend mode="normal" in="SourceGraphic" in2="effect1_dropShadow" result="shape"/>
</filter>
<clipPath id="clip0">
<rect width="22.3253" height="22.3253" fill="white" transform="translate(2.5636 3.00537)"/>
</clipPath>
</defs>
</svg>
