<svg width="22" height="26" viewBox="0 0 22 26" fill="none" xmlns="http://www.w3.org/2000/svg">
<g filter="url(#filter0_d)">
<path d="M11.0445 11.4784C12.7238 11.4784 14.09 10.1122 14.09 8.43293C14.09 6.75363 12.7238 5.38745 11.0445 5.38745C9.3652 5.38745 7.99902 6.75363 7.99902 8.43293C7.99902 10.1122 9.36526 11.4784 11.0445 11.4784ZM11.0445 6.45893C12.133 6.45893 13.0186 7.34447 13.0186 8.43299C13.0186 9.52151 12.133 10.407 11.0445 10.407C9.95599 10.407 9.07045 9.52151 9.07045 8.43299C9.07045 7.34447 9.95604 6.45893 11.0445 6.45893Z" fill="white"/>
<path d="M11.332 12.0565H10.6721C8.28991 12.0565 6.35181 14.0169 6.35181 16.4266V18.1694C6.35181 18.4653 6.59165 18.7052 6.88752 18.7052H15.1166C15.4125 18.7052 15.6523 18.4653 15.6523 18.1694V16.4266C15.6523 14.0169 13.7142 12.0565 11.332 12.0565ZM14.5809 17.6338H7.42324V16.4266C7.42324 14.6077 8.8807 13.128 10.6721 13.128H11.332C13.1234 13.128 14.5809 14.6077 14.5809 16.4266V17.6338Z" fill="white"/>
<path d="M17.7684 0H4.06461C2.3748 0 1 1.3748 1 3.06461V20.9354C1 22.6252 2.3748 24 4.06461 24H17.7684C19.4583 24 20.8331 22.6252 20.8331 20.9354V3.06461C20.833 1.3748 19.4583 0 17.7684 0ZM19.7616 20.9354C19.7616 22.0345 18.8675 22.9286 17.7684 22.9286H4.06461C2.96554 22.9286 2.07143 22.0345 2.07143 20.9354V3.06461C2.07143 1.96554 2.96554 1.07143 4.06461 1.07143H17.7684C18.8675 1.07143 19.7616 1.96554 19.7616 3.06461V20.9354H19.7616Z" fill="white"/>
</g>
<defs>
<filter id="filter0_d" x="0.2" y="0" width="21.4331" height="25.6" filterUnits="userSpaceOnUse" color-interpolation-filters="sRGB">
<feFlood flood-opacity="0" result="BackgroundImageFix"/>
<feColorMatrix in="SourceAlpha" type="matrix" values="0 0 0 0 0 0 0 0 0 0 0 0 0 0 0 0 0 0 127 0"/>
<feOffset dy="0.8"/>
<feGaussianBlur stdDeviation="0.4"/>
<feColorMatrix type="matrix" values="0 0 0 0 0 0 0 0 0 0 0 0 0 0 0 0 0 0 0.25 0"/>
<feBlend mode="normal" in2="BackgroundImageFix" result="effect1_dropShadow"/>
<feBlend mode="normal" in="SourceGraphic" in2="effect1_dropShadow" result="shape"/>
</filter>
</defs>
</svg>
