<svg width="32" height="30" viewBox="0 0 32 30" fill="none" xmlns="http://www.w3.org/2000/svg">
<g clip-path="url(#clip0)" filter="url(#filter0_d)">
<path d="M23.6582 17.8361C21.5731 17.8361 19.8767 19.5324 19.8767 21.6176C19.8767 23.7028 21.5731 25.3991 23.6582 25.3991C25.7438 25.3991 27.4398 23.7028 27.4398 21.6176C27.4398 19.5324 25.7434 17.8361 23.6582 17.8361ZM23.6582 23.5083C22.6155 23.5083 21.7675 22.6603 21.7675 21.6176C21.7675 20.5748 22.6155 19.7268 23.6582 19.7268C24.701 19.7268 25.549 20.5748 25.549 21.6176C25.549 22.6604 24.701 23.5083 23.6582 23.5083Z" fill="white"/>
<path d="M10.7383 17.8361C8.65313 17.8361 6.95679 19.5324 6.95679 21.6176C6.95679 23.7028 8.65313 25.3991 10.7383 25.3991C12.8235 25.3991 14.5198 23.7028 14.5198 21.6176C14.5198 19.5324 12.8235 17.8361 10.7383 17.8361ZM10.7383 23.5083C9.69558 23.5083 8.84755 22.6603 8.84755 21.6176C8.84755 20.5748 9.69558 19.7268 10.7383 19.7268C11.7808 19.7268 12.6291 20.5748 12.6291 21.6176C12.6291 22.6604 11.781 23.5083 10.7383 23.5083Z" fill="white"/>
<path d="M26.2033 7.01218C26.0425 6.69296 25.7158 6.49158 25.3584 6.49158H20.3794V8.38234H24.7754L27.3496 13.5025L29.0394 12.6529L26.2033 7.01218Z" fill="white"/>
<path d="M20.8216 20.7037H13.6682V22.5945H20.8216V20.7037Z" fill="white"/>
<path d="M7.90133 20.7037H4.62406C4.10188 20.7037 3.67871 21.127 3.67871 21.6491C3.67871 22.1713 4.10193 22.5944 4.62406 22.5944H7.90139C8.42357 22.5944 8.84674 22.1712 8.84674 21.6491C8.84674 21.1269 8.42352 20.7037 7.90133 20.7037Z" fill="white"/>
<path d="M30.8016 14.9243L28.9421 12.5294C28.7634 12.2987 28.4877 12.1638 28.1955 12.1638H21.3257V5.54618C21.3257 5.02399 20.9025 4.60083 20.3804 4.60083H4.62406C4.10187 4.60083 3.67871 5.02405 3.67871 5.54618C3.67871 6.06831 4.10193 6.49153 4.62406 6.49153H19.435V13.1092C19.435 13.6314 19.8582 14.0545 20.3803 14.0545H27.7326L29.1093 15.828V20.7037H26.4938C25.9716 20.7037 25.5484 21.1269 25.5484 21.649C25.5484 22.1712 25.9716 22.5944 26.4938 22.5944H30.0547C30.5769 22.5944 31 22.1712 31.0001 21.649V15.5042C31.0001 15.2943 30.9301 15.0901 30.8016 14.9243Z" fill="white"/>
<path d="M7.83733 15.9139H3.48856C2.96638 15.9139 2.54321 16.3372 2.54321 16.8593C2.54321 17.3815 2.96644 17.8046 3.48856 17.8046H7.83728C8.35946 17.8046 8.78263 17.3814 8.78263 16.8593C8.78269 16.3372 8.35946 15.9139 7.83733 15.9139Z" fill="white"/>
<path d="M10.0126 12.1954H1.94535C1.42322 12.1954 1 12.6187 1 13.1408C1 13.663 1.42322 14.0862 1.94535 14.0862H10.0126C10.5348 14.0862 10.958 13.663 10.958 13.1408C10.958 12.6187 10.5348 12.1954 10.0126 12.1954Z" fill="white"/>
<path d="M11.5558 8.47681H3.48856C2.96638 8.47681 2.54321 8.90003 2.54321 9.42216C2.54321 9.94435 2.96644 10.3675 3.48856 10.3675H11.5558C12.078 10.3675 12.5012 9.94429 12.5012 9.42216C12.5012 8.90003 12.078 8.47681 11.5558 8.47681Z" fill="white"/>
</g>
<defs>
<filter id="filter0_d" x="0" y="0" width="32" height="32" filterUnits="userSpaceOnUse" color-interpolation-filters="sRGB">
<feFlood flood-opacity="0" result="BackgroundImageFix"/>
<feColorMatrix in="SourceAlpha" type="matrix" values="0 0 0 0 0 0 0 0 0 0 0 0 0 0 0 0 0 0 127 0"/>
<feOffset dy="1"/>
<feGaussianBlur stdDeviation="0.5"/>
<feColorMatrix type="matrix" values="0 0 0 0 0 0 0 0 0 0 0 0 0 0 0 0 0 0 0.25 0"/>
<feBlend mode="normal" in2="BackgroundImageFix" result="effect1_dropShadow"/>
<feBlend mode="normal" in="SourceGraphic" in2="effect1_dropShadow" result="shape"/>
</filter>
<clipPath id="clip0">
<rect width="30" height="30" fill="white" transform="translate(1)"/>
</clipPath>
</defs>
</svg>
