<?xml version="1.0" encoding="utf-8"?>
<!-- Generator: Adobe Illustrator 19.2.1, SVG Export Plug-In . SVG Version: 6.00 Build 0)  -->
<svg version="1.1" id="Слой_1" xmlns="http://www.w3.org/2000/svg" xmlns:xlink="http://www.w3.org/1999/xlink" x="0px" y="0px"
	 viewBox="0 0 30 30" style="enable-background:new 0 0 30 30;" xml:space="preserve">
<style type="text/css">
	.st0{fill:#FFFFFF;}
</style>
<g>
	<path d="M19.9,21.9v0.7c0,0.2-0.2,0.4-0.4,0.4h-1c-0.2,0-0.4-0.2-0.4-0.4v-0.7c0-0.2,0.2-0.4,0.4-0.4h1C19.7,21.5,19.9,21.7,19.9,21.9z M21.2,15.5c-0.5-0.4-1.2-0.7-2.1-0.7c-0.8,0-1.5,0.2-2,0.6c-0.5,0.3-0.7,0.8-0.7,1.5c0,0.1,0.1,0.3,0.3,0.3l1.2,0c0.2,0,0.4-0.1,0.4-0.3c0-0.2,0.1-0.3,0.2-0.4c0.2-0.1,0.4-0.2,0.6-0.2c0.3,0,0.5,0.1,0.7,0.3c0.2,0.2,0.2,0.4,0.2,0.8c0,0.3-0.1,0.6-0.2,0.8c-0.1,0.2-0.3,0.4-0.6,0.6c-0.5,0.3-0.8,0.6-1,0.9c-0.2,0.2-0.2,0.5-0.3,0.8c0,0.2,0.1,0.3,0.3,0.3h1.3c0.1,0,0.3-0.1,0.3-0.3c0-0.2,0.1-0.3,0.1-0.5c0.1-0.2,0.2-0.4,0.5-0.5c0.4-0.2,0.8-0.5,1-0.9c0.3-0.4,0.4-0.8,0.4-1.3C21.9,16.5,21.7,15.9,21.2,15.5z M1.5,17.3c-0.4,0.3-0.6,0.7-0.5,1.2c0.1,0.5,0.5,0.8,1,0.9c0.3,0.1,0.7,0.1,1,0.1c1,0,1.9-0.2,2.7-0.6c0.5,0.3,1,0.5,1.6,0.7c0-0.1,0-0.2,0-0.4c0-0.5,0-1,0.1-1.5c-0.4-0.2-0.9-0.4-1.3-0.6l-0.5-0.3l-0.4,0.3c-0.5,0.3-1,0.4-1.5,0.5c0.3-0.4,0.5-0.8,0.6-1.2L4.5,16l-0.4-0.4c-1.2-1.3-1.8-2.9-1.8-4.5c0-4,3.8-7.3,8.4-7.3c3.5,0,6.6,1.9,7.8,4.6c0.3,0,0.6,0,0.9,0c0.3,0,0.7,0,1,0C19.1,4.7,15.2,2,10.7,2C5.1,2,0.5,6.1,0.5,11c0,1.9,0.7,3.7,1.9,5.3C2.2,16.7,1.9,17.1,1.5,17.3z M29.5,18.9c0,1.9-0.7,3.8-2,5.3c0.2,0.4,0.5,0.8,0.9,1c0.4,0.3,0.6,0.8,0.5,1.2c-0.1,0.5-0.5,0.8-1,0.9c-0.3,0.1-0.7,0.1-1,0.1c-1,0-1.9-0.2-2.7-0.6c-1.6,0.8-3.3,1.2-5.1,1.2c-5.7,0-10.3-4.1-10.3-9.1s4.6-9.1,10.3-9.1S29.5,13.9,29.5,18.9z M27.7,18.9c0-4-3.8-7.3-8.5-7.3c-4.7,0-8.5,3.3-8.5,7.3s3.8,7.4,8.5,7.4c1.7,0,3.3-0.4,4.7-1.2l0.5-0.3l0.5,0.3c0.5,0.3,1,0.4,1.6,0.5c-0.3-0.4-0.5-0.8-0.6-1.2l-0.2-0.5l0.4-0.4C27.1,22.2,27.7,20.6,27.7,18.9z"/>
</g>
</svg>
