<?xml version="1.0" encoding="utf-8"?>
<!-- Generator: Adobe Illustrator 19.2.1, SVG Export Plug-In . SVG Version: 6.00 Build 0)  -->
<svg version="1.1" id="Слой_1" xmlns="http://www.w3.org/2000/svg" xmlns:xlink="http://www.w3.org/1999/xlink" x="0px" y="0px"
	 viewBox="0 0 30 30" style="enable-background:new 0 0 30 30;" xml:space="preserve">
<style type="text/css">
	.st0{fill:none;}
</style>
<g>
	<path d="M10.6,5.6h8.8c-0.1-0.3-0.3-0.7-0.5-0.9c-0.4-0.4-0.9-0.6-1.5-0.6h-0.5c-0.3,0-0.6-0.3-0.6-0.6V3.2c0-0.3-0.1-0.7-0.4-0.9c-0.2-0.2-0.5-0.4-0.9-0.4c-0.3,0-0.7,0.1-0.9,0.4s-0.4,0.5-0.4,0.9v0.3c0,0.3-0.3,0.6-0.6,0.6h-0.5c-0.6,0-1.1,0.2-1.5,0.6C10.9,5,10.7,5.3,10.6,5.6z M20.1,6.8H9.9c-0.3,0-0.6-0.3-0.6-0.6c0-0.9,0.4-1.7,1-2.3c0.6-0.6,1.4-0.9,2.2-1c0.1-0.6,0.3-1.1,0.7-1.4C13.7,1,14.3,0.7,15,0.7c0.7,0,1.3,0.3,1.7,0.7c0.4,0.4,0.6,0.9,0.7,1.4c0.9,0,1.7,0.4,2.3,1c0.6,0.6,1,1.4,1,2.3C20.7,6.5,20.4,6.8,20.1,6.8z"/>
	<path d="M19.7,4.2c-0.3,0-0.6,0.3-0.6,0.6c0,0.3,0.3,0.6,0.6,0.6h3.6c0.2,0,0.3,0.1,0.4,0.2c0.1,0.1,0.2,0.3,0.2,0.4v21.5c0,0.2-0.1,0.3-0.2,0.4c-0.1,0.1-0.3,0.2-0.4,0.2H6.8c-0.2,0-0.3-0.1-0.4-0.2c-0.1-0.1-0.2-0.3-0.2-0.4V6c0-0.2,0.1-0.3,0.2-0.4c0.1-0.1,0.3-0.2,0.4-0.2h3.6c0.3,0,0.6-0.3,0.6-0.6c0-0.3-0.3-0.6-0.6-0.6H6.8c-0.5,0-0.9,0.2-1.3,0.5C5.2,5,5,5.5,5,6v21.5c0,0.5,0.2,0.9,0.5,1.3c0.3,0.3,0.8,0.5,1.3,0.5h16.4c0.5,0,0.9-0.2,1.3-0.5S25,28,25,27.5V6c0-0.5-0.2-0.9-0.5-1.3c-0.3-0.3-0.8-0.5-1.3-0.5H19.7z"/>
	<path d="M8.7,8.9H12c0.2,0,0.3,0.1,0.3,0.3v3.3c0,0.2-0.1,0.3-0.3,0.3H8.7c-0.2,0-0.3-0.1-0.3-0.3V9.2C8.4,9,8.5,8.9,8.7,8.9z M11.7,9.4H9v2.7h2.7V9.4z"/>
	<path d="M9.6,10.6c-0.1-0.1-0.3-0.1-0.4,0C9,10.7,9,10.9,9.2,11l0.6,0.6c0.1,0.1,0.3,0.1,0.4,0c0.1-0.1,0.1-0.3,0-0.4L9.6,10.6z"/>
	<path d="M9.8,11.2c-0.1,0.1-0.1,0.3,0,0.4c0.1,0.1,0.3,0.1,0.4,0l1.3-1.3c0.1-0.1,0.1-0.3,0-0.4c-0.1-0.1-0.3-0.1-0.4,0L9.8,11.2z"/>
	<path d="M8.7,14.8H12c0.2,0,0.3,0.1,0.3,0.3v3.3c0,0.2-0.1,0.3-0.3,0.3H8.7c-0.2,0-0.3-0.1-0.3-0.3v-3.3C8.4,14.9,8.5,14.8,8.7,14.8z M11.7,15.4H9v2.7h2.7V15.4z"/>
	<path d="M9.6,16.5c-0.1-0.1-0.3-0.1-0.4,0c-0.1,0.1-0.1,0.3,0,0.4l0.6,0.6c0.1,0.1,0.3,0.1,0.4,0c0.1-0.1,0.1-0.3,0-0.4L9.6,16.5z"/>
	<path d="M9.8,17.2c-0.1,0.1-0.1,0.3,0,0.4c0.1,0.1,0.3,0.1,0.4,0l1.3-1.3c0.1-0.1,0.1-0.3,0-0.4c-0.1-0.1-0.3-0.1-0.4,0L9.8,17.2z"/>
	<path d="M8.7,20.7H12c0.2,0,0.3,0.1,0.3,0.3v3.3c0,0.2-0.1,0.3-0.3,0.3H8.7c-0.2,0-0.3-0.1-0.3-0.3V21C8.4,20.8,8.5,20.7,8.7,20.7z M11.7,21.3H9V24h2.7V21.3z"/>
	<path d="M9.6,22.4c-0.1-0.1-0.3-0.1-0.4,0c-0.1,0.1-0.1,0.3,0,0.4l0.6,0.6c0.1,0.1,0.3,0.1,0.4,0c0.1-0.1,0.1-0.3,0-0.4L9.6,22.4z"/>
	<path d="M9.8,23.1c-0.1,0.1-0.1,0.3,0,0.4c0.1,0.1,0.3,0.1,0.4,0l1.3-1.3c0.1-0.1,0.1-0.3,0-0.4c-0.1-0.1-0.3-0.1-0.4,0L9.8,23.1z"/>
	<path d="M13.2,10.5c-0.2,0-0.3,0.1-0.3,0.3c0,0.2,0.1,0.3,0.3,0.3h8.1c0.2,0,0.3-0.1,0.3-0.3c0-0.2-0.1-0.3-0.3-0.3H13.2z"/>
	<path d="M13.2,16.4c-0.2,0-0.3,0.1-0.3,0.3c0,0.2,0.1,0.3,0.3,0.3h8.1c0.2,0,0.3-0.1,0.3-0.3c0-0.2-0.1-0.3-0.3-0.3H13.2z"/>
	<path d="M13.2,22.3c-0.2,0-0.3,0.1-0.3,0.3s0.1,0.3,0.3,0.3h8.1c0.2,0,0.3-0.1,0.3-0.3s-0.1-0.3-0.3-0.3H13.2z"/>
</g>
</svg>
