<svg width="33" height="23" viewBox="0 0 33 23" fill="none" xmlns="http://www.w3.org/2000/svg">
<g filter="url(#filter0_d)">
<path d="M32 5.27363C31.9993 4.80302 31.8609 4.32571 31.5547 3.93224L29.0985 0.789407C28.687 0.26701 28.0611 0.00105677 27.4355 0C27.0631 0 26.6841 0.0954617 26.3491 0.30435L23.9541 1.7944C23.7022 1.95502 23.2704 2.06528 22.8533 2.06246C22.5292 2.06387 22.2161 1.99906 22.0093 1.8969L19.664 0.760874C19.2856 0.578758 18.864 0.504079 18.4399 0.503374C17.8308 0.506193 17.214 0.655902 16.7184 0.999352L16.4447 1.19133C16.2259 1.08213 15.8917 0.915868 15.513 0.72741C15.0589 0.504784 14.5249 0.414959 13.9856 0.413197C13.4984 0.414606 13.0113 0.489637 12.5836 0.670344L10.9861 1.35196C10.7262 1.46468 10.3126 1.5383 9.90188 1.53654C9.49115 1.5383 9.0783 1.46468 8.81834 1.35196L7.21945 0.669992C6.92778 0.545646 6.61603 0.492455 6.3071 0.492102C5.95132 0.492455 5.59766 0.562554 5.269 0.695707C4.9407 0.829565 4.636 1.02718 4.39329 1.29842L1.48224 4.55855C1.15957 4.91891 0.999298 5.37262 1 5.81928C0.999298 6.35189 1.22721 6.88627 1.66682 7.26072L4.38237 9.57751L3.09417 10.9214C2.73909 11.2919 2.56226 11.7724 2.56226 12.2476C2.56156 12.7531 2.76234 13.2635 3.16004 13.6394L3.42141 13.8877C3.66764 14.1213 3.96354 14.2699 4.27317 14.3492C4.11783 14.6349 4.03293 14.948 4.03364 15.2619C4.03293 15.7677 4.23372 16.2778 4.63071 16.654L4.63001 16.6536L4.89209 16.903C5.26513 17.2567 5.74877 17.4328 6.22538 17.4325C6.48147 17.4328 6.73791 17.3814 6.97885 17.2807C7.0634 17.6238 7.23812 17.9499 7.51288 18.2106L7.77495 18.46C8.14799 18.8137 8.63094 18.9898 9.10825 18.9895C9.48129 18.9898 9.85609 18.8799 10.1788 18.6664C10.2732 18.9701 10.4348 19.2579 10.6811 19.4918L10.9432 19.7412C11.3155 20.0948 11.7991 20.271 12.2757 20.2706C12.7833 20.271 13.2959 20.0716 13.6746 19.6764L14.813 18.4875L16.3598 19.9191C16.73 20.2625 17.2052 20.4334 17.6744 20.4323C18.1898 20.4334 18.7097 20.2269 19.0891 19.8208L19.336 19.5562C19.5491 19.3273 19.6883 19.0564 19.7689 18.7735L20.3681 19.3266C20.7391 19.6686 21.2135 19.8387 21.682 19.8384C22.1981 19.8387 22.7194 19.6323 23.0992 19.2258L23.3447 18.9616C23.6283 18.6587 23.7878 18.2835 23.8372 17.9003C23.9953 17.9408 24.1556 17.9683 24.3173 17.9683C24.8333 17.9683 25.3533 17.7622 25.7334 17.356L25.9796 17.0918C26.3237 16.723 26.4949 16.25 26.4942 15.7836C26.4942 15.6388 26.4734 15.4947 26.4414 15.3524C26.8694 15.2957 27.2843 15.1048 27.6 14.7659L27.8469 14.5014C28.191 14.1325 28.3615 13.6595 28.3615 13.1927C28.3622 12.6791 28.1551 12.161 27.7465 11.7833L27.2847 11.3568L31.4526 6.74853C31.8267 6.33357 31.9993 5.79955 32 5.27363ZM3.88745 12.8806C3.70639 12.7094 3.61692 12.4815 3.61621 12.2476C3.61692 12.0282 3.69547 11.814 3.85716 11.6453L6.49556 8.89201C6.66746 8.71272 6.89678 8.62289 7.13209 8.62254C7.35225 8.62289 7.56748 8.70215 7.73762 8.86243L7.99829 9.11112C7.99829 9.11112 8.26811 9.51023 8.26882 9.74448C8.26811 9.9199 8.21528 10.0907 8.11277 10.2387C8.10396 10.2475 5.26513 13.2061 5.26513 13.2061C5.11436 13.3128 4.93612 13.3678 4.75471 13.3685C4.53384 13.3678 4.31791 13.2889 4.14918 13.129L3.88745 12.8806ZM6.22608 16.3835C6.00522 16.3831 5.78999 16.3038 5.62055 16.1439L5.35847 15.8949L5.35777 15.8945C5.17812 15.724 5.08794 15.4954 5.08794 15.2615C5.08794 15.0421 5.1672 14.8279 5.32818 14.6592C5.32818 14.6592 8.84511 10.9982 8.8747 10.9629C9.04273 10.8012 9.25937 10.7178 9.48305 10.7174C9.70391 10.7178 9.91914 10.7967 10.0886 10.9569L10.3507 11.2063C10.531 11.3768 10.6205 11.6051 10.6212 11.8393C10.6205 12.0588 10.5412 12.2733 10.3802 12.4421L6.86191 16.1147C6.69036 16.2933 6.46139 16.3828 6.22608 16.3835ZM9.10895 17.9404C8.88809 17.9401 8.67286 17.8608 8.50342 17.7005L8.24064 17.4515C8.06028 17.2807 7.97011 17.0524 7.97011 16.8185C7.97011 16.6226 8.03668 16.4328 8.1642 16.2746L10.6134 13.7183C10.7786 13.5693 10.9858 13.4907 11.2003 13.4907C11.4212 13.4911 11.6364 13.57 11.8058 13.7303L12.0686 13.9797C12.2483 14.1502 12.3384 14.3784 12.3391 14.6123C12.3384 14.8321 12.2585 15.0466 12.0982 15.215L9.74442 17.6713C9.57323 17.8503 9.34426 17.9397 9.10895 17.9404ZM12.9119 18.9525C12.7407 19.1314 12.5114 19.2209 12.2761 19.2216C12.0552 19.2212 11.84 19.142 11.6706 18.9817L11.4085 18.7327C11.2288 18.5622 11.1387 18.3335 11.1379 18.0997C11.1387 17.8798 11.2179 17.6653 11.3789 17.4973L12.8644 15.9463C13.0363 15.7674 13.2656 15.6775 13.5009 15.6772C13.721 15.6775 13.937 15.7564 14.1064 15.9171L14.3692 16.1661C14.5489 16.3366 14.6383 16.5649 14.639 16.7988C14.6383 17.0186 14.5591 17.2331 14.3981 17.4015L12.9119 18.9525ZM27.0751 13.788L26.8289 14.0522C26.657 14.2361 26.4238 14.3291 26.1849 14.3294C25.9683 14.3291 25.7563 14.253 25.5879 14.0973L21.4383 10.2598L20.7207 11.0281L25.1623 15.1428C25.3473 15.314 25.4403 15.5465 25.4417 15.7839C25.4403 16.0002 25.3638 16.2109 25.2078 16.3785L24.9623 16.6427C24.7904 16.8266 24.5572 16.9192 24.3183 16.9199C24.1017 16.9192 23.8889 16.8428 23.722 16.6882L19.5713 12.8507L18.8545 13.6189L22.538 17.0253C22.7156 17.1954 22.8065 17.4219 22.8065 17.6544C22.8065 17.87 22.73 18.081 22.574 18.2483L22.3277 18.5125C22.1565 18.6964 21.9226 18.7894 21.6831 18.7901C21.4658 18.7894 21.2537 18.7129 21.086 18.5583L17.4099 15.1643H17.4092L17.4085 15.1636L16.693 15.9333L16.6937 15.934L16.7075 15.947L18.5487 17.6463C18.7118 17.814 18.7964 18.0288 18.7971 18.2511C18.7964 18.4656 18.7206 18.6756 18.5646 18.8429L18.3184 19.1075C18.1465 19.2913 17.914 19.3836 17.6758 19.3843C17.4592 19.3836 17.2471 19.3075 17.0795 19.1522L15.4763 17.6678C15.6158 17.3941 15.6937 17.0971 15.6937 16.7991C15.6944 16.2936 15.4936 15.7839 15.0966 15.4074L14.8338 15.158C14.4615 14.8046 13.9785 14.6282 13.5019 14.6289C13.465 14.6289 13.4276 14.6373 13.3913 14.6394C13.3913 14.6306 13.3934 14.6215 13.3934 14.6127C13.3942 14.1072 12.7964 13.2202 12.7964 13.2202L12.5343 12.9715C12.2557 12.7073 11.9157 12.5425 11.5621 12.4762C11.635 12.2698 11.6762 12.0549 11.6762 11.8397C11.6762 11.3342 11.4761 10.8241 11.0791 10.4479L10.817 10.1985C10.444 9.84487 9.96106 9.66839 9.48446 9.66874C9.4288 9.66874 9.37385 9.68001 9.31854 9.68495C9.3034 9.19954 9.10789 8.71448 8.72746 8.35306V8.35271L8.46608 8.10437C8.09304 7.75035 7.6101 7.57387 7.1335 7.57422C6.62519 7.57387 6.11336 7.77325 5.73468 8.16848L5.11189 8.81839L2.35302 6.46532C2.1547 6.29553 2.05572 6.06093 2.05501 5.81999C2.05572 5.61814 2.12441 5.42053 2.27094 5.25637L5.18199 1.99624C5.29753 1.86661 5.46838 1.74931 5.66846 1.66794C5.86854 1.58656 6.09575 1.54183 6.30816 1.54218C6.49309 1.54218 6.66676 1.57564 6.80554 1.63553L8.40373 2.3175C8.85427 2.50736 9.37737 2.58521 9.90294 2.58697C10.4292 2.58521 10.9516 2.50736 11.4021 2.3175L12.9996 1.63588C13.2459 1.52844 13.6175 1.46187 13.987 1.46327C14.3956 1.46081 14.8049 1.54535 15.0424 1.66653C15.1931 1.74156 15.3361 1.81271 15.4689 1.87929L13.8398 3.02448C13.3163 3.39258 13.0341 3.97803 13.0349 4.56877C13.0341 4.95977 13.1581 5.35782 13.4104 5.69564L13.4097 5.69493L13.6249 5.98414C14.0335 6.52732 14.6707 6.80666 15.3076 6.80807C15.6673 6.80807 16.0336 6.71718 16.3602 6.52133L17.3345 5.93623C17.5332 5.8147 17.8333 5.73791 18.1436 5.73932C18.5082 5.73721 18.8756 5.845 19.0965 6.00739L21.792 7.93987C22.3918 8.36962 23.369 9.16678 23.9104 9.66839L27.0304 12.553C27.2153 12.7246 27.3083 12.956 27.309 13.1938C27.3086 13.4094 27.2315 13.6204 27.0751 13.788ZM30.6702 6.04719L26.514 10.6431L24.6269 8.89871C24.0358 8.35306 23.0611 7.55731 22.4073 7.08776L19.7126 5.15528C19.2557 4.83155 18.6963 4.69171 18.1433 4.68959C17.6727 4.691 17.1985 4.79351 16.7892 5.03727L15.8156 5.62237C15.6662 5.71219 15.4901 5.75799 15.3073 5.75834C14.9804 5.7594 14.6531 5.60687 14.4707 5.35853L14.2561 5.06968L14.2554 5.06897C14.1413 4.91504 14.0881 4.74243 14.0874 4.56771C14.0888 4.30352 14.2107 4.04708 14.4467 3.88046L17.3275 1.85639C17.5765 1.67604 18.0196 1.54958 18.4406 1.55275C18.733 1.55134 19.0123 1.61016 19.2036 1.70457L21.5489 2.8406C21.9487 3.03258 22.3999 3.11113 22.854 3.11219C23.4373 3.10937 24.027 2.98256 24.5128 2.6842L26.9085 1.1938C27.0614 1.09834 27.2449 1.04902 27.4362 1.04902C27.7595 1.04832 28.0836 1.19485 28.2671 1.43404L30.7234 4.57687C30.865 4.75687 30.9471 5.01085 30.9471 5.27399C30.9475 5.56847 30.8435 5.85803 30.6702 6.04719Z" fill="white"/>
</g>
<defs>
<filter id="filter0_d" x="0.114286" y="0" width="32.7714" height="22.2037" filterUnits="userSpaceOnUse" color-interpolation-filters="sRGB">
<feFlood flood-opacity="0" result="BackgroundImageFix"/>
<feColorMatrix in="SourceAlpha" type="matrix" values="0 0 0 0 0 0 0 0 0 0 0 0 0 0 0 0 0 0 127 0"/>
<feOffset dy="0.885714"/>
<feGaussianBlur stdDeviation="0.442857"/>
<feColorMatrix type="matrix" values="0 0 0 0 0 0 0 0 0 0 0 0 0 0 0 0 0 0 0.25 0"/>
<feBlend mode="normal" in2="BackgroundImageFix" result="effect1_dropShadow"/>
<feBlend mode="normal" in="SourceGraphic" in2="effect1_dropShadow" result="shape"/>
</filter>
</defs>
</svg>
