<svg width="30" height="32" viewBox="0 0 30 32" fill="none" xmlns="http://www.w3.org/2000/svg">
<g clip-path="url(#clip0)" filter="url(#filter0_d)">
<path d="M25.2622 10.2623C25.2622 4.59457 20.6677 0 15 0C9.33228 0 4.73771 4.59457 4.73771 10.2623C3.27249 10.4447 1.88708 11.4025 1.88708 13.626V18.9852C1.88708 21.4937 3.64307 22.4059 5.30784 22.4059H6.9612C7.27605 22.4059 7.53133 22.1507 7.53133 21.8358V10.7982C7.53133 10.4833 7.27605 10.2281 6.9612 10.2281H5.87796C5.87796 5.19014 9.96206 1.10604 15 1.10604C20.0379 1.10604 24.122 5.19014 24.122 10.2281H23.0387C22.7239 10.2281 22.4686 10.4833 22.4686 10.7982V21.8187C22.4686 22.1336 22.7239 22.3888 23.0387 22.3888H24.122C23.9623 26.3056 22.0809 27.2235 18.3238 27.3888V27.0068C18.3238 26.3771 17.8133 25.8666 17.1835 25.8666H13.5975C12.9677 25.8666 12.4572 26.3771 12.4572 27.0068V28.8598C12.4572 29.4895 12.9677 30 13.5975 30H17.195C17.8247 30 18.3352 29.4895 18.3352 28.8598V28.5291C21.9498 28.3637 25.0741 27.6169 25.2622 22.3546C26.7274 22.1722 28.1129 21.2144 28.1129 18.9909V13.6317C28.1129 11.3968 26.7332 10.4447 25.2622 10.2623ZM6.39108 11.3284V21.2486H5.27933C4.43555 21.2486 2.99883 20.9521 2.99883 18.9681V13.6089C2.99883 11.642 4.41844 11.3284 5.27933 11.3284H6.39108ZM17.195 27.9989V28.8655H13.5975V27.0125H17.195V27.9989ZM26.9726 18.9852C26.9726 20.9521 25.553 21.2657 24.6921 21.2657H23.6089V11.3683H24.7206C25.5644 11.3683 27.0011 11.6648 27.0011 13.6488L26.9726 18.9852Z" fill="white"/>
</g>
<defs>
<filter id="filter0_d" x="-1" y="0" width="32" height="32" filterUnits="userSpaceOnUse" color-interpolation-filters="sRGB">
<feFlood flood-opacity="0" result="BackgroundImageFix"/>
<feColorMatrix in="SourceAlpha" type="matrix" values="0 0 0 0 0 0 0 0 0 0 0 0 0 0 0 0 0 0 127 0"/>
<feOffset dy="1"/>
<feGaussianBlur stdDeviation="0.5"/>
<feColorMatrix type="matrix" values="0 0 0 0 0 0 0 0 0 0 0 0 0 0 0 0 0 0 0.25 0"/>
<feBlend mode="normal" in2="BackgroundImageFix" result="effect1_dropShadow"/>
<feBlend mode="normal" in="SourceGraphic" in2="effect1_dropShadow" result="shape"/>
</filter>
<clipPath id="clip0">
<rect width="30" height="30" fill="white"/>
</clipPath>
</defs>
</svg>
