<svg xmlns="http://www.w3.org/2000/svg" viewBox="0 0 30 30">
	<g>
		<path d="M19.5,19.8c-0.3,0-0.5,0.2-0.5,0.5c0,0.3,0.2,0.5,0.5,0.5c0.3,0,0.5-0.2,0.5-0.5C20,20.1,19.8,19.8,19.5,19.8z"/>
		<path d="M15.5,11.6c0-0.3-0.2-0.5-0.5-0.5c-0.3,0-0.5,0.2-0.5,0.5c0,0.3,0.2,0.5,0.5,0.5C15.3,12,15.5,11.8,15.5,11.6z"/>
		<path d="M10.5,20.8c0.3,0,0.5-0.2,0.5-0.5c0-0.3-0.2-0.5-0.5-0.5c-0.3,0-0.5,0.2-0.5,0.5C10,20.6,10.2,20.8,10.5,20.8z"/>
		<path d="M26.8,23l-2.5-1.1V11.6c0-0.2-0.1-0.4-0.3-0.4l-8.5-3.6V4c0-0.3-0.2-0.5-0.5-0.5c-0.3,0-0.5,0.2-0.5,0.5v3.5l-8.5,3.6c-0.2,0.1-0.3,0.2-0.3,0.4v10.3L3.2,23C3,23.1,2.9,23.4,3,23.6c0.1,0.2,0.4,0.3,0.6,0.2l2.6-1.2l8.6,3.7c0.1,0,0.3,0.1,0.4,0l8.6-3.7l2.6,1.2c0.2,0.1,0.5,0,0.6-0.2C27.1,23.4,27,23.1,26.8,23z M14.5,8.5v1.2c0,0.3,0.2,0.5,0.5,0.5c0.3,0,0.5-0.2,0.5-0.5V8.5l7.1,3L15,14.8l-7.6-3.2L14.5,8.5z M9.2,20.9c-0.1-0.2-0.4-0.3-0.6-0.2l-1.9,0.8v-9.2l7.8,3.4v9.6l-7.1-3.1L9,21.5C9.2,21.4,9.3,21.1,9.2,20.9z M15.5,25.2v-9.6l7.8-3.4v9.2l-1.9-0.8c-0.2-0.1-0.5,0-0.6,0.2c-0.1,0.2,0,0.5,0.2,0.6l1.5,0.7L15.5,25.2z"/>
	</g>
</svg>
