<svg width="30" height="30" viewBox="0 0 30 30" fill="none" xmlns="http://www.w3.org/2000/svg">
<g filter="url(#filter0_d)">
<g clip-path="url(#clip0)">
<path d="M19.5471 19.8995C19.2875 19.8995 19.077 20.1102 19.077 20.3696C19.077 20.6291 19.2875 20.8397 19.5471 20.8397C19.8066 20.8397 20.0172 20.6291 20.0172 20.3696C20.0172 20.1102 19.8066 19.8995 19.5471 19.8995Z" fill="white"/>
<path d="M15.5044 11.6261C15.5044 11.3664 15.2938 11.156 15.0343 11.156C14.7748 11.156 14.5642 11.3664 14.5642 11.6261C14.5642 11.8856 14.7748 12.0962 15.0343 12.0962C15.2938 12.0962 15.5044 11.8856 15.5044 11.6261Z" fill="white"/>
<path d="M10.5214 20.8397C10.7808 20.8397 10.9914 20.6291 10.9914 20.3696C10.9914 20.1102 10.7808 19.8995 10.5214 19.8995C10.2619 19.8995 10.0513 20.1102 10.0513 20.3696C10.0513 20.6291 10.2619 20.8397 10.5214 20.8397Z" fill="white"/>
<path d="M26.7892 23.0735L24.2478 21.9444V11.6261C24.2478 11.4399 24.1363 11.2675 23.9591 11.1922L15.5044 7.55584V4.10473C15.5044 3.84508 15.2937 3.63464 15.0343 3.63464C14.7746 3.63464 14.5642 3.84508 14.5642 4.10473V7.55584L6.1094 11.1922C5.94138 11.262 5.82073 11.4322 5.82073 11.6261V21.9444L3.27932 23.0735C3.04207 23.1791 2.9352 23.4567 3.04061 23.694C3.14527 23.9298 3.42218 24.0388 3.66108 23.9327L6.29376 22.763L14.8486 26.4423C14.9617 26.491 15.1 26.4939 15.2201 26.4423L23.7748 22.763L26.4075 23.9327C26.6473 24.0392 26.9236 23.9288 27.0279 23.694C27.1333 23.4567 27.0265 23.1791 26.7892 23.0735ZM14.5642 8.57938V9.74578C14.5642 10.0052 14.7746 10.2159 15.0343 10.2159C15.2937 10.2159 15.5044 10.0052 15.5044 9.74578V8.57938L22.588 11.6261L15.0343 14.8751L7.48055 11.6261L14.5642 8.57938ZM9.23291 20.9425C9.12732 20.7053 8.84949 20.5986 8.61243 20.7038L6.76073 21.5266V12.3399L14.5642 15.6962V25.2967L7.4642 22.243L8.99419 21.5632C9.23144 21.4576 9.33831 21.1797 9.23291 20.9425ZM15.5044 25.2967V15.6962L23.3076 12.3399V21.5266L21.4561 20.704C21.2187 20.5986 20.941 20.7053 20.8356 20.9427C20.7302 21.1799 20.8371 21.4576 21.0743 21.5632L22.6043 22.243L15.5044 25.2967Z" fill="white"/>
</g>
</g>
<defs>
<filter id="filter0_d" x="-1" y="0" width="32" height="32" filterUnits="userSpaceOnUse" color-interpolation-filters="sRGB">
<feFlood flood-opacity="0" result="BackgroundImageFix"/>
<feColorMatrix in="SourceAlpha" type="matrix" values="0 0 0 0 0 0 0 0 0 0 0 0 0 0 0 0 0 0 127 0"/>
<feOffset dy="1"/>
<feGaussianBlur stdDeviation="0.5"/>
<feColorMatrix type="matrix" values="0 0 0 0 0 0 0 0 0 0 0 0 0 0 0 0 0 0 0.25 0"/>
<feBlend mode="normal" in2="BackgroundImageFix" result="effect1_dropShadow"/>
<feBlend mode="normal" in="SourceGraphic" in2="effect1_dropShadow" result="shape"/>
</filter>
<clipPath id="clip0">
<rect width="24.0685" height="24.0215" fill="white" transform="translate(3 3)"/>
</clipPath>
</defs>
</svg>
