<svg width="90" height="90" viewBox="0 0 90 90" fill="none" xmlns="http://www.w3.org/2000/svg">
<circle cx="45" cy="45" r="44" stroke="white" stroke-width="2"/>
<g clip-path="url(#clip0)">
<path fill-rule="evenodd" clip-rule="evenodd" d="M32.146 40.4912V51.8897L48.1105 63.3747V29.0061L32.146 40.4912ZM29.8669 40.4912C29.8669 39.7578 30.2197 39.0693 30.815 38.6411L46.7795 27.156C48.2872 26.0713 50.3897 27.1488 50.3897 29.0061V63.3747C50.3897 65.2321 48.2872 66.3095 46.7795 65.2249L30.815 53.7398C30.2197 53.3115 29.8669 52.623 29.8669 51.8897V40.4912ZM25.4691 41.7693H23.5145C23.4239 41.7693 23.3504 41.8427 23.3504 41.9333V50.7288C23.3504 50.8194 23.4239 50.8929 23.5145 50.8929H25.4691C25.5597 50.8929 25.6331 50.8194 25.6331 50.7288V41.9333C25.6331 41.8427 25.5597 41.7693 25.4691 41.7693ZM23.5145 39.4901C22.1651 39.4901 21.0713 40.584 21.0713 41.9333V50.7288C21.0713 52.0782 22.1651 53.172 23.5145 53.172H25.4691C26.8184 53.172 27.9123 52.0782 27.9123 50.7288V41.9333C27.9123 40.584 26.8184 39.4901 25.4691 39.4901H23.5145ZM65.8547 39.4171C66.2997 39.8621 66.2997 40.5837 65.8547 41.0287L60.6746 46.2088L65.8547 51.3888C66.2997 51.8338 66.2997 52.5554 65.8547 53.0004C65.4096 53.4454 64.6881 53.4454 64.243 53.0004L59.063 47.8204L53.883 53.0004C53.4379 53.4454 52.7164 53.4454 52.2714 53.0004C51.8263 52.5554 51.8263 51.8338 52.2714 51.3888L57.4514 46.2088L52.2714 41.0287C51.8263 40.5837 51.8263 39.8621 52.2714 39.4171C52.7164 38.9721 53.4379 38.9721 53.883 39.4171L59.063 44.5972L64.2431 39.4171C64.6881 38.9721 65.4096 38.9721 65.8547 39.4171Z" fill="white"/>
</g>
<defs>
<clipPath id="clip0">
<rect width="46" height="46" fill="white" transform="translate(22 23)"/>
</clipPath>
</defs>
</svg>
