<svg width="90" height="90" viewBox="0 0 90 90" fill="none" xmlns="http://www.w3.org/2000/svg">
<circle cx="45" cy="45" r="44" stroke="white" stroke-width="2"/>
<g clip-path="url(#clip0)">
<path fill-rule="evenodd" clip-rule="evenodd" d="M29.0881 34.5842C29.0881 31.5717 31.5302 29.1296 34.5427 29.1296H55.3833C58.3958 29.1296 60.8379 31.5717 60.8379 34.5842V55.4248C60.8379 58.4373 58.3958 60.8794 55.3833 60.8794H34.5427C31.5302 60.8794 29.0881 58.4373 29.0881 55.4249V34.5842ZM34.5427 31.3115C32.7352 31.3115 31.27 32.7767 31.27 34.5842V55.4249C31.27 57.2323 32.7352 58.6976 34.5427 58.6976H55.3833C57.1908 58.6976 58.6561 57.2323 58.6561 55.4248V34.5842C58.6561 32.7767 57.1908 31.3115 55.3833 31.3115H34.5427Z" fill="white"/>
<path fill-rule="evenodd" clip-rule="evenodd" d="M36.7502 40.0647C36.7502 38.2572 38.2155 36.792 40.023 36.792H49.893C51.7005 36.792 53.1658 38.2572 53.1658 40.0647V49.9348C53.1658 51.7422 51.7005 53.2075 49.893 53.2075H40.023C38.2155 53.2075 36.7502 51.7423 36.7502 49.9348V40.0647ZM40.023 38.9738C39.4205 38.9738 38.9321 39.4622 38.9321 40.0647V49.9348C38.9321 50.5373 39.4205 51.0257 40.023 51.0257H49.893C50.4955 51.0257 50.9839 50.5373 50.9839 49.9348V40.0647C50.9839 39.4622 50.4955 38.9738 49.893 38.9738H40.023Z" fill="white"/>
<path fill-rule="evenodd" clip-rule="evenodd" d="M35.3149 21.6257C35.9174 21.6257 36.4058 22.1141 36.4058 22.7166V30.2213C36.4058 30.8238 35.9174 31.3122 35.3149 31.3122C34.7124 31.3122 34.224 30.8238 34.224 30.2213V22.7166C34.224 22.1141 34.7124 21.6257 35.3149 21.6257Z" fill="white"/>
<path fill-rule="evenodd" clip-rule="evenodd" d="M40.1361 21.6257C40.7386 21.6257 41.227 22.1141 41.227 22.7166V30.2213C41.227 30.8238 40.7386 31.3122 40.1361 31.3122C39.5336 31.3122 39.0452 30.8238 39.0452 30.2213V22.7166C39.0452 22.1141 39.5336 21.6257 40.1361 21.6257Z" fill="white"/>
<path fill-rule="evenodd" clip-rule="evenodd" d="M44.9579 21.6257C45.5603 21.6257 46.0488 22.1141 46.0488 22.7166V30.2213C46.0488 30.8238 45.5603 31.3122 44.9579 31.3122C44.3554 31.3122 43.8669 30.8238 43.8669 30.2213V22.7166C43.8669 22.1141 44.3554 21.6257 44.9579 21.6257Z" fill="white"/>
<path fill-rule="evenodd" clip-rule="evenodd" d="M49.7791 21.6257C50.3816 21.6257 50.8701 22.1141 50.8701 22.7166V30.2213C50.8701 30.8238 50.3816 31.3122 49.7791 31.3122C49.1766 31.3122 48.6882 30.8238 48.6882 30.2213V22.7166C48.6882 22.1141 49.1766 21.6257 49.7791 21.6257Z" fill="white"/>
<path fill-rule="evenodd" clip-rule="evenodd" d="M54.6108 21.6257C55.2133 21.6257 55.7017 22.1141 55.7017 22.7166V30.2213C55.7017 30.8238 55.2133 31.3122 54.6108 31.3122C54.0083 31.3122 53.5199 30.8238 53.5199 30.2213V22.7166C53.5199 22.1141 54.0083 21.6257 54.6108 21.6257Z" fill="white"/>
<path fill-rule="evenodd" clip-rule="evenodd" d="M35.3149 58.6875C35.9174 58.6875 36.4058 59.1759 36.4058 59.7784V67.2831C36.4058 67.8856 35.9174 68.374 35.3149 68.374C34.7124 68.374 34.224 67.8856 34.224 67.2831V59.7784C34.224 59.1759 34.7124 58.6875 35.3149 58.6875Z" fill="white"/>
<path fill-rule="evenodd" clip-rule="evenodd" d="M40.1361 58.6875C40.7386 58.6875 41.227 59.1759 41.227 59.7784V67.2831C41.227 67.8856 40.7386 68.374 40.1361 68.374C39.5336 68.374 39.0452 67.8856 39.0452 67.2831V59.7784C39.0452 59.1759 39.5336 58.6875 40.1361 58.6875Z" fill="white"/>
<path fill-rule="evenodd" clip-rule="evenodd" d="M44.9579 58.6875C45.5603 58.6875 46.0488 59.1759 46.0488 59.7784V67.2831C46.0488 67.8856 45.5603 68.374 44.9579 68.374C44.3554 68.374 43.8669 67.8856 43.8669 67.2831V59.7784C43.8669 59.1759 44.3554 58.6875 44.9579 58.6875Z" fill="white"/>
<path fill-rule="evenodd" clip-rule="evenodd" d="M49.7791 58.6875C50.3816 58.6875 50.8701 59.1759 50.8701 59.7784V67.2831C50.8701 67.8856 50.3816 68.374 49.7791 68.374C49.1766 68.374 48.6882 67.8856 48.6882 67.2831V59.7784C48.6882 59.1759 49.1766 58.6875 49.7791 58.6875Z" fill="white"/>
<path fill-rule="evenodd" clip-rule="evenodd" d="M54.6108 58.6875C55.2133 58.6875 55.7017 59.1759 55.7017 59.7784V67.2831C55.7017 67.8856 55.2133 68.374 54.6108 68.374C54.0083 68.374 53.5199 67.8856 53.5199 67.2831V59.7784C53.5199 59.1759 54.0083 58.6875 54.6108 58.6875Z" fill="white"/>
<path fill-rule="evenodd" clip-rule="evenodd" d="M58.6458 54.6419C58.6458 54.0394 59.1342 53.551 59.7367 53.551H67.2413C67.8438 53.551 68.3322 54.0394 68.3322 54.6419C68.3322 55.2444 67.8438 55.7328 67.2413 55.7328H59.7367C59.1342 55.7328 58.6458 55.2444 58.6458 54.6419Z" fill="white"/>
<path fill-rule="evenodd" clip-rule="evenodd" d="M58.6458 49.8214C58.6458 49.2189 59.1342 48.7305 59.7367 48.7305H67.2413C67.8438 48.7305 68.3322 49.2189 68.3322 49.8214C68.3322 50.4239 67.8438 50.9123 67.2413 50.9123H59.7367C59.1342 50.9123 58.6458 50.4239 58.6458 49.8214Z" fill="white"/>
<path fill-rule="evenodd" clip-rule="evenodd" d="M58.6458 44.9996C58.6458 44.3971 59.1342 43.9087 59.7367 43.9087H67.2413C67.8438 43.9087 68.3322 44.3971 68.3322 44.9996C68.3322 45.6021 67.8438 46.0905 67.2413 46.0905H59.7367C59.1342 46.0905 58.6458 45.6021 58.6458 44.9996Z" fill="white"/>
<path fill-rule="evenodd" clip-rule="evenodd" d="M58.6458 40.1788C58.6458 39.5763 59.1342 39.0879 59.7367 39.0879H67.2413C67.8438 39.0879 68.3322 39.5763 68.3322 40.1788C68.3322 40.7813 67.8438 41.2697 67.2413 41.2697H59.7367C59.1342 41.2697 58.6458 40.7813 58.6458 40.1788Z" fill="white"/>
<path fill-rule="evenodd" clip-rule="evenodd" d="M58.6458 35.357C58.6458 34.7545 59.1342 34.2661 59.7367 34.2661H67.2413C67.8438 34.2661 68.3322 34.7545 68.3322 35.357C68.3322 35.9595 67.8438 36.4479 67.2413 36.4479H59.7367C59.1342 36.4479 58.6458 35.9595 58.6458 35.357Z" fill="white"/>
<path fill-rule="evenodd" clip-rule="evenodd" d="M21.5836 54.6419C21.5836 54.0394 22.072 53.551 22.6745 53.551H30.1792C30.7817 53.551 31.2701 54.0394 31.2701 54.6419C31.2701 55.2444 30.7817 55.7328 30.1792 55.7328H22.6745C22.072 55.7328 21.5836 55.2444 21.5836 54.6419Z" fill="white"/>
<path fill-rule="evenodd" clip-rule="evenodd" d="M21.5836 49.8214C21.5836 49.2189 22.072 48.7305 22.6745 48.7305H30.1792C30.7817 48.7305 31.2701 49.2189 31.2701 49.8214C31.2701 50.4239 30.7817 50.9123 30.1792 50.9123H22.6745C22.072 50.9123 21.5836 50.4239 21.5836 49.8214Z" fill="white"/>
<path fill-rule="evenodd" clip-rule="evenodd" d="M21.5836 44.9996C21.5836 44.3971 22.072 43.9087 22.6745 43.9087H30.1792C30.7817 43.9087 31.2701 44.3971 31.2701 44.9996C31.2701 45.6021 30.7817 46.0905 30.1792 46.0905H22.6745C22.072 46.0905 21.5836 45.6021 21.5836 44.9996Z" fill="white"/>
<path fill-rule="evenodd" clip-rule="evenodd" d="M21.5836 40.1788C21.5836 39.5763 22.072 39.0879 22.6745 39.0879H30.1792C30.7817 39.0879 31.2701 39.5763 31.2701 40.1788C31.2701 40.7813 30.7817 41.2697 30.1792 41.2697H22.6745C22.072 41.2697 21.5836 40.7813 21.5836 40.1788Z" fill="white"/>
<path fill-rule="evenodd" clip-rule="evenodd" d="M21.5836 35.357C21.5836 34.7545 22.072 34.2661 22.6745 34.2661H30.1792C30.7817 34.2661 31.2701 34.7545 31.2701 35.357C31.2701 35.9595 30.7817 36.4479 30.1792 36.4479H22.6745C22.072 36.4479 21.5836 35.9595 21.5836 35.357Z" fill="white"/>
</g>
<defs>
<clipPath id="clip0">
<rect width="50" height="50" fill="white" transform="translate(20 20)"/>
</clipPath>
</defs>
</svg>
