<svg width="1234" height="771" viewBox="0 0 1234 771" fill="none" xmlns="http://www.w3.org/2000/svg">
<line x1="45" y1="608" x2="1231" y2="608" stroke="white" stroke-opacity="0.2" stroke-dasharray="10 10"/>
<line x1="48" y1="507" x2="1234" y2="507" stroke="white" stroke-opacity="0.2" stroke-dasharray="10 10"/>
<line x1="47" y1="407" x2="1233" y2="407" stroke="white" stroke-opacity="0.2" stroke-dasharray="10 10"/>
<line x1="47" y1="307" x2="1233" y2="307" stroke="white" stroke-opacity="0.2" stroke-dasharray="10 10"/>
<path d="M15.3633 112.484V117.452H13.2033V114.5H2.57131V117.452H0.387313V112.484H1.05931C1.87531 112.436 2.43531 111.86 2.73931 110.756C3.04331 109.652 3.25131 108.092 3.36331 106.076L3.55531 101.78H13.4193V112.484H15.3633ZM5.47531 106.244C5.41131 107.844 5.27531 109.172 5.06731 110.228C4.87531 111.268 4.51531 112.02 3.98731 112.484H11.1153V103.796H5.59531L5.47531 106.244ZM18.7488 97.7H31.4208V99.74H21.1248V104.54H26.3568C28.3568 104.54 29.8768 104.956 30.9168 105.788C31.9568 106.62 32.4768 107.82 32.4768 109.388C32.4768 111.036 31.9088 112.3 30.7728 113.18C29.6528 114.06 28.0448 114.5 25.9488 114.5H18.7488V97.7ZM25.8528 112.604C27.2288 112.604 28.2768 112.34 28.9968 111.812C29.7168 111.284 30.0768 110.508 30.0768 109.484C30.0768 107.452 28.6688 106.436 25.8528 106.436H21.1248V112.604H25.8528ZM47.1532 110.3H38.2252L36.3772 114.5H33.9052L41.5132 97.7H43.8892L51.5212 114.5H49.0012L47.1532 110.3ZM46.3132 108.38L42.6892 100.148L39.0652 108.38H46.3132Z" fill="white"/>
<path d="M1151.06 749.644C1149.8 749.644 1148.66 749.364 1147.65 748.804C1146.65 748.244 1145.85 747.476 1145.28 746.5C1144.72 745.508 1144.44 744.388 1144.44 743.14C1144.44 741.892 1144.72 740.78 1145.28 739.804C1145.85 738.812 1146.65 738.044 1147.65 737.5C1148.66 736.94 1149.8 736.66 1151.06 736.66C1152.33 736.66 1153.45 736.94 1154.45 737.5C1155.45 738.044 1156.24 738.812 1156.8 739.804C1157.37 740.78 1157.66 741.892 1157.66 743.14C1157.66 744.388 1157.37 745.508 1156.8 746.5C1156.24 747.476 1155.45 748.244 1154.45 748.804C1153.45 749.364 1152.33 749.644 1151.06 749.644ZM1151.06 747.628C1151.88 747.628 1152.61 747.444 1153.25 747.076C1153.9 746.692 1154.41 746.164 1154.78 745.492C1155.15 744.804 1155.33 744.02 1155.33 743.14C1155.33 742.26 1155.15 741.484 1154.78 740.812C1154.41 740.124 1153.9 739.596 1153.25 739.228C1152.61 738.86 1151.88 738.676 1151.06 738.676C1150.25 738.676 1149.51 738.86 1148.85 739.228C1148.21 739.596 1147.7 740.124 1147.32 740.812C1146.95 741.484 1146.77 742.26 1146.77 743.14C1146.77 744.02 1146.95 744.804 1147.32 745.492C1147.7 746.164 1148.21 746.692 1148.85 747.076C1149.51 747.444 1150.25 747.628 1151.06 747.628ZM1167.47 737.212C1168.65 737.212 1169.71 737.476 1170.64 738.004C1171.57 738.532 1172.29 739.268 1172.8 740.212C1173.33 741.14 1173.59 742.204 1173.59 743.404C1173.59 744.636 1173.31 745.732 1172.75 746.692C1172.21 747.636 1171.43 748.372 1170.42 748.9C1169.43 749.428 1168.29 749.692 1167.01 749.692C1164.85 749.692 1163.18 748.956 1162 747.484C1160.83 745.996 1160.25 743.908 1160.25 741.22C1160.25 738.612 1160.78 736.572 1161.85 735.1C1162.93 733.612 1164.57 732.628 1166.77 732.148L1172.58 730.852L1172.92 732.964L1167.57 734.116C1165.9 734.484 1164.66 735.108 1163.85 735.988C1163.03 736.868 1162.57 738.132 1162.45 739.78C1163 738.964 1163.7 738.332 1164.57 737.884C1165.43 737.436 1166.4 737.212 1167.47 737.212ZM1167.06 747.772C1167.88 747.772 1168.6 747.588 1169.22 747.22C1169.86 746.852 1170.36 746.348 1170.71 745.708C1171.06 745.052 1171.24 744.308 1171.24 743.476C1171.24 742.212 1170.85 741.196 1170.09 740.428C1169.32 739.66 1168.31 739.276 1167.06 739.276C1165.81 739.276 1164.8 739.66 1164.01 740.428C1163.25 741.196 1162.86 742.212 1162.86 743.476C1162.86 744.308 1163.04 745.052 1163.39 745.708C1163.76 746.348 1164.26 746.852 1164.9 747.22C1165.54 747.588 1166.26 747.772 1167.06 747.772ZM1181.9 729.292H1183.98L1176.06 751.9H1173.98L1181.9 729.292ZM1198.36 736.78V749.5H1196.28V740.212L1191.52 748.06H1190.52L1185.81 740.188V749.5H1183.7V736.78H1186.08L1191.07 745.372L1196.2 736.78H1198.36ZM1202.85 736.78H1205.15V746.044L1212.95 736.78H1215.04V749.5H1212.74V740.236L1204.96 749.5H1202.85V736.78ZM1219.51 736.78H1221.82V742.18H1229.07V736.78H1231.37V749.5H1229.07V744.172H1221.82V749.5H1219.51V736.78Z" fill="white"/>
<path d="M358.5 229C215.7 222.2 190 377.5 161 414V703.5H949.5V6C816 116 703 121.5 607 123C511 124.5 537 237.5 358.5 229Z" fill="url(#paint0_linear)"/>
<path d="M161 413C190 376.5 215.7 221.2 358.5 228C537 236.5 511 123.5 607 122C703 120.5 816 115 949.5 5" stroke="#CF93FF" stroke-width="4"/>
<path d="M427 507.5C284.2 500.7 190.5 572 161.5 608.5V703.5H1140V180C1092 228 1039 209 950 200.5C861 192 801 404.5 705 406C609 407.5 605.5 516 427 507.5Z" fill="url(#paint1_linear)"/>
<path d="M161.5 608.5C190.5 572 284.2 500.7 427 507.5C605.5 516 609 407.5 705 406C801 404.5 861 192 950 200.5C1039 209 1092 228 1140 180" stroke="#5BA3EC" stroke-width="4"/>
<circle cx="163.5" cy="606" r="7.5" fill="#5BA3EC"/>
<circle cx="432.5" cy="506" r="7.5" fill="#5BA3EC"/>
<circle cx="700.5" cy="406" r="7.5" fill="#5BA3EC"/>
<circle cx="978.5" cy="203" r="7.5" fill="#5BA3EC"/>
<circle cx="1139.5" cy="180" r="7.5" fill="#5BA3EC"/>
<circle cx="701.5" cy="115" r="7.5" fill="#CF93FF"/>
<circle cx="427.5" cy="223" r="7.5" fill="#CF93FF"/>
<circle cx="163.5" cy="410" r="7.5" fill="#CF93FF"/>
<path d="M14.528 598.7V615.5H12.152V600.788H8.35997V598.7H14.528ZM23.0028 605.396C25.4028 605.396 27.1628 605.852 28.2828 606.764C29.4188 607.66 29.9868 608.892 29.9868 610.46C29.9868 611.452 29.7468 612.348 29.2668 613.148C28.8028 613.932 28.0908 614.556 27.1308 615.02C26.1868 615.468 25.0188 615.692 23.6268 615.692C22.4428 615.692 21.2988 615.516 20.1948 615.164C19.0908 614.796 18.1788 614.292 17.4588 613.652L18.5628 611.756C19.1388 612.3 19.8748 612.74 20.7708 613.076C21.6668 613.396 22.6108 613.556 23.6028 613.556C24.8668 613.556 25.8428 613.292 26.5308 612.764C27.2348 612.22 27.5868 611.484 27.5868 610.556C27.5868 609.548 27.2028 608.788 26.4348 608.276C25.6668 607.748 24.3548 607.484 22.4988 607.484H18.6828L19.5708 598.7H29.0508V600.788H21.5868L21.1308 605.396H23.0028Z" fill="white"/>
<path d="M147.054 737.396C149.454 737.396 151.214 737.852 152.334 738.764C153.47 739.66 154.038 740.892 154.038 742.46C154.038 743.452 153.798 744.348 153.318 745.148C152.854 745.932 152.142 746.556 151.182 747.02C150.238 747.468 149.07 747.692 147.678 747.692C146.494 747.692 145.35 747.516 144.246 747.164C143.142 746.796 142.23 746.292 141.51 745.652L142.614 743.756C143.19 744.3 143.926 744.74 144.822 745.076C145.718 745.396 146.662 745.556 147.654 745.556C148.918 745.556 149.894 745.292 150.582 744.764C151.286 744.22 151.638 743.484 151.638 742.556C151.638 741.548 151.254 740.788 150.486 740.276C149.718 739.748 148.406 739.484 146.55 739.484H142.734L143.622 730.7H153.102V732.788H145.638L145.182 737.396H147.054ZM162.899 747.692C161.571 747.692 160.387 747.356 159.347 746.684C158.323 745.996 157.515 745.004 156.923 743.708C156.331 742.412 156.035 740.876 156.035 739.1C156.035 737.324 156.331 735.788 156.923 734.492C157.515 733.196 158.323 732.212 159.347 731.54C160.387 730.852 161.571 730.508 162.899 730.508C164.211 730.508 165.379 730.852 166.403 731.54C167.443 732.212 168.259 733.196 168.851 734.492C169.443 735.788 169.739 737.324 169.739 739.1C169.739 740.876 169.443 742.412 168.851 743.708C168.259 745.004 167.443 745.996 166.403 746.684C165.379 747.356 164.211 747.692 162.899 747.692ZM162.899 745.556C164.243 745.556 165.315 745.004 166.115 743.9C166.931 742.796 167.339 741.196 167.339 739.1C167.339 737.004 166.931 735.404 166.115 734.3C165.315 733.196 164.243 732.644 162.899 732.644C161.539 732.644 160.451 733.196 159.635 734.3C158.835 735.404 158.435 737.004 158.435 739.1C158.435 741.196 158.835 742.796 159.635 743.9C160.451 745.004 161.539 745.556 162.899 745.556ZM178.907 747.692C177.579 747.692 176.395 747.356 175.355 746.684C174.331 745.996 173.523 745.004 172.931 743.708C172.339 742.412 172.043 740.876 172.043 739.1C172.043 737.324 172.339 735.788 172.931 734.492C173.523 733.196 174.331 732.212 175.355 731.54C176.395 730.852 177.579 730.508 178.907 730.508C180.219 730.508 181.387 730.852 182.411 731.54C183.451 732.212 184.267 733.196 184.859 734.492C185.451 735.788 185.747 737.324 185.747 739.1C185.747 740.876 185.451 742.412 184.859 743.708C184.267 745.004 183.451 745.996 182.411 746.684C181.387 747.356 180.219 747.692 178.907 747.692ZM178.907 745.556C180.251 745.556 181.323 745.004 182.123 743.9C182.939 742.796 183.347 741.196 183.347 739.1C183.347 737.004 182.939 735.404 182.123 734.3C181.323 733.196 180.251 732.644 178.907 732.644C177.547 732.644 176.459 733.196 175.643 734.3C174.843 735.404 174.443 737.004 174.443 739.1C174.443 741.196 174.843 742.796 175.643 743.9C176.459 745.004 177.547 745.556 178.907 745.556Z" fill="white"/>
<path d="M421.474 730.7V732.332L414.682 747.5H412.138L418.786 732.788H411.106V735.788H408.802V730.7H421.474ZM436.623 743.372H433.431V747.5H431.103V743.372H421.767V741.692L430.359 730.7H432.951L424.719 741.308H431.175V737.66H433.431V741.308H436.623V743.372ZM444.926 747.692C443.598 747.692 442.414 747.356 441.374 746.684C440.35 745.996 439.542 745.004 438.95 743.708C438.358 742.412 438.062 740.876 438.062 739.1C438.062 737.324 438.358 735.788 438.95 734.492C439.542 733.196 440.35 732.212 441.374 731.54C442.414 730.852 443.598 730.508 444.926 730.508C446.238 730.508 447.406 730.852 448.43 731.54C449.47 732.212 450.286 733.196 450.878 734.492C451.47 735.788 451.766 737.324 451.766 739.1C451.766 740.876 451.47 742.412 450.878 743.708C450.286 745.004 449.47 745.996 448.43 746.684C447.406 747.356 446.238 747.692 444.926 747.692ZM444.926 745.556C446.27 745.556 447.342 745.004 448.142 743.9C448.958 742.796 449.366 741.196 449.366 739.1C449.366 737.004 448.958 735.404 448.142 734.3C447.342 733.196 446.27 732.644 444.926 732.644C443.566 732.644 442.478 733.196 441.662 734.3C440.862 735.404 440.462 737.004 440.462 739.1C440.462 741.196 440.862 742.796 441.662 743.9C442.478 745.004 443.566 745.556 444.926 745.556Z" fill="white"/>
<path d="M679.555 730.7V747.5H677.179V732.788H673.387V730.7H679.555ZM695.038 745.412V747.5H682.966V745.868L689.806 739.268C690.638 738.468 691.198 737.78 691.486 737.204C691.774 736.612 691.918 736.02 691.918 735.428C691.918 734.548 691.606 733.868 690.982 733.388C690.374 732.892 689.494 732.644 688.342 732.644C686.486 732.644 685.054 733.252 684.046 734.468L682.414 733.052C683.07 732.252 683.926 731.628 684.982 731.18C686.054 730.732 687.246 730.508 688.558 730.508C690.318 730.508 691.718 730.932 692.758 731.78C693.798 732.612 694.318 733.748 694.318 735.188C694.318 736.084 694.126 736.932 693.742 737.732C693.358 738.532 692.63 739.444 691.558 740.468L686.422 745.412H695.038ZM703.805 747.692C702.477 747.692 701.293 747.356 700.253 746.684C699.229 745.996 698.421 745.004 697.829 743.708C697.237 742.412 696.941 740.876 696.941 739.1C696.941 737.324 697.237 735.788 697.829 734.492C698.421 733.196 699.229 732.212 700.253 731.54C701.293 730.852 702.477 730.508 703.805 730.508C705.117 730.508 706.285 730.852 707.309 731.54C708.349 732.212 709.165 733.196 709.757 734.492C710.349 735.788 710.645 737.324 710.645 739.1C710.645 740.876 710.349 742.412 709.757 743.708C709.165 745.004 708.349 745.996 707.309 746.684C706.285 747.356 705.117 747.692 703.805 747.692ZM703.805 745.556C705.149 745.556 706.221 745.004 707.021 743.9C707.837 742.796 708.245 741.196 708.245 739.1C708.245 737.004 707.837 735.404 707.021 734.3C706.221 733.196 705.149 732.644 703.805 732.644C702.445 732.644 701.357 733.196 700.541 734.3C699.741 735.404 699.341 737.004 699.341 739.1C699.341 741.196 699.741 742.796 700.541 743.9C701.357 745.004 702.445 745.556 703.805 745.556ZM719.813 747.692C718.485 747.692 717.301 747.356 716.261 746.684C715.237 745.996 714.429 745.004 713.837 743.708C713.245 742.412 712.949 740.876 712.949 739.1C712.949 737.324 713.245 735.788 713.837 734.492C714.429 733.196 715.237 732.212 716.261 731.54C717.301 730.852 718.485 730.508 719.813 730.508C721.125 730.508 722.293 730.852 723.317 731.54C724.357 732.212 725.173 733.196 725.765 734.492C726.357 735.788 726.653 737.324 726.653 739.1C726.653 740.876 726.357 742.412 725.765 743.708C725.173 745.004 724.357 745.996 723.317 746.684C722.293 747.356 721.125 747.692 719.813 747.692ZM719.813 745.556C721.157 745.556 722.229 745.004 723.029 743.9C723.845 742.796 724.253 741.196 724.253 739.1C724.253 737.004 723.845 735.404 723.029 734.3C722.229 733.196 721.157 732.644 719.813 732.644C718.453 732.644 717.365 733.196 716.549 734.3C715.749 735.404 715.349 737.004 715.349 739.1C715.349 741.196 715.749 742.796 716.549 743.9C717.365 745.004 718.453 745.556 719.813 745.556Z" fill="white"/>
<path d="M959.093 745.412V747.5H947.021V745.868L953.861 739.268C954.693 738.468 955.253 737.78 955.541 737.204C955.829 736.612 955.973 736.02 955.973 735.428C955.973 734.548 955.661 733.868 955.037 733.388C954.429 732.892 953.549 732.644 952.397 732.644C950.541 732.644 949.109 733.252 948.101 734.468L946.469 733.052C947.125 732.252 947.981 731.628 949.037 731.18C950.109 730.732 951.301 730.508 952.613 730.508C954.373 730.508 955.773 730.932 956.813 731.78C957.853 732.612 958.373 733.748 958.373 735.188C958.373 736.084 958.181 736.932 957.797 737.732C957.413 738.532 956.685 739.444 955.613 740.468L950.477 745.412H959.093ZM967.86 747.692C966.532 747.692 965.348 747.356 964.308 746.684C963.284 745.996 962.476 745.004 961.884 743.708C961.292 742.412 960.996 740.876 960.996 739.1C960.996 737.324 961.292 735.788 961.884 734.492C962.476 733.196 963.284 732.212 964.308 731.54C965.348 730.852 966.532 730.508 967.86 730.508C969.172 730.508 970.34 730.852 971.364 731.54C972.404 732.212 973.22 733.196 973.812 734.492C974.404 735.788 974.7 737.324 974.7 739.1C974.7 740.876 974.404 742.412 973.812 743.708C973.22 745.004 972.404 745.996 971.364 746.684C970.34 747.356 969.172 747.692 967.86 747.692ZM967.86 745.556C969.204 745.556 970.276 745.004 971.076 743.9C971.892 742.796 972.3 741.196 972.3 739.1C972.3 737.004 971.892 735.404 971.076 734.3C970.276 733.196 969.204 732.644 967.86 732.644C966.5 732.644 965.412 733.196 964.596 734.3C963.796 735.404 963.396 737.004 963.396 739.1C963.396 741.196 963.796 742.796 964.596 743.9C965.412 745.004 966.5 745.556 967.86 745.556ZM983.868 747.692C982.54 747.692 981.356 747.356 980.316 746.684C979.292 745.996 978.484 745.004 977.892 743.708C977.3 742.412 977.004 740.876 977.004 739.1C977.004 737.324 977.3 735.788 977.892 734.492C978.484 733.196 979.292 732.212 980.316 731.54C981.356 730.852 982.54 730.508 983.868 730.508C985.18 730.508 986.348 730.852 987.372 731.54C988.412 732.212 989.228 733.196 989.82 734.492C990.412 735.788 990.708 737.324 990.708 739.1C990.708 740.876 990.412 742.412 989.82 743.708C989.228 745.004 988.412 745.996 987.372 746.684C986.348 747.356 985.18 747.692 983.868 747.692ZM983.868 745.556C985.212 745.556 986.284 745.004 987.084 743.9C987.9 742.796 988.308 741.196 988.308 739.1C988.308 737.004 987.9 735.404 987.084 734.3C986.284 733.196 985.212 732.644 983.868 732.644C982.508 732.644 981.42 733.196 980.604 734.3C979.804 735.404 979.404 737.004 979.404 739.1C979.404 741.196 979.804 742.796 980.604 743.9C981.42 745.004 982.508 745.556 983.868 745.556ZM999.875 747.692C998.547 747.692 997.363 747.356 996.323 746.684C995.299 745.996 994.491 745.004 993.899 743.708C993.307 742.412 993.011 740.876 993.011 739.1C993.011 737.324 993.307 735.788 993.899 734.492C994.491 733.196 995.299 732.212 996.323 731.54C997.363 730.852 998.547 730.508 999.875 730.508C1001.19 730.508 1002.36 730.852 1003.38 731.54C1004.42 732.212 1005.24 733.196 1005.83 734.492C1006.42 735.788 1006.72 737.324 1006.72 739.1C1006.72 740.876 1006.42 742.412 1005.83 743.708C1005.24 745.004 1004.42 745.996 1003.38 746.684C1002.36 747.356 1001.19 747.692 999.875 747.692ZM999.875 745.556C1001.22 745.556 1002.29 745.004 1003.09 743.9C1003.91 742.796 1004.32 741.196 1004.32 739.1C1004.32 737.004 1003.91 735.404 1003.09 734.3C1002.29 733.196 1001.22 732.644 999.875 732.644C998.515 732.644 997.427 733.196 996.611 734.3C995.811 735.404 995.411 737.004 995.411 739.1C995.411 741.196 995.811 742.796 996.611 743.9C997.427 745.004 998.515 745.556 999.875 745.556Z" fill="white"/>
<path d="M17.1006 510.412V512.5H5.02863V510.868L11.8686 504.268C12.7006 503.468 13.2606 502.78 13.5486 502.204C13.8366 501.612 13.9806 501.02 13.9806 500.428C13.9806 499.548 13.6686 498.868 13.0446 498.388C12.4366 497.892 11.5566 497.644 10.4046 497.644C8.54863 497.644 7.11663 498.252 6.10863 499.468L4.47663 498.052C5.13263 497.252 5.98863 496.628 7.04463 496.18C8.11663 495.732 9.30863 495.508 10.6206 495.508C12.3806 495.508 13.7806 495.932 14.8206 496.78C15.8606 497.612 16.3806 498.748 16.3806 500.188C16.3806 501.084 16.1886 501.932 15.8046 502.732C15.4206 503.532 14.6926 504.444 13.6206 505.468L8.48463 510.412H17.1006ZM25.8676 512.692C24.5396 512.692 23.3556 512.356 22.3156 511.684C21.2916 510.996 20.4836 510.004 19.8916 508.708C19.2996 507.412 19.0036 505.876 19.0036 504.1C19.0036 502.324 19.2996 500.788 19.8916 499.492C20.4836 498.196 21.2916 497.212 22.3156 496.54C23.3556 495.852 24.5396 495.508 25.8676 495.508C27.1796 495.508 28.3476 495.852 29.3716 496.54C30.4116 497.212 31.2276 498.196 31.8196 499.492C32.4116 500.788 32.7076 502.324 32.7076 504.1C32.7076 505.876 32.4116 507.412 31.8196 508.708C31.2276 510.004 30.4116 510.996 29.3716 511.684C28.3476 512.356 27.1796 512.692 25.8676 512.692ZM25.8676 510.556C27.2116 510.556 28.2836 510.004 29.0836 508.9C29.8996 507.796 30.3076 506.196 30.3076 504.1C30.3076 502.004 29.8996 500.404 29.0836 499.3C28.2836 498.196 27.2116 497.644 25.8676 497.644C24.5076 497.644 23.4196 498.196 22.6036 499.3C21.8036 500.404 21.4036 502.004 21.4036 504.1C21.4036 506.196 21.8036 507.796 22.6036 508.9C23.4196 510.004 24.5076 510.556 25.8676 510.556Z" fill="white"/>
<path d="M17.1788 412.412V414.5H5.10675V412.868L11.9468 406.268C12.7788 405.468 13.3388 404.78 13.6268 404.204C13.9148 403.612 14.0588 403.02 14.0588 402.428C14.0588 401.548 13.7468 400.868 13.1228 400.388C12.5148 399.892 11.6348 399.644 10.4828 399.644C8.62675 399.644 7.19475 400.252 6.18675 401.468L4.55475 400.052C5.21075 399.252 6.06675 398.628 7.12275 398.18C8.19475 397.732 9.38675 397.508 10.6988 397.508C12.4588 397.508 13.8588 397.932 14.8988 398.78C15.9388 399.612 16.4588 400.748 16.4588 402.188C16.4588 403.084 16.2668 403.932 15.8828 404.732C15.4988 405.532 14.7708 406.444 13.6988 407.468L8.56275 412.412H17.1788ZM23.952 404.396C26.352 404.396 28.112 404.852 29.232 405.764C30.368 406.66 30.936 407.892 30.936 409.46C30.936 410.452 30.696 411.348 30.216 412.148C29.752 412.932 29.04 413.556 28.08 414.02C27.136 414.468 25.968 414.692 24.576 414.692C23.392 414.692 22.248 414.516 21.144 414.164C20.04 413.796 19.128 413.292 18.408 412.652L19.512 410.756C20.088 411.3 20.824 411.74 21.72 412.076C22.616 412.396 23.56 412.556 24.552 412.556C25.816 412.556 26.792 412.292 27.48 411.764C28.184 411.22 28.536 410.484 28.536 409.556C28.536 408.548 28.152 407.788 27.384 407.276C26.616 406.748 25.304 406.484 23.448 406.484H19.632L20.52 397.7H30V399.788H22.536L22.08 404.396H23.952Z" fill="white"/>
<path d="M10.7129 301.756C12.3609 301.916 13.6169 302.428 14.4809 303.292C15.3449 304.14 15.7769 305.228 15.7769 306.556C15.7769 307.516 15.5369 308.388 15.0569 309.172C14.5769 309.94 13.8569 310.556 12.8969 311.02C11.9529 311.468 10.7929 311.692 9.41691 311.692C8.21691 311.692 7.06491 311.516 5.96091 311.164C4.85691 310.796 3.95291 310.292 3.24891 309.652L4.35291 307.756C4.92891 308.3 5.66491 308.74 6.56091 309.076C7.45691 309.396 8.40891 309.556 9.41691 309.556C10.6649 309.556 11.6329 309.292 12.3209 308.764C13.0249 308.236 13.3769 307.508 13.3769 306.58C13.3769 305.652 13.0329 304.932 12.3449 304.42C11.6569 303.908 10.6169 303.652 9.22491 303.652H7.88091V301.972L12.1049 296.788H4.01691V294.7H15.1049V296.332L10.7129 301.756ZM24.8793 311.692C23.5513 311.692 22.3673 311.356 21.3273 310.684C20.3033 309.996 19.4953 309.004 18.9033 307.708C18.3113 306.412 18.0153 304.876 18.0153 303.1C18.0153 301.324 18.3113 299.788 18.9033 298.492C19.4953 297.196 20.3033 296.212 21.3273 295.54C22.3673 294.852 23.5513 294.508 24.8793 294.508C26.1913 294.508 27.3593 294.852 28.3833 295.54C29.4233 296.212 30.2393 297.196 30.8313 298.492C31.4233 299.788 31.7193 301.324 31.7193 303.1C31.7193 304.876 31.4233 306.412 30.8313 307.708C30.2393 309.004 29.4233 309.996 28.3833 310.684C27.3593 311.356 26.1913 311.692 24.8793 311.692ZM24.8793 309.556C26.2233 309.556 27.2953 309.004 28.0953 307.9C28.9113 306.796 29.3193 305.196 29.3193 303.1C29.3193 301.004 28.9113 299.404 28.0953 298.3C27.2953 297.196 26.2233 296.644 24.8793 296.644C23.5193 296.644 22.4313 297.196 21.6153 298.3C20.8153 299.404 20.4153 301.004 20.4153 303.1C20.4153 305.196 20.8153 306.796 21.6153 307.9C22.4313 309.004 23.5193 309.556 24.8793 309.556Z" fill="white"/>
<path d="M12.9434 198.756C14.5914 198.916 15.8474 199.428 16.7114 200.292C17.5754 201.14 18.0074 202.228 18.0074 203.556C18.0074 204.516 17.7674 205.388 17.2874 206.172C16.8074 206.94 16.0874 207.556 15.1274 208.02C14.1834 208.468 13.0234 208.692 11.6474 208.692C10.4474 208.692 9.29538 208.516 8.19138 208.164C7.08738 207.796 6.18338 207.292 5.47938 206.652L6.58338 204.756C7.15938 205.3 7.89538 205.74 8.79138 206.076C9.68738 206.396 10.6394 206.556 11.6474 206.556C12.8954 206.556 13.8634 206.292 14.5514 205.764C15.2554 205.236 15.6074 204.508 15.6074 203.58C15.6074 202.652 15.2634 201.932 14.5754 201.42C13.8874 200.908 12.8474 200.652 11.4554 200.652H10.1114V198.972L14.3354 193.788H6.24738V191.7H17.3354V193.332L12.9434 198.756ZM24.8114 198.396C27.2114 198.396 28.9714 198.852 30.0914 199.764C31.2274 200.66 31.7954 201.892 31.7954 203.46C31.7954 204.452 31.5554 205.348 31.0754 206.148C30.6114 206.932 29.8994 207.556 28.9394 208.02C27.9954 208.468 26.8274 208.692 25.4354 208.692C24.2514 208.692 23.1074 208.516 22.0034 208.164C20.8994 207.796 19.9874 207.292 19.2674 206.652L20.3714 204.756C20.9474 205.3 21.6834 205.74 22.5794 206.076C23.4754 206.396 24.4194 206.556 25.4114 206.556C26.6754 206.556 27.6514 206.292 28.3394 205.764C29.0434 205.22 29.3954 204.484 29.3954 203.556C29.3954 202.548 29.0114 201.788 28.2434 201.276C27.4754 200.748 26.1634 200.484 24.3074 200.484H20.4914L21.3794 191.7H30.8594V193.788H23.3954L22.9394 198.396H24.8114Z" fill="white"/>
<circle cx="944.5" cy="7.5" r="7.5" fill="#CF93FF"/>
<defs>
<linearGradient id="paint0_linear" x1="449" y1="119.5" x2="555.25" y2="703.5" gradientUnits="userSpaceOnUse">
<stop stop-color="#CE44FF"/>
<stop offset="1" stop-opacity="0"/>
</linearGradient>
<linearGradient id="paint1_linear" x1="569.5" y1="391.5" x2="650.75" y2="703.5" gradientUnits="userSpaceOnUse">
<stop stop-color="#0094FF" stop-opacity="0.78"/>
<stop offset="1" stop-opacity="0"/>
</linearGradient>
</defs>
</svg>
