<svg width="90" height="90" viewBox="0 0 90 90" fill="none" xmlns="http://www.w3.org/2000/svg">
<circle cx="45" cy="45" r="44" stroke="white" stroke-width="2"/>
<path d="M65.9184 20C51.9728 20 38.0272 20 24.0816 20C21.8275 20 20 21.8275 20 24.0816C20 38.0272 20 51.9727 20 65.9184C20 68.1726 21.8275 70 24.0816 70C38.0272 70 51.9727 70 65.9184 70C68.1726 70 70 68.1726 70 65.9184C70 51.9728 70 38.0273 70 24.0816C70 21.8275 68.1726 20 65.9184 20ZM24.0816 23.0612C24.6452 23.0612 25.102 23.5181 25.102 24.0816C25.102 24.6452 24.6452 25.102 24.0816 25.102C23.5181 25.102 23.0612 24.6452 23.0612 24.0816C23.0612 23.5181 23.5181 23.0612 24.0816 23.0612ZM24.0816 66.9388C23.5181 66.9388 23.0612 66.4819 23.0612 65.9184C23.0612 65.3548 23.5181 64.898 24.0816 64.898C24.6452 64.898 25.102 65.3548 25.102 65.9184C25.102 66.4819 24.6452 66.9388 24.0816 66.9388ZM45 65.3061C33.7852 65.3061 24.6939 56.2148 24.6939 45C24.6939 33.7852 33.7852 24.6939 45 24.6939C56.2148 24.6939 65.3061 33.7852 65.3061 45C65.3061 56.2148 56.2148 65.3061 45 65.3061ZM65.9184 66.9388C65.3548 66.9388 64.898 66.4819 64.898 65.9184C64.898 65.3548 65.3548 64.898 65.9184 64.898C66.4819 64.898 66.9388 65.3548 66.9388 65.9184C66.9388 66.4819 66.4819 66.9388 65.9184 66.9388ZM65.9184 25.102C65.3548 25.102 64.898 24.6452 64.898 24.0816C64.898 23.5181 65.3548 23.0612 65.9184 23.0612C66.4819 23.0612 66.9388 23.5181 66.9388 24.0816C66.9388 24.6452 66.4819 25.102 65.9184 25.102Z" fill="white"/>
<path d="M62.8903 41.3172C62.7892 40.8258 62.5783 40.4751 62.1915 40.1556C59.1 37.6007 54.8126 37.7724 49.3293 40.6707C48.9715 40.3129 48.5841 40.0104 48.15 39.75C51.9292 36.3595 55.3741 34.9362 58.4846 35.4796C59.4017 35.6398 60.0367 34.589 59.4685 33.8517C58.2073 32.2148 56.7719 30.8822 55.0463 29.7456C54.6272 29.4696 54.2302 29.3709 53.7307 29.4184C49.7381 29.7979 46.8279 32.9509 45 38.8775C44.4939 38.8775 44.0062 38.9375 43.5152 39.0603C43.7901 33.9907 45.2194 30.5483 47.8032 28.7331C48.565 28.1979 48.271 27.0059 47.3478 26.8861C45.2986 26.6205 43.3413 26.693 41.3174 27.1097C40.8259 27.2108 40.4753 27.4217 40.1558 27.8086C37.6009 30.9001 37.7726 35.1874 40.6709 40.6707C40.313 41.0286 40.0106 41.4159 39.7501 41.85C36.3597 38.0708 34.9363 34.6259 35.4798 31.5154C35.64 30.5983 34.5892 29.9633 33.8518 30.5314C32.215 31.7926 30.8823 33.228 29.7457 34.9537C29.4697 35.3728 29.371 35.7697 29.4185 36.2693C29.798 40.2618 32.951 43.172 38.8777 44.9999C38.8777 45.506 38.9376 45.9938 39.0604 46.4848C33.9908 46.2099 30.5484 44.7805 28.7332 42.1967C28.1981 41.4349 27.006 41.729 26.8862 42.6521C26.6206 44.7014 26.6932 46.6586 27.1099 48.6826C27.211 49.174 27.4219 49.5246 27.8087 49.8442C30.9002 52.3991 35.1875 52.2273 40.6709 49.3291C41.0287 49.6869 41.4161 49.9894 41.8501 50.2498C38.071 53.6403 34.626 55.0636 31.5156 54.5202C30.5985 54.3599 29.9634 55.4108 30.5317 56.1481C31.7929 57.7849 33.2282 59.1176 34.9539 60.2542C35.373 60.5302 35.77 60.6289 36.2695 60.5814C40.2621 60.2019 43.1723 57.0489 45.0001 51.1223C45.5063 51.1223 45.994 51.0623 46.485 50.9394C46.2101 56.009 44.7808 59.4514 42.1969 61.2666C41.4352 61.8018 41.7292 62.9938 42.6523 63.1136C44.7016 63.3792 46.6589 63.3067 48.6828 62.89C49.1742 62.7889 49.5249 62.578 49.8444 62.1912C52.3993 59.0996 52.2276 54.8123 49.3293 49.329C49.6871 48.9711 49.9896 48.5838 50.25 48.1497C53.6405 51.9289 55.0639 55.3738 54.5204 58.4843C54.3602 59.4014 55.411 60.0364 56.1483 59.4682C57.7852 58.207 59.1179 56.7716 60.2545 55.046C60.5304 54.6269 60.6291 54.2299 60.5817 53.7304C60.2022 49.7378 57.0491 46.8276 51.1225 44.9997C51.1225 44.4936 51.0625 44.0059 50.9397 43.5148C56.0094 43.7898 59.4518 45.2191 61.267 47.8029C61.8021 48.5647 62.9942 48.2706 63.1139 47.3475C63.3795 45.2983 63.307 43.3412 62.8903 41.3172ZM45.0001 50.1019C42.1824 50.1019 39.8981 47.8176 39.8981 44.9999C39.8981 42.1822 42.1824 39.8979 45.0001 39.8979C47.8179 39.8979 50.1022 42.1822 50.1022 44.9999C50.1022 47.8176 47.8179 50.1019 45.0001 50.1019Z" fill="white"/>
</svg>
