<svg width="34" height="34" viewBox="0 0 34 34" fill="none" xmlns="http://www.w3.org/2000/svg">
<g filter="url(#filter0_d)">
<path d="M14.6546 9.45482C14.6549 9.45512 14.6552 9.45542 14.6554 9.45572L14.4513 9.6393M14.6546 9.45482C14.6544 9.45452 14.6541 9.45422 14.6538 9.45391L14.4505 9.63854M14.6546 9.45482C14.0881 8.82527 13.3316 8.52138 12.4391 8.51823C12.4357 8.51811 12.4324 8.51799 12.4291 8.51789C12.0168 8.50454 11.6065 8.5812 11.2268 8.74262L11.359 9.05363C11.6759 8.94319 12.0312 8.88684 12.4291 8.88684C12.4291 8.88684 12.4292 8.88684 12.4292 8.88684L12.4291 9.0182L12.4343 8.88684C13.2821 8.88788 13.9402 9.14521 14.4505 9.63854M14.6546 9.45482L14.2836 9.79002M14.4513 9.6393C14.451 9.63905 14.4507 9.63879 14.4505 9.63854M14.4513 9.6393L14.2836 9.79002M14.4513 9.6393C14.4724 9.65975 14.4933 9.6806 14.5139 9.70186L14.5141 9.70211C15.0333 10.2363 15.3109 10.9518 15.3109 11.8996C15.3109 11.8997 15.3109 11.8998 15.3109 11.8999C15.3108 12.8475 15.0332 13.5635 14.5139 14.0986C14.4933 14.1199 14.4725 14.1407 14.4514 14.1611M14.4505 9.63854L14.2836 9.79002M14.2836 9.79002L12.4236 14.7823L12.4285 14.9137C12.4289 14.9137 12.4292 14.9137 12.4295 14.9137C13.2788 14.9144 13.9387 14.6571 14.4509 14.1615M14.4514 14.1611L14.2836 14.0105L14.4509 14.1615M14.4514 14.1611C14.4513 14.1612 14.4511 14.1614 14.4509 14.1615M14.4514 14.1611L14.6557 14.3445C14.6554 14.3448 14.6551 14.3452 14.6548 14.3455L14.4509 14.1615" fill="white" stroke="white"/>
<path d="M29.9545 13.1036C29.5494 12.9593 29.1791 12.7316 28.8675 12.4353C28.5558 12.1389 28.3098 11.7805 28.1453 11.3831C27.9808 10.9858 27.9015 10.5584 27.9125 10.1284C27.9235 9.69853 28.0245 9.2757 28.2091 8.88727C29.4514 6.27455 26.7255 3.54864 24.1182 4.79636C23.7291 4.98173 23.3055 5.08326 22.8747 5.09436C22.4439 5.10546 22.0155 5.02589 21.6175 4.86079C21.2194 4.6957 20.8605 4.44878 20.564 4.13605C20.2675 3.82332 20.04 3.45175 19.8964 3.04545V3.04545C18.9268 0.318182 15.0732 0.318182 14.1036 3.04545C13.9593 3.45056 13.7316 3.8209 13.4353 4.13253C13.1389 4.44417 12.7805 4.69018 12.3831 4.85467C11.9858 5.01916 11.5584 5.09847 11.1284 5.08749C10.6985 5.07651 10.2757 4.97547 9.88727 4.79091V4.79091C7.27455 3.54864 4.54864 6.27455 5.79636 8.88182C5.98173 9.27086 6.08326 9.69452 6.09436 10.1253C6.10546 10.5561 6.02589 10.9845 5.86079 11.3825C5.6957 11.7806 5.44878 12.1395 5.13605 12.436C4.82332 12.7325 4.45175 12.96 4.04545 13.1036V13.1036C1.31818 14.0732 1.31818 17.9268 4.04545 18.8964C4.45056 19.0407 4.8209 19.2684 5.13253 19.5647C5.44417 19.8611 5.69018 20.2195 5.85467 20.6169C6.01916 21.0142 6.09847 21.4417 6.08749 21.8716C6.07651 22.3015 5.97547 22.7243 5.79091 23.1127C4.54864 25.7255 7.27455 28.4514 9.88182 27.2036C10.2709 27.0183 10.6945 26.9167 11.1253 26.9056C11.5561 26.8945 11.9845 26.9741 12.3825 27.1392C12.7806 27.3043 13.1395 27.5512 13.436 27.864C13.7325 28.1767 13.96 28.5482 14.1036 28.9545V28.9545C15.0732 31.6818 18.9268 31.6818 19.8964 28.9545C20.0405 28.5493 20.2681 28.1788 20.5644 27.8671C20.8607 27.5553 21.2191 27.3091 21.6165 27.1445C22.0139 26.9799 22.4413 26.9004 22.8713 26.9113C23.3013 26.9222 23.7242 27.0232 24.1127 27.2077V27.2077C26.7255 28.45 29.4514 25.7241 28.2036 23.1168C28.0185 22.7278 27.9172 22.3043 27.9062 21.8737C27.8952 21.443 27.9748 21.0149 28.1399 20.617C28.305 20.219 28.5518 19.8603 28.8644 19.5639C29.177 19.2675 29.5484 19.04 29.9545 18.8964V18.8964C32.6818 17.9268 32.6818 14.0732 29.9545 13.1036Z" stroke="white" stroke-miterlimit="10"/>
</g>
<defs>
<filter id="filter0_d" x="0.5" y="0.5" width="33" height="33" filterUnits="userSpaceOnUse" color-interpolation-filters="sRGB">
<feFlood flood-opacity="0" result="BackgroundImageFix"/>
<feColorMatrix in="SourceAlpha" type="matrix" values="0 0 0 0 0 0 0 0 0 0 0 0 0 0 0 0 0 0 127 0"/>
<feOffset dy="1"/>
<feGaussianBlur stdDeviation="0.5"/>
<feColorMatrix type="matrix" values="0 0 0 0 0 0 0 0 0 0 0 0 0 0 0 0 0 0 0.25 0"/>
<feBlend mode="normal" in2="BackgroundImageFix" result="effect1_dropShadow"/>
<feBlend mode="normal" in="SourceGraphic" in2="effect1_dropShadow" result="shape"/>
</filter>
</defs>
</svg>
