<?xml version="1.0" encoding="utf-8"?>
<!-- Generator: Adobe Illustrator 19.2.1, SVG Export Plug-In . SVG Version: 6.00 Build 0)  -->
<svg version="1.1" id="Слой_1" xmlns="http://www.w3.org/2000/svg" xmlns:xlink="http://www.w3.org/1999/xlink" x="0px" y="0px"
	 viewBox="0 0 30 30" style="enable-background:new 0 0 30 30;" xml:space="preserve">
<style type="text/css">
	.st0{fill:#FFFFFF;}
</style>
	<path d="M23.6,26.2H6.4c-1.4,0-2.6-1.1-2.6-2.6V6.4C3.8,5,5,3.8,6.4,3.8h14.3c1,0,1.9,0.4,2.6,1.1l1.7,1.7c0.7,0.7,1.1,1.6,1.1,2.6v14.3C26.2,25,25,26.2,23.6,26.2z M6.4,4.8c-0.9,0-1.6,0.7-1.6,1.6v17.2c0,0.9,0.7,1.6,1.6,1.6h17.2c0.9,0,1.6-0.7,1.6-1.6V9.3c0-0.7-0.3-1.4-0.8-1.9l-1.7-1.7c-0.5-0.5-1.2-0.8-1.9-0.8H6.4z M15,23.4c-2.9,0-5.2-2.3-5.2-5.2s2.3-5.2,5.2-5.2c2.9,0,5.2,2.3,5.2,5.2S17.9,23.4,15,23.4z M15,14.1c-2.3,0-4.2,1.9-4.2,4.2s1.9,4.2,4.2,4.2s4.2-1.9,4.2-4.2S17.3,14.1,15,14.1z M18,11.3H8.3c-0.9,0-1.7-0.8-1.7-1.7V7.3c0-0.9,0.8-1.7,1.7-1.7H18c0.9,0,1.7,0.8,1.7,1.7v2.3C19.7,10.6,19,11.3,18,11.3z M8.3,6.6c-0.4,0-0.7,0.3-0.7,0.7v2.3c0,0.4,0.3,0.7,0.7,0.7H18c0.4,0,0.7-0.3,0.7-0.7V7.3c0-0.4-0.3-0.7-0.7-0.7H8.3z"/>
</svg>
