<?xml version="1.0" encoding="utf-8"?>
<!-- Generator: Adobe Illustrator 19.2.1, SVG Export Plug-In . SVG Version: 6.00 Build 0)  -->
<svg version="1.1" id="Слой_1" xmlns="http://www.w3.org/2000/svg" xmlns:xlink="http://www.w3.org/1999/xlink" x="0px" y="0px"
	 viewBox="0 0 30 30" style="enable-background:new 0 0 30 30;" xml:space="preserve">
<style type="text/css">
	.st0{fill:#0D0F0F;}
</style>
<g>
	<path d="M15.1,14.5c1.7,0,3-1.4,3-3c0-1.7-1.4-3-3-3s-3,1.4-3,3C12.1,13.1,13.4,14.5,15.1,14.5z M15.1,9.5c1.1,0,2,0.9,2,2s-0.9,2-2,2c-1.1,0-2-0.9-2-2S14,9.5,15.1,9.5z"/>
	<path d="M15.4,15.1h-0.7c-2.4,0-4.3,2-4.3,4.4v1.7c0,0.3,0.2,0.5,0.5,0.5h8.2c0.3,0,0.5-0.2,0.5-0.5v-1.7C19.7,17,17.8,15.1,15.4,15.1z M18.7,20.6h-7.2v-1.2c0-1.8,1.5-3.3,3.2-3.3h0.7c1.8,0,3.2,1.5,3.2,3.3V20.6z"/>
	<path d="M21.9,3H8.1C6.5,3,5.1,4.4,5.1,6.1v17.9c0,1.7,1.4,3.1,3.1,3.1h13.7c1.7,0,3.1-1.4,3.1-3.1V6.1C24.9,4.4,23.5,3,21.9,3z M23.8,23.9c0,1.1-0.9,2-2,2H8.1c-1.1,0-2-0.9-2-2V6.1c0-1.1,0.9-2,2-2h13.7c1.1,0,2,0.9,2,2V23.9L23.8,23.9z"/>
</g>
</svg>
