<?xml version="1.0" encoding="utf-8"?>
<!-- Generator: Adobe Illustrator 19.2.1, SVG Export Plug-In . SVG Version: 6.00 Build 0)  -->
<svg version="1.1" id="Слой_1" xmlns="http://www.w3.org/2000/svg" xmlns:xlink="http://www.w3.org/1999/xlink" x="0px" y="0px"
	 viewBox="0 0 30 30" style="enable-background:new 0 0 30 30;" xml:space="preserve">
<style type="text/css">
	.st0{clip-path:url(#SVGID_2_);}
	.st1{fill:#FFFFFF;}
</style>
<g>

	<g>
		<path d="M22.7,17.8c-2.1,0-3.8,1.7-3.8,3.8s1.7,3.8,3.8,3.8c2.1,0,3.8-1.7,3.8-3.8S24.7,17.8,22.7,17.8z M22.7,23.5c-1,0-1.9-0.8-1.9-1.9c0-1,0.8-1.9,1.9-1.9c1,0,1.9,0.8,1.9,1.9C24.5,22.7,23.7,23.5,22.7,23.5z"/>
		<path d="M9.7,17.8c-2.1,0-3.8,1.7-3.8,3.8s1.7,3.8,3.8,3.8c2.1,0,3.8-1.7,3.8-3.8S11.8,17.8,9.7,17.8z M9.7,23.5c-1,0-1.9-0.8-1.9-1.9c0-1,0.8-1.9,1.9-1.9c1,0,1.9,0.8,1.9,1.9C11.6,22.7,10.8,23.5,9.7,23.5z"/>
		<path d="M25.2,7c-0.2-0.3-0.5-0.5-0.8-0.5h-5v1.9h4.4l2.6,5.1l1.7-0.8L25.2,7z"/>
		<path d="M19.8,20.7h-7.2v1.9h7.2V20.7z"/>
		<path d="M6.9,20.7H3.6c-0.5,0-0.9,0.4-0.9,0.9c0,0.5,0.4,0.9,0.9,0.9h3.3c0.5,0,0.9-0.4,0.9-0.9C7.8,21.1,7.4,20.7,6.9,20.7z"/>
		<path d="M29.8,14.9l-1.9-2.4c-0.2-0.2-0.5-0.4-0.7-0.4h-6.9V5.5c0-0.5-0.4-0.9-0.9-0.9H3.6C3.1,4.6,2.7,5,2.7,5.5s0.4,0.9,0.9,0.9h14.8v6.6c0,0.5,0.4,0.9,0.9,0.9h7.4l1.4,1.8v4.9h-2.6c-0.5,0-0.9,0.4-0.9,0.9c0,0.5,0.4,0.9,0.9,0.9h3.6c0.5,0,0.9-0.4,0.9-0.9v-6.1C30,15.3,29.9,15.1,29.8,14.9z"/>
		<path d="M6.8,15.9H2.5c-0.5,0-0.9,0.4-0.9,0.9c0,0.5,0.4,0.9,0.9,0.9h4.3c0.5,0,0.9-0.4,0.9-0.9C7.8,16.3,7.4,15.9,6.8,15.9z"/>
		<path d="M9,12.2H0.9c-0.5,0-0.9,0.4-0.9,0.9c0,0.5,0.4,0.9,0.9,0.9H9c0.5,0,0.9-0.4,0.9-0.9C10,12.6,9.5,12.2,9,12.2z"/>
		<path d="M10.6,8.5H2.5C2,8.5,1.5,8.9,1.5,9.4c0,0.5,0.4,0.9,0.9,0.9h8.1c0.5,0,0.9-0.4,0.9-0.9S11.1,8.5,10.6,8.5z"/>
	</g>
</g>
</svg>
