<?xml version="1.0" encoding="utf-8"?>
<!-- Generator: Adobe Illustrator 19.2.1, SVG Export Plug-In . SVG Version: 6.00 Build 0)  -->
<svg version="1.1" id="Слой_1" xmlns="http://www.w3.org/2000/svg" xmlns:xlink="http://www.w3.org/1999/xlink" x="0px" y="0px"
	 viewBox="0 0 30 30" style="enable-background:new 0 0 30 30;" xml:space="preserve">
<style type="text/css">
	.st0{fill:#FFFFFF;}
</style>
<g>
	<path d="M13,19.9c-0.5,0-1.1-0.2-1.4-0.6l-0.9-0.9c-0.4-0.4-0.6-0.9-0.6-1.4c0-0.4,0.2-0.8,0.4-1.1L22.4,4.7c0.2-0.2,0.4-0.3,0.6-0.4c0.2-0.1,0.5-0.2,0.7-0.2c0.3,0,0.5,0,0.7,0.1c0.2,0.1,0.4,0.2,0.6,0.4c0.2,0.2,0.3,0.4,0.4,0.6c0.1,0.2,0.2,0.5,0.2,0.7c0,0.2,0,0.5-0.1,0.7c-0.1,0.2-0.2,0.4-0.4,0.6l-11,12.2C13.8,19.8,13.4,19.9,13,19.9z M23.8,5.1C23.8,5.1,23.8,5.1,23.8,5.1c-0.1,0-0.2,0-0.3,0.1c-0.1,0-0.2,0.1-0.3,0.2L11.2,16.7c-0.1,0.1-0.1,0.3-0.1,0.4c0,0.3,0.1,0.5,0.3,0.7c0,0,0,0,0,0l0.9,0.9c0.3,0.3,0.9,0.4,1.1,0.1l11-12.2c0.1-0.1,0.2-0.2,0.2-0.3c0-0.1,0.1-0.2,0.1-0.3c0-0.1,0-0.2-0.1-0.3c0-0.1-0.1-0.2-0.2-0.3c-0.1-0.1-0.2-0.1-0.3-0.2C24,5.1,23.9,5.1,23.8,5.1z"/>
	<path d="M10.6,22.3c0.2-0.2,0.3-0.3,0.4-0.5c0.2-0.4,0.3-0.9,0.2-1.3c-0.1-0.5-0.3-0.9-0.7-1.1c-0.4-0.3-0.8-0.5-1.3-0.5c-0.5,0-0.9,0.1-1.3,0.4l-0.1,0l-0.2,0.2l-0.1,0.1c-0.4,0.5-0.7,1.1-0.9,1.7c-0.4,1.5-0.5,3.2-2,4.2C2.8,26.9,8.7,24.4,10.6,22.3z"/>
</g>
</svg>
