<svg width="31" height="28" viewBox="0 0 31 28" fill="none" xmlns="http://www.w3.org/2000/svg">
<g filter="url(#filter0_d)">
<path d="M20.32 19.89V20.58C20.32 20.82 20.14 21 19.9 21H18.85C18.61 21 18.43 20.82 18.43 20.58V19.89C18.43 19.65 18.61 19.47 18.85 19.47H19.9C20.14 19.5 20.32 19.68 20.32 19.89ZM21.64 13.47C21.13 13.02 20.44 12.81 19.57 12.81C18.76 12.81 18.1 12.99 17.59 13.38C17.14 13.71 16.9 14.22 16.87 14.85C16.87 15 16.99 15.12 17.14 15.12L18.34 15.15C18.52 15.15 18.7 15.03 18.76 14.85C18.79 14.7 18.88 14.58 18.97 14.49C19.15 14.34 19.33 14.25 19.6 14.25C19.9 14.25 20.14 14.34 20.32 14.52C20.5 14.7 20.56 14.94 20.56 15.27C20.56 15.57 20.5 15.84 20.35 16.05C20.2 16.26 20.02 16.47 19.78 16.62C19.3 16.95 18.97 17.25 18.79 17.52C18.64 17.73 18.55 18 18.52 18.36C18.49 18.54 18.64 18.66 18.82 18.66H20.11C20.26 18.66 20.38 18.54 20.41 18.39C20.44 18.21 20.47 18.06 20.53 17.91C20.62 17.73 20.77 17.55 21.01 17.4C21.43 17.19 21.79 16.86 22.06 16.5C22.33 16.11 22.48 15.69 22.48 15.24C22.39 14.52 22.15 13.92 21.64 13.47ZM1.99 15.3C1.6 15.57 1.39 16.05 1.51 16.5C1.6 16.95 1.99 17.31 2.47 17.37C2.8 17.43 3.13 17.43 3.46 17.43C4.45 17.43 5.35 17.22 6.13 16.86C6.64 17.13 7.18 17.34 7.75 17.52C7.75 17.4 7.75 17.28 7.75 17.16C7.75 16.65 7.78 16.17 7.87 15.69C7.42 15.51 7 15.33 6.58 15.09L6.1 14.82L5.65 15.09C5.2 15.36 4.69 15.54 4.12 15.63C4.39 15.27 4.6 14.88 4.75 14.46L4.93 13.95L4.57 13.56C3.37 12.27 2.74 10.71 2.74 9.06C2.74 5.07 6.52 1.8 11.14 1.8C14.68 1.8 17.71 3.69 18.94 6.36C19.24 6.33 19.54 6.33 19.84 6.33C20.17 6.33 20.5 6.36 20.86 6.36C19.57 2.67 15.7 0 11.17 0C5.56 0 1 4.05 1 9.03C1 10.92 1.66 12.75 2.92 14.28C2.68 14.7 2.38 15.06 1.99 15.3ZM29.92 16.89C29.92 18.81 29.23 20.67 27.97 22.23C28.21 22.65 28.51 23.01 28.9 23.25C29.29 23.52 29.5 24 29.38 24.45C29.29 24.93 28.9 25.26 28.42 25.32C28.09 25.38 27.76 25.38 27.43 25.38C26.44 25.38 25.54 25.17 24.7 24.78C23.14 25.56 21.4 25.98 19.6 25.98C13.93 25.98 9.31 21.87 9.31 16.86C9.31 11.85 13.96 7.77 19.63 7.77C25.3 7.77 29.92 11.85 29.92 16.89ZM28.15 16.89C28.15 12.84 24.34 9.54 19.63 9.54C14.92 9.54 11.11 12.84 11.11 16.89C11.11 20.94 14.92 24.24 19.63 24.24C21.31 24.24 22.9 23.82 24.31 23.04L24.76 22.77L25.21 23.04C25.69 23.31 26.2 23.49 26.77 23.58C26.5 23.22 26.29 22.8 26.14 22.38L25.96 21.87L26.32 21.48C27.52 20.16 28.15 18.57 28.15 16.89Z" fill="white"/>
</g>
<defs>
<filter id="filter0_d" x="0" y="0" width="30.92" height="27.98" filterUnits="userSpaceOnUse" color-interpolation-filters="sRGB">
<feFlood flood-opacity="0" result="BackgroundImageFix"/>
<feColorMatrix in="SourceAlpha" type="matrix" values="0 0 0 0 0 0 0 0 0 0 0 0 0 0 0 0 0 0 127 0"/>
<feOffset dy="1"/>
<feGaussianBlur stdDeviation="0.5"/>
<feColorMatrix type="matrix" values="0 0 0 0 0 0 0 0 0 0 0 0 0 0 0 0 0 0 0.25 0"/>
<feBlend mode="normal" in2="BackgroundImageFix" result="effect1_dropShadow"/>
<feBlend mode="normal" in="SourceGraphic" in2="effect1_dropShadow" result="shape"/>
</filter>
</defs>
</svg>
