<svg width="35" height="43" viewBox="0 0 35 43" fill="none" xmlns="http://www.w3.org/2000/svg">
<g filter="url(#filter0_d)">
<path d="M13.6118 11.8752H22.3898C22.2877 11.5263 22.0984 11.2145 21.8479 10.964C21.4619 10.578 20.9274 10.3367 20.3428 10.3367H19.8436C19.5151 10.3367 19.2498 10.0714 19.2498 9.74288V9.44595C19.2498 9.10077 19.1087 8.78528 18.8805 8.55702C18.6522 8.32876 18.3367 8.18771 17.9915 8.18771C17.6463 8.18771 17.3309 8.32876 17.1026 8.55702C16.8743 8.78528 16.7333 9.10077 16.7333 9.44595V9.74288C16.7333 10.0714 16.4679 10.3367 16.1394 10.3367H15.6588C15.0723 10.3367 14.5397 10.5761 14.1537 10.964C13.9032 11.2145 13.7139 11.5282 13.6118 11.8752ZM23.069 13.0629H12.9326C12.6041 13.0629 12.3387 12.7975 12.3387 12.4691C12.3387 11.556 12.7118 10.7246 13.313 10.1233C13.8939 9.54245 14.6863 9.175 15.5623 9.15088C15.6291 8.59414 15.8852 8.09492 16.2619 7.7182C16.7055 7.27466 17.316 7 17.9897 7C18.6633 7 19.2739 7.27466 19.7174 7.7182C20.0941 8.09492 20.3502 8.59599 20.4171 9.15088C21.3004 9.17129 22.1003 9.5406 22.6849 10.1252C23.2861 10.7265 23.6592 11.556 23.6592 12.4709C23.6629 12.7975 23.3975 13.0629 23.069 13.0629Z" fill="white"/>
<path d="M22.6516 10.437C22.3231 10.437 22.0577 10.7024 22.0577 11.0309C22.0577 11.3593 22.3231 11.6247 22.6516 11.6247H26.2203C26.3836 11.6247 26.5321 11.6915 26.6397 11.7992C26.7473 11.9068 26.8141 12.0553 26.8141 12.2186V33.7236C26.8141 33.887 26.7473 34.0354 26.6397 34.1431C26.5321 34.2507 26.3836 34.3175 26.2203 34.3175H9.78157C9.61826 34.3175 9.4698 34.2507 9.36216 34.1431C9.25452 34.0354 9.18771 33.887 9.18771 33.7236V12.2186C9.18771 12.0553 9.25452 11.9068 9.36216 11.7992C9.4698 11.6915 9.61826 11.6247 9.78157 11.6247H13.3466C13.675 11.6247 13.9404 11.3593 13.9404 11.0309C13.9404 10.7024 13.675 10.437 13.3466 10.437H9.78157C9.29164 10.437 8.84625 10.6374 8.52334 10.9603C8.20043 11.2833 8 11.7287 8 12.2186V33.7236C8 34.2136 8.20043 34.659 8.52334 34.9819C8.84625 35.3048 9.29164 35.5052 9.78157 35.5052H26.2184C26.7084 35.5052 27.1538 35.3048 27.4767 34.9819C27.7996 34.659 28 34.2136 28 33.7236V12.2186C28 11.7287 27.7996 11.2833 27.4767 10.9603C27.1538 10.6374 26.7084 10.437 26.2184 10.437H22.6516Z" fill="white"/>
<path d="M11.68 15.106H14.9852C15.1485 15.106 15.2821 15.2396 15.2821 15.4029V18.7081C15.2821 18.8714 15.1485 19.005 14.9852 19.005H11.68C11.5167 19.005 11.3831 18.8714 11.3831 18.7081V15.4029C11.3831 15.2377 11.5167 15.106 11.68 15.106ZM14.6882 15.6998H11.9769V18.4111H14.6882V15.6998Z" fill="white"/>
<path d="M12.5782 16.8451C12.4632 16.73 12.2739 16.73 12.1588 16.8451C12.0437 16.9601 12.0437 17.1494 12.1588 17.2645L12.8028 17.9085C12.9178 18.0235 13.1071 18.0235 13.2222 17.9085C13.3372 17.7934 13.3372 17.6041 13.2222 17.489L12.5782 16.8451Z" fill="white"/>
<path d="M12.8009 17.4891C12.6858 17.6041 12.6858 17.7934 12.8009 17.9085C12.916 18.0235 13.1052 18.0235 13.2203 17.9085L14.5064 16.6224C14.6214 16.5073 14.6214 16.3181 14.5064 16.203C14.3913 16.0879 14.202 16.0879 14.087 16.203L12.8009 17.4891Z" fill="white"/>
<path d="M11.68 21.0205H14.9852C15.1485 21.0205 15.2821 21.1541 15.2821 21.3174V24.6226C15.2821 24.7859 15.1485 24.9196 14.9852 24.9196H11.68C11.5167 24.9196 11.3831 24.7859 11.3831 24.6226V21.3174C11.3831 21.1541 11.5167 21.0205 11.68 21.0205ZM14.6882 21.6144H11.9769V24.3257H14.6882V21.6144Z" fill="white"/>
<path d="M12.5782 22.7613C12.4632 22.6463 12.2739 22.6463 12.1588 22.7613C12.0437 22.8764 12.0437 23.0657 12.1588 23.1808L12.8028 23.8247C12.9178 23.9398 13.1071 23.9398 13.2222 23.8247C13.3372 23.7097 13.3372 23.5204 13.2222 23.4053L12.5782 22.7613Z" fill="white"/>
<path d="M12.8009 23.4036C12.6858 23.5187 12.6858 23.708 12.8009 23.823C12.916 23.9381 13.1052 23.9381 13.2203 23.823L14.5064 22.537C14.6214 22.4219 14.6214 22.2326 14.5064 22.1175C14.3913 22.0025 14.202 22.0025 14.087 22.1175L12.8009 23.4036Z" fill="white"/>
<path d="M11.68 26.9368H14.9852C15.1485 26.9368 15.2821 27.0704 15.2821 27.2337V30.5389C15.2821 30.7022 15.1485 30.8358 14.9852 30.8358H11.68C11.5167 30.8358 11.3831 30.7022 11.3831 30.5389V27.2337C11.3831 27.0685 11.5167 26.9368 11.68 26.9368ZM14.6882 27.5306H11.9769V30.242H14.6882V27.5306Z" fill="white"/>
<path d="M12.5782 28.6759C12.4632 28.5608 12.2739 28.5608 12.1588 28.6759C12.0437 28.791 12.0437 28.9802 12.1588 29.0953L12.8028 29.7393C12.9178 29.8543 13.1071 29.8543 13.2222 29.7393C13.3372 29.6242 13.3372 29.4349 13.2222 29.3199L12.5782 28.6759Z" fill="white"/>
<path d="M12.8009 29.3196C12.6858 29.4347 12.6858 29.624 12.8009 29.739C12.916 29.8541 13.1052 29.8541 13.2203 29.739L14.5064 28.453C14.6214 28.3379 14.6214 28.1486 14.5064 28.0336C14.3913 27.9185 14.202 27.9185 14.087 28.0336L12.8009 29.3196Z" fill="white"/>
<path d="M16.2027 16.7578C16.0394 16.7578 15.9058 16.8914 15.9058 17.0547C15.9058 17.2181 16.0394 17.3517 16.2027 17.3517H24.3218C24.4851 17.3517 24.6188 17.2181 24.6188 17.0547C24.6188 16.8914 24.4851 16.7578 24.3218 16.7578H16.2027Z" fill="white"/>
<path d="M16.2027 22.6741C16.0394 22.6741 15.9058 22.8077 15.9058 22.971C15.9058 23.1343 16.0394 23.2679 16.2027 23.2679H24.3218C24.4851 23.2679 24.6188 23.1343 24.6188 22.971C24.6188 22.8077 24.4851 22.6741 24.3218 22.6741H16.2027Z" fill="white"/>
<path d="M16.2027 28.5884C16.0394 28.5884 15.9058 28.722 15.9058 28.8853C15.9058 29.0486 16.0394 29.1822 16.2027 29.1822H24.3218C24.4851 29.1822 24.6188 29.0486 24.6188 28.8853C24.6188 28.722 24.4851 28.5884 24.3218 28.5884H16.2027Z" fill="white"/>
<path d="M1.0516 34.1464C1.05114 34.1527 1.04879 34.1577 1.04454 34.1614C1.04033 34.165 1.03476 34.1668 1.02784 34.1668C1.02028 34.1668 1.01432 34.1643 1.00997 34.1592C1.00565 34.1541 1.00349 34.1471 1.00349 34.1382V34.1346C1.00349 34.1289 1.00449 34.1239 1.00648 34.1196C1.00848 34.1153 1.01134 34.112 1.01504 34.1097C1.01877 34.1074 1.02309 34.1062 1.02801 34.1062C1.03482 34.1062 1.0403 34.108 1.04446 34.1117C1.04862 34.1153 1.05103 34.1204 1.05168 34.127H1.03952C1.03922 34.1232 1.03815 34.1205 1.03632 34.1188C1.03451 34.117 1.03174 34.1162 1.02801 34.1162C1.02395 34.1162 1.02091 34.1176 1.01889 34.1205C1.01689 34.1234 1.01586 34.1279 1.01581 34.134V34.1385C1.01581 34.1449 1.01677 34.1495 1.01868 34.1525C1.02063 34.1554 1.02368 34.1569 1.02784 34.1569C1.0316 34.1569 1.0344 34.156 1.03623 34.1543C1.0381 34.1526 1.03917 34.15 1.03944 34.1464H1.0516ZM1.08345 34.1331C1.08186 34.1329 1.08045 34.1328 1.07924 34.1328C1.07481 34.1328 1.0719 34.1343 1.07052 34.1373V34.166H1.05881V34.1222H1.06988L1.0702 34.1274C1.07255 34.1234 1.07581 34.1214 1.07997 34.1214C1.08126 34.1214 1.08248 34.1215 1.08362 34.1219L1.08345 34.1331ZM1.1085 34.1668C1.10207 34.1668 1.09683 34.1649 1.09278 34.1609C1.08875 34.157 1.08674 34.1517 1.08674 34.1451V34.144C1.08674 34.1396 1.08759 34.1357 1.08929 34.1322C1.09099 34.1287 1.0934 34.1261 1.0965 34.1242C1.09964 34.1223 1.10321 34.1214 1.1072 34.1214C1.1132 34.1214 1.11792 34.1232 1.12135 34.127C1.12481 34.1308 1.12654 34.1362 1.12654 34.1431V34.1479H1.09861C1.09899 34.1508 1.10013 34.1531 1.10202 34.1548C1.10394 34.1565 1.10635 34.1574 1.10927 34.1574C1.11378 34.1574 1.11731 34.1557 1.11985 34.1525L1.12561 34.1589C1.12385 34.1614 1.12147 34.1634 1.11847 34.1648C1.11547 34.1661 1.11215 34.1668 1.1085 34.1668ZM1.10716 34.1308C1.10484 34.1308 1.10295 34.1316 1.10149 34.1332C1.10006 34.1348 1.09914 34.137 1.09873 34.1399H1.11503V34.139C1.11497 34.1364 1.11427 34.1344 1.11292 34.133C1.11157 34.1316 1.10965 34.1308 1.10716 34.1308ZM1.15864 34.166C1.1581 34.165 1.15771 34.1637 1.15746 34.1621C1.15463 34.1652 1.15094 34.1668 1.1464 34.1668C1.1421 34.1668 1.13854 34.1656 1.1357 34.1631C1.13289 34.1606 1.13148 34.1575 1.13148 34.1537C1.13148 34.149 1.1332 34.1455 1.13663 34.143C1.14009 34.1405 1.14507 34.1393 1.15159 34.1392H1.15698V34.1367C1.15698 34.1347 1.15645 34.1331 1.1554 34.1318C1.15437 34.1306 1.15273 34.13 1.15049 34.13C1.14852 34.13 1.14697 34.1305 1.14583 34.1314C1.14472 34.1324 1.14417 34.1337 1.14417 34.1353H1.13246C1.13246 34.1328 1.13324 34.1304 1.13481 34.1283C1.13637 34.1261 1.13859 34.1244 1.14145 34.1232C1.14432 34.122 1.14753 34.1214 1.1511 34.1214C1.1565 34.1214 1.16079 34.1227 1.16395 34.1254C1.16714 34.1281 1.16873 34.132 1.16873 34.1369V34.1559C1.16876 34.16 1.16934 34.1632 1.17047 34.1653V34.166H1.15864ZM1.14895 34.1579C1.15068 34.1579 1.15228 34.1575 1.15373 34.1567C1.15519 34.156 1.15627 34.1549 1.15698 34.1536V34.1461H1.1526C1.14674 34.1461 1.14362 34.1481 1.14324 34.1522L1.1432 34.1528C1.1432 34.1543 1.14371 34.1555 1.14474 34.1565C1.14576 34.1574 1.14717 34.1579 1.14895 34.1579ZM1.19175 34.1114V34.1222H1.19925V34.1308H1.19175V34.1526C1.19175 34.1543 1.19206 34.1554 1.19269 34.1561C1.19331 34.1568 1.1945 34.1572 1.19625 34.1572C1.19755 34.1572 1.1987 34.1571 1.1997 34.1569V34.1658C1.1974 34.1665 1.19504 34.1668 1.1926 34.1668C1.18439 34.1668 1.1802 34.1627 1.18004 34.1544V34.1308H1.17364V34.1222H1.18004V34.1114H1.19175ZM1.22596 34.1668C1.21953 34.1668 1.21429 34.1649 1.21024 34.1609C1.20621 34.157 1.2042 34.1517 1.2042 34.1451V34.144C1.2042 34.1396 1.20505 34.1357 1.20675 34.1322C1.20845 34.1287 1.21086 34.1261 1.21396 34.1242C1.2171 34.1223 1.22067 34.1214 1.22466 34.1214C1.23066 34.1214 1.23538 34.1232 1.23881 34.127C1.24227 34.1308 1.244 34.1362 1.244 34.1431V34.1479H1.21607C1.21645 34.1508 1.21758 34.1531 1.21948 34.1548C1.22139 34.1565 1.22381 34.1574 1.22673 34.1574C1.23124 34.1574 1.23477 34.1557 1.23731 34.1525L1.24307 34.1589C1.24131 34.1614 1.23893 34.1634 1.23593 34.1648C1.23293 34.1661 1.22961 34.1668 1.22596 34.1668ZM1.22462 34.1308C1.2223 34.1308 1.22041 34.1316 1.21895 34.1332C1.21752 34.1348 1.2166 34.137 1.21619 34.1399H1.23249V34.139C1.23243 34.1364 1.23173 34.1344 1.23038 34.133C1.22903 34.1316 1.22711 34.1308 1.22462 34.1308ZM1.24886 34.1438C1.24886 34.1369 1.25039 34.1315 1.25344 34.1274C1.25652 34.1234 1.26072 34.1214 1.26605 34.1214C1.27032 34.1214 1.27384 34.1229 1.27663 34.1261V34.1038H1.28838V34.166H1.2778L1.27723 34.1614C1.27431 34.165 1.27056 34.1668 1.26597 34.1668C1.2608 34.1668 1.25666 34.1648 1.25352 34.1607C1.25041 34.1567 1.24886 34.151 1.24886 34.1438ZM1.26057 34.1446C1.26057 34.1487 1.26129 34.1519 1.26272 34.1541C1.26416 34.1562 1.26624 34.1573 1.26896 34.1573C1.27259 34.1573 1.27514 34.1558 1.27663 34.1528V34.1355C1.27517 34.1324 1.27264 34.1309 1.26905 34.1309C1.2634 34.1309 1.26057 34.1355 1.26057 34.1446ZM1.35765 34.1445C1.35765 34.1515 1.35615 34.157 1.35315 34.1609C1.35015 34.1649 1.34596 34.1668 1.34058 34.1668C1.33583 34.1668 1.33203 34.165 1.32919 34.1614L1.32867 34.166H1.31813V34.1038H1.32984V34.1261C1.33254 34.1229 1.3361 34.1214 1.3405 34.1214C1.34585 34.1214 1.35004 34.1233 1.35307 34.1273C1.35612 34.1312 1.35765 34.1367 1.35765 34.1438V34.1445ZM1.34593 34.1436C1.34593 34.1392 1.34523 34.136 1.34383 34.134C1.34242 34.1319 1.34033 34.1309 1.33754 34.1309C1.33381 34.1309 1.33125 34.1324 1.32984 34.1355V34.1528C1.33127 34.1558 1.33387 34.1574 1.33762 34.1574C1.34141 34.1574 1.34389 34.1555 1.34508 34.1518C1.34565 34.15 1.34593 34.1473 1.34593 34.1436ZM1.38079 34.1494L1.3889 34.1222H1.40146L1.38383 34.1728L1.38286 34.1751C1.38024 34.1809 1.37591 34.1837 1.36989 34.1837C1.36819 34.1837 1.36646 34.1835 1.3647 34.183V34.1741L1.36648 34.1741C1.3687 34.1741 1.37035 34.1738 1.37143 34.1731C1.37254 34.1724 1.3734 34.1713 1.37402 34.1697L1.3754 34.1661L1.36004 34.1222H1.37264L1.38079 34.1494ZM1.46951 34.1169H1.45144V34.166H1.43928V34.1169H1.42144V34.107H1.46951V34.1169ZM1.46546 34.1437C1.46546 34.1393 1.4663 34.1355 1.46797 34.1321C1.46965 34.1286 1.47205 34.126 1.47519 34.1241C1.47835 34.1223 1.48201 34.1214 1.48617 34.1214C1.49209 34.1214 1.49691 34.1232 1.50064 34.1268C1.5044 34.1304 1.50649 34.1353 1.50692 34.1415L1.507 34.1445C1.507 34.1513 1.50513 34.1567 1.50137 34.1607C1.49761 34.1648 1.49258 34.1668 1.48625 34.1668C1.47993 34.1668 1.47488 34.1648 1.47109 34.1607C1.46734 34.1567 1.46546 34.1512 1.46546 34.1442V34.1437ZM1.47717 34.1445C1.47717 34.1487 1.47796 34.1519 1.47952 34.1541C1.48109 34.1563 1.48333 34.1574 1.48625 34.1574C1.48909 34.1574 1.49131 34.1563 1.4929 34.1541C1.49449 34.152 1.49529 34.1485 1.49529 34.1437C1.49529 34.1396 1.49449 34.1364 1.4929 34.1342C1.49131 34.132 1.48906 34.1308 1.48617 34.1308C1.48331 34.1308 1.48109 34.132 1.47952 34.1342C1.47796 34.1364 1.47717 34.1399 1.47717 34.1445ZM1.51239 34.1437C1.51239 34.1393 1.51323 34.1355 1.51491 34.1321C1.51658 34.1286 1.51899 34.126 1.52212 34.1241C1.52528 34.1223 1.52895 34.1214 1.53311 34.1214C1.53902 34.1214 1.54385 34.1232 1.54758 34.1268C1.55133 34.1304 1.55343 34.1353 1.55386 34.1415L1.55394 34.1445C1.55394 34.1513 1.55206 34.1567 1.54831 34.1607C1.54455 34.1648 1.53951 34.1668 1.53319 34.1668C1.52686 34.1668 1.52181 34.1648 1.51803 34.1607C1.51427 34.1567 1.51239 34.1512 1.51239 34.1442V34.1437ZM1.52411 34.1445C1.52411 34.1487 1.52489 34.1519 1.52646 34.1541C1.52803 34.1563 1.53027 34.1574 1.53319 34.1574C1.53602 34.1574 1.53824 34.1563 1.53983 34.1541C1.54143 34.152 1.54223 34.1485 1.54223 34.1437C1.54223 34.1396 1.54143 34.1364 1.53983 34.1342C1.53824 34.132 1.536 34.1308 1.53311 34.1308C1.53024 34.1308 1.52803 34.132 1.52646 34.1342C1.52489 34.1364 1.52411 34.1399 1.52411 34.1445ZM1.55933 34.1437C1.55933 34.1393 1.56017 34.1355 1.56184 34.1321C1.56352 34.1286 1.56592 34.126 1.56906 34.1241C1.57222 34.1223 1.57588 34.1214 1.58004 34.1214C1.58596 34.1214 1.59078 34.1232 1.59451 34.1268C1.59827 34.1304 1.60036 34.1353 1.60079 34.1415L1.60087 34.1445C1.60087 34.1513 1.599 34.1567 1.59524 34.1607C1.59148 34.1648 1.58645 34.1668 1.58012 34.1668C1.5738 34.1668 1.56875 34.1648 1.56496 34.1607C1.56121 34.1567 1.55933 34.1512 1.55933 34.1442V34.1437ZM1.57104 34.1445C1.57104 34.1487 1.57183 34.1519 1.57339 34.1541C1.57496 34.1563 1.5772 34.1574 1.58012 34.1574C1.58296 34.1574 1.58518 34.1563 1.58677 34.1541C1.58836 34.152 1.58916 34.1485 1.58916 34.1437C1.58916 34.1396 1.58836 34.1364 1.58677 34.1342C1.58518 34.132 1.58293 34.1308 1.58004 34.1308C1.57718 34.1308 1.57496 34.132 1.57339 34.1342C1.57183 34.1364 1.57104 34.1399 1.57104 34.1445ZM1.63273 34.1331C1.63114 34.1329 1.62973 34.1328 1.62852 34.1328C1.62409 34.1328 1.62118 34.1343 1.6198 34.1373V34.166H1.60809V34.1222H1.61915L1.61948 34.1274C1.62183 34.1234 1.62508 34.1214 1.62925 34.1214C1.63054 34.1214 1.63176 34.1215 1.63289 34.1219L1.63273 34.1331ZM1.6626 34.166C1.66206 34.165 1.66167 34.1637 1.66143 34.1621C1.65859 34.1652 1.6549 34.1668 1.65036 34.1668C1.64607 34.1668 1.6425 34.1656 1.63966 34.1631C1.63685 34.1606 1.63545 34.1575 1.63545 34.1537C1.63545 34.149 1.63716 34.1455 1.64059 34.143C1.64405 34.1405 1.64904 34.1393 1.65555 34.1392H1.66094V34.1367C1.66094 34.1347 1.66041 34.1331 1.65936 34.1318C1.65833 34.1306 1.6567 34.13 1.65446 34.13C1.65248 34.13 1.65093 34.1305 1.6498 34.1314C1.64869 34.1324 1.64813 34.1337 1.64813 34.1353H1.63642C1.63642 34.1328 1.6372 34.1304 1.63877 34.1283C1.64034 34.1261 1.64255 34.1244 1.64542 34.1232C1.64828 34.122 1.6515 34.1214 1.65506 34.1214C1.66047 34.1214 1.66475 34.1227 1.66791 34.1254C1.6711 34.1281 1.6727 34.132 1.6727 34.1369V34.1559C1.67272 34.16 1.6733 34.1632 1.67444 34.1653V34.166H1.6626ZM1.65292 34.1579C1.65465 34.1579 1.65624 34.1575 1.6577 34.1567C1.65916 34.156 1.66024 34.1549 1.66094 34.1536V34.1461H1.65656C1.6507 34.1461 1.64758 34.1481 1.6472 34.1522L1.64716 34.1528C1.64716 34.1543 1.64767 34.1555 1.6487 34.1565C1.64973 34.1574 1.65113 34.1579 1.65292 34.1579ZM1.71829 34.1484L1.71408 34.1526V34.166H1.70236V34.1038H1.71408V34.1383L1.71635 34.1353L1.72757 34.1222H1.74164L1.72579 34.1404L1.74302 34.166H1.72956L1.71829 34.1484ZM1.75814 34.1269C1.76124 34.1232 1.76515 34.1214 1.76985 34.1214C1.77936 34.1214 1.78418 34.1269 1.78432 34.1379V34.166H1.7726V34.1383C1.7726 34.1357 1.77206 34.1339 1.77098 34.1327C1.7699 34.1315 1.76811 34.1309 1.76559 34.1309C1.76216 34.1309 1.75968 34.1322 1.75814 34.1348V34.166H1.74642V34.1038H1.75814V34.1269ZM1.81857 34.166C1.81803 34.165 1.81763 34.1637 1.81739 34.1621C1.81455 34.1652 1.81087 34.1668 1.80633 34.1668C1.80203 34.1668 1.79846 34.1656 1.79563 34.1631C1.79282 34.1606 1.79141 34.1575 1.79141 34.1537C1.79141 34.149 1.79313 34.1455 1.79656 34.143C1.80002 34.1405 1.805 34.1393 1.81151 34.1392H1.81691V34.1367C1.81691 34.1347 1.81638 34.1331 1.81532 34.1318C1.8143 34.1306 1.81266 34.13 1.81042 34.13C1.80845 34.13 1.80689 34.1305 1.80576 34.1314C1.80465 34.1324 1.8041 34.1337 1.8041 34.1353H1.79238C1.79238 34.1328 1.79317 34.1304 1.79473 34.1283C1.7963 34.1261 1.79852 34.1244 1.80138 34.1232C1.80425 34.122 1.80746 34.1214 1.81103 34.1214C1.81643 34.1214 1.82072 34.1227 1.82388 34.1254C1.82707 34.1281 1.82866 34.132 1.82866 34.1369V34.1559C1.82869 34.16 1.82927 34.1632 1.8304 34.1653V34.166H1.81857ZM1.80888 34.1579C1.81061 34.1579 1.8122 34.1575 1.81366 34.1567C1.81512 34.156 1.8162 34.1549 1.81691 34.1536V34.1461H1.81253C1.80666 34.1461 1.80354 34.1481 1.80317 34.1522L1.80312 34.1528C1.80312 34.1543 1.80364 34.1555 1.80467 34.1565C1.80569 34.1574 1.8071 34.1579 1.80888 34.1579ZM1.84844 34.1222L1.8488 34.1272C1.85194 34.1233 1.85614 34.1214 1.86141 34.1214C1.86606 34.1214 1.86951 34.1227 1.87178 34.1254C1.87405 34.1282 1.87522 34.1323 1.87527 34.1377V34.166H1.86356V34.138C1.86356 34.1355 1.86302 34.1337 1.86194 34.1326C1.86085 34.1314 1.85906 34.1309 1.85654 34.1309C1.85325 34.1309 1.85078 34.1323 1.84913 34.1351V34.166H1.83741V34.1222H1.84844Z" fill="white"/>
<path d="M1.0077 34.249V34.2138H1.00118V34.2052H1.0077V34.2014C1.0077 34.1965 1.00911 34.1927 1.01192 34.19C1.01475 34.1873 1.01871 34.1859 1.02379 34.1859C1.02541 34.1859 1.0274 34.1862 1.02975 34.1867L1.02963 34.1958C1.02866 34.1956 1.02747 34.1954 1.02606 34.1954C1.02166 34.1954 1.01945 34.1975 1.01945 34.2016V34.2052H1.02817V34.2138H1.01945V34.249H1.0077ZM1.05889 34.2162C1.0573 34.2159 1.05589 34.2158 1.05468 34.2158C1.05025 34.2158 1.04734 34.2173 1.04596 34.2203V34.249H1.03425V34.2052H1.04531L1.04564 34.2104C1.04799 34.2064 1.05124 34.2044 1.05541 34.2044C1.0567 34.2044 1.05792 34.2045 1.05905 34.2049L1.05889 34.2162ZM1.06128 34.2267C1.06128 34.2223 1.06212 34.2185 1.0638 34.2151C1.06547 34.2117 1.06788 34.209 1.07101 34.2072C1.07417 34.2053 1.07783 34.2044 1.08199 34.2044C1.08791 34.2044 1.09274 34.2062 1.09646 34.2098C1.10022 34.2134 1.10231 34.2183 1.10275 34.2245L1.10283 34.2275C1.10283 34.2343 1.10095 34.2397 1.09719 34.2438C1.09344 34.2478 1.0884 34.2498 1.08208 34.2498C1.07575 34.2498 1.0707 34.2478 1.06692 34.2438C1.06316 34.2397 1.06128 34.2342 1.06128 34.2272V34.2267ZM1.073 34.2275C1.073 34.2317 1.07378 34.2349 1.07535 34.2371C1.07691 34.2393 1.07916 34.2404 1.08208 34.2404C1.08491 34.2404 1.08713 34.2393 1.08872 34.2371C1.09032 34.235 1.09111 34.2315 1.09111 34.2267C1.09111 34.2226 1.09032 34.2194 1.08872 34.2172C1.08713 34.215 1.08489 34.2138 1.08199 34.2138C1.07913 34.2138 1.07691 34.215 1.07535 34.2172C1.07378 34.2194 1.073 34.2229 1.073 34.2275ZM1.12103 34.2052L1.12139 34.2101C1.1245 34.2063 1.1287 34.2044 1.134 34.2044C1.13964 34.2044 1.14352 34.2066 1.14563 34.211C1.14871 34.2066 1.1531 34.2044 1.1588 34.2044C1.16356 34.2044 1.1671 34.2057 1.16942 34.2085C1.17174 34.2113 1.17291 34.2155 1.17291 34.221V34.249H1.16115V34.2211C1.16115 34.2186 1.16067 34.2168 1.15969 34.2156C1.15872 34.2145 1.157 34.2139 1.15455 34.2139C1.15103 34.2139 1.1486 34.2156 1.14725 34.2189L1.14729 34.249H1.13558V34.2211C1.13558 34.2186 1.13508 34.2167 1.13408 34.2156C1.13308 34.2145 1.13137 34.2139 1.12897 34.2139C1.12565 34.2139 1.12324 34.2153 1.12176 34.218V34.249H1.11004V34.2052H1.12103ZM1.21664 34.1944V34.2052H1.22414V34.2138H1.21664V34.2356C1.21664 34.2373 1.21695 34.2384 1.21757 34.2391C1.21819 34.2398 1.21938 34.2402 1.22114 34.2402C1.22243 34.2402 1.22358 34.2401 1.22458 34.2399V34.2488C1.22229 34.2495 1.21992 34.2498 1.21749 34.2498C1.20928 34.2498 1.20509 34.2457 1.20493 34.2374V34.2138H1.19852V34.2052H1.20493V34.1944H1.21664ZM1.24209 34.21C1.2452 34.2062 1.2491 34.2044 1.25381 34.2044C1.26332 34.2044 1.26814 34.2099 1.26828 34.2209V34.249H1.25656V34.2213C1.25656 34.2187 1.25602 34.2169 1.25494 34.2157C1.25386 34.2145 1.25206 34.2139 1.24955 34.2139C1.24612 34.2139 1.24363 34.2152 1.24209 34.2179V34.249H1.23038V34.1868H1.24209V34.21ZM1.2973 34.2498C1.29087 34.2498 1.28562 34.2479 1.28157 34.2439C1.27754 34.24 1.27553 34.2347 1.27553 34.2281V34.227C1.27553 34.2226 1.27638 34.2187 1.27808 34.2152C1.27979 34.2117 1.28219 34.2091 1.2853 34.2072C1.28843 34.2053 1.292 34.2044 1.296 34.2044C1.302 34.2044 1.30671 34.2062 1.31014 34.21C1.3136 34.2138 1.31533 34.2192 1.31533 34.2261V34.2309H1.28741C1.28778 34.2338 1.28892 34.2361 1.29081 34.2378C1.29273 34.2395 1.29515 34.2404 1.29807 34.2404C1.30258 34.2404 1.3061 34.2388 1.30864 34.2355L1.3144 34.2419C1.31264 34.2444 1.31027 34.2464 1.30727 34.2478C1.30427 34.2491 1.30094 34.2498 1.2973 34.2498ZM1.29596 34.2138C1.29363 34.2138 1.29174 34.2146 1.29028 34.2162C1.28885 34.2178 1.28793 34.22 1.28753 34.2229H1.30382V34.222C1.30377 34.2194 1.30306 34.2174 1.30171 34.216C1.30036 34.2146 1.29844 34.2138 1.29596 34.2138ZM1.39145 34.249H1.37929L1.35562 34.2102V34.249H1.34346V34.19H1.35562L1.37933 34.2289V34.19H1.39145V34.249ZM1.39948 34.2267C1.39948 34.2223 1.40031 34.2185 1.40199 34.2151C1.40366 34.2117 1.40607 34.209 1.4092 34.2072C1.41236 34.2053 1.41603 34.2044 1.42019 34.2044C1.4261 34.2044 1.43093 34.2062 1.43466 34.2098C1.43841 34.2134 1.44051 34.2183 1.44094 34.2245L1.44102 34.2275C1.44102 34.2343 1.43914 34.2397 1.43539 34.2438C1.43163 34.2478 1.42659 34.2498 1.42027 34.2498C1.41394 34.2498 1.40889 34.2478 1.40511 34.2438C1.40135 34.2397 1.39948 34.2342 1.39948 34.2272V34.2267ZM1.41119 34.2275C1.41119 34.2317 1.41197 34.2349 1.41354 34.2371C1.41511 34.2393 1.41735 34.2404 1.42027 34.2404C1.4231 34.2404 1.42532 34.2393 1.42691 34.2371C1.42851 34.235 1.42931 34.2315 1.42931 34.2267C1.42931 34.2226 1.42851 34.2194 1.42691 34.2172C1.42532 34.215 1.42308 34.2138 1.42019 34.2138C1.41732 34.2138 1.41511 34.215 1.41354 34.2172C1.41197 34.2194 1.41119 34.2229 1.41119 34.2275ZM1.4745 34.2446C1.47161 34.2481 1.46761 34.2498 1.4625 34.2498C1.4578 34.2498 1.45421 34.2485 1.45172 34.2458C1.44926 34.2431 1.448 34.2391 1.44795 34.2339V34.2052H1.45966V34.2335C1.45966 34.2381 1.46174 34.2403 1.46591 34.2403C1.46988 34.2403 1.47261 34.239 1.47409 34.2362V34.2052H1.48585V34.249H1.47482L1.4745 34.2446ZM1.50546 34.2052L1.50583 34.2102C1.50896 34.2063 1.51316 34.2044 1.51843 34.2044C1.52308 34.2044 1.52654 34.2057 1.52881 34.2085C1.53108 34.2112 1.53224 34.2153 1.5323 34.2207V34.249H1.52058V34.221C1.52058 34.2185 1.52004 34.2167 1.51896 34.2156C1.51788 34.2145 1.51608 34.2139 1.51357 34.2139C1.51027 34.2139 1.5078 34.2153 1.50615 34.2181V34.249H1.49444V34.2052H1.50546ZM1.57481 34.2282V34.249H1.56265V34.19H1.58568C1.59011 34.19 1.594 34.1908 1.59735 34.1924C1.60073 34.1941 1.60332 34.1964 1.60513 34.1994C1.60694 34.2023 1.60785 34.2057 1.60785 34.2095C1.60785 34.2153 1.60586 34.2199 1.60189 34.2232C1.59794 34.2266 1.59247 34.2282 1.58547 34.2282H1.57481ZM1.57481 34.2184H1.58568C1.58889 34.2184 1.59134 34.2176 1.59301 34.2161C1.59471 34.2146 1.59556 34.2124 1.59556 34.2096C1.59556 34.2067 1.59471 34.2044 1.59301 34.2026C1.59131 34.2008 1.58896 34.1999 1.58596 34.1999H1.57481V34.2184ZM1.64011 34.2162C1.63851 34.2159 1.63711 34.2158 1.63589 34.2158C1.63146 34.2158 1.62856 34.2173 1.62718 34.2203V34.249H1.61547V34.2052H1.62653L1.62685 34.2104C1.62921 34.2064 1.63246 34.2044 1.63662 34.2044C1.63792 34.2044 1.63914 34.2045 1.64027 34.2049L1.64011 34.2162ZM1.6425 34.2267C1.6425 34.2223 1.64334 34.2185 1.64501 34.2151C1.64669 34.2117 1.64909 34.209 1.65223 34.2072C1.65539 34.2053 1.65905 34.2044 1.66321 34.2044C1.66913 34.2044 1.67395 34.2062 1.67768 34.2098C1.68144 34.2134 1.68353 34.2183 1.68396 34.2245L1.68404 34.2275C1.68404 34.2343 1.68217 34.2397 1.67841 34.2438C1.67465 34.2478 1.66962 34.2498 1.66329 34.2498C1.65697 34.2498 1.65192 34.2478 1.64813 34.2438C1.64438 34.2397 1.6425 34.2342 1.6425 34.2272V34.2267ZM1.65421 34.2275C1.65421 34.2317 1.655 34.2349 1.65656 34.2371C1.65813 34.2393 1.66037 34.2404 1.66329 34.2404C1.66613 34.2404 1.66835 34.2393 1.66994 34.2371C1.67153 34.235 1.67233 34.2315 1.67233 34.2267C1.67233 34.2226 1.67153 34.2194 1.66994 34.2172C1.66835 34.215 1.6661 34.2138 1.66321 34.2138C1.66035 34.2138 1.65813 34.215 1.65656 34.2172C1.655 34.2194 1.65421 34.2229 1.65421 34.2275ZM1.70366 34.2052V34.2514C1.70366 34.2563 1.70238 34.26 1.69981 34.2627C1.69724 34.2654 1.69354 34.2667 1.68871 34.2667C1.68668 34.2667 1.68475 34.2665 1.68291 34.266V34.2568C1.68431 34.257 1.68554 34.2571 1.6866 34.2571C1.69014 34.2571 1.69191 34.2553 1.69191 34.2515V34.2052H1.70366ZM1.69098 34.1938C1.69098 34.1921 1.69156 34.1906 1.69272 34.1895C1.69391 34.1883 1.69551 34.1878 1.69754 34.1878C1.69957 34.1878 1.70116 34.1883 1.70232 34.1895C1.70351 34.1906 1.70411 34.1921 1.70411 34.1938C1.70411 34.1956 1.7035 34.1971 1.70228 34.1982C1.70109 34.1993 1.69951 34.1999 1.69754 34.1999C1.69557 34.1999 1.69397 34.1993 1.69276 34.1982C1.69157 34.1971 1.69098 34.1956 1.69098 34.1938ZM1.73301 34.2498C1.72657 34.2498 1.72133 34.2479 1.71728 34.2439C1.71325 34.24 1.71124 34.2347 1.71124 34.2281V34.227C1.71124 34.2226 1.71209 34.2187 1.71379 34.2152C1.7155 34.2117 1.7179 34.2091 1.72101 34.2072C1.72414 34.2053 1.72771 34.2044 1.73171 34.2044C1.73771 34.2044 1.74242 34.2062 1.74585 34.21C1.74931 34.2138 1.75104 34.2192 1.75104 34.2261V34.2309H1.72312C1.72349 34.2338 1.72463 34.2361 1.72652 34.2378C1.72844 34.2395 1.73086 34.2404 1.73378 34.2404C1.73829 34.2404 1.74181 34.2388 1.74435 34.2355L1.75011 34.2419C1.74835 34.2444 1.74598 34.2464 1.74298 34.2478C1.73998 34.2491 1.73665 34.2498 1.73301 34.2498ZM1.73167 34.2138C1.72934 34.2138 1.72745 34.2146 1.72599 34.2162C1.72456 34.2178 1.72364 34.22 1.72324 34.2229H1.73953V34.222C1.73948 34.2194 1.73877 34.2174 1.73742 34.216C1.73607 34.2146 1.73415 34.2138 1.73167 34.2138ZM1.77597 34.2404C1.77813 34.2404 1.77989 34.2398 1.78124 34.2386C1.78259 34.2374 1.78329 34.2358 1.78335 34.2339H1.79433C1.7943 34.2368 1.79349 34.2396 1.7919 34.2421C1.7903 34.2445 1.78811 34.2464 1.78533 34.2478C1.78258 34.2492 1.77952 34.2498 1.77617 34.2498C1.7699 34.2498 1.76496 34.2478 1.76134 34.2439C1.75772 34.2399 1.75591 34.2344 1.75591 34.2273V34.2266C1.75591 34.2198 1.7577 34.2144 1.7613 34.2104C1.76489 34.2064 1.76982 34.2044 1.77609 34.2044C1.78158 34.2044 1.78597 34.2059 1.78926 34.2091C1.79259 34.2122 1.79428 34.2163 1.79433 34.2215H1.78335C1.78329 34.2192 1.78259 34.2174 1.78124 34.216C1.77989 34.2146 1.7781 34.2138 1.77589 34.2138C1.77316 34.2138 1.77109 34.2148 1.76969 34.2168C1.76831 34.2188 1.76762 34.222 1.76762 34.2265V34.2277C1.76762 34.2322 1.76831 34.2355 1.76969 34.2374C1.77106 34.2394 1.77316 34.2404 1.77597 34.2404ZM1.81504 34.1944V34.2052H1.82254V34.2138H1.81504V34.2356C1.81504 34.2373 1.81535 34.2384 1.81597 34.2391C1.81659 34.2398 1.81778 34.2402 1.81954 34.2402C1.82084 34.2402 1.82199 34.2401 1.82299 34.2399V34.2488C1.82069 34.2495 1.81832 34.2498 1.81589 34.2498C1.80768 34.2498 1.80349 34.2457 1.80333 34.2374V34.2138H1.79692V34.2052H1.80333V34.1944H1.81504Z" fill="white"/>
</g>
<defs>
<filter id="filter0_d" x="0" y="0" width="36" height="44.5" filterUnits="userSpaceOnUse" color-interpolation-filters="sRGB">
<feFlood flood-opacity="0" result="BackgroundImageFix"/>
<feColorMatrix in="SourceAlpha" type="matrix" values="0 0 0 0 0 0 0 0 0 0 0 0 0 0 0 0 0 0 127 0"/>
<feOffset dy="1"/>
<feGaussianBlur stdDeviation="0.5"/>
<feColorMatrix type="matrix" values="0 0 0 0 0 0 0 0 0 0 0 0 0 0 0 0 0 0 0.25 0"/>
<feBlend mode="normal" in2="BackgroundImageFix" result="effect1_dropShadow"/>
<feBlend mode="normal" in="SourceGraphic" in2="effect1_dropShadow" result="shape"/>
</filter>
</defs>
</svg>
