<?xml version="1.0" encoding="utf-8"?>
<!-- Generator: Adobe Illustrator 19.2.1, SVG Export Plug-In . SVG Version: 6.00 Build 0)  -->
<svg version="1.1" id="Слой_1" xmlns="http://www.w3.org/2000/svg" xmlns:xlink="http://www.w3.org/1999/xlink" x="0px" y="0px"
	 viewBox="0 0 30 30" style="enable-background:new 0 0 30 30;" xml:space="preserve">
<style type="text/css">
	.st0{fill:#FFFFFF;}
</style>
<g>
	<path d="M30,10.2c0-0.5-0.1-0.9-0.4-1.3l-2.4-3c-0.4-0.5-1-0.8-1.6-0.8c-0.4,0-0.7,0.1-1.1,0.3l-2.3,1.4C22,7,21.6,7.1,21.1,7.1c-0.3,0-0.6-0.1-0.8-0.2l-2.3-1.1c-0.4-0.2-0.8-0.2-1.2-0.2c-0.6,0-1.2,0.1-1.7,0.5l-0.3,0.2C14.7,6.2,14.4,6,14,5.8c-0.4-0.2-1-0.3-1.5-0.3c-0.5,0-0.9,0.1-1.4,0.2L9.7,6.4C9.4,6.5,9,6.6,8.6,6.6c-0.4,0-0.8-0.1-1-0.2L6,5.8C5.7,5.6,5.4,5.6,5.1,5.6c-0.3,0-0.7,0.1-1,0.2C3.8,5.9,3.5,6.1,3.3,6.4L0.5,9.5C0.2,9.9,0,10.3,0,10.7c0,0.5,0.2,1,0.6,1.4l2.6,2.2L2,15.7C1.7,16,1.5,16.5,1.5,17c0,0.5,0.2,1,0.6,1.3l0.3,0.2c0.2,0.2,0.5,0.4,0.8,0.4c-0.2,0.3-0.2,0.6-0.2,0.9c0,0.5,0.2,1,0.6,1.3l0,0l0.3,0.2C4.1,21.8,4.6,22,5.1,22c0.2,0,0.5,0,0.7-0.1c0.1,0.3,0.3,0.6,0.5,0.9L6.6,23c0.4,0.3,0.8,0.5,1.3,0.5c0.4,0,0.7-0.1,1-0.3C9,23.5,9.1,23.8,9.4,24l0.3,0.2c0.4,0.3,0.8,0.5,1.3,0.5c0.5,0,1-0.2,1.4-0.6l1.1-1.2l1.5,1.4c0.4,0.3,0.8,0.5,1.3,0.5c0.5,0,1-0.2,1.4-0.6l0.2-0.3c0.2-0.2,0.3-0.5,0.4-0.8l0.6,0.5c0.4,0.3,0.8,0.5,1.3,0.5c0.5,0,1-0.2,1.4-0.6l0.2-0.3c0.3-0.3,0.4-0.7,0.5-1c0.2,0,0.3,0.1,0.5,0.1c0.5,0,1-0.2,1.4-0.6l0.2-0.3c0.3-0.4,0.5-0.8,0.5-1.3c0-0.1,0-0.3-0.1-0.4c0.4-0.1,0.8-0.2,1.1-0.6l0.2-0.3c0.3-0.4,0.5-0.8,0.5-1.3c0-0.5-0.2-1-0.6-1.4l-0.4-0.4l4-4.5C29.8,11.2,30,10.7,30,10.2z M2.8,17.6c-0.2-0.2-0.3-0.4-0.3-0.6c0-0.2,0.1-0.4,0.2-0.6l2.6-2.7c0.2-0.2,0.4-0.3,0.6-0.3c0.2,0,0.4,0.1,0.6,0.2l0.3,0.2c0,0,0.3,0.4,0.3,0.6C7,14.7,7,14.9,6.9,15c0,0-2.8,2.9-2.8,2.9C4,18,3.8,18,3.6,18.1C3.4,18,3.2,18,3,17.8L2.8,17.6z M5.1,21c-0.2,0-0.4-0.1-0.6-0.2l-0.3-0.2l0,0C4,20.3,4,20.1,4,19.9c0-0.2,0.1-0.4,0.2-0.6c0,0,3.4-3.5,3.4-3.6c0.2-0.2,0.4-0.2,0.6-0.2c0.2,0,0.4,0.1,0.6,0.2L9,16c0.2,0.2,0.3,0.4,0.3,0.6c0,0.2-0.1,0.4-0.2,0.6l-3.4,3.6C5.5,20.9,5.3,21,5.1,21z M7.8,22.5c-0.2,0-0.4-0.1-0.6-0.2L7,22c-0.2-0.2-0.3-0.4-0.3-0.6c0-0.2,0.1-0.4,0.2-0.5l2.4-2.5c0.2-0.1,0.4-0.2,0.6-0.2c0.2,0,0.4,0.1,0.6,0.2l0.3,0.2c0.2,0.2,0.3,0.4,0.3,0.6c0,0.2-0.1,0.4-0.2,0.6l-2.3,2.4C8.3,22.4,8.1,22.5,7.8,22.5z M11.5,23.5c-0.2,0.2-0.4,0.3-0.6,0.3c-0.2,0-0.4-0.1-0.6-0.2l-0.3-0.2c-0.2-0.2-0.3-0.4-0.3-0.6c0-0.2,0.1-0.4,0.2-0.6l1.4-1.5c0.2-0.2,0.4-0.3,0.6-0.3c0.2,0,0.4,0.1,0.6,0.2l0.3,0.2c0.2,0.2,0.3,0.4,0.3,0.6c0,0.2-0.1,0.4-0.2,0.6L11.5,23.5z M25.2,18.5L25,18.7c-0.2,0.2-0.4,0.3-0.6,0.3c-0.2,0-0.4-0.1-0.6-0.2l-4-3.7l-0.7,0.7l4.3,4c0.2,0.2,0.3,0.4,0.3,0.6c0,0.2-0.1,0.4-0.2,0.6l-0.2,0.3c-0.2,0.2-0.4,0.3-0.6,0.3c-0.2,0-0.4-0.1-0.6-0.2l-4-3.7l-0.7,0.7l3.6,3.3c0.2,0.2,0.3,0.4,0.3,0.6c0,0.2-0.1,0.4-0.2,0.6L20.6,23c-0.2,0.2-0.4,0.3-0.6,0.3c-0.2,0-0.4-0.1-0.6-0.2l-3.6-3.3h0l0,0l-0.7,0.7l0,0l0,0l1.8,1.6c0.2,0.2,0.2,0.4,0.2,0.6c0,0.2-0.1,0.4-0.2,0.6l-0.2,0.3c-0.2,0.2-0.4,0.3-0.6,0.3c-0.2,0-0.4-0.1-0.6-0.2L14,22.2c0.1-0.3,0.2-0.6,0.2-0.8c0-0.5-0.2-1-0.6-1.3l-0.3-0.2c-0.4-0.3-0.8-0.5-1.3-0.5c0,0-0.1,0-0.1,0c0,0,0,0,0,0c0-0.5-0.6-1.3-0.6-1.3l-0.3-0.2c-0.3-0.3-0.6-0.4-0.9-0.5c0.1-0.2,0.1-0.4,0.1-0.6c0-0.5-0.2-1-0.6-1.3L9.5,15c-0.4-0.3-0.8-0.5-1.3-0.5c-0.1,0-0.1,0-0.2,0c0-0.5-0.2-0.9-0.6-1.3v0L7.2,13c-0.4-0.3-0.8-0.5-1.3-0.5c-0.5,0-1,0.2-1.4,0.6L4,13.6l-2.7-2.3C1.1,11.2,1,11,1,10.7c0-0.2,0.1-0.4,0.2-0.5L4,7c0.1-0.1,0.3-0.2,0.5-0.3c0.2-0.1,0.4-0.1,0.6-0.1c0.2,0,0.3,0,0.5,0.1l1.5,0.7c0.4,0.2,0.9,0.3,1.5,0.3c0.5,0,1-0.1,1.5-0.3l1.5-0.7c0.2-0.1,0.6-0.2,1-0.2c0.4,0,0.8,0.1,1,0.2c0.1,0.1,0.3,0.1,0.4,0.2L12.4,8c-0.5,0.4-0.8,0.9-0.8,1.5c0,0.4,0.1,0.8,0.4,1.1l0,0l0.2,0.3c0.4,0.5,1,0.8,1.6,0.8c0.3,0,0.7-0.1,1-0.3l0.9-0.6c0.2-0.1,0.5-0.2,0.8-0.2c0.4,0,0.7,0.1,0.9,0.3l2.6,1.9c0.6,0.4,1.5,1.2,2.1,1.7l3,2.8c0.2,0.2,0.3,0.4,0.3,0.6C25.5,18.1,25.4,18.3,25.2,18.5z M28.7,11l-4,4.4l-1.8-1.7c-0.6-0.5-1.5-1.3-2.1-1.8l-2.6-1.9c-0.4-0.3-1-0.4-1.5-0.5c-0.5,0-0.9,0.1-1.3,0.3l-0.9,0.6c-0.1,0.1-0.3,0.1-0.5,0.1c-0.3,0-0.6-0.1-0.8-0.4L12.8,10l0,0c-0.1-0.1-0.2-0.3-0.2-0.5c0-0.3,0.1-0.5,0.3-0.7l2.8-2c0.2-0.2,0.7-0.3,1.1-0.3c0.3,0,0.6,0.1,0.7,0.1l2.3,1.1c0.4,0.2,0.8,0.3,1.3,0.3c0.6,0,1.1-0.1,1.6-0.4l2.3-1.4c0.1-0.1,0.3-0.1,0.5-0.1c0.3,0,0.6,0.1,0.8,0.4l2.4,3C28.9,9.7,29,10,29,10.2C29,10.5,28.9,10.8,28.7,11z"/>
</g>
</svg>
