<?xml version="1.0" encoding="utf-8"?>
<!-- Generator: Adobe Illustrator 19.2.1, SVG Export Plug-In . SVG Version: 6.00 Build 0)  -->
<svg version="1.1" id="Слой_1" xmlns="http://www.w3.org/2000/svg" xmlns:xlink="http://www.w3.org/1999/xlink" x="0px" y="0px"
	 viewBox="0 0 30 30" style="enable-background:new 0 0 30 30;" xml:space="preserve">
<style type="text/css">
	.st0{fill:#FFFFFF;}
</style>
<g>
	<path d="M18.2,1.7c-4,0-7.2,3.2-7.2,7.2c0,4,3.2,7.2,7.2,7.2c4,0,7.2-3.2,7.2-7.2C25.4,4.9,22.2,1.7,18.2,1.7z M18.2,14.9c-3.3,0-6-2.7-6-6c0-3.3,2.7-6,6-6c3.3,0,6,2.7,6,6C24.2,12.2,21.5,14.9,18.2,14.9z M24.6,19.5l-4.2,1.6c0,0,0,0,0-0.1c0,0,0-0.1,0-0.1c0-1.2-1-2.2-2.2-2.2h-3.6c-1.3-1.3-3.2-2.1-5.1-2.1H5.2V16c0-0.6-0.5-1.1-1.1-1.1H1.1C0.5,14.9,0,15.4,0,16v10c0,0.6,0.5,1.1,1.1,1.1h3.1c0.6,0,1.1-0.5,1.1-1.1v-0.7l7.3,2.6c0.8,0.3,1.6,0.4,2.4,0.4c1.1,0,2.2-0.2,3.2-0.7l11.5-5.5c0.2-0.1,0.3-0.2,0.3-0.4c0-0.2,0-0.3-0.1-0.5C28.8,19.5,26.6,18.8,24.6,19.5z M4,25.9H1.2v-9.7H4V25.9z M17.7,26.5c-1.5,0.7-3.2,0.8-4.7,0.3L5.2,24v-6.1h4.4c1.7,0,3.3,0.7,4.4,1.9c0.1,0.1,0.3,0.2,0.4,0.2h3.9c0.5,0,1,0.4,1,1c0,0.4-0.2,0.7-0.6,0.9l-0.1,0c-0.1,0-0.2,0.1-0.3,0.1h-7c-0.3,0-0.6,0.3-0.6,0.6c0,0.3,0.3,0.6,0.6,0.6h7c0.2,0,0.4,0,0.6-0.1c0,0,0,0,0,0c0,0,0,0,0,0l0.1,0c0,0,0,0,0,0c0,0,0,0,0,0l5.9-2.3c1.2-0.5,2.5-0.2,3.4,0.7L17.7,26.5z M18.2,6.1C18.2,6.1,18.2,6.1,18.2,6.1c-0.6,0-1.1,0.5-1.1,1.1c0,0.6,0.5,1.1,1.1,1.1c1.3,0,2.3,1,2.3,2.3c0,1-0.7,1.9-1.7,2.2v0c0,0.3-0.3,0.6-0.6,0.6s-0.6-0.3-0.6-0.6v0c-1-0.3-1.7-1.1-1.7-2.2c0-0.3,0.3-0.6,0.6-0.6c0.3,0,0.6,0.3,0.6,0.6c0,0.6,0.5,1.1,1.1,1.1c0.6,0,1.1-0.5,1.1-1.1s-0.5-1.1-1.1-1.1c-1.3,0-2.3-1-2.3-2.3c0-1,0.7-1.9,1.7-2.2v0c0-0.3,0.3-0.6,0.6-0.6s0.6,0.3,0.6,0.6v0c1,0.3,1.7,1.1,1.7,2.2c0,0.3-0.3,0.6-0.6,0.6c-0.3,0-0.6-0.3-0.6-0.6C19.3,6.6,18.8,6.1,18.2,6.1C18.2,6.1,18.2,6.1,18.2,6.1z"/>
</g>
</svg>
