<svg width="33" height="29" viewBox="0 0 33 29" fill="none" xmlns="http://www.w3.org/2000/svg">
<g filter="url(#filter0_d)">
<path fill-rule="evenodd" clip-rule="evenodd" d="M19.3989 0C15.362 0 12.0778 3.28453 12.0778 7.32148C12.0778 11.3584 15.362 14.6424 19.3989 14.6424C23.4359 14.6424 26.7204 11.3584 26.7204 7.32148C26.7204 3.28453 23.4359 0 19.3989 0ZM19.3989 13.429C16.0312 13.429 13.2911 10.689 13.2911 7.32148C13.2911 3.95341 16.0312 1.21333 19.3989 1.21333C22.767 1.21333 25.5071 3.95341 25.5071 7.32148C25.5071 10.689 22.767 13.429 19.3989 13.429ZM25.9222 18.0573L21.686 19.707C21.6882 19.6832 21.6914 19.6597 21.6946 19.6362C21.7002 19.5952 21.7058 19.5543 21.7058 19.5117C21.7058 18.3079 20.7265 17.3286 19.5229 17.3286H15.8586C14.5022 15.9659 12.6425 15.1892 10.7135 15.1892H6.27694V14.4848C6.27694 13.8983 5.79972 13.4208 5.2129 13.4208H2.06404C1.47722 13.4208 1 13.8983 1 14.4848V24.6364C1 25.2229 1.47722 25.7005 2.06404 25.7005H5.2129C5.79972 25.7005 6.27694 25.2229 6.27694 24.6364V23.8976L13.6991 26.5405C14.4954 26.8237 15.3331 26.9647 16.1702 26.9647C17.2775 26.9647 18.3833 26.7183 19.3896 26.2319L30.9909 20.6214C31.1485 20.545 31.2655 20.4046 31.3117 20.2351C31.3579 20.0663 31.3289 19.8856 31.232 19.7398C30.086 18.0134 27.8533 17.3066 25.9222 18.0573ZM5.0636 24.4871H2.21333V14.6341H5.0636V24.4871ZM18.8611 25.1394C17.3848 25.8539 15.6521 25.9481 14.1061 25.3971L6.27694 22.6092V16.4026H10.7135C12.3952 16.4026 14.0137 17.1111 15.1542 18.347C15.2691 18.4714 15.4306 18.5419 15.6 18.5419H19.5229C20.0576 18.5419 20.4924 18.9768 20.4924 19.5117C20.4924 19.9058 20.2556 20.244 19.9177 20.3956L19.8651 20.4161C19.7583 20.4567 19.6438 20.4816 19.5229 20.4816H12.4177C12.0826 20.4816 11.811 20.7529 11.811 21.0882C11.811 21.4236 12.0826 21.6949 12.4177 21.6949H19.5229C19.7423 21.6949 19.9499 21.6526 20.1498 21.5921C20.1597 21.5896 20.1697 21.5886 20.1796 21.5876C20.193 21.5864 20.2062 21.5851 20.2193 21.58L20.3405 21.5328C20.3471 21.5301 20.3538 21.5276 20.3604 21.5251C20.3696 21.5217 20.3787 21.5183 20.3876 21.5145L26.3624 19.1877C27.5405 18.7303 28.8744 19.0188 29.7645 19.8666L18.8611 25.1394ZM19.3998 4.53056C19.3969 4.53056 19.3946 4.52897 19.3917 4.52893C18.7923 4.53293 18.3059 5.02122 18.3059 5.62125C18.3059 6.22437 18.7961 6.71491 19.3989 6.71491C20.6709 6.71491 21.7056 7.74933 21.7056 9.02132C21.7056 10.0817 20.9827 10.9677 20.0065 11.2363V11.2797C20.0065 11.6151 19.7348 11.8864 19.3998 11.8864C19.0648 11.8864 18.7932 11.6151 18.7932 11.2797V11.2368C17.8163 10.9688 17.0925 10.0823 17.0925 9.02132C17.0925 8.68599 17.3642 8.41465 17.6992 8.41465C18.0342 8.41465 18.3059 8.68599 18.3059 9.02132C18.3059 9.62384 18.7961 10.1144 19.3989 10.1144C20.0017 10.1144 20.4923 9.62384 20.4923 9.02132C20.4923 8.4188 20.0017 7.92825 19.3989 7.92825C18.1272 7.92825 17.0925 6.89324 17.0925 5.62125C17.0925 4.56029 17.8163 3.67377 18.7932 3.40579V3.36521C18.7932 3.02989 19.0648 2.75854 19.3998 2.75854C19.7348 2.75854 20.0065 3.02989 20.0065 3.36521V3.40631C20.9827 3.67488 21.7056 4.56088 21.7056 5.62125C21.7056 5.95658 21.434 6.22792 21.099 6.22792C20.7639 6.22792 20.4923 5.95658 20.4923 5.62125C20.4923 5.02162 20.0062 4.53367 19.4073 4.52904C19.4047 4.52908 19.4025 4.53056 19.3998 4.53056Z" fill="white"/>
</g>
<defs>
<filter id="filter0_d" x="0" y="0" width="32.3332" height="28.9647" filterUnits="userSpaceOnUse" color-interpolation-filters="sRGB">
<feFlood flood-opacity="0" result="BackgroundImageFix"/>
<feColorMatrix in="SourceAlpha" type="matrix" values="0 0 0 0 0 0 0 0 0 0 0 0 0 0 0 0 0 0 127 0"/>
<feOffset dy="1"/>
<feGaussianBlur stdDeviation="0.5"/>
<feColorMatrix type="matrix" values="0 0 0 0 0 0 0 0 0 0 0 0 0 0 0 0 0 0 0.25 0"/>
<feBlend mode="normal" in2="BackgroundImageFix" result="effect1_dropShadow"/>
<feBlend mode="normal" in="SourceGraphic" in2="effect1_dropShadow" result="shape"/>
</filter>
</defs>
</svg>
