<?xml version="1.0" encoding="utf-8"?>
<!-- Generator: Adobe Illustrator 19.2.1, SVG Export Plug-In . SVG Version: 6.00 Build 0)  -->
<svg version="1.1" id="Слой_1" xmlns="http://www.w3.org/2000/svg" xmlns:xlink="http://www.w3.org/1999/xlink" x="0px" y="0px"
	 viewBox="0 0 30 30" style="enable-background:new 0 0 30 30;" xml:space="preserve">
<g>
	<path d="M22,17c-0.3,0-0.6-0.1-0.8-0.3L15,9.5l-6.2,7.1c-0.4,0.4-1,0.5-1.4,0.1c-0.4-0.4-0.5-1-0.1-1.4l7-8c0.4-0.4,1.1-0.4,1.5,0l7,8c0.4,0.4,0.3,1-0.1,1.4C22.5,16.9,22.2,17,22,17z"/>
	<path d="M22,23c-0.3,0-0.6-0.1-0.8-0.3L15,15.5l-6.2,7.1c-0.4,0.4-1,0.5-1.4,0.1c-0.4-0.4-0.5-1-0.1-1.4l7-8c0.4-0.4,1.1-0.4,1.5,0l7,8c0.4,0.4,0.3,1-0.1,1.4C22.5,22.9,22.2,23,22,23z"/>
</g>
</svg>
