<?xml version="1.0" encoding="utf-8"?>
<!-- Generator: Adobe Illustrator 19.2.1, SVG Export Plug-In . SVG Version: 6.00 Build 0)  -->
<svg version="1.1" id="Слой_1" xmlns="http://www.w3.org/2000/svg" xmlns:xlink="http://www.w3.org/1999/xlink" x="0px" y="0px"
	 viewBox="0 0 30 30" style="enable-background:new 0 0 30 30;" xml:space="preserve">
<style type="text/css">
	.st0{clip-path:url(#SVGID_2_);}
	.st1{fill:#FFFFFF;}
</style>

	<path d="M25.3,10.3C25.3,4.6,20.7,0,15,0C9.3,0,4.7,4.6,4.7,10.3c-1.5,0.2-2.9,1.1-2.9,3.4V19c0,2.5,1.8,3.4,3.4,3.4H7c0.3,0,0.6-0.3,0.6-0.6v-11c0-0.3-0.3-0.6-0.6-0.6H5.9c0-5,4.1-9.1,9.1-9.1c5,0,9.1,4.1,9.1,9.1H23c-0.3,0-0.6,0.3-0.6,0.6v11c0,0.3,0.3,0.6,0.6,0.6h1.1c-0.2,3.9-2,4.8-5.8,5V27c0-0.6-0.5-1.1-1.1-1.1h-3.6c-0.6,0-1.1,0.5-1.1,1.1v1.9c0,0.6,0.5,1.1,1.1,1.1h3.6c0.6,0,1.1-0.5,1.1-1.1v-0.3c3.6-0.2,6.7-0.9,6.9-6.2c1.5-0.2,2.9-1.1,2.9-3.4v-5.4C28.1,11.4,26.7,10.4,25.3,10.3z M6.4,11.3v9.9H5.3C4.4,21.2,3,21,3,19v-5.4c0-2,1.4-2.3,2.3-2.3H6.4z M17.2,28v0.9h-3.6V27h3.6V28z M27,19c0,2-1.4,2.3-2.3,2.3h-1.1v-9.9h1.1c0.8,0,2.3,0.3,2.3,2.3L27,19z"/>
</svg>
