<svg width="64" height="77" viewBox="0 0 64 77" xmlns="http://www.w3.org/2000/svg">
<path fill-rule="evenodd" clip-rule="evenodd" d="M2.32727 6.98182V69.2364C2.32727 71.807 4.41118 73.8909 6.98182 73.8909H57.0182C59.5888 73.8909 61.6727 71.807 61.6727 69.2364V15.3194C61.6727 14.172 61.249 13.0652 60.4828 12.2112L53.0031 3.87361C52.1202 2.8895 50.8605 2.32727 49.5384 2.32727H6.98182C4.41118 2.32727 2.32727 4.41118 2.32727 6.98182ZM0 69.2364V6.98182C0 3.12587 3.12587 0 6.98182 0H49.5384C51.5216 0 53.4111 0.843347 54.7354 2.31951L62.2152 10.6571C63.3644 11.9381 64 13.5984 64 15.3194V69.2364C64 73.0923 60.8741 76.2182 57.0182 76.2182H6.98182C3.12587 76.2182 0 73.0923 0 69.2364ZM9.30886 36.0729C9.30886 34.7876 10.3508 33.7456 11.6361 33.7456H52.3634C53.6487 33.7456 54.6907 34.7876 54.6907 36.0729V59.3456C54.6907 60.631 53.6487 61.6729 52.3634 61.6729H11.6361C10.3508 61.6729 9.30886 60.631 9.30886 59.3456V36.0729ZM19.7272 43.3383H21.7066V51.891H19.7272V43.3383ZM32.2524 51.891L32.2402 46.7594L29.7232 50.9869H28.8313L26.3266 46.8694V51.891H24.4694V43.3383H26.1066L29.3078 48.6532L32.4601 43.3383H34.0851L34.1096 51.891H32.2524ZM42.651 47.4803H44.4593V50.9502C43.995 51.3005 43.4574 51.5693 42.8465 51.7566C42.2356 51.944 41.6206 52.0376 41.0016 52.0376C40.1137 52.0376 39.3155 51.8503 38.6068 51.4756C37.8981 51.0928 37.3402 50.5674 36.9329 49.8995C36.5338 49.2234 36.3342 48.4618 36.3342 47.6147C36.3342 46.7675 36.5338 46.01 36.9329 45.3421C37.3402 44.666 37.9022 44.1406 38.619 43.7659C39.3358 43.3831 40.1422 43.1917 41.0382 43.1917C41.7876 43.1917 42.4677 43.3179 43.0787 43.5704C43.6896 43.8229 44.2027 44.1895 44.6181 44.6701L43.3475 45.843C42.7365 45.1995 41.9994 44.8778 41.136 44.8778C40.5902 44.8778 40.1056 44.9918 39.682 45.2199C39.2584 45.448 38.9285 45.7697 38.6923 46.1851C38.4561 46.6005 38.338 47.0771 38.338 47.6147C38.338 48.1441 38.4561 48.6166 38.6923 49.032C38.9285 49.4474 39.2544 49.7732 39.6698 50.0094C40.0933 50.2375 40.5739 50.3515 41.1115 50.3515C41.6817 50.3515 42.1949 50.2293 42.651 49.985V47.4803Z"/>
</svg>
