<svg width="20" height="20" viewBox="0 0 20 20" fill="none" xmlns="http://www.w3.org/2000/svg">
  <path fill-rule="evenodd" clip-rule="evenodd" d="M10 20C15.5228 20 20 15.5228 20 10C20 4.47715 15.5228 0 10 0C4.47715 0 0 4.47715 0 10C0 15.5228 4.47715 20 10 20ZM10.7917 5C10.7917 4.44772 10.344 4 9.79167 4C9.23938 4 8.79167 4.44772 8.79167 5V9H5C4.44772 9 4 9.44772 4 10C4 10.5523 4.44772 11 5 11H8.79167V15C8.79167 15.5523 9.23938 16 9.79167 16C10.344 16 10.7917 15.5523 10.7917 15V11H15C15.5523 11 16 10.5523 16 10C16 9.44772 15.5523 9 15 9H10.7917V5Z" fill="white" fill-opacity="0.2"/>
</svg>
