<?xml version="1.0" encoding="utf-8"?>
<!-- Generator: Adobe Illustrator 19.2.1, SVG Export Plug-In . SVG Version: 6.00 Build 0)  -->
<svg version="1.1" id="Слой_1" xmlns="http://www.w3.org/2000/svg" xmlns:xlink="http://www.w3.org/1999/xlink" x="0px" y="0px"
	 viewBox="0 0 28 28" style="enable-background:new 0 0 28 28;" xml:space="preserve">
<style type="text/css">
	.st0{fill:#FFFFFF;}
</style>
<g>
	<path d="M20.8,0.5H7.2c-0.9,0-1.6,0.7-1.6,1.6v23.8c0,0.9,0.7,1.6,1.6,1.6h13.6c0.9,0,1.6-0.7,1.6-1.6V2.1C22.4,1.2,21.7,0.5,20.8,0.5z M7.2,5.5h13.6l0,1.8H7.2V5.5z M7.2,8.9h13.6l0,12.8H7.2V8.9z M20.8,2.1v1.8H7.2V2.1H20.8z M20.8,25.9H7.2v-2.7h13.6C20.8,26,20.8,25.9,20.8,25.9z"/>
	<path d="M14.4,18.3h-0.8c-0.4,0-0.8,0.4-0.8,0.8c0,0.4,0.4,0.8,0.8,0.8h0.8c0.4,0,0.8-0.4,0.8-0.8C15.2,18.6,14.9,18.3,14.4,18.3z"/>
</g>
</svg>
