<?xml version="1.0" encoding="utf-8"?>
<!-- Generator: Adobe Illustrator 19.2.1, SVG Export Plug-In . SVG Version: 6.00 Build 0)  -->
<svg version="1.1" id="Слой_1" xmlns="http://www.w3.org/2000/svg" xmlns:xlink="http://www.w3.org/1999/xlink" x="0px" y="0px"
	 viewBox="0 0 28 28" style="enable-background:new 0 0 28 28;" xml:space="preserve">
<style type="text/css">
	.st0{fill:#0D0F0F;}
</style>
<g>
	<path d="M0.5,25.3c0,0.7,0.6,1.3,1.3,1.3h24.4c0.7,0,1.3-0.6,1.3-1.3V2.7c0-0.7-0.6-1.3-1.3-1.3H1.8c-0.7,0-1.3,0.6-1.3,1.3V25.3z M2.1,4.2c0-0.7,0.6-1.3,1.3-1.3h21.2c0.7,0,1.3,0.6,1.3,1.3v19.5c0,0.7-0.6,1.3-1.3,1.3H3.4c-0.7,0-1.3-0.6-1.3-1.3V4.2z"/>
	<path d="M11.6,6.1c-4.4,0-7.9,3.5-7.9,7.9c0,4.4,3.5,7.9,7.9,7.9c4.4,0,7.9-3.5,7.9-7.9C19.5,9.6,16,6.1,11.6,6.1z M15.5,9l-1.1,1.1c-0.8-0.6-1.7-0.9-2.7-0.9s-2,0.3-2.7,0.9L7.7,9c1.1-0.9,2.5-1.3,3.9-1.3C13.1,7.7,14.4,8.1,15.5,9z M14.8,14c0,0.6-0.2,1.1-0.4,1.6L12.7,14l1.6-1.6C14.6,12.9,14.8,13.4,14.8,14z M8.5,14c0-0.6,0.2-1.1,0.4-1.6l1.6,1.6l-1.6,1.6C8.6,15.1,8.5,14.6,8.5,14z M10,11.3c0.5-0.3,1-0.4,1.6-0.4c0.6,0,1.1,0.2,1.6,0.4l-1.6,1.6L10,11.3z M11.6,15.1l1.6,1.6c-0.5,0.3-1,0.4-1.6,0.4c-0.6,0-1.1-0.2-1.6-0.4L11.6,15.1z M5.3,14c0-1.4,0.5-2.8,1.3-3.9l1.1,1.1C7.2,12,6.9,13,6.9,14s0.3,2,0.9,2.7l-1.1,1.1C5.8,16.8,5.3,15.4,5.3,14z M7.7,19l1.1-1.1c0.8,0.6,1.7,0.9,2.7,0.9c1,0,2-0.3,2.7-0.9l1.1,1.1c-1.1,0.9-2.5,1.3-3.9,1.3C10.2,20.3,8.9,19.9,7.7,19z M16.6,17.9l-1.1-1.1C16,16,16.4,15,16.4,14s-0.3-2-0.9-2.7l1.1-1.1c0.9,1.1,1.3,2.5,1.3,3.9C18,15.4,17.5,16.8,16.6,17.9z"/>
	<path d="M19.5,8.6c0,0.4,0.3,0.7,0.7,0.7h3.4c0.4,0,0.7-0.3,0.7-0.7V5.2c0-0.4-0.3-0.7-0.7-0.7h-3.4c-0.4,0-0.7,0.3-0.7,0.7V8.6z M21.1,6.7c0-0.4,0.3-0.7,0.7-0.7H22c0.4,0,0.7,0.3,0.7,0.7V7c0,0.4-0.3,0.7-0.7,0.7h-0.3c-0.4,0-0.7-0.3-0.7-0.7V6.7z"/>
	<path d="M21.9,18.7c-1.3,0-2.4,1.1-2.4,2.4c0,1.3,1.1,2.4,2.4,2.4c1.3,0,2.4-1.1,2.4-2.4C24.3,19.8,23.2,18.7,21.9,18.7z M21.9,21.9c-0.4,0-0.8-0.4-0.8-0.8c0-0.4,0.4-0.8,0.8-0.8c0.4,0,0.8,0.4,0.8,0.8C22.7,21.6,22.3,21.9,21.9,21.9z"/>
	<path d="M21.1,15.6h1.6v1.6h-1.6V15.6z"/>
	<path d="M21.1,10.8h1.6v1.6h-1.6V10.8z"/>
</g>
</svg>
