<?xml version="1.0" encoding="utf-8"?>
<!-- Generator: Adobe Illustrator 19.2.1, SVG Export Plug-In . SVG Version: 6.00 Build 0)  -->
<svg version="1.1" id="Слой_1" xmlns="http://www.w3.org/2000/svg" xmlns:xlink="http://www.w3.org/1999/xlink" x="0px" y="0px"
	 viewBox="0 0 28 28" style="enable-background:new 0 0 28 28;" xml:space="preserve">
<style type="text/css">
	.st0{fill:#0D0F0F;}
</style>
<g>
	<path d="M26.3,18.3l0.9-1.4l0,0c0.2-0.3,0.3-0.6,0.3-0.9c0-0.5-0.2-0.8-1-0.8H23c0.1-0.2,0.1-0.5,0.1-0.7c0.8-5.1-2.7-9.8-7.8-10.6C10.3,3,5.6,6.5,4.8,11.6c-0.1,0.9-0.1,1.9,0,2.8c0,0.2,0.1,0.5,0.1,0.7H1.5c-0.8,0-1,0.4-1,0.8c0,0.3,0.2,0.7,0.3,0.9l0.9,1.5l-0.8,1.5c-0.2,0.3-0.3,0.6-0.3,0.9c0,0.5,0.2,0.8,1,0.8h2.7v1.2c0,0.4,0.1,0.8,0.4,1.1l0,0c0.3,0.3,0.7,0.4,1.1,0.4h16.6c0.8,0,1.5-0.7,1.5-1.5v-1.2h2.7c0.8,0,1-0.4,1-0.8c0-0.3-0.2-0.7-0.3-0.9L26.3,18.3z M8.2,7.1c3.2-3.2,8.5-3.2,11.7,0c1.6,1.6,2.4,3.7,2.4,5.9c0,0.7-0.1,1.4-0.3,2.1h-0.8c0.1-0.2,0.1-0.5,0.2-0.7c0.7-4.1-2-8-6-8.7c-4.1-0.7-8,2-8.7,6c-0.2,0.9-0.2,1.8,0,2.7c0,0.2,0.1,0.5,0.2,0.7H6C5.3,12.2,6.1,9.2,8.2,7.1z M8.8,15.4L8.8,15.4c-0.2-0.2-0.5-0.3-0.7-0.3H7.8c-0.1-0.3-0.2-0.6-0.2-0.9c-0.1-0.4-0.1-0.8-0.1-1.2c0-3.6,2.9-6.5,6.5-6.5s6.5,2.9,6.5,6.5c0,0.4,0,0.8-0.1,1.2c-0.1,0.3-0.1,0.6-0.2,0.9H20c-0.3,0-0.5,0.1-0.7,0.3l0,0c-0.2,0.2-0.3,0.5-0.3,0.7v1.1H9.1v-1.1C9.1,15.8,9,15.6,8.8,15.4z M4.6,17.7c-0.3,0.3-0.4,0.7-0.4,1.1v1.9H1.6c0-0.1,0.1-0.2,0.2-0.3l1-1.7c0.1-0.2,0.1-0.3,0-0.5l-1-1.7c-0.1-0.1-0.1-0.2-0.2-0.3h6.5c0,0,0,0,0,0v1.1H5.7C5.3,17.2,4.9,17.4,4.6,17.7L4.6,17.7z M22.8,22.8c0,0.3-0.2,0.5-0.5,0.5H5.7c-0.1,0-0.3-0.1-0.4-0.2c-0.1-0.1-0.1-0.2-0.1-0.4v-4c0-0.3,0.2-0.5,0.5-0.5h16.6c0.1,0,0.3,0.1,0.4,0.2c0.1,0.1,0.2,0.2,0.2,0.4L22.8,22.8z M23.8,20.6v-1.9c0-0.4-0.2-0.8-0.4-1.1c-0.3-0.3-0.7-0.4-1.1-0.4h-2.4v-1.1c0,0,0,0,0,0h6.5c0,0.1-0.1,0.2-0.2,0.3h0l-1,1.7c-0.1,0.2-0.1,0.3,0,0.5l1,1.7c0.1,0.1,0.1,0.2,0.2,0.3H23.8z"/>
	<path d="M17.4,10.9c-0.1-0.1-0.2-0.1-0.3-0.1l-1.8-0.4l-0.9-1.6c-0.1-0.2-0.4-0.3-0.7-0.2c-0.1,0-0.1,0.1-0.2,0.2l-0.9,1.6l-1.8,0.4c-0.3,0.1-0.4,0.3-0.4,0.6c0,0.1,0.1,0.2,0.1,0.2l1.2,1.4l-0.2,1.9c0,0.3,0.2,0.5,0.4,0.5c0.1,0,0.2,0,0.3,0l1.7-0.8l1.7,0.7c0.2,0.1,0.5,0,0.7-0.2c0-0.1,0.1-0.2,0.1-0.3L16.2,13l1.2-1.4C17.6,11.4,17.6,11.1,17.4,10.9z M15.3,12.5c-0.1,0.1-0.1,0.2-0.1,0.4l0.1,1.2l-1.1-0.5c-0.1-0.1-0.3-0.1-0.4,0l-1.1,0.5l0.1-1.2c0-0.1,0-0.3-0.1-0.4l-0.8-0.9l1.2-0.2c0.2,0,0.3-0.1,0.4-0.2l0.6-1l0.6,1c0.1,0.1,0.2,0.2,0.3,0.2l1.2,0.3L15.3,12.5z"/>
</g>
</svg>
