<?xml version="1.0" encoding="utf-8"?>
<!-- Generator: Adobe Illustrator 19.2.1, SVG Export Plug-In . SVG Version: 6.00 Build 0)  -->
<svg version="1.1" id="Слой_1" xmlns="http://www.w3.org/2000/svg" xmlns:xlink="http://www.w3.org/1999/xlink" x="0px" y="0px"
	 viewBox="0 0 28 28" style="enable-background:new 0 0 28 28;" xml:space="preserve">
<style type="text/css">
	.st0{fill:#0D0F0F;}
</style>
<g>
	<path d="M20.2,23.1H7.8c-1.6,0-2.9-1.3-2.9-2.9V7.8c0-1.6,1.3-2.9,2.9-2.9h12.4c1.6,0,2.9,1.3,2.9,2.9v12.4C23.1,21.8,21.8,23.1,20.2,23.1z M7.8,5.8c-1.1,0-2,0.9-2,2v12.4c0,1.1,0.9,2,2,2h12.4c1.1,0,2-0.9,2-2V7.8c0-1.1-0.9-2-2-2H7.8z"/>
	<path d="M16.9,18.6h-5.9c-0.9,0-1.7-0.7-1.7-1.7v-5.9c0-0.9,0.7-1.7,1.7-1.7h5.9c0.9,0,1.7,0.7,1.7,1.7v5.9C18.6,17.9,17.9,18.6,16.9,18.6z M11.1,10.3c-0.4,0-0.8,0.3-0.8,0.8v5.9c0,0.4,0.3,0.8,0.8,0.8h5.9c0.4,0,0.8-0.3,0.8-0.8v-5.9c0-0.4-0.3-0.8-0.8-0.8H11.1z"/>
	<path d="M8.3,5.8c-0.2,0-0.4-0.2-0.4-0.4V0.9c0-0.2,0.2-0.4,0.4-0.4s0.4,0.2,0.4,0.4v4.4C8.8,5.6,8.6,5.8,8.3,5.8z"/>
	<path d="M11.2,5.8c-0.2,0-0.4-0.2-0.4-0.4V0.9c0-0.2,0.2-0.4,0.4-0.4s0.4,0.2,0.4,0.4v4.4C11.6,5.6,11.4,5.8,11.2,5.8z"/>
	<path d="M14,5.8c-0.2,0-0.4-0.2-0.4-0.4V0.9c0-0.2,0.2-0.4,0.4-0.4c0.2,0,0.4,0.2,0.4,0.4v4.4C14.4,5.6,14.2,5.8,14,5.8z"/>
	<path d="M16.8,5.8c-0.2,0-0.4-0.2-0.4-0.4V0.9c0-0.2,0.2-0.4,0.4-0.4c0.2,0,0.4,0.2,0.4,0.4v4.4C17.3,5.6,17.1,5.8,16.8,5.8z"/>
	<path d="M19.7,5.8c-0.2,0-0.4-0.2-0.4-0.4V0.9c0-0.2,0.2-0.4,0.4-0.4s0.4,0.2,0.4,0.4v4.4C20.1,5.6,19.9,5.8,19.7,5.8z"/>
	<path d="M8.3,27.5c-0.2,0-0.4-0.2-0.4-0.4v-4.4c0-0.2,0.2-0.4,0.4-0.4s0.4,0.2,0.4,0.4v4.4C8.8,27.3,8.6,27.5,8.3,27.5z"/>
	<path d="M11.2,27.5c-0.2,0-0.4-0.2-0.4-0.4v-4.4c0-0.2,0.2-0.4,0.4-0.4s0.4,0.2,0.4,0.4v4.4C11.6,27.3,11.4,27.5,11.2,27.5z"/>
	<path d="M14,27.5c-0.2,0-0.4-0.2-0.4-0.4v-4.4c0-0.2,0.2-0.4,0.4-0.4c0.2,0,0.4,0.2,0.4,0.4v4.4C14.4,27.3,14.2,27.5,14,27.5z"/>
	<path d="M16.8,27.5c-0.2,0-0.4-0.2-0.4-0.4v-4.4c0-0.2,0.2-0.4,0.4-0.4c0.2,0,0.4,0.2,0.4,0.4v4.4C17.3,27.3,17.1,27.5,16.8,27.5z"/>
	<path d="M19.7,27.5c-0.2,0-0.4-0.2-0.4-0.4v-4.4c0-0.2,0.2-0.4,0.4-0.4s0.4,0.2,0.4,0.4v4.4C20.1,27.3,19.9,27.5,19.7,27.5z"/>
	<path d="M27.1,20.1h-4.4c-0.2,0-0.4-0.2-0.4-0.4s0.2-0.4,0.4-0.4h4.4c0.2,0,0.4,0.2,0.4,0.4S27.3,20.1,27.1,20.1z"/>
	<path d="M27.1,17.3h-4.4c-0.2,0-0.4-0.2-0.4-0.4c0-0.2,0.2-0.4,0.4-0.4h4.4c0.2,0,0.4,0.2,0.4,0.4C27.5,17.1,27.3,17.3,27.1,17.3z"/>
	<path d="M27.1,14.4h-4.4c-0.2,0-0.4-0.2-0.4-0.4c0-0.2,0.2-0.4,0.4-0.4h4.4c0.2,0,0.4,0.2,0.4,0.4C27.5,14.2,27.3,14.4,27.1,14.4z"/>
	<path d="M27.1,11.6h-4.4c-0.2,0-0.4-0.2-0.4-0.4s0.2-0.4,0.4-0.4h4.4c0.2,0,0.4,0.2,0.4,0.4S27.3,11.6,27.1,11.6z"/>
	<path d="M27.1,8.8h-4.4c-0.2,0-0.4-0.2-0.4-0.4s0.2-0.4,0.4-0.4h4.4c0.2,0,0.4,0.2,0.4,0.4S27.3,8.8,27.1,8.8z"/>
	<path d="M5.3,20.1H0.9c-0.2,0-0.4-0.2-0.4-0.4s0.2-0.4,0.4-0.4h4.4c0.2,0,0.4,0.2,0.4,0.4S5.6,20.1,5.3,20.1z"/>
	<path d="M5.3,17.3H0.9c-0.2,0-0.4-0.2-0.4-0.4c0-0.2,0.2-0.4,0.4-0.4h4.4c0.2,0,0.4,0.2,0.4,0.4C5.8,17.1,5.6,17.3,5.3,17.3z"/>
	<path d="M5.3,14.4H0.9c-0.2,0-0.4-0.2-0.4-0.4c0-0.2,0.2-0.4,0.4-0.4h4.4c0.2,0,0.4,0.2,0.4,0.4C5.8,14.2,5.6,14.4,5.3,14.4z"/>
	<path d="M5.3,11.6H0.9c-0.2,0-0.4-0.2-0.4-0.4s0.2-0.4,0.4-0.4h4.4c0.2,0,0.4,0.2,0.4,0.4S5.6,11.6,5.3,11.6z"/>
	<path d="M5.3,8.8H0.9c-0.2,0-0.4-0.2-0.4-0.4s0.2-0.4,0.4-0.4h4.4c0.2,0,0.4,0.2,0.4,0.4S5.6,8.8,5.3,8.8z"/>
</g>
</svg>
