<svg width="90" height="90" viewBox="0 0 90 90" fill="none" xmlns="http://www.w3.org/2000/svg">
<path fill-rule="evenodd" clip-rule="evenodd" d="M45 88C68.7482 88 88 68.7482 88 45C88 21.2518 68.7482 2 45 2C21.2518 2 2 21.2518 2 45C2 68.7482 21.2518 88 45 88ZM45 90C69.8528 90 90 69.8528 90 45C90 20.1472 69.8528 0 45 0C20.1472 0 0 20.1472 0 45C0 69.8528 20.1472 90 45 90ZM29.0972 34.2661C29.2559 31.5072 31.4651 29.2978 34.2239 29.1389V22.7166C34.2239 22.1141 34.7124 21.6257 35.3149 21.6257C35.9173 21.6257 36.4058 22.1141 36.4058 22.7166V29.1297H39.0452V22.7166C39.0452 22.1141 39.5336 21.6257 40.1361 21.6257C40.7386 21.6257 41.227 22.1141 41.227 22.7166V29.1297H43.8669V22.7166C43.8669 22.1141 44.3554 21.6257 44.9579 21.6257C45.5603 21.6257 46.0488 22.1141 46.0488 22.7166V29.1297H48.6882V22.7166C48.6882 22.1141 49.1766 21.6257 49.7791 21.6257C50.3816 21.6257 50.87 22.1141 50.87 22.7166V29.1297H53.5199V22.7166C53.5199 22.1141 54.0084 21.6257 54.6108 21.6257C55.2133 21.6257 55.7018 22.1141 55.7018 22.7166V29.1389C58.4607 29.2977 60.6701 31.5071 60.8287 34.2661H67.2413C67.8438 34.2661 68.3323 34.7545 68.3323 35.357C68.3323 35.9595 67.8438 36.4479 67.2413 36.4479H60.8379V39.0879H67.2413C67.8438 39.0879 68.3323 39.5763 68.3323 40.1788C68.3323 40.7813 67.8438 41.2697 67.2413 41.2697H60.8379V43.9086H67.2413C67.8438 43.9086 68.3323 44.397 68.3323 44.9995C68.3323 45.602 67.8438 46.0904 67.2413 46.0904H60.8379V48.7303H67.2413C67.8438 48.7303 68.3323 49.2188 68.3323 49.8212C68.3323 50.4237 67.8438 50.9122 67.2413 50.9122H60.8379V53.551H67.2413C67.8438 53.551 68.3323 54.0394 68.3323 54.6419C68.3323 55.2444 67.8438 55.7328 67.2413 55.7328H60.8293C60.6755 58.4966 58.4642 60.7113 55.7018 60.8703V67.283C55.7018 67.8854 55.2133 68.3739 54.6108 68.3739C54.0084 68.3739 53.5199 67.8854 53.5199 67.283V60.8795H50.87V67.283C50.87 67.8854 50.3816 68.3739 49.7791 68.3739C49.1766 68.3739 48.6882 67.8854 48.6882 67.283V60.8795H46.0488V67.283C46.0488 67.8854 45.5603 68.3739 44.9579 68.3739C44.3554 68.3739 43.8669 67.8854 43.8669 67.283V60.8795H41.227V67.283C41.227 67.8854 40.7386 68.3739 40.1361 68.3739C39.5336 68.3739 39.0452 67.8854 39.0452 67.283V60.8795H36.4058V67.283C36.4058 67.8854 35.9173 68.3739 35.3149 68.3739C34.7124 68.3739 34.2239 67.8854 34.2239 67.283V60.8703C31.4617 60.7112 29.2504 58.4965 29.0967 55.7328H22.6745C22.072 55.7328 21.5836 55.2444 21.5836 54.6419C21.5836 54.0394 22.072 53.551 22.6745 53.551H29.0881V50.9122H22.6745C22.072 50.9122 21.5836 50.4237 21.5836 49.8212C21.5836 49.2188 22.072 48.7303 22.6745 48.7303H29.0881V46.0904H22.6745C22.072 46.0904 21.5836 45.602 21.5836 44.9995C21.5836 44.397 22.072 43.9086 22.6745 43.9086H29.0881V41.2697H22.6745C22.072 41.2697 21.5836 40.7813 21.5836 40.1788C21.5836 39.5763 22.072 39.0879 22.6745 39.0879H29.0881V36.4479H22.6745C22.072 36.4479 21.5836 35.9595 21.5836 35.357C21.5836 34.7545 22.072 34.2661 22.6745 34.2661H29.0972ZM31.2699 35.3726C31.27 35.3674 31.27 35.3622 31.27 35.357C31.27 35.3518 31.27 35.3466 31.2699 35.3415V34.5843C31.2699 32.7768 32.7352 31.3115 34.5427 31.3115H35.2764C35.2892 31.312 35.302 31.3122 35.3149 31.3122C35.3277 31.3122 35.3406 31.312 35.3533 31.3115H40.0976C40.1104 31.312 40.1232 31.3122 40.1361 31.3122C40.149 31.3122 40.1618 31.312 40.1745 31.3115H44.9194C44.9321 31.312 44.945 31.3122 44.9579 31.3122L44.978 31.312L44.9963 31.3115H49.7406C49.7534 31.312 49.7662 31.3122 49.7791 31.3122C49.792 31.3122 49.8048 31.312 49.8175 31.3115H54.5724L54.5965 31.3121L54.6108 31.3122C54.6237 31.3122 54.6365 31.312 54.6493 31.3115H55.3833C57.1908 31.3115 58.656 32.7768 58.656 34.5843V35.2067C58.6493 35.2559 58.6458 35.306 58.6458 35.357C58.6458 35.408 58.6493 35.4582 58.656 35.5073V40.0285C58.6493 40.0776 58.6458 40.1278 58.6458 40.1788C58.6458 40.2298 58.6493 40.28 58.656 40.3291V44.8492C58.6493 44.8983 58.6458 44.9485 58.6458 44.9995C58.6458 45.0505 58.6493 45.1006 58.656 45.1498V49.6709C58.6493 49.7201 58.6458 49.7703 58.6458 49.8212C58.6458 49.8722 58.6493 49.9224 58.656 49.9715V54.4916C58.6493 54.5407 58.6458 54.5909 58.6458 54.6419C58.6458 54.6929 58.6493 54.7431 58.656 54.7922V55.4249C58.656 57.2324 57.1908 58.6977 55.3833 58.6977H54.7612C54.712 58.6909 54.6619 58.6874 54.6108 58.6874C54.5598 58.6874 54.5096 58.6909 54.4605 58.6977H49.9294C49.8803 58.6909 49.8301 58.6874 49.7791 58.6874C49.7281 58.6874 49.6779 58.6909 49.6287 58.6977H45.1082C45.0591 58.6909 45.0089 58.6874 44.9579 58.6874C44.9068 58.6874 44.8566 58.6909 44.8075 58.6977H40.2864C40.2373 58.6909 40.1871 58.6874 40.1361 58.6874C40.0851 58.6874 40.0349 58.6909 39.9857 58.6977H35.4652C35.4161 58.6909 35.3659 58.6874 35.3149 58.6874C35.2638 58.6874 35.2136 58.6909 35.1645 58.6977H34.5427C32.7352 58.6977 31.2699 57.2324 31.2699 55.4249V54.6575L31.27 54.6419L31.2699 54.6264V49.8368L31.27 49.8212L31.2699 49.8057V45.015L31.27 44.9995L31.2699 44.9839V40.1944L31.27 40.1788L31.2699 40.1632V35.3726ZM40.023 36.7919C38.2155 36.7919 36.7502 38.2571 36.7502 40.0646V49.9346C36.7502 51.7421 38.2155 53.2074 40.023 53.2074H49.893C51.7005 53.2074 53.1658 51.7421 53.1658 49.9346V40.0646C53.1658 38.2571 51.7005 36.7919 49.893 36.7919H40.023ZM38.9321 40.0646C38.9321 39.4621 39.4205 38.9737 40.023 38.9737H49.893C50.4955 38.9737 50.9839 39.4621 50.9839 40.0646V49.9346C50.9839 50.5371 50.4955 51.0256 49.893 51.0256H40.023C39.4205 51.0256 38.9321 50.5371 38.9321 49.9346V40.0646Z" fill="white"/>
</svg>
