<svg width="90" height="90" viewBox="0 0 90 90" fill="none" xmlns="http://www.w3.org/2000/svg">
<path fill-rule="evenodd" clip-rule="evenodd" d="M88 45C88 68.7482 68.7482 88 45 88C21.2518 88 2 68.7482 2 45C2 21.2518 21.2518 2 45 2C68.7482 2 88 21.2518 88 45ZM90 45C90 69.8528 69.8528 90 45 90C20.1472 90 0 69.8528 0 45C0 20.1472 20.1472 0 45 0C69.8528 0 90 20.1472 90 45ZM33.3333 44.5556C33.3333 38.1222 38.567 32.8889 45 32.8889C51.4333 32.8889 56.6667 38.1222 56.6667 44.5556C56.6667 50.9889 51.4333 56.2222 45 56.2222C38.567 56.2222 33.3333 50.9889 33.3333 44.5556ZM37.1667 45.7222L43.3333 51.9222L52.8333 42.3889L50.5003 40.0556L43.3333 47.1889L39.5 43.3889L37.1667 45.7222ZM20 26.5663L45 16L70 26.5663V35.8222C70 51.8556 60.4333 66.2885 45.6667 72.6219L45 72.8889L44.3333 72.6219C29.567 66.2885 20 51.8556 20 35.8222V26.5663ZM30 44.5556C30 52.8222 36.7337 59.5556 45 59.5556C53.2667 59.5556 60 52.8222 60 44.5556C60 36.2885 53.2667 29.5556 45 29.5556C36.7337 29.5556 30 36.2885 30 44.5556Z" fill="white"/>
</svg>
