<svg width="90" height="90" viewBox="0 0 90 90" fill="none" xmlns="http://www.w3.org/2000/svg">
<path fill-rule="evenodd" clip-rule="evenodd" d="M88 45C88 68.7482 68.7482 88 45 88C21.2518 88 2 68.7482 2 45C2 21.2518 21.2518 2 45 2C68.7482 2 88 21.2518 88 45ZM90 45C90 69.8528 69.8528 90 45 90C20.1472 90 0 69.8528 0 45C0 20.1472 20.1472 0 45 0C69.8528 0 90 20.1472 90 45ZM46.8271 35.422C46.8271 37.0485 46.5427 38.6086 46.021 40.0553C45.5005 40.0013 44.9722 39.9737 44.4375 39.9737C43.9027 39.9737 43.3744 40.0013 42.8539 40.0553C42.3322 38.6086 42.0478 37.0485 42.0478 35.422C42.0478 32.5573 42.93 29.8986 44.4375 27.7028C45.945 29.8986 46.8271 32.5573 46.8271 35.422ZM43.4663 26.4501C41.6207 28.963 40.5306 32.0652 40.5306 35.422C40.5306 37.1256 40.8114 38.7637 41.3292 40.2923C36.5592 41.2854 32.6107 44.5183 30.6331 48.8413C24.305 47.6513 19.5172 42.0958 19.5172 35.422C19.5172 27.8806 25.6307 21.767 33.1722 21.767C37.2794 21.767 40.9631 23.5804 43.4663 26.4501ZM44.4375 25.2587C41.6608 22.1829 37.6422 20.2498 33.1722 20.2498C24.7928 20.2498 18 27.0426 18 35.422C18 42.736 23.1754 48.8413 30.0639 50.2755C29.5461 51.8042 29.2653 53.4422 29.2653 55.1458C29.2653 63.5252 36.0581 70.318 44.4375 70.318C52.8168 70.318 59.6096 63.5252 59.6096 55.1458C59.6096 53.4422 59.3288 51.8042 58.811 50.2755C65.6995 48.8413 70.8749 42.7361 70.8749 35.422C70.8749 27.0427 64.0821 20.2499 55.7027 20.2499C51.2327 20.2499 47.2142 22.1829 44.4375 25.2587ZM45.4087 26.4501C47.2542 28.963 48.3443 32.0652 48.3443 35.422C48.3443 37.1256 48.0635 38.7636 47.5457 40.2923C52.3157 41.2854 56.2643 44.5183 58.2418 48.8413C64.5699 47.6514 69.3577 42.0958 69.3577 35.422C69.3577 27.8806 63.2442 21.7671 55.7027 21.7671C51.5955 21.7671 47.9119 23.5804 45.4087 26.4501ZM56.6567 49.0442C54.7795 45.2923 51.2252 42.5255 46.9765 41.7265C46.5441 42.6718 46.0175 43.5649 45.4086 44.3939C47.9118 47.2636 51.5955 49.077 55.7027 49.077C56.0234 49.077 56.3415 49.0659 56.6567 49.0442ZM44.4374 43.1412C44.7909 42.6264 45.11 42.0861 45.3913 41.5237C45.0762 41.5019 44.7581 41.4909 44.4375 41.4909C44.1168 41.4909 43.7987 41.5019 43.4835 41.5237C43.7649 42.0861 44.084 42.6264 44.4374 43.1412ZM41.8984 41.7265C42.3308 42.6718 42.8574 43.5649 43.4662 44.3939C40.963 47.2636 37.2794 49.0769 33.1722 49.0769C32.8515 49.0769 32.5334 49.0659 32.2183 49.0441C34.0954 45.2923 37.6497 42.5255 41.8984 41.7265ZM44.4374 45.5853C47.2141 48.6611 51.2327 50.5942 55.7027 50.5942C56.2375 50.5942 56.7658 50.5665 57.2863 50.5126C57.808 51.9592 58.0924 53.5193 58.0924 55.1458C58.0924 62.6873 51.9789 68.8008 44.4375 68.8008C36.896 68.8008 30.7825 62.6873 30.7825 55.1458C30.7825 53.5193 31.0669 51.9592 31.5887 50.5125C32.1091 50.5665 32.6374 50.5941 33.1722 50.5941C37.6422 50.5941 41.6607 48.6611 44.4374 45.5853Z" fill="white"/>
</svg>
