<svg width="90" height="90" viewBox="0 0 90 90" fill="none" xmlns="http://www.w3.org/2000/svg">
<path fill-rule="evenodd" clip-rule="evenodd" d="M88 45C88 68.7482 68.7482 88 45 88C21.2518 88 2 68.7482 2 45C2 21.2518 21.2518 2 45 2C68.7482 2 88 21.2518 88 45ZM90 45C90 69.8528 69.8528 90 45 90C20.1472 90 0 69.8528 0 45C0 20.1472 20.1472 0 45 0C69.8528 0 90 20.1472 90 45ZM20 41.5753C20 41.0318 20.4291 40.6027 20.9726 40.6027C21.516 40.6027 21.9451 41.0461 21.9451 41.5753V46.4381C21.9451 46.9815 21.516 47.4106 20.9726 47.4106C20.4291 47.4106 20 46.9815 20 46.4381V41.5753ZM25.8497 36.6123C25.3062 36.6123 24.8771 37.0556 24.8771 37.5848V51.0719C24.8771 51.6154 25.3205 52.0444 25.8497 52.0444C26.3932 52.0444 26.8222 51.6154 26.8222 51.0719V37.5991C26.8222 37.0556 26.3789 36.6123 25.8497 36.6123ZM29.7399 30.8629C29.7399 30.3194 30.1689 29.8903 30.7124 29.8903C31.2416 29.8903 31.685 30.3337 31.685 30.8629V58.123C31.685 58.6522 31.2416 59.0956 30.7124 59.0956C30.1832 59.0956 29.7399 58.6665 29.7399 58.123V30.8629ZM35.5753 34.7673C35.0318 34.7673 34.6027 35.1963 34.6027 35.7398V52.2876C34.6027 52.8311 35.0461 53.2601 35.5753 53.2601C36.1188 53.2601 36.5478 52.8168 36.5478 52.2876V35.7398C36.5478 35.1963 36.1188 34.7673 35.5753 34.7673ZM49.3053 33.3799C49.3053 32.8365 49.7344 32.4074 50.2779 32.4074C50.8213 32.4074 51.2504 32.8365 51.2504 33.3799V55.291C51.2504 55.8345 50.8213 56.2636 50.2779 56.2636C49.7344 56.2636 49.3053 55.8345 49.3053 55.291V33.3799ZM59.9175 33.7949C59.3741 33.7949 58.945 34.2382 58.945 34.7674V54.2471C58.945 54.7906 59.3884 55.2197 59.9175 55.2197C60.461 55.2197 60.8901 54.7906 60.8901 54.2471V34.7674C60.8901 34.2239 60.461 33.7949 59.9175 33.7949ZM63.8221 39.63C63.8221 39.1008 64.2512 38.6574 64.7947 38.6574C65.3239 38.6574 65.7672 39.0865 65.7672 39.63V49.3698C65.7672 49.899 65.3382 50.3424 64.7947 50.3424C64.2655 50.3424 63.8221 49.9133 63.8221 49.3698V39.63ZM55.055 26C54.5115 26 54.0824 26.4434 54.0824 26.9726V62.0274C54.0824 62.5709 54.5115 63 55.055 63C55.5985 63 56.0275 62.5709 56.0275 62.0274V26.9726C56.0275 26.4434 55.5842 26 55.055 26ZM39.4797 42.5477C39.4797 42.0185 39.9088 41.5751 40.4523 41.5751C40.9814 41.5751 41.4248 42.0185 41.4248 42.562V46.4522C41.4248 46.9957 40.9957 47.4248 40.4523 47.4248C39.9088 47.4248 39.4797 46.9957 39.4797 46.4522V42.5477ZM69.6576 41.2461C69.1141 41.2461 68.685 41.6752 68.685 42.2187V46.4379C68.685 46.9814 69.1284 47.4104 69.6576 47.4104C70.1867 47.4104 70.6301 46.9671 70.6301 46.4379V42.2187C70.6301 41.6895 70.201 41.2461 69.6576 41.2461ZM44.2567 40.3739C44.2567 39.8304 44.6858 39.4013 45.2292 39.4013C45.7584 39.4013 46.2018 39.8304 46.2018 40.3739V48.2973C46.2018 48.8265 45.7727 49.2699 45.2292 49.2699C44.6858 49.2699 44.2567 48.8408 44.2567 48.2973V40.3739Z" fill="white"/>
</svg>
