<svg width="90" height="90" viewBox="0 0 90 90" fill="none" xmlns="http://www.w3.org/2000/svg">
<circle cx="45" cy="45" r="44" stroke="white" stroke-width="2"/>
<g>
<path fill-rule="evenodd" clip-rule="evenodd" d="M60.555 22.372C61.0477 22.1578 61.5777 22.0426 62.1148 22.0332C62.652 22.0238 63.1857 22.1202 63.6856 22.3171C64.1855 22.5139 64.6417 22.8073 65.0281 23.1804C65.4146 23.5535 65.7238 23.9992 65.9381 24.4918C66.1524 24.9844 66.2675 25.5145 66.2769 26.0516C66.2864 26.5888 66.1899 27.1225 65.9931 27.6224C65.7986 28.1161 65.51 28.5673 65.1433 28.9508L41.3872 55.1995C41.3758 55.2121 41.3641 55.2245 41.3522 55.2365C40.5567 56.0392 39.448 56.245 38.5 56.1525C37.5454 56.0593 36.5586 55.6517 35.8484 54.9633L35.8401 54.9552L35.8402 54.9552L33.969 53.1038C33.2576 52.4119 32.824 51.4299 32.7165 50.4703C32.6091 49.5114 32.8143 48.3884 33.6417 47.5816L33.6526 47.571L33.6526 47.5711L59.2621 23.263C59.6315 22.8853 60.0705 22.5828 60.555 22.372ZM62.1544 24.2852C61.913 24.2894 61.6748 24.3411 61.4534 24.4374C61.232 24.5337 61.0317 24.6727 60.864 24.8464C60.8526 24.8582 60.841 24.8697 60.8291 24.881L35.21 49.1982C35.0315 49.3754 34.8986 49.7172 34.9548 50.2197C35.0113 50.7234 35.2448 51.2036 35.5412 51.491L35.5495 51.499L35.5495 51.4991L37.4196 53.3495C37.7203 53.6389 38.2093 53.8611 38.7188 53.9108C39.2236 53.9601 39.565 53.8291 39.7389 53.6643L63.4846 27.427L63.5094 27.4005C63.6771 27.2268 63.8089 27.0218 63.8974 26.7971C63.9859 26.5724 64.0292 26.3326 64.025 26.0912C64.0207 25.8498 63.969 25.6116 63.8727 25.3901C63.7764 25.1687 63.6374 24.9685 63.4637 24.8008C63.29 24.633 63.085 24.5012 62.8603 24.4127C62.6357 24.3243 62.3958 24.2809 62.1544 24.2852Z" fill="white"/>
<path d="M33.8237 61.3777C34.1643 61.0264 34.4592 60.6335 34.7016 60.2084C35.1364 59.3134 35.2561 58.2978 35.041 57.3263C34.826 56.3548 34.2889 55.4845 33.517 54.8567C32.7451 54.2288 31.7836 53.8803 30.7887 53.8677C29.7938 53.8551 28.8238 54.1791 28.0362 54.7872L27.9229 54.8904L27.5299 55.2678L27.3912 55.4103C26.5011 56.4691 25.8578 57.7128 25.5079 59.051C24.6288 62.2174 24.3928 65.9117 21.2495 68.1976C17.0019 71.2275 29.7044 65.7452 33.8237 61.3777Z" fill="white"/>
</g>
</svg>
