<svg width="90" height="90" viewBox="0 0 90 90" fill="none" xmlns="http://www.w3.org/2000/svg">
<circle cx="45" cy="45" r="44" stroke="white" stroke-width="2"/>
<path d="M24.1633 20.5H24.0816C22.1036 20.5 20.5 22.1036 20.5 24.0816V24.1633V24.245V24.3268V24.4085V24.4902V24.5719V24.6536V24.7353V24.817V24.8987V24.9805V25.0622V25.1439V25.2256V25.3073V25.389V25.4707V25.5524V25.6342V25.7159V25.7976V25.8793V25.961V26.0427V26.1244V26.2061V26.2879V26.3696V26.4513V26.533V26.6147V26.6964V26.7781V26.8598V26.9416V27.0233V27.105V27.1867V27.2684V27.3501V27.4318V27.5135V27.5953V27.677V27.7587V27.8404V27.9221V28.0038V28.0855V28.1672V28.249V28.3307V28.4124V28.4941V28.5758V28.6575V28.7392V28.8209V28.9026V28.9844V29.0661V29.1478V29.2295V29.3112V29.3929V29.4746V29.5563V29.6381V29.7198V29.8015V29.8832V29.9649V30.0466V30.1283V30.21V30.2918V30.3735V30.4552V30.5369V30.6186V30.7003V30.782V30.8637V30.9455V31.0272V31.1089V31.1906V31.2723V31.354V31.4357V31.5174V31.5992V31.6809V31.7626V31.8443V31.926V32.0077V32.0894V32.1711V32.2529V32.3346V32.4163V32.498V32.5797V32.6614V32.7431V32.8248V32.9066V32.9883V33.07V33.1517V33.2334V33.3151V33.3968V33.4785V33.5603V33.642V33.7237V33.8054V33.8871V33.9688V34.0505V34.1322V34.2139V34.2957V34.3774V34.4591V34.5408V34.6225V34.7042V34.7859V34.8676V34.9494V35.0311V35.1128V35.1945V35.2762V35.3579V35.4396V35.5213V35.6031V35.6848V35.7665V35.8482V35.9299V36.0116V36.0933V36.175V36.2568V36.3385V36.4202V36.5019V36.5836V36.6653V36.747V36.8287V36.9105V36.9922V37.0739V37.1556V37.2373V37.319V37.4007V37.4824V37.5642V37.6459V37.7276V37.8093V37.891V37.9727V38.0544V38.1361V38.2178V38.2996V38.3813V38.463V38.5447V38.6264V38.7081V38.7898V38.8715V38.9533V39.035V39.1167V39.1984V39.2801V39.3618V39.4435V39.5252V39.607V39.6887V39.7704V39.8521V39.9338V40.0155V40.0972V40.1789V40.2607V40.3424V40.4241V40.5058V40.5875V40.6692V40.7509V40.8326V40.9144V40.9961V41.0778V41.1595V41.2412V41.3229V41.4046V41.4863V41.5681V41.6498V41.7315V41.8132V41.8949V41.9766V42.0583V42.14V42.2218V42.3035V42.3852V42.4669V42.5486V42.6303V42.712V42.7937V42.8755V42.9572V43.0389V43.1206V43.2023V43.284V43.3657V43.4474V43.5291V43.6109V43.6926V43.7743V43.856V43.9377V44.0194V44.1011V44.1828V44.2646V44.3463V44.428V44.5097V44.5914V44.6731V44.7548V44.8365V44.9183V45V45.0817V45.1634V45.2451V45.3268V45.4085V45.4902V45.572V45.6537V45.7354V45.8171V45.8988V45.9805V46.0622V46.1439V46.2257V46.3074V46.3891V46.4708V46.5525V46.6342V46.7159V46.7976V46.8794V46.9611V47.0428V47.1245V47.2062V47.2879V47.3696V47.4513V47.5331V47.6148V47.6965V47.7782V47.8599V47.9416V48.0233V48.105V48.1868V48.2685V48.3502V48.4319V48.5136V48.5953V48.677V48.7587V48.8405V48.9222V49.0039V49.0856V49.1673V49.249V49.3307V49.4124V49.4942V49.5759V49.6576V49.7393V49.821V49.9027V49.9844V50.0661V50.1478V50.2296V50.3113V50.393V50.4747V50.5564V50.6381V50.7198V50.8015V50.8833V50.965V51.0467V51.1284V51.2101V51.2918V51.3735V51.4552V51.537V51.6187V51.7004V51.7821V51.8638V51.9455V52.0272V52.1089V52.1907V52.2724V52.3541V52.4358V52.5175V52.5992V52.6809V52.7626V52.8444V52.9261V53.0078V53.0895V53.1712V53.2529V53.3346V53.4163V53.4981V53.5798V53.6615V53.7432V53.8249V53.9066V53.9883V54.07V54.1518V54.2335V54.3152V54.3969V54.4786V54.5603V54.642V54.7237V54.8055V54.8872V54.9689V55.0506V55.1323V55.214V55.2957V55.3774V55.4592V55.5409V55.6226V55.7043V55.786V55.8677V55.9494V56.0311V56.1129V56.1946V56.2763V56.358V56.4397V56.5214V56.6031V56.6848V56.7666V56.8483V56.93V57.0117V57.0934V57.1751V57.2568V57.3385V57.4203V57.502V57.5837V57.6654V57.7471V57.8288V57.9105V57.9922V58.074V58.1557V58.2374V58.3191V58.4008V58.4825V58.5642V58.646V58.7277V58.8094V58.8911V58.9728V59.0545V59.1362V59.2179V59.2996V59.3814V59.4631V59.5448V59.6265V59.7082V59.7899V59.8716V59.9534V60.0351V60.1168V60.1985V60.2802V60.3619V60.4436V60.5253V60.6071V60.6888V60.7705V60.8522V60.9339V61.0156V61.0973V61.179V61.2608V61.3425V61.4242V61.5059V61.5876V61.6693V61.751V61.8327V61.9145V61.9962V62.0779V62.1596V62.2413V62.323V62.4047V62.4864V62.5682V62.6499V62.7316V62.8133V62.895V62.9767V63.0584V63.1401V63.2219V63.3036V63.3853V63.467V63.5487V63.6304V63.7121V63.7938V63.8756V63.9573V64.039V64.1207V64.2024V64.2841V64.3658V64.4476V64.5293V64.611V64.6927V64.7744V64.8561V64.9378V65.0195V65.1013V65.183V65.2647V65.3464V65.4281V65.5098V65.5915V65.6732V65.755V65.8367V65.9184C20.5 67.8964 22.1036 69.5 24.0816 69.5H24.1633H24.245H24.3268H24.4085H24.4902H24.5719H24.6536H24.7353H24.817H24.8987H24.9805H25.0622H25.1439H25.2256H25.3073H25.389H25.4707H25.5524H25.6342H25.7159H25.7976H25.8793H25.961H26.0427H26.1244H26.2061H26.2879H26.3696H26.4513H26.533H26.6147H26.6964H26.7781H26.8598H26.9416H27.0233H27.105H27.1867H27.2684H27.3501H27.4318H27.5135H27.5953H27.677H27.7587H27.8404H27.9221H28.0038H28.0855H28.1672H28.249H28.3307H28.4124H28.4941H28.5758H28.6575H28.7392H28.8209H28.9026H28.9844H29.0661H29.1478H29.2295H29.3112H29.3929H29.4746H29.5563H29.6381H29.7198H29.8015H29.8832H29.9649H30.0466H30.1283H30.21H30.2918H30.3735H30.4552H30.5369H30.6186H30.7003H30.782H30.8637H30.9455H31.0272H31.1089H31.1906H31.2723H31.354H31.4357H31.5174H31.5992H31.6809H31.7626H31.8443H31.926H32.0077H32.0894H32.1711H32.2529H32.3346H32.4163H32.498H32.5797H32.6614H32.7431H32.8248H32.9066H32.9883H33.07H33.1517H33.2334H33.3151H33.3968H33.4785H33.5603H33.642H33.7237H33.8054H33.8871H33.9688H34.0505H34.1322H34.2139H34.2957H34.3774H34.4591H34.5408H34.6225H34.7042H34.7859H34.8676H34.9494H35.0311H35.1128H35.1945H35.2762H35.3579H35.4396H35.5213H35.6031H35.6848H35.7665H35.8482H35.9299H36.0116H36.0933H36.175H36.2568H36.3385H36.4202H36.5019H36.5836H36.6653H36.747H36.8287H36.9105H36.9922H37.0739H37.1556H37.2373H37.319H37.4007H37.4824H37.5642H37.6459H37.7276H37.8093H37.891H37.9727H38.0544H38.1361H38.2178H38.2996H38.3813H38.463H38.5447H38.6264H38.7081H38.7898H38.8715H38.9533H39.035H39.1167H39.1984H39.2801H39.3618H39.4435H39.5252H39.607H39.6887H39.7704H39.8521H39.9338H40.0155H40.0972H40.1789H40.2607H40.3424H40.4241H40.5058H40.5875H40.6692H40.7509H40.8326H40.9144H40.9961H41.0778H41.1595H41.2412H41.3229H41.4046H41.4863H41.5681H41.6498H41.7315H41.8132H41.8949H41.9766H42.0583H42.14H42.2218H42.3035H42.3852H42.4669H42.5486H42.6303H42.712H42.7937H42.8755H42.9572H43.0389H43.1206H43.2023H43.284H43.3657H43.4474H43.5291H43.6109H43.6926H43.7743H43.856H43.9377H44.0194H44.1011H44.1828H44.2646H44.3463H44.428H44.5097H44.5914H44.6731H44.7548H44.8365H44.9183H45H45.0817H45.1634H45.2451H45.3268H45.4085H45.4902H45.572H45.6537H45.7354H45.8171H45.8988H45.9805H46.0622H46.1439H46.2257H46.3074H46.3891H46.4708H46.5525H46.6342H46.7159H46.7976H46.8794H46.9611H47.0428H47.1245H47.2062H47.2879H47.3696H47.4513H47.5331H47.6148H47.6965H47.7782H47.8599H47.9416H48.0233H48.105H48.1868H48.2685H48.3502H48.4319H48.5136H48.5953H48.677H48.7587H48.8405H48.9222H49.0039H49.0856H49.1673H49.249H49.3307H49.4124H49.4942H49.5759H49.6576H49.7393H49.821H49.9027H49.9844H50.0661H50.1478H50.2296H50.3113H50.393H50.4747H50.5564H50.6381H50.7198H50.8015H50.8833H50.965H51.0467H51.1284H51.2101H51.2918H51.3735H51.4552H51.537H51.6187H51.7004H51.7821H51.8638H51.9455H52.0272H52.1089H52.1907H52.2724H52.3541H52.4358H52.5175H52.5992H52.6809H52.7626H52.8444H52.9261H53.0078H53.0895H53.1712H53.2529H53.3346H53.4163H53.4981H53.5798H53.6615H53.7432H53.8249H53.9066H53.9883H54.07H54.1518H54.2335H54.3152H54.3969H54.4786H54.5603H54.642H54.7237H54.8055H54.8872H54.9689H55.0506H55.1323H55.214H55.2957H55.3774H55.4592H55.5409H55.6226H55.7043H55.786H55.8677H55.9494H56.0311H56.1129H56.1946H56.2763H56.358H56.4397H56.5214H56.6031H56.6848H56.7666H56.8483H56.93H57.0117H57.0934H57.1751H57.2568H57.3385H57.4203H57.502H57.5837H57.6654H57.7471H57.8288H57.9105H57.9922H58.074H58.1557H58.2374H58.3191H58.4008H58.4825H58.5642H58.646H58.7277H58.8094H58.8911H58.9728H59.0545H59.1362H59.2179H59.2996H59.3814H59.4631H59.5448H59.6265H59.7082H59.7899H59.8716H59.9534H60.0351H60.1168H60.1985H60.2802H60.3619H60.4436H60.5253H60.6071H60.6888H60.7705H60.8522H60.9339H61.0156H61.0973H61.179H61.2608H61.3425H61.4242H61.5059H61.5876H61.6693H61.751H61.8327H61.9145H61.9962H62.0779H62.1596H62.2413H62.323H62.4047H62.4864H62.5682H62.6499H62.7316H62.8133H62.895H62.9767H63.0584H63.1401H63.2219H63.3036H63.3853H63.467H63.5487H63.6304H63.7121H63.7938H63.8756H63.9573H64.039H64.1207H64.2024H64.2841H64.3658H64.4476H64.5293H64.611H64.6927H64.7744H64.8561H64.9378H65.0195H65.1013H65.183H65.2647H65.3464H65.4281H65.5098H65.5915H65.6732H65.755H65.8367H65.9184C67.8964 69.5 69.5 67.8964 69.5 65.9184L24.1633 20.5ZM24.1633 20.5H24.245M24.1633 20.5H24.245M24.245 20.5H24.3268M24.245 20.5H24.3268M24.3268 20.5H24.4085M24.3268 20.5H24.4085M24.4085 20.5H24.4902M24.4085 20.5H24.4902M24.4902 20.5H24.5719M24.4902 20.5H24.5719M24.5719 20.5H24.6536M24.5719 20.5H24.6536M24.6536 20.5H24.7353M24.6536 20.5H24.7353M24.7353 20.5H24.817M24.7353 20.5H24.817M24.817 20.5H24.8987M24.817 20.5H24.8987M24.8987 20.5H24.9805M24.8987 20.5H24.9805M24.9805 20.5H25.0622M24.9805 20.5H25.0622M25.0622 20.5H25.1439M25.0622 20.5H25.1439M25.1439 20.5H25.2256M25.1439 20.5H25.2256M25.2256 20.5H25.3073M25.2256 20.5H25.3073M25.3073 20.5H25.389M25.3073 20.5H25.389M25.389 20.5H25.4707M25.389 20.5H25.4707M25.4707 20.5H25.5524M25.4707 20.5H25.5524M25.5524 20.5H25.6342M25.5524 20.5H25.6342M25.6342 20.5H25.7159M25.6342 20.5H25.7159M25.7159 20.5H25.7976M25.7159 20.5H25.7976M25.7976 20.5H25.8793M25.7976 20.5H25.8793M25.8793 20.5H25.961M25.8793 20.5H25.961M25.961 20.5H26.0427M25.961 20.5H26.0427M26.0427 20.5H26.1244M26.0427 20.5H26.1244M26.1244 20.5H26.2061M26.1244 20.5H26.2061M26.2061 20.5H26.2879M26.2061 20.5H26.2879M26.2879 20.5H26.3696M26.2879 20.5H26.3696M26.3696 20.5H26.4513M26.3696 20.5H26.4513M26.4513 20.5H26.533M26.4513 20.5H26.533M26.533 20.5H26.6147M26.533 20.5H26.6147M26.6147 20.5H26.6964M26.6147 20.5H26.6964M26.6964 20.5H26.7781M26.6964 20.5H26.7781M26.7781 20.5H26.8598M26.7781 20.5H26.8598M26.8598 20.5H26.9416M26.8598 20.5H26.9416M26.9416 20.5H27.0233M26.9416 20.5H27.0233M27.0233 20.5H27.105M27.0233 20.5H27.105M27.105 20.5H27.1867M27.105 20.5H27.1867M27.1867 20.5H27.2684M27.1867 20.5H27.2684M27.2684 20.5H27.3501M27.2684 20.5H27.3501M27.3501 20.5H27.4318M27.3501 20.5H27.4318M27.4318 20.5H27.5135M27.4318 20.5H27.5135M27.5135 20.5H27.5953M27.5135 20.5H27.5953M27.5953 20.5H27.677M27.5953 20.5H27.677M27.677 20.5H27.7587M27.677 20.5H27.7587M27.7587 20.5H27.8404M27.7587 20.5H27.8404M27.8404 20.5H27.9221M27.8404 20.5H27.9221M27.9221 20.5H28.0038M27.9221 20.5H28.0038M28.0038 20.5H28.0855M28.0038 20.5H28.0855M28.0855 20.5H28.1672M28.0855 20.5H28.1672M28.1672 20.5H28.249M28.1672 20.5H28.249M28.249 20.5H28.3307M28.249 20.5H28.3307M28.3307 20.5H28.4124M28.3307 20.5H28.4124M28.4124 20.5H28.4941M28.4124 20.5H28.4941M28.4941 20.5H28.5758M28.4941 20.5H28.5758M28.5758 20.5H28.6575M28.5758 20.5H28.6575M28.6575 20.5H28.7392M28.6575 20.5H28.7392M28.7392 20.5H28.8209M28.7392 20.5H28.8209M28.8209 20.5H28.9027M28.8209 20.5H28.9027M28.9027 20.5H28.9844M28.9027 20.5H28.9844M28.9844 20.5H29.0661M28.9844 20.5H29.0661M29.0661 20.5H29.1478M29.0661 20.5H29.1478M29.1478 20.5H29.2295M29.1478 20.5H29.2295M29.2295 20.5H29.3112M29.2295 20.5H29.3112M29.3112 20.5H29.3929M29.3112 20.5H29.3929M29.3929 20.5H29.4746M29.3929 20.5H29.4746M29.4746 20.5H29.5564M29.4746 20.5H29.5564M29.5564 20.5H29.6381M29.5564 20.5H29.6381M29.6381 20.5H29.7198M29.6381 20.5H29.7198M29.7198 20.5H29.8015M29.7198 20.5H29.8015M29.8015 20.5H29.8832M29.8015 20.5H29.8832M29.8832 20.5H29.9649M29.8832 20.5H29.9649M29.9649 20.5H30.0466M29.9649 20.5H30.0466M30.0466 20.5H30.1283M30.0466 20.5H30.1283M30.1283 20.5H30.2101M30.1283 20.5H30.2101M30.2101 20.5H30.2918M30.2101 20.5H30.2918M30.2918 20.5H30.3735M30.2918 20.5H30.3735M30.3735 20.5H30.4552M30.3735 20.5H30.4552M30.4552 20.5H30.5369M30.4552 20.5H30.5369M30.5369 20.5H30.6186M30.5369 20.5H30.6186M30.6186 20.5H30.7003M30.6186 20.5H30.7003M30.7003 20.5H30.782M30.7003 20.5H30.782M30.782 20.5H30.8637M30.782 20.5H30.8637M30.8637 20.5H30.9455M30.8637 20.5H30.9455M30.9455 20.5H31.0272M30.9455 20.5H31.0272M31.0272 20.5H31.1089M31.0272 20.5H31.1089M31.1089 20.5H31.1906M31.1089 20.5H31.1906M31.1906 20.5H31.2723M31.1906 20.5H31.2723M31.2723 20.5H31.354M31.2723 20.5H31.354M31.354 20.5H31.4357M31.354 20.5H31.4357M31.4357 20.5H31.5174M31.4357 20.5H31.5174M31.5174 20.5H31.5992M31.5174 20.5H31.5992M31.5992 20.5H31.6809M31.5992 20.5H31.6809M31.6809 20.5H31.7626M31.6809 20.5H31.7626M31.7626 20.5H31.8443M31.7626 20.5H31.8443M31.8443 20.5H31.926M31.8443 20.5H31.926M31.926 20.5H32.0077M31.926 20.5H32.0077M32.0077 20.5H32.0894M32.0077 20.5H32.0894M32.0894 20.5H32.1711M32.0894 20.5H32.1711M32.1711 20.5H32.2529M32.1711 20.5H32.2529M32.2529 20.5H32.3346M32.2529 20.5H32.3346M32.3346 20.5H32.4163M32.3346 20.5H32.4163M32.4163 20.5H32.498M32.4163 20.5H32.498M32.498 20.5H32.5797M32.498 20.5H32.5797M32.5797 20.5H32.6614M32.5797 20.5H32.6614M32.6614 20.5H32.7431M32.6614 20.5H32.7431M32.7431 20.5H32.8248M32.7431 20.5H32.8248M32.8248 20.5H32.9066M32.8248 20.5H32.9066M32.9066 20.5H32.9883M32.9066 20.5H32.9883M32.9883 20.5H33.07M32.9883 20.5H33.07M33.07 20.5H33.1517M33.07 20.5H33.1517M33.1517 20.5H33.2334M33.1517 20.5H33.2334M33.2334 20.5H33.3151M33.2334 20.5H33.3151M33.3151 20.5H33.3968M33.3151 20.5H33.3968M33.3968 20.5H33.4785M33.3968 20.5H33.4785M33.4785 20.5H33.5603M33.4785 20.5H33.5603M33.5603 20.5H33.642M33.5603 20.5H33.642M33.642 20.5H33.7237M33.642 20.5H33.7237M33.7237 20.5H33.8054M33.7237 20.5H33.8054M33.8054 20.5H33.8871M33.8054 20.5H33.8871M33.8871 20.5H33.9688M33.8871 20.5H33.9688M33.9688 20.5H34.0505M33.9688 20.5H34.0505M34.0505 20.5H34.1322M34.0505 20.5H34.1322M34.1322 20.5H34.214M34.1322 20.5H34.214M34.214 20.5H34.2957M34.214 20.5H34.2957M34.2957 20.5H34.3774M34.2957 20.5H34.3774M34.3774 20.5H34.4591M34.3774 20.5H34.4591M34.4591 20.5H34.5408M34.4591 20.5H34.5408M34.5408 20.5H34.6225M34.5408 20.5H34.6225M34.6225 20.5H34.7042M34.6225 20.5H34.7042M34.7042 20.5H34.7859M34.7042 20.5H34.7859M34.7859 20.5H34.8677M34.7859 20.5H34.8677M34.8677 20.5H34.9494M34.8677 20.5H34.9494M34.9494 20.5H35.0311M34.9494 20.5H35.0311M35.0311 20.5H35.1128M35.0311 20.5H35.1128M35.1128 20.5H35.1945M35.1128 20.5H35.1945M35.1945 20.5H35.2762M35.1945 20.5H35.2762M35.2762 20.5H35.3579M35.2762 20.5H35.3579M35.3579 20.5H35.4396M35.3579 20.5H35.4396M35.4396 20.5H35.5214M35.4396 20.5H35.5214M35.5214 20.5H35.6031M35.5214 20.5H35.6031M35.6031 20.5H35.6848M35.6031 20.5H35.6848M35.6848 20.5H35.7665M35.6848 20.5H35.7665M35.7665 20.5H35.8482M35.7665 20.5H35.8482M35.8482 20.5H35.9299M35.8482 20.5H35.9299M35.9299 20.5H36.0116M35.9299 20.5H36.0116M36.0116 20.5H36.0933M36.0116 20.5H36.0933M36.0933 20.5H36.1751M36.0933 20.5H36.1751M36.1751 20.5H36.2568M36.1751 20.5H36.2568M36.2568 20.5H36.3385M36.2568 20.5H36.3385M36.3385 20.5H36.4202M36.3385 20.5H36.4202M36.4202 20.5H36.5019M36.4202 20.5H36.5019M36.5019 20.5H36.5836M36.5019 20.5H36.5836M36.5836 20.5H36.6653M36.5836 20.5H36.6653M36.6653 20.5H36.747M36.6653 20.5H36.747M36.747 20.5H36.8288M36.747 20.5H36.8288M36.8288 20.5H36.9105M36.8288 20.5H36.9105M36.9105 20.5H36.9922M36.9105 20.5H36.9922M36.9922 20.5H37.0739M36.9922 20.5H37.0739M37.0739 20.5H37.1556M37.0739 20.5H37.1556M37.1556 20.5H37.2373M37.1556 20.5H37.2373M37.2373 20.5H37.319M37.2373 20.5H37.319M37.319 20.5H37.4007M37.319 20.5H37.4007M37.4007 20.5H37.4825M37.4007 20.5H37.4825M37.4825 20.5H37.5642M37.4825 20.5H37.5642M37.5642 20.5H37.6459M37.5642 20.5H37.6459M37.6459 20.5H37.7276M37.6459 20.5H37.7276M37.7276 20.5H37.8093M37.7276 20.5H37.8093M37.8093 20.5H37.891M37.8093 20.5H37.891M37.891 20.5H37.9727M37.891 20.5H37.9727M37.9727 20.5H38.0544M37.9727 20.5H38.0544M38.0544 20.5H38.1362M38.0544 20.5H38.1362M38.1362 20.5H38.2179M38.1362 20.5H38.2179M38.2179 20.5H38.2996M38.2179 20.5H38.2996M38.2996 20.5H38.3813M38.2996 20.5H38.3813M38.3813 20.5H38.463M38.3813 20.5H38.463M38.463 20.5H38.5447M38.463 20.5H38.5447M38.5447 20.5H38.6264M38.5447 20.5H38.6264M38.6264 20.5H38.7081M38.6264 20.5H38.7081M38.7081 20.5H38.7899M38.7081 20.5H38.7899M38.7899 20.5H38.8716M38.7899 20.5H38.8716M38.8716 20.5H38.9533M38.8716 20.5H38.9533M38.9533 20.5H39.035M38.9533 20.5H39.035M39.035 20.5H39.1167M39.035 20.5H39.1167M39.1167 20.5H39.1984M39.1167 20.5H39.1984M39.1984 20.5H39.2801M39.1984 20.5H39.2801M39.2801 20.5H39.3618M39.2801 20.5H39.3618M39.3618 20.5H39.4436M39.3618 20.5H39.4436M39.4436 20.5H39.5253M39.4436 20.5H39.5253M39.5253 20.5H39.607M39.5253 20.5H39.607M39.607 20.5H39.6887M39.607 20.5H39.6887M39.6887 20.5H39.7704M39.6887 20.5H39.7704M39.7704 20.5H39.8521M39.7704 20.5H39.8521M39.8521 20.5H39.9338M39.8521 20.5H39.9338M39.9338 20.5H40.0155M39.9338 20.5H40.0155M40.0155 20.5H40.0973M40.0155 20.5H40.0973M40.0973 20.5H40.179M40.0973 20.5H40.179M40.179 20.5H40.2607M40.179 20.5H40.2607M40.2607 20.5H40.3424M40.2607 20.5H40.3424M40.3424 20.5H40.4241M40.3424 20.5H40.4241M40.4241 20.5H40.5058M40.4241 20.5H40.5058M40.5058 20.5H40.5875M40.5058 20.5H40.5875M40.5875 20.5H40.6692M40.5875 20.5H40.6692M40.6692 20.5H40.751M40.6692 20.5H40.751M40.751 20.5H40.8327M40.751 20.5H40.8327M40.8327 20.5H40.9144M40.8327 20.5H40.9144M40.9144 20.5H40.9961M40.9144 20.5H40.9961M40.9961 20.5H41.0778M40.9961 20.5H41.0778M41.0778 20.5H41.1595M41.0778 20.5H41.1595M41.1595 20.5H41.2412M41.1595 20.5H41.2412M41.2412 20.5H41.3229M41.2412 20.5H41.3229M41.3229 20.5H41.4047M41.3229 20.5H41.4047M41.4047 20.5H41.4864M41.4047 20.5H41.4864M41.4864 20.5H41.5681M41.4864 20.5H41.5681M41.5681 20.5H41.6498M41.5681 20.5H41.6498M41.6498 20.5H41.7315M41.6498 20.5H41.7315M41.7315 20.5H41.8132M41.7315 20.5H41.8132M41.8132 20.5H41.8949M41.8132 20.5H41.8949M41.8949 20.5H41.9766M41.8949 20.5H41.9766M41.9766 20.5H42.0584M41.9766 20.5H42.0584M42.0584 20.5H42.1401M42.0584 20.5H42.1401M42.1401 20.5H42.2218M42.1401 20.5H42.2218M42.2218 20.5H42.3035M42.2218 20.5H42.3035M42.3035 20.5H42.3852M42.3035 20.5H42.3852M42.3852 20.5H42.4669M42.3852 20.5H42.4669M42.4669 20.5H42.5486M42.4669 20.5H42.5486M42.5486 20.5H42.6303M42.5486 20.5H42.6303M42.6303 20.5H42.7121M42.6303 20.5H42.7121M42.7121 20.5H42.7938M42.7121 20.5H42.7938M42.7938 20.5H42.8755M42.7938 20.5H42.8755M42.8755 20.5H42.9572M42.8755 20.5H42.9572M42.9572 20.5H43.0389M42.9572 20.5H43.0389M43.0389 20.5H43.1206M43.0389 20.5H43.1206M43.1206 20.5H43.2023M43.1206 20.5H43.2023M43.2023 20.5H43.284M43.2023 20.5H43.284M43.284 20.5H43.3658M43.284 20.5H43.3658M43.3658 20.5H43.4475M43.3658 20.5H43.4475M43.4475 20.5H43.5292M43.4475 20.5H43.5292M43.5292 20.5H43.6109M43.5292 20.5H43.6109M43.6109 20.5H43.6926M43.6109 20.5H43.6926M43.6926 20.5H43.7743M43.6926 20.5H43.7743M43.7743 20.5H43.856M43.7743 20.5H43.856M43.856 20.5H43.9377M43.856 20.5H43.9377M43.9377 20.5H44.0195M43.9377 20.5H44.0195M44.0195 20.5H44.1012M44.0195 20.5H44.1012M44.1012 20.5H44.1829M44.1012 20.5H44.1829M44.1829 20.5H44.2646M44.1829 20.5H44.2646M44.2646 20.5H44.3463M44.2646 20.5H44.3463M44.3463 20.5H44.428M44.3463 20.5H44.428M44.428 20.5H44.5097M44.428 20.5H44.5097M44.5097 20.5H44.5914M44.5097 20.5H44.5914M44.5914 20.5H44.6732M44.5914 20.5H44.6732M44.6732 20.5H44.7549M44.6732 20.5H44.7549M44.7549 20.5H44.8366M44.7549 20.5H44.8366M44.8366 20.5H44.9183M44.8366 20.5H44.9183M44.9183 20.5H45M44.9183 20.5H45M45 20.5H45.0817M45 20.5H45.0817M45.0817 20.5H45.1634M45.0817 20.5H45.1634M45.1634 20.5H45.2451M45.1634 20.5H45.2451M45.2451 20.5H45.3269M45.2451 20.5H45.3269M45.3269 20.5H45.4086M45.3269 20.5H45.4086M45.4086 20.5H45.4903M45.4086 20.5H45.4903M45.4903 20.5H45.572M45.4903 20.5H45.572M45.572 20.5H45.6537M45.572 20.5H45.6537M45.6537 20.5H45.7354M45.6537 20.5H45.7354M45.7354 20.5H45.8171M45.7354 20.5H45.8171M45.8171 20.5H45.8988M45.8171 20.5H45.8988M45.8988 20.5H45.9806M45.8988 20.5H45.9806M45.9806 20.5H46.0623M45.9806 20.5H46.0623M46.0623 20.5H46.144M46.0623 20.5H46.144M46.144 20.5H46.2257M46.144 20.5H46.2257M46.2257 20.5H46.3074M46.2257 20.5H46.3074M46.3074 20.5H46.3891M46.3074 20.5H46.3891M46.3891 20.5H46.4708M46.3891 20.5H46.4708M46.4708 20.5H46.5525M46.4708 20.5H46.5525M46.5525 20.5H46.6343M46.5525 20.5H46.6343M46.6343 20.5H46.716M46.6343 20.5H46.716M46.716 20.5H46.7977M46.716 20.5H46.7977M46.7977 20.5H46.8794M46.7977 20.5H46.8794M46.8794 20.5H46.9611M46.8794 20.5H46.9611M46.9611 20.5H47.0428M46.9611 20.5H47.0428M47.0428 20.5H47.1245M47.0428 20.5H47.1245M47.1245 20.5H47.2062M47.1245 20.5H47.2062M47.2062 20.5H47.2879M47.2062 20.5H47.2879M47.2879 20.5H47.3697M47.2879 20.5H47.3697M47.3697 20.5H47.4514M47.3697 20.5H47.4514M47.4514 20.5H47.5331M47.4514 20.5H47.5331M47.5331 20.5H47.6148M47.5331 20.5H47.6148M47.6148 20.5H47.6965M47.6148 20.5H47.6965M47.6965 20.5H47.7782M47.6965 20.5H47.7782M47.7782 20.5H47.8599M47.7782 20.5H47.8599M47.8599 20.5H47.9416M47.8599 20.5H47.9416M47.9416 20.5H48.0234M47.9416 20.5H48.0234M48.0234 20.5H48.1051M48.0234 20.5H48.1051M48.1051 20.5H48.1868M48.1051 20.5H48.1868M48.1868 20.5H48.2685M48.1868 20.5H48.2685M48.2685 20.5H48.3502M48.2685 20.5H48.3502M48.3502 20.5H48.4319M48.3502 20.5H48.4319M48.4319 20.5H48.5136M48.4319 20.5H48.5136M48.5136 20.5H48.5953M48.5136 20.5H48.5953M48.5953 20.5H48.6771M48.5953 20.5H48.6771M48.6771 20.5H48.7588M48.6771 20.5H48.7588M48.7588 20.5H48.8405M48.7588 20.5H48.8405M48.8405 20.5H48.9222M48.8405 20.5H48.9222M48.9222 20.5H49.0039M48.9222 20.5H49.0039M49.0039 20.5H49.0856M49.0039 20.5H49.0856M49.0856 20.5H49.1673M49.0856 20.5H49.1673M49.1673 20.5H49.249M49.1673 20.5H49.249M49.249 20.5H49.3308M49.249 20.5H49.3308M49.3308 20.5H49.4125M49.3308 20.5H49.4125M49.4125 20.5H49.4942M49.4125 20.5H49.4942M49.4942 20.5H49.5759M49.4942 20.5H49.5759M49.5759 20.5H49.6576M49.5759 20.5H49.6576M49.6576 20.5H49.7393M49.6576 20.5H49.7393M49.7393 20.5H49.821M49.7393 20.5H49.821M49.821 20.5H49.9027M49.821 20.5H49.9027M49.9027 20.5H49.9845M49.9027 20.5H49.9845M49.9845 20.5H50.0662M49.9845 20.5H50.0662M50.0662 20.5H50.1479M50.0662 20.5H50.1479M50.1479 20.5H50.2296M50.1479 20.5H50.2296M50.2296 20.5H50.3113M50.2296 20.5H50.3113M50.3113 20.5H50.393M50.3113 20.5H50.393M50.393 20.5H50.4747M50.393 20.5H50.4747M50.4747 20.5H50.5564M50.4747 20.5H50.5564M50.5564 20.5H50.6382M50.5564 20.5H50.6382M50.6382 20.5H50.7199M50.6382 20.5H50.7199M50.7199 20.5H50.8016M50.7199 20.5H50.8016M50.8016 20.5H50.8833M50.8016 20.5H50.8833M50.8833 20.5H50.965M50.8833 20.5H50.965M50.965 20.5H51.0467M50.965 20.5H51.0467M51.0467 20.5H51.1284M51.0467 20.5H51.1284M51.1284 20.5H51.2101M51.1284 20.5H51.2101M51.2101 20.5H51.2919M51.2101 20.5H51.2919M51.2919 20.5H51.3736M51.2919 20.5H51.3736M51.3736 20.5H51.4553M51.3736 20.5H51.4553M51.4553 20.5H51.537M51.4553 20.5H51.537M51.537 20.5H51.6187M51.537 20.5H51.6187M51.6187 20.5H51.7004M51.6187 20.5H51.7004M51.7004 20.5H51.7821M51.7004 20.5H51.7821M51.7821 20.5H51.8638M51.7821 20.5H51.8638M51.8638 20.5H51.9456M51.8638 20.5H51.9456M51.9456 20.5H52.0273M51.9456 20.5H52.0273M52.0273 20.5H52.109M52.0273 20.5H52.109M52.109 20.5H52.1907M52.109 20.5H52.1907M52.1907 20.5H52.2724M52.1907 20.5H52.2724M52.2724 20.5H52.3541M52.2724 20.5H52.3541M52.3541 20.5H52.4358M52.3541 20.5H52.4358M52.4358 20.5H52.5175M52.4358 20.5H52.5175M52.5175 20.5H52.5993M52.5175 20.5H52.5993M52.5993 20.5H52.681M52.5993 20.5H52.681M52.681 20.5H52.7627M52.681 20.5H52.7627M52.7627 20.5H52.8444M52.7627 20.5H52.8444M52.8444 20.5H52.9261M52.8444 20.5H52.9261M52.9261 20.5H53.0078M52.9261 20.5H53.0078M53.0078 20.5H53.0895M53.0078 20.5H53.0895M53.0895 20.5H53.1712M53.0895 20.5H53.1712M53.1712 20.5H53.253M53.1712 20.5H53.253M53.253 20.5H53.3347M53.253 20.5H53.3347M53.3347 20.5H53.4164M53.3347 20.5H53.4164M53.4164 20.5H53.4981M53.4164 20.5H53.4981M53.4981 20.5H53.5798M53.4981 20.5H53.5798M53.5798 20.5H53.6615M53.5798 20.5H53.6615M53.6615 20.5H53.7432M53.6615 20.5H53.7432M53.7432 20.5H53.8249M53.7432 20.5H53.8249M53.8249 20.5H53.9067M53.8249 20.5H53.9067M53.9067 20.5H53.9884M53.9067 20.5H53.9884M53.9884 20.5H54.0701M53.9884 20.5H54.0701M54.0701 20.5H54.1518M54.0701 20.5H54.1518M54.1518 20.5H54.2335M54.1518 20.5H54.2335M54.2335 20.5H54.3152M54.2335 20.5H54.3152M54.3152 20.5H54.3969M54.3152 20.5H54.3969M54.3969 20.5H54.4786M54.3969 20.5H54.4786M54.4786 20.5H54.5604M54.4786 20.5H54.5604M54.5604 20.5H54.6421M54.5604 20.5H54.6421M54.6421 20.5H54.7238M54.6421 20.5H54.7238M54.7238 20.5H54.8055M54.7238 20.5H54.8055M54.8055 20.5H54.8872M54.8055 20.5H54.8872M54.8872 20.5H54.9689M54.8872 20.5H54.9689M54.9689 20.5H55.0506M54.9689 20.5H55.0506M55.0506 20.5H55.1323M55.0506 20.5H55.1323M55.1323 20.5H55.2141M55.1323 20.5H55.2141M55.2141 20.5H55.2958M55.2141 20.5H55.2958M55.2958 20.5H55.3775M55.2958 20.5H55.3775M55.3775 20.5H55.4592M55.3775 20.5H55.4592M55.4592 20.5H55.5409M55.4592 20.5H55.5409M55.5409 20.5H55.6226M55.5409 20.5H55.6226M55.6226 20.5H55.7043M55.6226 20.5H55.7043M55.7043 20.5H55.786M55.7043 20.5H55.786M55.786 20.5H55.8678M55.786 20.5H55.8678M55.8678 20.5H55.9495M55.8678 20.5H55.9495M55.9495 20.5H56.0312M55.9495 20.5H56.0312M56.0312 20.5H56.1129M56.0312 20.5H56.1129M56.1129 20.5H56.1946M56.1129 20.5H56.1946M56.1946 20.5H56.2763M56.1946 20.5H56.2763M56.2763 20.5H56.358M56.2763 20.5H56.358M56.358 20.5H56.4397M56.358 20.5H56.4397M56.4397 20.5H56.5215M56.4397 20.5H56.5215M56.5215 20.5H56.6032M56.5215 20.5H56.6032M56.6032 20.5H56.6849M56.6032 20.5H56.6849M56.6849 20.5H56.7666M56.6849 20.5H56.7666M56.7666 20.5H56.8483M56.7666 20.5H56.8483M56.8483 20.5H56.93M56.8483 20.5H56.93M56.93 20.5H57.0117M56.93 20.5H57.0117M57.0117 20.5H57.0934M57.0117 20.5H57.0934M57.0934 20.5H57.1752M57.0934 20.5H57.1752M57.1752 20.5H57.2569M57.1752 20.5H57.2569M57.2569 20.5H57.3386M57.2569 20.5H57.3386M57.3386 20.5H57.4203M57.3386 20.5H57.4203M57.4203 20.5H57.502M57.4203 20.5H57.502M57.502 20.5H57.5837M57.502 20.5H57.5837M57.5837 20.5H57.6654M57.5837 20.5H57.6654M57.6654 20.5H57.7471M57.6654 20.5H57.7471M57.7471 20.5H57.8289M57.7471 20.5H57.8289M57.8289 20.5H57.9106M57.8289 20.5H57.9106M57.9106 20.5H57.9923M57.9106 20.5H57.9923M57.9923 20.5H58.074M57.9923 20.5H58.074M58.074 20.5H58.1557M58.074 20.5H58.1557M58.1557 20.5H58.2374M58.1557 20.5H58.2374M58.2374 20.5H58.3191M58.2374 20.5H58.3191M58.3191 20.5H58.4008M58.3191 20.5H58.4008M58.4008 20.5H58.4826M58.4008 20.5H58.4826M58.4826 20.5H58.5643M58.4826 20.5H58.5643M58.5643 20.5H58.646M58.5643 20.5H58.646M58.646 20.5H58.7277M58.646 20.5H58.7277M58.7277 20.5H58.8094M58.7277 20.5H58.8094M58.8094 20.5H58.8911M58.8094 20.5H58.8911M58.8911 20.5H58.9728M58.8911 20.5H58.9728M58.9728 20.5H59.0545M58.9728 20.5H59.0545M59.0545 20.5H59.1363M59.0545 20.5H59.1363M59.1363 20.5H59.218M59.1363 20.5H59.218M59.218 20.5H59.2997M59.218 20.5H59.2997M59.2997 20.5H59.3814M59.2997 20.5H59.3814M59.3814 20.5H59.4631M59.3814 20.5H59.4631M59.4631 20.5H59.5448M59.4631 20.5H59.5448M59.5448 20.5H59.6265M59.5448 20.5H59.6265M59.6265 20.5H59.7082M59.6265 20.5H59.7082M59.7082 20.5H59.79M59.7082 20.5H59.79M59.79 20.5H59.8717M59.79 20.5H59.8717M59.8717 20.5H59.9534M59.8717 20.5H59.9534M59.9534 20.5H60.0351M59.9534 20.5H60.0351M60.0351 20.5H60.1168M60.0351 20.5H60.1168M60.1168 20.5H60.1985M60.1168 20.5H60.1985M60.1985 20.5H60.2802M60.1985 20.5H60.2802M60.2802 20.5H60.3619M60.2802 20.5H60.3619M60.3619 20.5H60.4437M60.3619 20.5H60.4437M60.4437 20.5H60.5254M60.4437 20.5H60.5254M60.5254 20.5H60.6071M60.5254 20.5H60.6071M60.6071 20.5H60.6888M60.6071 20.5H60.6888M60.6888 20.5H60.7705M60.6888 20.5H60.7705M60.7705 20.5H60.8522M60.7705 20.5H60.8522M60.8522 20.5H60.9339M60.8522 20.5H60.9339M60.9339 20.5H61.0156M60.9339 20.5H61.0156M61.0156 20.5H61.0974M61.0156 20.5H61.0974M61.0974 20.5H61.1791M61.0974 20.5H61.1791M61.1791 20.5H61.2608M61.1791 20.5H61.2608M61.2608 20.5H61.3425M61.2608 20.5H61.3425M61.3425 20.5H61.4242M61.3425 20.5H61.4242M61.4242 20.5H61.5059M61.4242 20.5H61.5059M61.5059 20.5H61.5876M61.5059 20.5H61.5876M61.5876 20.5H61.6693M61.5876 20.5H61.6693M61.6693 20.5H61.751M61.6693 20.5H61.751M61.751 20.5H61.8328M61.751 20.5H61.8328M61.8328 20.5H61.9145M61.8328 20.5H61.9145M61.9145 20.5H61.9962M61.9145 20.5H61.9962M61.9962 20.5H62.0779M61.9962 20.5H62.0779M62.0779 20.5H62.1596M62.0779 20.5H62.1596M62.1596 20.5H62.2413M62.1596 20.5H62.2413M62.2413 20.5H62.323M62.2413 20.5H62.323M62.323 20.5H62.4048M62.323 20.5H62.4048M62.4048 20.5H62.4865M62.4048 20.5H62.4865M62.4865 20.5H62.5682M62.4865 20.5H62.5682M62.5682 20.5H62.6499M62.5682 20.5H62.6499M62.6499 20.5H62.7316M62.6499 20.5H62.7316M62.7316 20.5H62.8133M62.7316 20.5H62.8133M62.8133 20.5H62.895M62.8133 20.5H62.895M62.895 20.5H62.9767M62.895 20.5H62.9767M62.9767 20.5H63.0584M62.9767 20.5H63.0584M63.0584 20.5H63.1402M63.0584 20.5H63.1402M63.1402 20.5H63.2219M63.1402 20.5H63.2219M63.2219 20.5H63.3036M63.2219 20.5H63.3036M63.3036 20.5H63.3853M63.3036 20.5H63.3853M63.3853 20.5H63.467M63.3853 20.5H63.467M63.467 20.5H63.5487M63.467 20.5H63.5487M63.5487 20.5H63.6304M63.5487 20.5H63.6304M63.6304 20.5H63.7122M63.6304 20.5H63.7122M63.7122 20.5H63.7939M63.7122 20.5H63.7939M63.7939 20.5H63.8756M63.7939 20.5H63.8756M63.8756 20.5H63.9573M63.8756 20.5H63.9573M63.9573 20.5H64.039M63.9573 20.5H64.039M64.039 20.5H64.1207M64.039 20.5H64.1207M64.1207 20.5H64.2024M64.1207 20.5H64.2024M64.2024 20.5H64.2841M64.2024 20.5H64.2841M64.2841 20.5H64.3658M64.2841 20.5H64.3658M64.3658 20.5H64.4476M64.3658 20.5H64.4476M64.4476 20.5H64.5293M64.4476 20.5H64.5293M64.5293 20.5H64.611M64.5293 20.5H64.611M64.611 20.5H64.6927M64.611 20.5H64.6927M64.6927 20.5H64.7744M64.6927 20.5H64.7744M64.7744 20.5H64.8561M64.7744 20.5H64.8561M64.8561 20.5H64.9378M64.8561 20.5H64.9378M64.9378 20.5H65.0195M64.9378 20.5H65.0195M65.0195 20.5H65.1013M65.0195 20.5H65.1013M65.1013 20.5H65.183M65.1013 20.5H65.183M65.183 20.5H65.2647M65.183 20.5H65.2647M65.2647 20.5H65.3464M65.2647 20.5H65.3464M65.3464 20.5H65.4281M65.3464 20.5H65.4281M65.4281 20.5H65.5098M65.4281 20.5H65.5098M65.5098 20.5H65.5915M65.5098 20.5H65.5915M65.5915 20.5H65.6732M65.5915 20.5H65.6732M65.6732 20.5H65.755M65.6732 20.5H65.755M65.755 20.5H65.8367M65.755 20.5H65.8367M65.8367 20.5H65.9184M65.8367 20.5H65.9184M65.9184 20.5C67.8964 20.5 69.5 22.1036 69.5 24.0816V24.1633M65.9184 20.5L69.5 24.1633M69.5 24.1633V24.245M69.5 24.1633V24.245M69.5 24.245V24.3268M69.5 24.245V24.3268M69.5 24.3268V24.4085M69.5 24.3268V24.4085M69.5 24.4085V24.4902M69.5 24.4085V24.4902M69.5 24.4902V24.5719M69.5 24.4902V24.5719M69.5 24.5719V24.6536M69.5 24.5719V24.6536M69.5 24.6536V24.7353M69.5 24.6536V24.7353M69.5 24.7353V24.817M69.5 24.7353V24.817M69.5 24.817V24.8987M69.5 24.817V24.8987M69.5 24.8987V24.9805M69.5 24.8987V24.9805M69.5 24.9805V25.0622M69.5 24.9805V25.0622M69.5 25.0622V25.1439M69.5 25.0622V25.1439M69.5 25.1439V25.2256M69.5 25.1439V25.2256M69.5 25.2256V25.3073M69.5 25.2256V25.3073M69.5 25.3073V25.389M69.5 25.3073V25.389M69.5 25.389V25.4707M69.5 25.389V25.4707M69.5 25.4707V25.5524M69.5 25.4707V25.5524M69.5 25.5524V25.6342M69.5 25.5524V25.6342M69.5 25.6342V25.7159M69.5 25.6342V25.7159M69.5 25.7159V25.7976M69.5 25.7159V25.7976M69.5 25.7976V25.8793M69.5 25.7976V25.8793M69.5 25.8793V25.961M69.5 25.8793V25.961M69.5 25.961V26.0427M69.5 25.961V26.0427M69.5 26.0427V26.1244M69.5 26.0427V26.1244M69.5 26.1244V26.2062M69.5 26.1244V26.2062M69.5 26.2062V26.2879M69.5 26.2062V26.2879M69.5 26.2879V26.3696M69.5 26.2879V26.3696M69.5 26.3696V26.4513M69.5 26.3696V26.4513M69.5 26.4513V26.533M69.5 26.4513V26.533M69.5 26.533V26.6147M69.5 26.533V26.6147M69.5 26.6147V26.6964M69.5 26.6147V26.6964M69.5 26.6964V26.7781M69.5 26.6964V26.7781M69.5 26.7781V26.8599M69.5 26.7781V26.8599M69.5 26.8599V26.9416M69.5 26.8599V26.9416M69.5 26.9416V27.0233M69.5 26.9416V27.0233M69.5 27.0233V27.105M69.5 27.0233V27.105M69.5 27.105V27.1867M69.5 27.105V27.1867M69.5 27.1867V27.2684M69.5 27.1867V27.2684M69.5 27.2684V27.3501M69.5 27.2684V27.3501M69.5 27.3501V27.4318M69.5 27.3501V27.4318M69.5 27.4318V27.5136M69.5 27.4318V27.5136M69.5 27.5136V27.5953M69.5 27.5136V27.5953M69.5 27.5953V27.677M69.5 27.5953V27.677M69.5 27.677V27.7587M69.5 27.677V27.7587M69.5 27.7587V27.8404M69.5 27.7587V27.8404M69.5 27.8404V27.9221M69.5 27.8404V27.9221M69.5 27.9221V28.0038M69.5 27.9221V28.0038M69.5 28.0038V28.0855M69.5 28.0038V28.0855M69.5 28.0855V28.1673M69.5 28.0855V28.1673M69.5 28.1673V28.249M69.5 28.1673V28.249M69.5 28.249V28.3307M69.5 28.249V28.3307M69.5 28.3307V28.4124M69.5 28.3307V28.4124M69.5 28.4124V28.4941M69.5 28.4124V28.4941M69.5 28.4941V28.5758M69.5 28.4941V28.5758M69.5 28.5758V28.6575M69.5 28.5758V28.6575M69.5 28.6575V28.7392M69.5 28.6575V28.7392M69.5 28.7392V28.821M69.5 28.7392V28.821M69.5 28.821V28.9027M69.5 28.821V28.9027M69.5 28.9027V28.9844M69.5 28.9027V28.9844M69.5 28.9844V29.0661M69.5 28.9844V29.0661M69.5 29.0661V29.1478M69.5 29.0661V29.1478M69.5 29.1478V29.2295M69.5 29.1478V29.2295M69.5 29.2295V29.3112M69.5 29.2295V29.3112M69.5 29.3112V29.393M69.5 29.3112V29.393M69.5 29.393V29.4747M69.5 29.393V29.4747M69.5 29.4747V29.5564M69.5 29.4747V29.5564M69.5 29.5564V29.6381M69.5 29.5564V29.6381M69.5 29.6381V29.7198M69.5 29.6381V29.7198M69.5 29.7198V29.8015M69.5 29.7198V29.8015M69.5 29.8015V29.8832M69.5 29.8015V29.8832M69.5 29.8832V29.9649M69.5 29.8832V29.9649M69.5 29.9649V30.0467M69.5 29.9649V30.0467M69.5 30.0467V30.1284M69.5 30.0467V30.1284M69.5 30.1284V30.2101M69.5 30.1284V30.2101M69.5 30.2101V30.2918M69.5 30.2101V30.2918M69.5 30.2918V30.3735M69.5 30.2918V30.3735M69.5 30.3735V30.4552M69.5 30.3735V30.4552M69.5 30.4552V30.5369M69.5 30.4552V30.5369M69.5 30.5369V30.6186M69.5 30.5369V30.6186M69.5 30.6186V30.7004M69.5 30.6186V30.7004M69.5 30.7004V30.7821M69.5 30.7004V30.7821M69.5 30.7821V30.8638M69.5 30.7821V30.8638M69.5 30.8638V30.9455M69.5 30.8638V30.9455M69.5 30.9455V31.0272M69.5 30.9455V31.0272M69.5 31.0272V31.1089M69.5 31.0272V31.1089M69.5 31.1089V31.1906M69.5 31.1089V31.1906M69.5 31.1906V31.2723M69.5 31.1906V31.2723M69.5 31.2723V31.3541M69.5 31.2723V31.3541M69.5 31.3541V31.4358M69.5 31.3541V31.4358M69.5 31.4358V31.5175M69.5 31.4358V31.5175M69.5 31.5175V31.5992M69.5 31.5175V31.5992M69.5 31.5992V31.6809M69.5 31.5992V31.6809M69.5 31.6809V31.7626M69.5 31.6809V31.7626M69.5 31.7626V31.8443M69.5 31.7626V31.8443M69.5 31.8443V31.926M69.5 31.8443V31.926M69.5 31.926V32.0078M69.5 31.926V32.0078M69.5 32.0078V32.0895M69.5 32.0078V32.0895M69.5 32.0895V32.1712M69.5 32.0895V32.1712M69.5 32.1712V32.2529M69.5 32.1712V32.2529M69.5 32.2529V32.3346M69.5 32.2529V32.3346M69.5 32.3346V32.4163M69.5 32.3346V32.4163M69.5 32.4163V32.498M69.5 32.4163V32.498M69.5 32.498V32.5797M69.5 32.498V32.5797M69.5 32.5797V32.6615M69.5 32.5797V32.6615M69.5 32.6615V32.7432M69.5 32.6615V32.7432M69.5 32.7432V32.8249M69.5 32.7432V32.8249M69.5 32.8249V32.9066M69.5 32.8249V32.9066M69.5 32.9066V32.9883M69.5 32.9066V32.9883M69.5 32.9883V33.07M69.5 32.9883V33.07M69.5 33.07V33.1517M69.5 33.07V33.1517M69.5 33.1517V33.2334M69.5 33.1517V33.2334M69.5 33.2334V33.3152M69.5 33.2334V33.3152M69.5 33.3152V33.3969M69.5 33.3152V33.3969M69.5 33.3969V33.4786M69.5 33.3969V33.4786M69.5 33.4786V33.5603M69.5 33.4786V33.5603M69.5 33.5603V33.642M69.5 33.5603V33.642M69.5 33.642V33.7237M69.5 33.642V33.7237M69.5 33.7237V33.8054M69.5 33.7237V33.8054M69.5 33.8054V33.8871M69.5 33.8054V33.8871M69.5 33.8871V33.9689M69.5 33.8871V33.9689M69.5 33.9689V34.0506M69.5 33.9689V34.0506M69.5 34.0506V34.1323M69.5 34.0506V34.1323M69.5 34.1323V34.214M69.5 34.1323V34.214M69.5 34.214V34.2957M69.5 34.214V34.2957M69.5 34.2957V34.3774M69.5 34.2957V34.3774M69.5 34.3774V34.4591M69.5 34.3774V34.4591M69.5 34.4591V34.5408M69.5 34.4591V34.5408M69.5 34.5408V34.6226M69.5 34.5408V34.6226M69.5 34.6226V34.7043M69.5 34.6226V34.7043M69.5 34.7043V34.786M69.5 34.7043V34.786M69.5 34.786V34.8677M69.5 34.786V34.8677M69.5 34.8677V34.9494M69.5 34.8677V34.9494M69.5 34.9494V35.0311M69.5 34.9494V35.0311M69.5 35.0311V35.1128M69.5 35.0311V35.1128M69.5 35.1128V35.1945M69.5 35.1128V35.1945M69.5 35.1945V35.2763M69.5 35.1945V35.2763M69.5 35.2763V35.358M69.5 35.2763V35.358M69.5 35.358V35.4397M69.5 35.358V35.4397M69.5 35.4397V35.5214M69.5 35.4397V35.5214M69.5 35.5214V35.6031M69.5 35.5214V35.6031M69.5 35.6031V35.6848M69.5 35.6031V35.6848M69.5 35.6848V35.7665M69.5 35.6848V35.7665M69.5 35.7665V35.8482M69.5 35.7665V35.8482M69.5 35.8482V35.93M69.5 35.8482V35.93M69.5 35.93V36.0117M69.5 35.93V36.0117M69.5 36.0117V36.0934M69.5 36.0117V36.0934M69.5 36.0934V36.1751M69.5 36.0934V36.1751M69.5 36.1751V36.2568M69.5 36.1751V36.2568M69.5 36.2568V36.3385M69.5 36.2568V36.3385M69.5 36.3385V36.4202M69.5 36.3385V36.4202M69.5 36.4202V36.5019M69.5 36.4202V36.5019M69.5 36.5019V36.5837M69.5 36.5019V36.5837M69.5 36.5837V36.6654M69.5 36.5837V36.6654M69.5 36.6654V36.7471M69.5 36.6654V36.7471M69.5 36.7471V36.8288M69.5 36.7471V36.8288M69.5 36.8288V36.9105M69.5 36.8288V36.9105M69.5 36.9105V36.9922M69.5 36.9105V36.9922M69.5 36.9922V37.0739M69.5 36.9922V37.0739M69.5 37.0739V37.1556M69.5 37.0739V37.1556M69.5 37.1556V37.2374M69.5 37.1556V37.2374M69.5 37.2374V37.3191M69.5 37.2374V37.3191M69.5 37.3191V37.4008M69.5 37.3191V37.4008M69.5 37.4008V37.4825M69.5 37.4008V37.4825M69.5 37.4825V37.5642M69.5 37.4825V37.5642M69.5 37.5642V37.6459M69.5 37.5642V37.6459M69.5 37.6459V37.7276M69.5 37.6459V37.7276M69.5 37.7276V37.8093M69.5 37.7276V37.8093M69.5 37.8093V37.8911M69.5 37.8093V37.8911M69.5 37.8911V37.9728M69.5 37.8911V37.9728M69.5 37.9728V38.0545M69.5 37.9728V38.0545M69.5 38.0545V38.1362M69.5 38.0545V38.1362M69.5 38.1362V38.2179M69.5 38.1362V38.2179M69.5 38.2179V38.2996M69.5 38.2179V38.2996M69.5 38.2996V38.3813M69.5 38.2996V38.3813M69.5 38.3813V38.463M69.5 38.3813V38.463M69.5 38.463V38.5448M69.5 38.463V38.5448M69.5 38.5448V38.6265M69.5 38.5448V38.6265M69.5 38.6265V38.7082M69.5 38.6265V38.7082M69.5 38.7082V38.7899M69.5 38.7082V38.7899M69.5 38.7899V38.8716M69.5 38.7899V38.8716M69.5 38.8716V38.9533M69.5 38.8716V38.9533M69.5 38.9533V39.035M69.5 38.9533V39.035M69.5 39.035V39.1167M69.5 39.035V39.1167M69.5 39.1167V39.1985M69.5 39.1167V39.1985M69.5 39.1985V39.2802M69.5 39.1985V39.2802M69.5 39.2802V39.3619M69.5 39.2802V39.3619M69.5 39.3619V39.4436M69.5 39.3619V39.4436M69.5 39.4436V39.5253M69.5 39.4436V39.5253M69.5 39.5253V39.607M69.5 39.5253V39.607M69.5 39.607V39.6887M69.5 39.607V39.6887M69.5 39.6887V39.7704M69.5 39.6887V39.7704M69.5 39.7704V39.8522M69.5 39.7704V39.8522M69.5 39.8522V39.9339M69.5 39.8522V39.9339M69.5 39.9339V40.0156M69.5 39.9339V40.0156M69.5 40.0156V40.0973M69.5 40.0156V40.0973M69.5 40.0973V40.179M69.5 40.0973V40.179M69.5 40.179V40.2607M69.5 40.179V40.2607M69.5 40.2607V40.3424M69.5 40.2607V40.3424M69.5 40.3424V40.4241M69.5 40.3424V40.4241M69.5 40.4241V40.5059M69.5 40.4241V40.5059M69.5 40.5059V40.5876M69.5 40.5059V40.5876M69.5 40.5876V40.6693M69.5 40.5876V40.6693M69.5 40.6693V40.751M69.5 40.6693V40.751M69.5 40.751V40.8327M69.5 40.751V40.8327M69.5 40.8327V40.9144M69.5 40.8327V40.9144M69.5 40.9144V40.9961M69.5 40.9144V40.9961M69.5 40.9961V41.0778M69.5 40.9961V41.0778M69.5 41.0778V41.1596M69.5 41.0778V41.1596M69.5 41.1596V41.2413M69.5 41.1596V41.2413M69.5 41.2413V41.323M69.5 41.2413V41.323M69.5 41.323V41.4047M69.5 41.323V41.4047M69.5 41.4047V41.4864M69.5 41.4047V41.4864M69.5 41.4864V41.5681M69.5 41.4864V41.5681M69.5 41.5681V41.6498M69.5 41.5681V41.6498M69.5 41.6498V41.7315M69.5 41.6498V41.7315M69.5 41.7315V41.8133M69.5 41.7315V41.8133M69.5 41.8133V41.895M69.5 41.8133V41.895M69.5 41.895V41.9767M69.5 41.895V41.9767M69.5 41.9767V42.0584M69.5 41.9767V42.0584M69.5 42.0584V42.1401M69.5 42.0584V42.1401M69.5 42.1401V42.2218M69.5 42.1401V42.2218M69.5 42.2218V42.3035M69.5 42.2218V42.3035M69.5 42.3035V42.3852M69.5 42.3035V42.3852M69.5 42.3852V42.4669M69.5 42.3852V42.4669M69.5 42.4669V42.5487M69.5 42.4669V42.5487M69.5 42.5487V42.6304M69.5 42.5487V42.6304M69.5 42.6304V42.7121M69.5 42.6304V42.7121M69.5 42.7121V42.7938M69.5 42.7121V42.7938M69.5 42.7938V42.8755M69.5 42.7938V42.8755M69.5 42.8755V42.9572M69.5 42.8755V42.9572M69.5 42.9572V43.0389M69.5 42.9572V43.0389M69.5 43.0389V43.1206M69.5 43.0389V43.1206M69.5 43.1206V43.2024M69.5 43.1206V43.2024M69.5 43.2024V43.2841M69.5 43.2024V43.2841M69.5 43.2841V43.3658M69.5 43.2841V43.3658M69.5 43.3658V43.4475M69.5 43.3658V43.4475M69.5 43.4475V43.5292M69.5 43.4475V43.5292M69.5 43.5292V43.6109M69.5 43.5292V43.6109M69.5 43.6109V43.6926M69.5 43.6109V43.6926M69.5 43.6926V43.7743M69.5 43.6926V43.7743M69.5 43.7743V43.8561M69.5 43.7743V43.8561M69.5 43.8561V43.9378M69.5 43.8561V43.9378M69.5 43.9378V44.0195M69.5 43.9378V44.0195M69.5 44.0195V44.1012M69.5 44.0195V44.1012M69.5 44.1012V44.1829M69.5 44.1012V44.1829M69.5 44.1829V44.2646M69.5 44.1829V44.2646M69.5 44.2646V44.3463M69.5 44.2646V44.3463M69.5 44.3463V44.428M69.5 44.3463V44.428M69.5 44.428V44.5098M69.5 44.428V44.5098M69.5 44.5098V44.5915M69.5 44.5098V44.5915M69.5 44.5915V44.6732M69.5 44.5915V44.6732M69.5 44.6732V44.7549M69.5 44.6732V44.7549M69.5 44.7549V44.8366M69.5 44.7549V44.8366M69.5 44.8366V44.9183M69.5 44.8366V44.9183M69.5 44.9183V45M69.5 44.9183V45M69.5 45V45.0817M69.5 45V45.0817M69.5 45.0817V45.1635M69.5 45.0817V45.1635M69.5 45.1635V45.2452M69.5 45.1635V45.2452M69.5 45.2452V45.3269M69.5 45.2452V45.3269M69.5 45.3269V45.4086M69.5 45.3269V45.4086M69.5 45.4086V45.4903M69.5 45.4086V45.4903M69.5 45.4903V45.572M69.5 45.4903V45.572M69.5 45.572V45.6537M69.5 45.572V45.6537M69.5 45.6537V45.7354M69.5 45.6537V45.7354M69.5 45.7354V45.8172M69.5 45.7354V45.8172M69.5 45.8172V45.8989M69.5 45.8172V45.8989M69.5 45.8989V45.9806M69.5 45.8989V45.9806M69.5 45.9806V46.0623M69.5 45.9806V46.0623M69.5 46.0623V46.144M69.5 46.0623V46.144M69.5 46.144V46.2257M69.5 46.144V46.2257M69.5 46.2257V46.3074M69.5 46.2257V46.3074M69.5 46.3074V46.3891M69.5 46.3074V46.3891M69.5 46.3891V46.4709M69.5 46.3891V46.4709M69.5 46.4709V46.5526M69.5 46.4709V46.5526M69.5 46.5526V46.6343M69.5 46.5526V46.6343M69.5 46.6343V46.716M69.5 46.6343V46.716M69.5 46.716V46.7977M69.5 46.716V46.7977M69.5 46.7977V46.8794M69.5 46.7977V46.8794M69.5 46.8794V46.9611M69.5 46.8794V46.9611M69.5 46.9611V47.0428M69.5 46.9611V47.0428M69.5 47.0428V47.1246M69.5 47.0428V47.1246M69.5 47.1246V47.2063M69.5 47.1246V47.2063M69.5 47.2063V47.288M69.5 47.2063V47.288M69.5 47.288V47.3697M69.5 47.288V47.3697M69.5 47.3697V47.4514M69.5 47.3697V47.4514M69.5 47.4514V47.5331M69.5 47.4514V47.5331M69.5 47.5331V47.6148M69.5 47.5331V47.6148M69.5 47.6148V47.6965M69.5 47.6148V47.6965M69.5 47.6965V47.7782M69.5 47.6965V47.7782M69.5 47.7782V47.86M69.5 47.7782V47.86M69.5 47.86V47.9417M69.5 47.86V47.9417M69.5 47.9417V48.0234M69.5 47.9417V48.0234M69.5 48.0234V48.1051M69.5 48.0234V48.1051M69.5 48.1051V48.1868M69.5 48.1051V48.1868M69.5 48.1868V48.2685M69.5 48.1868V48.2685M69.5 48.2685V48.3502M69.5 48.2685V48.3502M69.5 48.3502V48.4319M69.5 48.3502V48.4319M69.5 48.4319V48.5137M69.5 48.4319V48.5137M69.5 48.5137V48.5954M69.5 48.5137V48.5954M69.5 48.5954V48.6771M69.5 48.5954V48.6771M69.5 48.6771V48.7588M69.5 48.6771V48.7588M69.5 48.7588V48.8405M69.5 48.7588V48.8405M69.5 48.8405V48.9222M69.5 48.8405V48.9222M69.5 48.9222V49.0039M69.5 48.9222V49.0039M69.5 49.0039V49.0856M69.5 49.0039V49.0856M69.5 49.0856V49.1674M69.5 49.0856V49.1674M69.5 49.1674V49.2491M69.5 49.1674V49.2491M69.5 49.2491V49.3308M69.5 49.2491V49.3308M69.5 49.3308V49.4125M69.5 49.3308V49.4125M69.5 49.4125V49.4942M69.5 49.4125V49.4942M69.5 49.4942V49.5759M69.5 49.4942V49.5759M69.5 49.5759V49.6576M69.5 49.5759V49.6576M69.5 49.6576V49.7393M69.5 49.6576V49.7393M69.5 49.7393V49.8211M69.5 49.7393V49.8211M69.5 49.8211V49.9028M69.5 49.8211V49.9028M69.5 49.9028V49.9845M69.5 49.9028V49.9845M69.5 49.9845V50.0662M69.5 49.9845V50.0662M69.5 50.0662V50.1479M69.5 50.0662V50.1479M69.5 50.1479V50.2296M69.5 50.1479V50.2296M69.5 50.2296V50.3113M69.5 50.2296V50.3113M69.5 50.3113V50.393M69.5 50.3113V50.393M69.5 50.393V50.4748M69.5 50.393V50.4748M69.5 50.4748V50.5565M69.5 50.4748V50.5565M69.5 50.5565V50.6382M69.5 50.5565V50.6382M69.5 50.6382V50.7199M69.5 50.6382V50.7199M69.5 50.7199V50.8016M69.5 50.7199V50.8016M69.5 50.8016V50.8833M69.5 50.8016V50.8833M69.5 50.8833V50.965M69.5 50.8833V50.965M69.5 50.965V51.0467M69.5 50.965V51.0467M69.5 51.0467V51.1285M69.5 51.0467V51.1285M69.5 51.1285V51.2102M69.5 51.1285V51.2102M69.5 51.2102V51.2919M69.5 51.2102V51.2919M69.5 51.2919V51.3736M69.5 51.2919V51.3736M69.5 51.3736V51.4553M69.5 51.3736V51.4553M69.5 51.4553V51.537M69.5 51.4553V51.537M69.5 51.537V51.6187M69.5 51.537V51.6187M69.5 51.6187V51.7004M69.5 51.6187V51.7004M69.5 51.7004V51.7822M69.5 51.7004V51.7822M69.5 51.7822V51.8639M69.5 51.7822V51.8639M69.5 51.8639V51.9456M69.5 51.8639V51.9456M69.5 51.9456V52.0273M69.5 51.9456V52.0273M69.5 52.0273V52.109M69.5 52.0273V52.109M69.5 52.109V52.1907M69.5 52.109V52.1907M69.5 52.1907V52.2724M69.5 52.1907V52.2724M69.5 52.2724V52.3541M69.5 52.2724V52.3541M69.5 52.3541V52.4358M69.5 52.3541V52.4358M69.5 52.4358V52.5176M69.5 52.4358V52.5176M69.5 52.5176V52.5993M69.5 52.5176V52.5993M69.5 52.5993V52.681M69.5 52.5993V52.681M69.5 52.681V52.7627M69.5 52.681V52.7627M69.5 52.7627V52.8444M69.5 52.7627V52.8444M69.5 52.8444V52.9261M69.5 52.8444V52.9261M69.5 52.9261V53.0078M69.5 52.9261V53.0078M69.5 53.0078V53.0896M69.5 53.0078V53.0896M69.5 53.0896V53.1713M69.5 53.0896V53.1713M69.5 53.1713V53.253M69.5 53.1713V53.253M69.5 53.253V53.3347M69.5 53.253V53.3347M69.5 53.3347V53.4164M69.5 53.3347V53.4164M69.5 53.4164V53.4981M69.5 53.4164V53.4981M69.5 53.4981V53.5798M69.5 53.4981V53.5798M69.5 53.5798V53.6615M69.5 53.5798V53.6615M69.5 53.6615V53.7432M69.5 53.6615V53.7432M69.5 53.7432V53.825M69.5 53.7432V53.825M69.5 53.825V53.9067M69.5 53.825V53.9067M69.5 53.9067V53.9884M69.5 53.9067V53.9884M69.5 53.9884V54.0701M69.5 53.9884V54.0701M69.5 54.0701V54.1518M69.5 54.0701V54.1518M69.5 54.1518V54.2335M69.5 54.1518V54.2335M69.5 54.2335V54.3152M69.5 54.2335V54.3152M69.5 54.3152V54.3969M69.5 54.3152V54.3969M69.5 54.3969V54.4787M69.5 54.3969V54.4787M69.5 54.4787V54.5604M69.5 54.4787V54.5604M69.5 54.5604V54.6421M69.5 54.5604V54.6421M69.5 54.6421V54.7238M69.5 54.6421V54.7238M69.5 54.7238V54.8055M69.5 54.7238V54.8055M69.5 54.8055V54.8872M69.5 54.8055V54.8872M69.5 54.8872V54.9689M69.5 54.8872V54.9689M69.5 54.9689V55.0506M69.5 54.9689V55.0506M69.5 55.0506V55.1324M69.5 55.0506V55.1324M69.5 55.1324V55.2141M69.5 55.1324V55.2141M69.5 55.2141V55.2958M69.5 55.2141V55.2958M69.5 55.2958V55.3775M69.5 55.2958V55.3775M69.5 55.3775V55.4592M69.5 55.3775V55.4592M69.5 55.4592V55.5409M69.5 55.4592V55.5409M69.5 55.5409V55.6226M69.5 55.5409V55.6226M69.5 55.6226V55.7043M69.5 55.6226V55.7043M69.5 55.7043V55.7861M69.5 55.7043V55.7861M69.5 55.7861V55.8678M69.5 55.7861V55.8678M69.5 55.8678V55.9495M69.5 55.8678V55.9495M69.5 55.9495V56.0312M69.5 55.9495V56.0312M69.5 56.0312V56.1129M69.5 56.0312V56.1129M69.5 56.1129V56.1946M69.5 56.1129V56.1946M69.5 56.1946V56.2763M69.5 56.1946V56.2763M69.5 56.2763V56.358M69.5 56.2763V56.358M69.5 56.358V56.4398M69.5 56.358V56.4398M69.5 56.4398V56.5215M69.5 56.4398V56.5215M69.5 56.5215V56.6032M69.5 56.5215V56.6032M69.5 56.6032V56.6849M69.5 56.6032V56.6849M69.5 56.6849V56.7666M69.5 56.6849V56.7666M69.5 56.7666V56.8483M69.5 56.7666V56.8483M69.5 56.8483V56.93M69.5 56.8483V56.93M69.5 56.93V57.0117M69.5 56.93V57.0117M69.5 57.0117V57.0934M69.5 57.0117V57.0934M69.5 57.0934V57.1752M69.5 57.0934V57.1752M69.5 57.1752V57.2569M69.5 57.1752V57.2569M69.5 57.2569V57.3386M69.5 57.2569V57.3386M69.5 57.3386V57.4203M69.5 57.3386V57.4203M69.5 57.4203V57.502M69.5 57.4203V57.502M69.5 57.502V57.5837M69.5 57.502V57.5837M69.5 57.5837V57.6654M69.5 57.5837V57.6654M69.5 57.6654V57.7472M69.5 57.6654V57.7472M69.5 57.7472V57.8289M69.5 57.7472V57.8289M69.5 57.8289V57.9106M69.5 57.8289V57.9106M69.5 57.9106V57.9923M69.5 57.9106V57.9923M69.5 57.9923V58.074M69.5 57.9923V58.074M69.5 58.074V58.1557M69.5 58.074V58.1557M69.5 58.1557V58.2374M69.5 58.1557V58.2374M69.5 58.2374V58.3191M69.5 58.2374V58.3191M69.5 58.3191V58.4008M69.5 58.3191V58.4008M69.5 58.4008V58.4826M69.5 58.4008V58.4826M69.5 58.4826V58.5643M69.5 58.4826V58.5643M69.5 58.5643V58.646M69.5 58.5643V58.646M69.5 58.646V58.7277M69.5 58.646V58.7277M69.5 58.7277V58.8094M69.5 58.7277V58.8094M69.5 58.8094V58.8911M69.5 58.8094V58.8911M69.5 58.8911V58.9728M69.5 58.8911V58.9728M69.5 58.9728V59.0545M69.5 58.9728V59.0545M69.5 59.0545V59.1363M69.5 59.0545V59.1363M69.5 59.1363V59.218M69.5 59.1363V59.218M69.5 59.218V59.2997M69.5 59.218V59.2997M69.5 59.2997V59.3814M69.5 59.2997V59.3814M69.5 59.3814V59.4631M69.5 59.3814V59.4631M69.5 59.4631V59.5448M69.5 59.4631V59.5448M69.5 59.5448V59.6265M69.5 59.5448V59.6265M69.5 59.6265V59.7082M69.5 59.6265V59.7082M69.5 59.7082V59.79M69.5 59.7082V59.79M69.5 59.79V59.8717M69.5 59.79V59.8717M69.5 59.8717V59.9534M69.5 59.8717V59.9534M69.5 59.9534V60.0351M69.5 59.9534V60.0351M69.5 60.0351V60.1168M69.5 60.0351V60.1168M69.5 60.1168V60.1985M69.5 60.1168V60.1985M69.5 60.1985V60.2802M69.5 60.1985V60.2802M69.5 60.2802V60.3619M69.5 60.2802V60.3619M69.5 60.3619V60.4437M69.5 60.3619V60.4437M69.5 60.4437V60.5254M69.5 60.4437V60.5254M69.5 60.5254V60.6071M69.5 60.5254V60.6071M69.5 60.6071V60.6888M69.5 60.6071V60.6888M69.5 60.6888V60.7705M69.5 60.6888V60.7705M69.5 60.7705V60.8522M69.5 60.7705V60.8522M69.5 60.8522V60.9339M69.5 60.8522V60.9339M69.5 60.9339V61.0156M69.5 60.9339V61.0156M69.5 61.0156V61.0974M69.5 61.0156V61.0974M69.5 61.0974V61.1791M69.5 61.0974V61.1791M69.5 61.1791V61.2608M69.5 61.1791V61.2608M69.5 61.2608V61.3425M69.5 61.2608V61.3425M69.5 61.3425V61.4242M69.5 61.3425V61.4242M69.5 61.4242V61.5059M69.5 61.4242V61.5059M69.5 61.5059V61.5876M69.5 61.5059V61.5876M69.5 61.5876V61.6693M69.5 61.5876V61.6693M69.5 61.6693V61.7511M69.5 61.6693V61.7511M69.5 61.7511V61.8328M69.5 61.7511V61.8328M69.5 61.8328V61.9145M69.5 61.8328V61.9145M69.5 61.9145V61.9962M69.5 61.9145V61.9962M69.5 61.9962V62.0779M69.5 61.9962V62.0779M69.5 62.0779V62.1596M69.5 62.0779V62.1596M69.5 62.1596V62.2413M69.5 62.1596V62.2413M69.5 62.2413V62.323M69.5 62.2413V62.323M69.5 62.323V62.4048M69.5 62.323V62.4048M69.5 62.4048V62.4865M69.5 62.4048V62.4865M69.5 62.4865V62.5682M69.5 62.4865V62.5682M69.5 62.5682V62.6499M69.5 62.5682V62.6499M69.5 62.6499V62.7316M69.5 62.6499V62.7316M69.5 62.7316V62.8133M69.5 62.7316V62.8133M69.5 62.8133V62.895M69.5 62.8133V62.895M69.5 62.895V62.9767M69.5 62.895V62.9767M69.5 62.9767V63.0584M69.5 62.9767V63.0584M69.5 63.0584V63.1402M69.5 63.0584V63.1402M69.5 63.1402V63.2219M69.5 63.1402V63.2219M69.5 63.2219V63.3036M69.5 63.2219V63.3036M69.5 63.3036V63.3853M69.5 63.3036V63.3853M69.5 63.3853V63.467M69.5 63.3853V63.467M69.5 63.467V63.5487M69.5 63.467V63.5487M69.5 63.5487V63.6304M69.5 63.5487V63.6304M69.5 63.6304V63.7122M69.5 63.6304V63.7122M69.5 63.7122V63.7939M69.5 63.7122V63.7939M69.5 63.7939V63.8756M69.5 63.7939V63.8756M69.5 63.8756V63.9573M69.5 63.8756V63.9573M69.5 63.9573V64.039M69.5 63.9573V64.039M69.5 64.039V64.1207M69.5 64.039V64.1207M69.5 64.1207V64.2024M69.5 64.1207V64.2024M69.5 64.2024V64.2841M69.5 64.2024V64.2841M69.5 64.2841V64.3658M69.5 64.2841V64.3658M69.5 64.3658V64.4476V64.3658Z" stroke="white"/>
<path d="M61.8731 40.5411L61.873 40.541C59.0155 38.1795 54.9789 38.2501 49.563 41.1128L49.2368 41.2852L48.9758 41.0243C48.6469 40.6953 48.2919 40.4181 47.8929 40.1787L47.312 39.8302L47.8162 39.3778C51.6403 35.9471 55.2367 34.4046 58.5708 34.9871C59.0385 35.0688 59.3623 34.5329 59.0726 34.1569L59.0725 34.1569C57.8452 32.564 56.4507 31.2693 54.7714 30.1632C54.4475 29.9499 54.1642 29.8794 53.7781 29.9161C50.0876 30.2669 47.2833 33.1711 45.4779 39.0249L45.3692 39.3775H45.0001C44.5348 39.3775 44.0878 39.4325 43.6366 39.5453L42.9793 39.7097L43.016 39.0332C43.2942 33.9034 44.7463 30.2696 47.5159 28.3239L47.8025 28.7319L47.5159 28.3239C47.9043 28.0511 47.7546 27.4431 47.2837 27.3819C45.2894 27.1235 43.3879 27.1939 41.4183 27.5994L41.4183 27.5994C41.0384 27.6776 40.7882 27.8281 40.5414 28.127L40.5413 28.1271C38.1797 30.9846 38.2504 35.0212 41.113 40.4371L41.2855 40.7633L41.0245 41.0243C40.6956 41.3532 40.4184 41.7082 40.179 42.1072L39.8304 42.6881L39.378 42.1839C35.9473 38.3598 34.4048 34.7634 34.9873 31.4294C35.0691 30.9616 34.5331 30.6378 34.1571 30.9275L34.1571 30.9275C32.5642 32.1548 31.2695 33.5493 30.1634 35.2286L61.8731 40.5411ZM61.8731 40.5411C62.172 40.788 62.3225 41.0382 62.4007 41.418L62.8904 41.3172M61.8731 40.5411L62.8904 41.3172M62.8904 41.3172L62.4007 41.418C62.8062 43.3877 62.8766 45.289 62.6182 47.2832C62.5571 47.7541 61.949 47.9039 61.6762 47.5155L61.267 47.8029L61.6762 47.5155C59.7305 44.7459 56.0967 43.2938 50.9669 43.0156L50.2904 42.9789L50.4548 43.6361C50.5676 44.0874 50.6226 44.5344 50.6226 44.9997V45.3688L50.9752 45.4775C56.829 47.2829 59.7332 50.0872 60.084 53.7777C60.1207 54.1638 60.0503 54.447 59.837 54.7709M62.8904 41.3172L42.7167 62.6178M50.5959 48.5418C53.737 52.1675 55.0451 55.4817 54.5205 58.4843C54.3603 59.4014 55.4111 60.0364 56.1484 59.4682C57.7853 58.207 59.1179 56.7716 60.2545 55.046M50.5959 48.5418L51.1226 44.9997C57.0492 46.8276 60.2023 49.7378 60.5818 53.7304C60.6292 54.2299 60.5305 54.6269 60.2545 55.046M50.5959 48.5418C50.624 48.4973 50.6516 48.4524 50.6789 48.407L50.2501 48.1497L49.878 48.4836C49.9074 48.5164 49.9367 48.5492 49.9658 48.5819C49.775 48.8469 49.5641 49.0943 49.3294 49.329L50.5959 48.5418ZM60.2545 55.046L59.837 54.7709M60.2545 55.046L59.837 54.771C59.837 54.771 59.837 54.771 59.837 54.7709M59.837 54.7709C58.7309 56.4503 57.4362 57.8448 55.8432 59.0721L55.8432 59.0722C55.4673 59.3619 54.9313 59.0381 55.013 58.5703C55.5956 55.2363 54.053 51.6399 50.6223 47.8158L50.1699 47.3116L49.8214 47.8925C49.582 48.2915 49.3048 48.6465 48.9758 48.9754L48.7149 49.2364L48.8873 49.5626C51.75 54.9785 51.8206 59.0151 49.4591 61.8726L49.459 61.8727C49.2121 62.1716 48.962 62.3221 48.5821 62.4003C46.6125 62.8058 44.711 62.8762 42.7167 62.6178M42.7167 62.6178C42.2458 62.5566 42.0961 61.9486 42.4844 61.6758L42.197 61.2666L42.4845 61.6758C45.254 59.7301 46.7062 56.0963 46.9844 50.9665L47.0211 50.2899L46.3637 50.4544C45.9125 50.5673 45.4655 50.6223 45.0002 50.6223H44.6312L44.5224 50.9749C42.717 56.8287 39.9127 59.7329 36.2223 60.0837C35.8362 60.1204 35.5529 60.0499 35.229 59.8367C33.5496 58.7305 32.1552 57.4358 30.9278 55.8429L30.9278 55.8429C30.6381 55.4669 30.9618 54.931 31.4296 55.0127C34.7637 55.5952 38.3601 54.0527 42.1841 50.622L42.6884 50.1696L42.1075 49.8211C41.7085 49.5816 41.3535 49.3045 41.0245 48.9755L40.7636 48.7146L40.4373 48.887C35.0214 51.7497 30.9849 51.8203 28.1273 49.4588L28.1272 49.4587C27.8283 49.2118 27.6779 48.9616 27.5997 48.5818L27.5997 48.5818C27.1942 46.6122 27.1237 44.7107 27.3822 42.7164L42.7167 62.6178ZM39.0251 44.5221C33.1714 42.7167 30.2671 39.9124 29.9164 36.222L27.3822 42.7164C27.4433 42.2455 28.0513 42.0958 28.3242 42.4841L28.3242 42.4841C30.2699 45.2537 33.9036 46.7059 39.0334 46.984L39.7099 47.0207L39.5456 46.3635C39.4327 45.9122 39.3778 45.4652 39.3778 44.9999V44.6309L39.0251 44.5221ZM39.3982 44.9999C39.3982 48.0938 41.9063 50.6019 45.0002 50.6019C48.0941 50.6019 50.6023 48.0938 50.6023 44.9999C50.6023 41.906 48.0941 39.3979 45.0002 39.3979C41.9063 39.3979 39.3982 41.906 39.3982 44.9999Z" stroke="white"/>
</svg>
