<svg width="90" height="90" viewBox="0 0 90 90" fill="none" xmlns="http://www.w3.org/2000/svg">
<path d="M55.1514 59.6894L55.1506 59.689C55.1362 59.6818 55.1207 59.6742 55.1043 59.6661C54.9882 59.6087 54.8272 59.5292 54.709 59.4284C54.6267 59.3583 54.5469 59.2658 54.4917 59.1426C54.4372 59.0212 54.4194 58.8986 54.4194 58.7853C54.4194 58.5651 54.4836 58.2326 54.8223 57.9856C55.1181 57.77 55.5518 57.6766 56.1336 57.6766C56.898 57.6766 57.5523 57.9088 58.0626 58.1771V57.4517C57.9159 57.4078 57.7249 57.3602 57.5042 57.316C57.0532 57.2257 56.5025 57.1548 55.9818 57.1548C54.9781 57.1548 54.3021 57.3648 53.8892 57.6722C53.4973 57.9641 53.2935 58.3789 53.2935 58.9372C53.2935 59.554 53.4382 59.8295 53.5836 59.9883C53.7431 60.1625 53.952 60.2624 54.2855 60.4219C54.3147 60.4358 54.3448 60.4502 54.376 60.4652M55.1514 59.6894L58.5626 57.111C58.3198 56.9585 57.105 56.6548 55.9818 56.6548C53.8564 56.6548 52.7935 57.5378 52.7935 58.9372C52.7935 60.2672 53.3965 60.5535 54.055 60.8661C54.0897 60.8826 54.1246 60.8991 54.1595 60.9159C54.6255 61.1395 55.0101 61.2002 55.3949 61.261C55.5869 61.2913 55.7789 61.3216 55.9811 61.3721C56.5885 61.5246 56.8922 61.7374 56.8922 62.1334C56.8922 62.5294 56.1938 62.7421 55.6774 62.7421C55.0148 62.7421 54.1124 62.391 53.4447 62.0056V62.576M55.1514 59.6894C55.2883 59.7579 55.4441 59.7966 55.5774 59.8243C55.6902 59.8477 55.8202 59.8695 55.9519 59.8915C55.9811 59.8964 56.0103 59.9012 56.0394 59.9062C56.3712 59.9622 56.7596 60.0335 57.1946 60.1742C57.6427 60.3191 57.9591 60.477 58.1695 60.704C58.3645 60.9145 58.5178 61.2392 58.5176 61.8294V61.8296C58.5176 62.438 58.2765 62.8973 57.8508 63.2188C57.4094 63.5522 56.7299 63.7646 55.8293 63.7646C55.3447 63.7646 54.7908 63.6874 54.2919 63.575C53.9544 63.499 53.6618 63.4113 53.4447 63.3298V62.576M55.1514 59.6894L52.9447 62.2864C53.0983 62.3853 53.267 62.483 53.4447 62.576M54.376 60.4652L54.1596 60.9158L54.3758 60.4651C54.3759 60.4651 54.3759 60.4652 54.376 60.4652ZM54.376 60.4652C54.6719 60.6072 54.9289 60.6726 55.194 60.7208C55.2689 60.7344 55.3529 60.7478 55.4427 60.762C55.6462 60.7943 55.8792 60.8313 56.1024 60.887L56.1029 60.8872C56.4268 60.9685 56.7398 61.0809 56.9772 61.2713C57.2443 61.4855 57.3922 61.7797 57.3922 62.1334C57.3922 62.6596 56.9411 62.9317 56.6757 63.0457C56.3648 63.1792 55.9923 63.2421 55.6774 63.2421C55.1571 63.2421 54.5628 63.0701 54.0404 62.8544C53.8365 62.7702 53.6354 62.6759 53.4447 62.576M56.0302 59.3976C55.7377 59.3487 55.5127 59.3111 55.375 59.2422L52.9447 63.6558C53.4611 63.9294 54.7663 64.2646 55.8293 64.2646C57.7726 64.2646 59.0176 63.3515 59.0176 61.8296C59.0182 60.459 58.2897 60.0028 57.3485 59.6984C56.8339 59.5321 56.383 59.4566 56.0302 59.3976Z" stroke="white"/>
<mask id="path-2-inside-1" fill="white">
<path d="M58.8591 57.0317H59.2564V58.1437H59.5268V57.0317H59.9228V56.8052H58.8591V57.0317Z"/>
</mask>
<path d="M58.8591 57.0317H57.8591V58.0317H58.8591V57.0317ZM59.2564 57.0317H60.2564V56.0317H59.2564V57.0317ZM59.2564 58.1437H58.2564V59.1437H59.2564V58.1437ZM59.5268 58.1437V59.1437H60.5268V58.1437H59.5268ZM59.5268 57.0317V56.0317H58.5268V57.0317H59.5268ZM59.9228 57.0317V58.0317H60.9228V57.0317H59.9228ZM59.9228 56.8052H60.9228V55.8052H59.9228V56.8052ZM58.8591 56.8052V55.8052H57.8591V56.8052H58.8591ZM58.8591 58.0317H59.2564V56.0317H58.8591V58.0317ZM58.2564 57.0317V58.1437H60.2564V57.0317H58.2564ZM59.2564 59.1437H59.5268V57.1437H59.2564V59.1437ZM60.5268 58.1437V57.0317H58.5268V58.1437H60.5268ZM59.5268 58.0317H59.9228V56.0317H59.5268V58.0317ZM60.9228 57.0317V56.8052H58.9228V57.0317H60.9228ZM59.9228 55.8052H58.8591V57.8052H59.9228V55.8052ZM57.8591 56.8052V57.0317H59.8591V56.8052H57.8591Z" fill="white" mask="url(#path-2-inside-1)"/>
<path d="M64.282 64.0844H64.306V63.5844V25.9741C64.306 23.0581 61.9424 20.6946 59.0265 20.6946H31.0779C28.162 20.6946 25.7984 23.0581 25.7984 25.9741V63.5844C25.7984 66.5004 28.162 68.8639 31.0779 68.8639H59.0258C61.7731 68.8639 64.0301 66.7658 64.282 64.0844ZM31.2861 18.8892H58.8183C61.1205 18.8892 62.9289 19.6621 64.164 20.9806C65.4029 22.303 66.1107 24.2232 66.1107 26.5972V62.9606C66.1107 65.3347 65.4029 67.2549 64.164 68.5772C62.9289 69.8957 61.1205 70.6687 58.8183 70.6687H31.2861C28.9839 70.6687 27.1755 69.8957 25.9403 68.5772C24.7015 67.2549 23.9937 65.3347 23.9937 62.9606V26.5972C23.9937 24.2232 24.7015 22.303 25.9403 20.9806C27.1755 19.6621 28.9839 18.8892 31.2861 18.8892Z" stroke="white"/>
<mask id="path-5-inside-2" fill="white">
<path d="M60.7413 57.7183L60.4985 56.8052H60.094V58.1437H60.3453V57.0899L60.6104 58.1437H60.8709L61.1367 57.0899V58.1437H61.388V56.8052H60.9829L60.7413 57.7183Z"/>
</mask>
<path d="M60.7413 57.7183L59.7749 57.9753L60.744 61.6189L61.7081 57.974L60.7413 57.7183ZM60.4985 56.8052L61.4649 56.5482L61.2673 55.8052H60.4985V56.8052ZM60.094 56.8052V55.8052H59.094V56.8052H60.094ZM60.094 58.1437H59.094V59.1437H60.094V58.1437ZM60.3453 58.1437V59.1437H61.3453V58.1437H60.3453ZM60.3453 57.0899L61.3151 56.846L59.3453 57.0899H60.3453ZM60.6104 58.1437L59.6406 58.3877L59.8308 59.1437H60.6104V58.1437ZM60.8709 58.1437V59.1437H61.6501L61.8406 58.3882L60.8709 58.1437ZM61.1367 57.0899H62.1367L60.167 56.8454L61.1367 57.0899ZM61.1367 58.1437H60.1367V59.1437H61.1367V58.1437ZM61.388 58.1437V59.1437H62.388V58.1437H61.388ZM61.388 56.8052H62.388V55.8052H61.388V56.8052ZM60.9829 56.8052V55.8052H60.213L60.0161 56.5495L60.9829 56.8052ZM61.7077 57.4613L61.4649 56.5482L59.5321 57.0622L59.7749 57.9753L61.7077 57.4613ZM60.4985 55.8052H60.094V57.8052H60.4985V55.8052ZM59.094 56.8052V58.1437H61.094V56.8052H59.094ZM60.094 59.1437H60.3453V57.1437H60.094V59.1437ZM61.3453 58.1437V57.0899H59.3453V58.1437H61.3453ZM59.3756 57.3339L59.6406 58.3877L61.5802 57.8998L61.3151 56.846L59.3756 57.3339ZM60.6104 59.1437H60.8709V57.1437H60.6104V59.1437ZM61.8406 58.3882L62.1063 57.3344L60.167 56.8454L59.9013 57.8992L61.8406 58.3882ZM60.1367 57.0899V58.1437H62.1367V57.0899H60.1367ZM61.1367 59.1437H61.388V57.1437H61.1367V59.1437ZM62.388 58.1437V56.8052H60.388V58.1437H62.388ZM61.388 55.8052H60.9829V57.8052H61.388V55.8052ZM60.0161 56.5495L59.7746 57.4626L61.7081 57.974L61.9496 57.0609L60.0161 56.5495Z" fill="white" mask="url(#path-5-inside-2)"/>
<path d="M52.7581 28.4344L52.7464 28.4341L52.7346 28.4344C52.0557 28.4501 51.3707 28.6542 50.8536 29.1584C50.3313 29.6676 50.0456 30.419 50.0456 31.396V47.456C50.0456 48.433 50.3313 49.1844 50.8536 49.6936C51.3707 50.1978 52.0557 50.4018 52.7346 50.4176L52.7462 50.4179L52.7579 50.4176C53.4368 50.4018 54.1217 50.1978 54.6389 49.6936C55.1611 49.1844 55.4468 48.433 55.4468 47.456V31.396C55.4468 30.4193 55.1611 29.668 54.6389 29.1589C54.1218 28.6547 53.4369 28.4505 52.7581 28.4344ZM57.3013 27.1606L57.3014 27.1607C58.1253 27.9593 58.941 29.5837 58.941 32.0656V46.787C58.941 49.2688 58.1253 50.8927 57.3013 51.692C56.8653 52.1148 56.4527 52.4415 55.8196 52.6761C55.1733 52.9157 54.2632 53.0712 52.821 53.0812H52.6714C51.2293 53.0712 50.3192 52.9157 49.6728 52.6761C49.0397 52.4415 48.6271 52.1147 48.1911 51.6919L48.191 51.6919C47.3672 50.8933 46.5515 49.2689 46.5515 46.787V32.0656C46.5515 29.5839 47.3671 27.9601 48.1911 27.1607C48.6279 26.7371 49.0408 26.4081 49.6741 26.1714C50.3202 25.9299 51.2299 25.7723 52.6714 25.7622H52.8211C54.2629 25.7723 55.1727 25.9299 55.8188 26.1714C56.4521 26.4081 56.8648 26.737 57.3013 27.1606Z" stroke="white"/>
<path d="M48.2757 63.2301L48.3162 63.2334L48.3568 63.2301C48.8549 63.1896 49.2912 63.0236 49.5868 62.6533C49.8707 62.2978 49.9545 61.8395 49.9545 61.3716V57.3062H51.0805V61.3716C51.0805 62.2118 50.8652 62.7508 50.4981 63.1C50.1228 63.4571 49.5053 63.6964 48.5303 63.751H48.1023C47.1272 63.6961 46.5097 63.4568 46.1343 63.0997C45.7673 62.7506 45.552 62.2118 45.552 61.3716V57.3062H46.6773V61.3716C46.6773 61.8397 46.7613 62.298 47.0455 62.6535C47.3413 63.0236 47.7776 63.1896 48.2757 63.2301Z" stroke="white"/>
<path d="M33.3179 60.1542V60.6542H33.8179H34.2735C34.7151 60.6542 35.171 60.6259 35.5039 60.3844C35.8867 60.1069 35.9688 59.6674 35.9847 59.2606L35.9855 59.2411L35.9847 59.2215C35.9688 58.8152 35.8869 58.3758 35.5044 58.0981C35.1715 57.8565 34.7155 57.828 34.2735 57.828H33.8179H33.3179V58.328V60.1542ZM33.8179 61.176H33.3179V61.676V63.6109H32.1926V57.3062H34.8803C35.6289 57.3062 36.194 57.4836 36.5592 57.7609C36.9082 58.0258 37.113 58.4086 37.113 58.9367C37.113 59.7036 36.9312 60.2454 36.6079 60.5944C36.2911 60.9363 35.7614 61.176 34.8803 61.176H33.8179Z" stroke="white"/>
<path d="M37.0472 40.1489L37.0331 40.1485L37.019 40.1489C36.4666 40.1645 35.979 40.3032 35.5661 40.5766C35.1543 40.8493 34.8486 41.235 34.6255 41.6948C34.1887 42.595 34.0432 43.8334 34.0432 45.2711C34.0432 46.8656 34.2488 48.1041 34.7248 48.9656C34.9675 49.4049 35.2842 49.7528 35.6821 49.9922C36.0794 50.2314 36.5304 50.346 37.0175 50.3606L37.0324 50.361L37.0474 50.3606C37.5346 50.346 37.9857 50.2314 38.3832 49.9923C38.7811 49.7528 39.0979 49.405 39.3407 48.9656C39.8167 48.1041 40.0224 46.8656 40.0224 45.2711C40.0224 43.8334 39.8769 42.595 39.4402 41.6948C39.2171 41.235 38.9115 40.8493 38.4998 40.5766C38.087 40.3032 37.5994 40.1645 37.0472 40.1489ZM37.0454 28.4651L37.0331 28.4648L37.0209 28.4651C36.6433 28.4744 36.273 28.5355 35.9351 28.6976C35.5898 28.8632 35.3062 29.121 35.0881 29.4779C34.6696 30.1626 34.4988 31.2033 34.4988 32.6743C34.4988 34.0396 34.6273 35.1118 35.0044 35.86C35.1996 36.2471 35.4664 36.5585 35.8212 36.7727C36.1734 36.9853 36.5781 37.0815 37.0179 37.0948L37.0331 37.0953L37.0483 37.0948C37.4882 37.0815 37.8928 36.9853 38.245 36.7727C38.5998 36.5585 38.8667 36.2471 39.0618 35.86C39.4389 35.1118 39.5674 34.0396 39.5674 32.6743C39.5674 31.2033 39.3964 30.1626 38.9779 29.4779C38.7597 29.121 38.4761 28.8632 38.1308 28.6976C37.793 28.5355 37.4228 28.4744 37.0454 28.4651ZM40.5123 38.1552L40.0526 38.5975L40.5919 38.9382C40.6518 38.9761 40.7149 39.0141 40.7807 39.0536C41.1963 39.3037 41.7153 39.616 42.187 40.3555C42.7374 41.2182 43.2435 42.7114 43.2435 45.423C43.2435 48.099 42.6984 49.9868 41.6979 51.2084C40.7127 52.4113 39.2178 53.0494 37.1201 53.0839H36.9363C34.8386 53.0497 33.3463 52.4119 32.3634 51.2093C31.365 49.9878 30.822 48.0998 30.822 45.423C30.822 42.7113 31.328 41.218 31.8783 40.3552C32.3505 39.6149 32.8702 39.3026 33.286 39.0528C33.3512 39.0136 33.4138 38.976 33.4733 38.9385L34.0134 38.5979L33.5533 38.1552C33.4762 38.0811 33.3944 38.006 33.3091 37.9277C32.9366 37.586 32.4979 37.1835 32.1041 36.5362C31.629 35.7552 31.2167 34.5993 31.2167 32.7948C31.2167 30.7339 31.5756 28.9951 32.4469 27.772C33.2962 26.5799 34.6876 25.8019 36.9458 25.7622H37.1198C39.378 25.8016 40.7693 26.5796 41.6186 27.7717C42.49 28.9949 42.8488 30.7339 42.8488 32.7948C42.8488 34.5997 42.4365 35.7555 41.9615 36.5364C41.5678 37.1835 41.1292 37.5858 40.7568 37.9275C40.6713 38.0058 40.5894 38.081 40.5123 38.1552Z" stroke="white"/>
<path d="M40.4532 62.4377V62.9377H40.9532H43.6415V63.6114H39.3279V57.3066H40.4532V62.4377Z" stroke="white"/>
<circle cx="45" cy="45" r="44" stroke="white" stroke-width="2"/>
</svg>
