<svg width="131" height="131" viewBox="0 0 131 131" fill="none" xmlns="http://www.w3.org/2000/svg">
    <g filter="url(#filter0_d)">
        <circle cx="65.5" cy="65.5" r="56.7812" stroke="#DF4835" stroke-width="1.4375"/>
        <path fill-rule="evenodd" clip-rule="evenodd" d="M97.694 65.4999C97.694 83.2802 83.2803 97.6939 65.5 97.6939C47.7197 97.6939 33.306 83.2802 33.306 65.4999C33.306 47.7197 47.7197 33.3059 65.5 33.3059C83.2803 33.3059 97.694 47.7197 97.694 65.4999ZM101.438 65.4999C101.438 85.3477 85.3477 101.437 65.5 101.437C45.6523 101.437 29.5625 85.3477 29.5625 65.4999C29.5625 45.6522 45.6523 29.5624 65.5 29.5624C85.3477 29.5624 101.438 45.6522 101.438 65.4999ZM65.1314 40.3346C58.4571 40.3346 52.0562 42.986 47.3368 47.7054C42.6174 52.4248 39.9661 58.8257 39.9661 65.4999C39.9661 66.4718 40.754 67.2597 41.7259 67.2597C42.6978 67.2597 43.4857 66.4718 43.4857 65.4999C43.4857 59.7591 45.7662 54.2535 49.8256 50.1941C53.8849 46.1348 59.3906 43.8543 65.1314 43.8543C68.8641 43.8543 72.4974 44.8184 75.6986 46.6089C76.5468 47.0833 77.6191 46.7803 78.0935 45.9321C78.568 45.0838 78.265 44.0116 77.4167 43.5371C73.6954 41.4556 69.4712 40.3346 65.1314 40.3346ZM87.7181 54.4034C87.2895 53.5311 86.235 53.1713 85.3626 53.5999C84.4903 54.0284 84.1305 55.083 84.5591 55.9553C86.0048 58.8982 86.777 62.1592 86.777 65.4999C86.777 66.4718 87.5649 67.2597 88.5368 67.2597C89.5087 67.2597 90.2966 66.4718 90.2966 65.4999C90.2966 61.616 89.3987 57.8246 87.7181 54.4034ZM86.8913 43.7399C87.611 44.4596 87.611 45.6265 86.8913 46.3462L71.5669 61.6706C72.278 62.8409 72.6875 64.2147 72.6875 65.6842C72.6875 69.9591 69.222 73.4246 64.9471 73.4246C60.6722 73.4246 57.2067 69.9591 57.2067 65.6842C57.2067 61.4093 60.6722 57.9438 64.9471 57.9438C66.4165 57.9438 67.7903 58.3533 68.9605 59.0643L84.2849 43.7399C85.0047 43.0201 86.1716 43.0201 86.8913 43.7399ZM69.0016 65.6842C69.0016 67.9234 67.1863 69.7387 64.9471 69.7387C62.7078 69.7387 60.8926 67.9234 60.8926 65.6842C60.8926 63.445 62.7078 61.6297 64.9471 61.6297C67.1863 61.6297 69.0016 63.445 69.0016 65.6842Z" fill="#DF4835"/>
    </g>
    <defs>
        <filter id="filter0_d" x="0.8125" y="0.8125" width="129.375" height="129.375" filterUnits="userSpaceOnUse" color-interpolation-filters="sRGB">
            <feFlood flood-opacity="0" result="BackgroundImageFix"/>
            <feColorMatrix in="SourceAlpha" type="matrix" values="0 0 0 0 0 0 0 0 0 0 0 0 0 0 0 0 0 0 127 0"/>
            <feOffset/>
            <feGaussianBlur stdDeviation="3.59375"/>
            <feColorMatrix type="matrix" values="0 0 0 0 0.87451 0 0 0 0 0.282353 0 0 0 0 0.207843 0 0 0 1 0"/>
            <feBlend mode="normal" in2="BackgroundImageFix" result="effect1_dropShadow"/>
            <feBlend mode="normal" in="SourceGraphic" in2="effect1_dropShadow" result="shape"/>
        </filter>
    </defs>
</svg>