<svg width="90" height="90" viewBox="0 0 90 90" fill="none" xmlns="http://www.w3.org/2000/svg">
<circle cx="45" cy="45" r="44" stroke="white" stroke-width="2"/>
<path fill-rule="evenodd" clip-rule="evenodd" d="M28 23C28 23.4778 28.1304 23.9617 28.4682 24.2996L30.7242 26.5556C32.7928 28.6242 36.0284 28.7979 38.7632 27.759C40.9698 26.9209 43.3631 26.462 45.8636 26.462C48.5966 26.462 51.2016 27.0102 53.5745 28.0026C56.3599 29.1675 59.7247 29.0622 61.8646 26.9322L64.5394 24.2698C64.8706 23.9401 65 23.4673 65 23C65 20.7909 66.7909 19 69 19C71.2091 19 73 20.7909 73 23C73 25.2091 71.2091 27 69 27C68.5117 27 68.0165 27.1312 67.6704 27.4757L65.1956 29.9391C63.0048 32.1198 62.9328 35.5839 64.178 38.4131C65.2619 40.8758 65.8636 43.5986 65.8636 46.462C65.8636 48.9625 65.4047 51.3558 64.5666 53.5624C63.5278 56.2972 63.7014 59.5328 65.7701 61.6014L67.7004 63.5318C68.0383 63.8696 68.5222 64 69 64C71.2091 64 73 65.7909 73 68C73 70.2091 71.2091 72 69 72C66.7909 72 65 70.2091 65 68C65 67.5222 64.8696 67.0381 64.5317 66.7002L62.9626 65.1311C60.8513 63.0198 57.4813 63.0158 54.8118 64.3535C52.1194 65.7027 49.0802 66.462 45.8636 66.462C42.6502 66.462 39.6138 65.7042 36.9234 64.3575C34.6118 63.2004 31.7159 63.2641 29.8838 65.0878L28.5561 66.4093C28.1432 66.8203 28 67.4175 28 68C28 70.2091 26.2091 72 24 72C21.7909 72 20 70.2091 20 68C20 65.7909 21.7909 64 24 64C24.3679 64 24.7359 63.8893 24.9967 63.6298L26.5471 62.0866C28.5227 60.1201 28.6429 57.0148 27.5271 54.4604C26.4571 52.011 25.8636 49.3058 25.8636 46.462C25.8636 43.3504 26.5742 40.4048 27.8419 37.7785C29.2119 34.9405 29.2143 31.3827 26.9859 29.1544L25.2998 27.4683C24.9619 27.1304 24.4778 27 24 27C21.7909 27 20 25.2091 20 23C20 20.7909 21.7909 19 24 19C26.2091 19 28 20.7909 28 23ZM46 60C53.732 60 60 53.732 60 46C60 38.268 53.732 32 46 32C38.268 32 32 38.268 32 46C32 53.732 38.268 60 46 60ZM26 68C26 69.1046 25.1046 70 24 70C22.8954 70 22 69.1046 22 68C22 66.8954 22.8954 66 24 66C25.1046 66 26 66.8954 26 68ZM24 25C25.1046 25 26 24.1046 26 23C26 21.8954 25.1046 21 24 21C22.8954 21 22 21.8954 22 23C22 24.1046 22.8954 25 24 25ZM71 23C71 24.1046 70.1046 25 69 25C67.8954 25 67 24.1046 67 23C67 21.8954 67.8954 21 69 21C70.1046 21 71 21.8954 71 23ZM69 70C70.1046 70 71 69.1046 71 68C71 66.8954 70.1046 66 69 66C67.8954 66 67 66.8954 67 68C67 69.1046 67.8954 70 69 70Z" fill="white"/>
</svg>
