<svg width="90" height="90" viewBox="0 0 90 90" fill="none" xmlns="http://www.w3.org/2000/svg">
<circle cx="45" cy="45" r="44" stroke="white" stroke-width="2"/>
<path d="M65.9184 20C51.9728 20 38.0272 20 24.0816 20C21.8275 20 20 21.8275 20 24.0816C20 38.0272 20 51.9727 20 65.9184C20 68.1726 21.8275 70 24.0816 70C38.0272 70 51.9727 70 65.9184 70C68.1726 70 70 68.1726 70 65.9184C70 51.9728 70 38.0273 70 24.0816C70 21.8275 68.1726 20 65.9184 20ZM24.0816 23.0612C24.6452 23.0612 25.102 23.5181 25.102 24.0816C25.102 24.6452 24.6452 25.102 24.0816 25.102C23.5181 25.102 23.0612 24.6452 23.0612 24.0816C23.0612 23.5181 23.5181 23.0612 24.0816 23.0612ZM24.0816 66.9388C23.5181 66.9388 23.0612 66.4819 23.0612 65.9184C23.0612 65.3548 23.5181 64.898 24.0816 64.898C24.6452 64.898 25.102 65.3548 25.102 65.9184C25.102 66.4819 24.6452 66.9388 24.0816 66.9388ZM45 65.3061C33.7852 65.3061 24.6939 56.2148 24.6939 45C24.6939 33.7852 33.7852 24.6939 45 24.6939C56.2148 24.6939 65.3061 33.7852 65.3061 45C65.3061 56.2148 56.2148 65.3061 45 65.3061ZM65.9184 66.9388C65.3548 66.9388 64.898 66.4819 64.898 65.9184C64.898 65.3548 65.3548 64.898 65.9184 64.898C66.4819 64.898 66.9388 65.3548 66.9388 65.9184C66.9388 66.4819 66.4819 66.9388 65.9184 66.9388ZM65.9184 25.102C65.3548 25.102 64.898 24.6452 64.898 24.0816C64.898 23.5181 65.3548 23.0612 65.9184 23.0612C66.4819 23.0612 66.9388 23.5181 66.9388 24.0816C66.9388 24.6452 66.4819 25.102 65.9184 25.102Z" fill="white"/>
<path d="M62.8903 41.3175C62.7892 40.826 62.5783 40.4754 62.1915 40.1559C59.1 37.601 54.8126 37.7727 49.3293 40.671C48.9715 40.3131 48.5841 40.0107 48.1501 39.7502C51.9292 36.3598 55.3742 34.9364 58.4846 35.4799C59.4017 35.6401 60.0367 34.5893 59.4685 33.8519C58.2073 32.2151 56.772 30.8824 55.0463 29.7458C54.6272 29.4698 54.2302 29.3711 53.7307 29.4186C49.7381 29.7981 46.8279 32.9511 45.0001 38.8778C44.4939 38.8778 44.0062 38.9377 43.5152 39.0605C43.7901 33.9909 45.2194 30.5485 47.8032 28.7333C48.565 28.1982 48.271 27.0061 47.3479 26.8863C45.2986 26.6207 43.3413 26.6933 41.3174 27.1099C40.826 27.2111 40.4753 27.422 40.1558 27.8088C37.6009 30.9003 37.7726 35.1876 40.6709 40.671C40.3131 41.0288 40.0106 41.4162 39.7501 41.8502C36.3597 38.0711 34.9363 34.6261 35.4798 31.5157C35.64 30.5986 34.5892 29.9635 33.8519 30.5317C32.215 31.7929 30.8823 33.2282 29.7457 34.9539C29.4698 35.373 29.3711 35.77 29.4185 36.2695C29.798 40.2621 32.951 43.1723 38.8777 45.0001C38.8777 45.5063 38.9376 45.994 39.0604 46.485C33.9908 46.2101 30.5484 44.7808 28.7332 42.1969C28.1981 41.4352 27.006 41.7292 26.8863 42.6523C26.6206 44.7016 26.6932 46.6589 27.1099 48.6828C27.211 49.1742 27.4219 49.5249 27.8087 49.8444C30.9002 52.3993 35.1876 52.2276 40.6709 49.3293C41.0287 49.6871 41.4161 49.9896 41.8501 50.2501C38.071 53.6405 34.626 55.0639 31.5156 54.5204C30.5985 54.3602 29.9635 55.411 30.5317 56.1483C31.7929 57.7852 33.2282 59.1179 34.9539 60.2545C35.373 60.5304 35.77 60.6291 36.2695 60.5817C40.2621 60.2022 43.1723 57.0492 45.0001 51.1225C45.5063 51.1225 45.994 51.0626 46.485 50.9397C46.2101 56.0093 44.7808 59.4517 42.197 61.2669C41.4352 61.802 41.7292 62.9941 42.6523 63.1139C44.7016 63.3795 46.6589 63.3069 48.6828 62.8902C49.1742 62.7891 49.5249 62.5782 49.8444 62.1914C52.3993 59.0999 52.2276 54.8126 49.3293 49.3292C49.6872 48.9714 49.9896 48.584 50.2501 48.15C53.6405 51.9291 55.0639 55.3741 54.5204 58.4845C54.3602 59.4016 55.411 60.0367 56.1483 59.4684C57.7852 58.2072 59.1179 56.7719 60.2545 55.0462C60.5305 54.6271 60.6291 54.2301 60.5817 53.7306C60.2022 49.738 57.0492 46.8278 51.1225 45C51.1225 44.4938 51.0626 44.0061 50.9398 43.5151C56.0094 43.79 59.4518 45.2193 61.267 47.8032C61.8021 48.5649 62.9942 48.2709 63.1139 47.3478C63.3796 45.2986 63.307 43.3415 62.8903 41.3175ZM45.0001 50.1022C42.1824 50.1022 39.8981 47.8179 39.8981 45.0001C39.8981 42.1824 42.1824 39.8981 45.0001 39.8981C47.8179 39.8981 50.1022 42.1824 50.1022 45.0001C50.1022 47.8179 47.8179 50.1022 45.0001 50.1022Z" fill="white"/>
</svg>
