<svg width="54" height="54" viewBox="0 0 54 54" fill="none" xmlns="http://www.w3.org/2000/svg">
<path d="M31.1318 15.8118C27.0118 18.7975 25.4443 20.7892 24.8708 21.7268C24.9819 21.7268 25.0911 21.7377 25.2022 21.7377C27.3159 21.7377 29.0145 20.5179 30.1323 19.6878L30.6785 19.2818C31.0954 18.9777 31.2629 17.3538 31.1318 15.8118Z" fill="#EA1C24"/>
<path d="M1.63846 1.63846L0.844717 27.2804L0 0H51.2419C46.3375 1.24705 40.4153 2.75079 36.6341 3.7721C20.2077 7.9975 13.4281 20.7975 13.0312 21.8461C12.7363 22.618 12.8492 22.771 13.1805 23.0986L15.2941 23.237C16.5716 23.3297 17.8516 23.0954 19.0134 22.5561C20.3849 21.9068 21.7199 20.2817 23.0185 17.6808C23.146 19.1117 23.1963 19.8672 23.1696 19.9473L28.1633 15.1794L28.1888 16.0405L38.3491 7.42222L31.6132 15.1558C31.6259 15.2541 31.6387 15.3742 31.6532 15.5199C31.7366 16.2071 31.7628 16.9 31.7315 17.5916L38.4346 14.8736L32.1957 19.0608C40.601 18.0103 46.4394 17.6826 54 17.5843V32.3086C53.4247 31.2381 51.7171 29.099 51.2692 28.6148C50.9707 28.3089 50.6776 27.9867 50.3499 27.69C49.6896 27.066 48.9857 26.4898 48.2435 25.966C47.8576 25.7111 47.4844 25.4362 47.0766 25.2104L46.8108 25.0557L46.474 24.8573L45.8532 24.5496C45.4454 24.3275 45.0121 24.16 44.5898 23.9743C44.3822 23.8778 44.162 23.8068 43.949 23.7285L43.665 23.6266L43.3009 23.4973C42.8676 23.3644 42.4361 23.2461 42.0138 23.1332L41.4494 23.0094L40.743 22.8565L40.1969 22.7728L39.5106 22.6672C39.1046 22.6235 38.7077 22.5944 38.3236 22.558L38.1961 22.5452L38.0359 22.5306H36.6687C36.4867 22.5306 36.3228 22.5306 36.1553 22.5416L35.7221 22.5561L35.1959 22.5743C34.8919 22.5743 34.6043 22.6217 34.3348 22.6417L33.9889 22.6726L33.5812 22.7109C33.3481 22.7291 33.1369 22.771 32.944 22.7964L32.3341 22.8856L31.7406 22.973H32.1921L32.9531 22.9603H33.5902L33.907 22.9712L34.3403 22.9894C34.6043 23.0022 34.8865 23.0094 35.1905 23.0313L35.5928 23.0695L36.128 23.1223L36.625 23.1769L36.849 23.2133L37.1384 23.2589L37.3696 23.2953L37.6682 23.3426L37.7865 23.3626L37.9376 23.3863L38.056 23.4118L38.2089 23.4445C38.573 23.5283 38.9371 23.6047 39.323 23.6958L39.82 23.8396L40.4645 24.0216L40.967 24.2037L41.6132 24.4367C41.9919 24.6006 42.3742 24.7626 42.7529 24.9337L42.9968 25.0593L43.31 25.2214C43.4973 25.3108 43.6797 25.4105 43.8561 25.5199C44.2202 25.7402 44.5843 25.9368 44.9229 26.1862L45.44 26.5394L45.9315 26.9235C46.2665 27.1675 46.5632 27.4569 46.8727 27.7209C47.4565 28.2616 48.001 28.8432 48.5021 29.4613C48.7515 29.7526 48.9681 30.0676 49.1902 30.3716C49.2976 30.5227 49.3978 30.6774 49.4979 30.8267C49.598 30.976 49.6981 31.1235 49.7873 31.2764C50.1357 31.8368 50.4529 32.416 50.7376 33.0113C52.0518 35.679 53.1429 38.4507 54 41.2983V53.9982L45.5983 53.7378C46.7289 50.8123 46.9819 48.3455 47.1895 46.6579C47.6045 44.0746 47.1349 39.6052 45.5983 36.2391C42.5035 30.2569 37.9686 28.9079 31.493 28.6913C30.0366 28.6439 22.2266 29.0353 16.6977 36.8198C15.3524 38.715 14.3802 39.7745 15.731 42.9895C9.28157 38.9504 7.85308 32.7886 11.4456 24.5041C11.6846 23.9456 11.7597 23.3305 11.6622 22.7309C11.6145 22.4327 11.6478 22.1271 11.7587 21.8461C15.6273 12.2065 22.8765 6.93251 27.4296 4.00512C28.4989 3.33309 29.6071 2.72518 30.7484 2.18461L1.63846 1.63846ZM30.7066 19.2246C31.1671 18.835 31.1835 16.9635 31.1107 15.8912C27.0783 18.8168 25.4817 20.772 24.921 21.6914C25.0302 21.6914 25.1394 21.6914 25.2487 21.6914C27.3368 21.6914 29.0062 20.4625 30.1094 19.6488C30.3279 19.4886 30.5336 19.3411 30.7157 19.2155L30.7066 19.2246Z" fill="white"/>
<path d="M41.612 34.6262C44.7834 38.7189 45.5681 43.6951 43.966 49.5549C43.62 50.8767 43.1613 52.6954 42.9209 53.6585L27.2932 53.1742L40.0517 52.7682C41.0421 50.7783 45.0984 41.8448 41.612 34.6262Z" fill="white"/>
</svg>
